<svg id="Image" xmlns="http://www.w3.org/2000/svg" viewBox="0 0 24 24">
  <g id="g831">
    <path id="path826" d="M5.9,10.977l-.641.379A.519.519,0,0,0,5,11.8v7.555a.517.517,0,0,0,.258.445l6.966,4.122a.533.533,0,0,0,.545,0l.783-.464c-.012-.2-.033-.4-.033-.6s.021-.4.033-.605l-.528.312v-6.4l5.958-3.45v2A10.158,10.158,0,0,1,20,14.121V12.708a5.187,5.187,0,0,0-.04-1.1.79.79,0,0,0-.4-.418l-.442-.233-1.754.016,1.25.741-6.194,3.589-5.9-3.489,1.422-.841Zm.154,1.777,5.919,3.5v6.311l-5.919-3.5Z" class="aw-theme-iconOutline" fill="#464646"/>
    <path id="rect836" d="M12.742,23.939l7-4.105a.528.528,0,0,0,.163-.74.541.541,0,0,0-.738-.162L12.742,22.7Z" class="aw-theme-iconOutline" fill="#464646"/>
    <path id="rect838-9" d="M18.976,13.847h1.016v5.509H18.976Z" class="aw-theme-iconOutline" fill="#464646"/>
    <path id="rect856" d="M8.5,9h8a.5.5,0,0,1,0,1h-8a.5.5,0,0,1,0-1Z" class="aw-theme-iconOutline" fill="#464646"/>
    <path id="rect856-9" d="M9.5,7h4.125a.5.5,0,0,1,0,1H9.5a.5.5,0,0,1,0-1Z" class="aw-theme-iconOutline" fill="#464646"/>
    <path id="rect856-8" d="M13.229,7.209l.4-1.1a.5.5,0,0,1,.64-.3c.261.094.445.073.355.335L14.1,7.674c-.089.262-.309.269-.569.175A.5.5,0,0,1,13.229,7.209Z" class="aw-theme-iconOutline" fill="#464646"/>
    <path id="rect881" d="M9,0V3H19V0Zm1,1h8V2H10Z" class="aw-theme-iconOutline" fill="#464646"/>
    <path id="path886" d="M16,3H12l1.115,2.207.5.953.994-.008.491-.963Zm-1.055.7-.59,1.6h-.41l-.7-1.6Z" class="aw-theme-iconOutline" fill="#464646"/>
  </g>
</svg>
