<svg id="Layer_1" data-name="Layer 1" xmlns="http://www.w3.org/2000/svg" viewBox="0 0 24 24">
  <g id="g857">
    <path id="path883" d="M4.367.016a2.261,2.261,0,0,0-2.25,2.255c0,.016,0,.032,0,.047L3.537,17.734a1.243,1.243,0,0,1-1.248,1.252.5.5,0,0,0,0,1h8.158v-1H4.018a2.173,2.173,0,0,0,.521-1.256c0-.015,0-.031,0-.046L3.119,2.268A1.245,1.245,0,0,1,4.367,1.016a1.216,1.216,0,0,1,.983.4,1.393,1.393,0,0,1,.326.916,1.4,1.4,0,0,1-.326.918,1.219,1.219,0,0,1-.983.4.5.5,0,0,0,0,1H15.48l.545,5.334,1-.1L16.43,4.1a.5.5,0,0,0-.5-.45H6.193a2.406,2.406,0,0,0,.483-1.316A2.374,2.374,0,0,0,6.1.752,2.276,2.276,0,0,0,4.367.016Z" class="aw-theme-iconOutline" fill="#464646"/>
    <path id="path21" d="M4.367,0a.517.517,0,0,0,0,1.033,1.2,1.2,0,0,1,.971.393,1.379,1.379,0,0,1,.322.906,1.379,1.379,0,0,1-.322.906,1.2,1.2,0,0,1-.971.393.518.518,0,0,0,0,1.035H15.953A2.3,2.3,0,0,0,17.7,3.924a2.382,2.382,0,0,0,.582-1.59A2.387,2.387,0,0,0,17.7.742,2.3,2.3,0,0,0,15.953,0ZM6.219,1.033h9.734a1.2,1.2,0,0,1,.971.4,1.379,1.379,0,0,1,.322.906,1.374,1.374,0,0,1-.322.9,1.2,1.2,0,0,1-.971.393H6.219a2.438,2.438,0,0,0,.476-1.3A2.438,2.438,0,0,0,6.219,1.033Z" class="aw-theme-iconOutline" fill="#464646"/>
    <path id="path31" d="M1.434,15.334a.513.513,0,0,0-.3.1A2.77,2.77,0,0,0,0,17.668,2.339,2.339,0,0,0,2.328,20h.01a2.276,2.276,0,0,0,2.219-2.27c0-.015,0-.031,0-.046L4.381,15.8a.517.517,0,0,0-.514-.469Zm.255,1.033H3.4l.126,1.367a1.225,1.225,0,0,1-1.2,1.231,1.291,1.291,0,0,1-1.289-1.3A1.722,1.722,0,0,1,1.689,16.367Z" class="aw-theme-iconOutline" fill="#464646"/>
    <path id="line23" d="M5.855,14.543v1h4.788v-1Z" class="aw-theme-iconOutline" fill="#464646"/>
    <path id="line25" d="M5.453,12.121v1h6.313v-1Z" class="aw-theme-iconOutline" fill="#464646"/>
    <path id="line27" d="M5.051,9.7v1H13.5v-1Z" class="aw-theme-iconOutline" fill="#464646"/>
    <path id="line29" d="M4.648,7.279v1H9.477v-1Z" class="aw-theme-iconOutline" fill="#464646"/>
    <path id="path2" d="M17.5,24A6.5,6.5,0,1,1,24,17.5h0A6.487,6.487,0,0,1,17.526,24Zm0-12A5.5,5.5,0,1,0,23,17.5h0A5.55,5.55,0,0,0,17.5,12Z" class="aw-theme-iconOutline" fill="#464646"/>
    <path id="path4" d="M20.018,17.141l-2,2.044.026-5.8-1.089-.011v5.767l-1.921-2-.678.65L17,20.619c.1.1.319.322.519.322A.774.774,0,0,0,18,20.674l2.718-2.884Z" class="aw-theme-iconOutline" fill="#464646"/>
  </g>
</svg>
