<svg id="Layer_1" data-name="Layer 1" xmlns="http://www.w3.org/2000/svg" viewBox="0 0 24 24">
  <g id="g824">
    <path id="path852" d="M9.153,23.922c-.156-.031-.309-.177-.309-.294s1.335-4.088,1.433-4.234c.041-.064,2.316-2.284,5.044-4.933,3.723-3.619,5.029-4.849,5.228-4.942a1.433,1.433,0,0,1,.51-.126c.509,0,.646.083,1.616,1A12.885,12.885,0,0,1,23.7,11.434a1.368,1.368,0,0,1-.014,1.418c-.068.09-2.327,2.3-5.019,4.909l-4.9,4.741-2.111.7c-2.155.715-2.309.762-2.5.721Zm2.15-1.394c.667-.206,1.234-.391,1.258-.412a17.1,17.1,0,0,0-1.691-1.682,11.385,11.385,0,0,0-.423,1.164c-.213.639-.4,1.2-.411,1.233s-.009.07.013.07.587-.167,1.254-.372Zm6.143-4.741,4.013-3.882-1.051-1.021a12.819,12.819,0,0,0-1.1-1.007c-.075.021-7.986,7.683-7.991,7.739s2.016,2.047,2.079,2.051c.025,0,1.847-1.745,4.053-3.879ZM22.959,12.4c.163-.288.11-.373-.758-1.225a8.338,8.338,0,0,0-.957-.855c-.214-.068-.353.011-.847.475l-.478.447,1.065,1.031,1.065,1.03.422-.392a4.27,4.27,0,0,0,.485-.512Z" class="aw-theme-iconOutline" fill="#464646"/>
    <path id="path816" d="M7.605.032a2.372,2.372,0,0,0-.658.033,1.3,1.3,0,0,0-.927.987A2.893,2.893,0,0,0,6,1.514l-.006.327-.158.08c-.053.022.161.151,1.809.15l1.89-.141-.152-.072a.868.868,0,0,0-.127-.053,1.333,1.333,0,0,1-.023-.373,1.265,1.265,0,0,0-.346-1,1.254,1.254,0,0,0-.41-.294C8.253.036,8.205.031,7.605.032Zm.008.99c.439,0,.473,0,.52.032.092.056.105.094.111.318l.006.2-.037-.012a5.262,5.262,0,0,0-.879-.025c-.155.009-.3.02-.318.025-.035.01-.034.009-.034-.175,0-.212.019-.269.108-.329C7.142,1.024,7.15,1.022,7.613,1.022ZM9.5,1.913,7.65,1.94,5.832,1.921l-.273.136A4.6,4.6,0,0,0,3.09,5.231,8.253,8.253,0,0,0,3,7.186,8.15,8.15,0,0,1,2.9,9.2a4.271,4.271,0,0,1-.846,1.787c-.07.086-.235.269-.365.406A5.862,5.862,0,0,0,.289,13.675,5.5,5.5,0,0,0,0,15.511l-.01.511H5.244l.012.106a2.38,2.38,0,0,0,.555,1.326,2.35,2.35,0,0,0,1.693.807v0a4,4,0,0,0,.515-.028,2.323,2.323,0,0,0,1.69-1.217,2.585,2.585,0,0,0,.266-.92l.007-.074.088,0,.088-.006.022-.093c.011-.052.039-.2.06-.334a3.507,3.507,0,0,1,.092-.4l.053-.162H1v-.041a4.808,4.808,0,0,1,.172-.871,5.058,5.058,0,0,1,1.269-2.1,5.482,5.482,0,0,0,.575-.677A5.182,5.182,0,0,0,3.9,9.225,9.87,9.87,0,0,0,3.98,7.241a15.966,15.966,0,0,1,.039-1.648,3.6,3.6,0,0,1,1.969-2.7,3.9,3.9,0,0,1,1.2-.349,5.087,5.087,0,0,1,.9.008A3.577,3.577,0,0,1,11.143,5.28a8.21,8.21,0,0,1,.1,2.211c.007,1.106.018,1.769.029,1.875a3.136,3.136,0,0,0,.668,1.764,5.2,5.2,0,0,0,.428.468.873.873,0,0,0,.158-.119,2.509,2.509,0,0,1,.481-.33.436.436,0,0,0,.132-.09,1.212,1.212,0,0,0-.14-.175,2.416,2.416,0,0,1-.717-1.409l-.033-.226c0-.035-.015-.84-.022-1.789a9.271,9.271,0,0,0-.1-2.256,4.3,4.3,0,0,0-.383-1.08,4.833,4.833,0,0,0-2.07-2.117ZM6.236,16.022H8.98v.045a1.347,1.347,0,0,1-.138.447,1.376,1.376,0,0,1-.83.706,1.031,1.031,0,0,1-.36.046,1.168,1.168,0,0,1-.683-.15,1.4,1.4,0,0,1-.719-1Z" class="aw-theme-iconOutline" fill="#464646"/>
  </g>
</svg>
