<svg id="Layer_1" data-name="Layer 1" xmlns="http://www.w3.org/2000/svg" viewBox="0 0 24 24">
  <g id="g833">
    <path id="path2-2" d="M17.5,24a6.487,6.487,0,1,1,.026,0Zm0-12A5.5,5.5,0,1,0,23,17.5,5.5,5.5,0,0,0,17.5,12Z" class="aw-theme-iconOutline" fill="#464646"/>
    <path id="polygon2" d="M10,21H0V0H21V10H20V1H1V20h9Z" class="aw-theme-iconOutline" fill="#464646"/>
    <path id="path8" d="M11.5,11h-8A1.5,1.5,0,0,1,2,9.5v-1A1.5,1.5,0,0,1,3.5,7h8A1.5,1.5,0,0,1,13,8.5v1A1.5,1.5,0,0,1,11.5,11Zm-8-3a.5.5,0,0,0-.5.5v1a.5.5,0,0,0,.5.5h8a.5.5,0,0,0,.5-.5v-1a.5.5,0,0,0-.5-.5Z" class="aw-theme-iconOutline" fill="#464646"/>
    <path id="path10" d="M9.5,16A1.5,1.5,0,0,1,8,14.5H8v-1A1.5,1.5,0,0,1,9.5,12H11v1H9.5a.5.5,0,0,0-.5.5v1a.5.5,0,0,0,.5.5H10v1Z" class="aw-theme-iconOutline" fill="#464646"/>
    <path id="path12" d="M2,2V4.707l2,2L5.707,5h9.586L17,6.707l2-2V2ZM15,3V4H6V3ZM5,4.293l-1,1-1-1V3H5Zm13,0-1,1-1-1V3h2Z" class="aw-theme-iconOutline" fill="#464646"/>
    <path id="path4" d="M18.347,22.015l-.708-.708,1.647-1.646H17.262a3.269,3.269,0,0,1-1.257-6.287l.384.923a2.269,2.269,0,0,0,.873,4.364h2.024l-1.647-1.646.708-.708,2.5,2.5a.5.5,0,0,1,0,.708h0Z" class="aw-theme-iconOutline" fill="#464646"/>
  </g>
</svg>
