<svg id="Layer_1" data-name="Layer 1" xmlns="http://www.w3.org/2000/svg" viewBox="0 0 24 24">
  <g id="g861">
    <path id="path854" d="M11.553,8.1V5.2l.08-.172a.972.972,0,0,1,.466-.474c.136-.063.218-.071.717-.071.547,0,.568,0,.739.092a1.2,1.2,0,0,1,.293.231c.239.279.231.165.231,3.334v2.846H11.553Z" class="aw-theme-iconOutline" fill="#464646"/>
    <path id="path856" d="M12.472,14.086a1.292,1.292,0,0,1-.812-.7.95.95,0,0,1-.09-.517.9.9,0,0,1,.111-.55,1.255,1.255,0,1,1,1.632,1.7A1.377,1.377,0,0,1,12.472,14.086Z" class="aw-theme-iconOutline" fill="#464646"/>
    <path id="path852" d="M13.14,21.367A16.153,16.153,0,0,1,7.826,20a1.535,1.535,0,0,0-.667-.192,9.27,9.27,0,0,0-2.792.57c-1.189.333-1.354.364-1.671.314a1.734,1.734,0,0,1-1.4-1.3,5,5,0,0,1-.278-2.129,1.911,1.911,0,0,1,.91-1.233c.1-.05.695-.221,1.314-.379,1.323-.339,1.285-.329,1.272-.356-.006-.011-.051-.1-.1-.193a2.007,2.007,0,0,1,0-1.807c.12-.236,6.538-11.351,6.709-11.617A2.092,2.092,0,0,1,12.364.8,2.322,2.322,0,0,1,13.44.848a2.263,2.263,0,0,1,.907.618c.127.16,6.339,10.87,6.8,11.726a1.89,1.89,0,0,1,.261,1.138c-.017.348-.016.352.056.331a1.531,1.531,0,0,1,1.934,1.6,1.918,1.918,0,0,1-.511,1.325,14.522,14.522,0,0,1-1.571,1.224,14.03,14.03,0,0,1-2.663,1.419,10.5,10.5,0,0,1-3,1.1A23.441,23.441,0,0,1,13.14,21.367Zm2.611-1.04a11.783,11.783,0,0,0,2.442-.957,13.768,13.768,0,0,0,3.334-1.917c.785-.586.894-.73.895-1.189,0-.51-.316-.8-.706-.653-.081.031-.685.421-1.344.868a10.427,10.427,0,0,1-1.918,1.149c-.709.332-.722.34-.722.443a2.079,2.079,0,0,1-.052.323,1.925,1.925,0,0,1-1.332,1.385,5.857,5.857,0,0,1-2.131-.151,11.634,11.634,0,0,1-1.75-.31,22.942,22.942,0,0,1-2.7-1.367.484.484,0,0,1,.4-.748,5.16,5.16,0,0,1,1.3.577c.637.318,1.241.6,1.342.633.293.088,3.051.469,3.2.442a.9.9,0,0,0,.723-.86.439.439,0,0,0-.206-.435c-.064-.033-.674-.133-1.562-.257-.8-.111-1.531-.218-1.621-.237s-.713-.309-1.383-.644a8.7,8.7,0,0,0-2.533-.985,4.172,4.172,0,0,0-1.092-.093,5.661,5.661,0,0,0-2.475.528,17.573,17.573,0,0,1-2.41.734,11.442,11.442,0,0,0-1.141.324.876.876,0,0,0-.358.77,8.034,8.034,0,0,0,.36,1.641.629.629,0,0,0,.538.379,3.514,3.514,0,0,0,.979-.211,15.957,15.957,0,0,1,3.022-.689,2.657,2.657,0,0,1,1.462.331,15.549,15.549,0,0,0,4.222,1.173,10.3,10.3,0,0,0,1.86.07A7.139,7.139,0,0,0,15.751,20.327Zm2.293-3.585A4.559,4.559,0,0,0,19,16.226c0-.007-1.041-.011-2.313-.009l-2.313,0,1.11.16c1.334.193,1.551.258,1.824.546a.893.893,0,0,0,.11.105s.289-.131.631-.29ZM19.9,15.154a1.064,1.064,0,0,0,.55-1.267c-.065-.214-6.736-11.759-6.876-11.9a1.425,1.425,0,0,0-.292-.207.787.787,0,0,0-.468-.094.848.848,0,0,0-.478.092A1.279,1.279,0,0,0,12.027,2c-.115.12-6.731,11.537-6.85,11.82a1.156,1.156,0,0,0,.172,1.041l.11.125.222-.088a7.137,7.137,0,0,1,2.893-.551,8.116,8.116,0,0,1,2.962.766l.341.174,3.895-.007,3.9-.007Z" class="aw-theme-iconOutline" fill="#464646"/>
  </g>
</svg>
