<svg id="Layer_1" data-name="Layer 1" xmlns="http://www.w3.org/2000/svg" viewBox="0 0 24 24">
  <g id="g886">
    <path id="rect1104" d="M4,4V8.041A3.034,3.034,0,0,1,7.041,5h9.918A3.034,3.034,0,0,1,20,8.041V4Zm0,8.959V17H20V12.959A3.034,3.034,0,0,1,16.959,16H7.041A3.034,3.034,0,0,1,4,12.959Z" class="aw-theme-iconOutline" fill="#464646"/>
    <path id="rect912" d="M3,1V2H1V1Z" class="aw-theme-iconOutline" fill="#464646"/>
    <path id="rect861-4" d="M0,0H1V24H0Z" class="aw-theme-iconOutline" fill="#464646"/>
    <path id="rect861-4-0" d="M3,0H4V24H3Z" class="aw-theme-iconOutline" fill="#464646"/>
    <path id="rect912-8" d="M3,4V5H1V4Z" class="aw-theme-iconOutline" fill="#464646"/>
    <path id="rect912-8-0" d="M3,7V8H1V7Z" class="aw-theme-iconOutline" fill="#464646"/>
    <path id="rect912-20" d="M3,10v1H1V10Z" class="aw-theme-iconOutline" fill="#464646"/>
    <path id="rect912-8-01" d="M3,13v1H1V13Z" class="aw-theme-iconOutline" fill="#464646"/>
    <path id="rect912-8-0-9" d="M3.1,16.13v1H1v-1Z" class="aw-theme-iconOutline" fill="#464646"/>
    <path id="rect912-6" d="M3,16v1H1V16Z" class="aw-theme-iconOutline" fill="#464646"/>
    <path id="rect912-8-2" d="M3,19v1H1V19Z" class="aw-theme-iconOutline" fill="#464646"/>
    <path id="rect912-8-0-3" d="M3,22v1H1V22Z" class="aw-theme-iconOutline" fill="#464646"/>
    <path id="rect912-3" d="M23,1V2H21V1Z" class="aw-theme-iconOutline" fill="#464646"/>
    <path id="rect861-4-2" d="M20,0h1V24H20Z" class="aw-theme-iconOutline" fill="#464646"/>
    <path id="rect861-4-0-1" d="M23,0h1V24H23Z" class="aw-theme-iconOutline" fill="#464646"/>
    <path id="rect912-8-6" d="M23,4V5H21V4Z" class="aw-theme-iconOutline" fill="#464646"/>
    <path id="rect912-8-0-6" d="M23,7V8H21V7Z" class="aw-theme-iconOutline" fill="#464646"/>
    <path id="rect912-20-4" d="M23,10v1H21V10Z" class="aw-theme-iconOutline" fill="#464646"/>
    <path id="rect912-8-01-1" d="M23,13v1H21V13Z" class="aw-theme-iconOutline" fill="#464646"/>
    <path id="rect912-8-0-9-1" d="M23.1,16.13v1H21v-1Z" class="aw-theme-iconOutline" fill="#464646"/>
    <path id="rect912-6-7" d="M23,16v1H21V16Z" class="aw-theme-iconOutline" fill="#464646"/>
    <path id="rect912-8-2-6" d="M23,19v1H21V19Z" class="aw-theme-iconOutline" fill="#464646"/>
    <path id="rect912-8-0-3-2" d="M23,22v1H21V22Z" class="aw-theme-iconOutline" fill="#464646"/>
    <path id="rect1104-8" d="M4,0H4ZM4,.959V5H20V.959A3.034,3.034,0,0,1,16.959,4H7.041A3.034,3.034,0,0,1,4,.959Z" class="aw-theme-iconOutline" fill="#464646"/>
    <path id="rect1104-8-0" d="M4,16v4.041A3.034,3.034,0,0,1,7.041,17h9.918A3.034,3.034,0,0,1,20,20.041V16Zm0,8H4Z" class="aw-theme-iconOutline" fill="#464646"/>
    <path id="path4" d="M9.5,14.58V6.98l7.6,3.8Zm1-6v4.4l4.4-2.2Z" class="aw-theme-iconOutline" fill="#464646"/>
  </g>
</svg>
