<svg id="Layer_1" data-name="Layer 1" xmlns="http://www.w3.org/2000/svg" viewBox="0 0 24 24">
  <g id="g832">
    <polygon id="polygon2" points="0 0 21 0 21 10 20 10 20 1 1 1 1 20 10 20 10 21 0 21 0 0" class="aw-theme-iconOutline" fill="#464646"/>
    <path id="path8" d="M11.5,11h-8A1.5,1.5,0,0,1,2,9.5v-1A1.5,1.5,0,0,1,3.5,7h8A1.5,1.5,0,0,1,13,8.5v1A1.5,1.5,0,0,1,11.5,11Zm-8-3a.5.5,0,0,0-.5.5v1a.5.5,0,0,0,.5.5h8a.5.5,0,0,0,.5-.5v-1a.5.5,0,0,0-.5-.5Z" class="aw-theme-iconOutline" fill="#464646"/>
    <path id="path10" d="M9.5,16A1.5,1.5,0,0,1,8,14.5H8v-1A1.5,1.5,0,0,1,9.5,12H11v1H9.5a.5.5,0,0,0-.5.5v1a.5.5,0,0,0,.5.5H10v1Z" class="aw-theme-iconOutline" fill="#464646"/>
    <path id="path12" d="M2,2V4.707l2,2L5.707,5h9.586L17,6.707l2-2V2ZM15,3V4H6V3ZM5,4.293l-1,1-1-1V3H5Zm13,0-1,1-1-1V3h2Z" class="aw-theme-iconOutline" fill="#464646"/>
    <path id="path2" d="M17.5,24A6.5,6.5,0,1,1,24,17.5h0A6.487,6.487,0,0,1,17.526,24Zm0-12A5.5,5.5,0,1,0,23,17.5h0A5.55,5.55,0,0,0,17.5,12Z" class="aw-theme-iconOutline" fill="#464646"/>
    <path id="path4" d="M20.018,17.141l-2,2.044.026-5.8-1.089-.011v5.767l-1.921-2-.678.65L17,20.619c.1.1.319.322.519.322A.774.774,0,0,0,18,20.674l2.718-2.884Z" class="aw-theme-iconOutline" fill="#464646"/>
  </g>
</svg>
