<svg id="Layer_1" data-name="Layer 1" xmlns="http://www.w3.org/2000/svg" viewBox="0 0 24 24">
  <g id="g844">
    <path id="path825" d="M11.494,21.876a2.212,2.212,0,0,1-1.334-1.123,2.593,2.593,0,0,1-.185-.527L9.93,19.99H5.3v-.325a5.505,5.505,0,0,1,.629-2.605,6.729,6.729,0,0,1,.885-1.229,3.9,3.9,0,0,0,.929-1.5,8.475,8.475,0,0,0,.216-2.5,6.048,6.048,0,0,1,.124-1.556A4.127,4.127,0,0,1,9.165,8.394a3.95,3.95,0,0,1,1.124-.8l.3-.148V7.232A1.307,1.307,0,0,1,11.3,5.92a1.693,1.693,0,0,1,.706-.089c.665-.017.846.035,1.145.329a1.075,1.075,0,0,1,.358.854l.034.381.238.117a4.231,4.231,0,0,1,1.092.789,3.927,3.927,0,0,1,.892,1.243c.333.686.341.751.426,3.291a4.475,4.475,0,0,0,.128,1.312,4.266,4.266,0,0,0,1.048,1.762,5.324,5.324,0,0,1,1.326,2.544,13.511,13.511,0,0,1,.126,1.438v.1h-4.6l-.031.081a2.7,2.7,0,0,0-.072.261,2.827,2.827,0,0,1-.412.848,2.129,2.129,0,0,1-1.21.714A2.922,2.922,0,0,1,11.494,21.876Zm.942-.954a1.176,1.176,0,0,0,.668-.588.714.714,0,0,0,.094-.289c-.019-.048-.169-.055-1.155-.055-1.28,0-1.2-.022-1.059.287A1.147,1.147,0,0,0,12.436,20.922ZM17.8,18.847a5.688,5.688,0,0,0-.464-1.347,6.324,6.324,0,0,0-.907-1.255A4.679,4.679,0,0,1,15.3,13.856c-.023-.156-.055-.891-.072-1.632a14.087,14.087,0,0,0-.085-1.624,3.114,3.114,0,0,0-2.064-2.345,2.148,2.148,0,0,0-1.015-.112,2.148,2.148,0,0,0-1.015.112,2.987,2.987,0,0,0-1.2.751,2.937,2.937,0,0,0-.738,1.114,7.293,7.293,0,0,0-.21,2.306,6.462,6.462,0,0,1-.249,2.179,4.965,4.965,0,0,1-1.069,1.772,4.545,4.545,0,0,0-1.292,2.507l-.024.135h11.56ZM12.563,7a.306.306,0,0,0-.04-.185,2.682,2.682,0,0,0-.472-.023c-.479,0-.493.007-.494.232v.135h1.007Z" class="aw-theme-iconOutline" fill="#464646"/>
    <path id="rect816" d="M0,0H24V1H0V0Z" class="aw-theme-iconOutline" fill="#464646"/>
    <path id="rect816-9" d="M0,4.043H24v1H0v-1Z" class="aw-theme-iconOutline" fill="#464646"/>
    <path id="rect816-9-0" d="M1,0V24H0V0H1Z" class="aw-theme-iconOutline" fill="#464646"/>
    <path id="rect816-9-0-7" d="M24,0V24H23V0h1Z" class="aw-theme-iconOutline" fill="#464646"/>
    <path id="rect816-9-0-7-3" d="M24,24H0V23H24v1Z" class="aw-theme-iconOutline" fill="#464646"/>
    <path id="rect1037" d="M2,2H6V3H2V2Z" class="aw-theme-iconOutline" fill="#464646"/>
    <path id="rect1037-1" d="M8,2h4V3H8V2Z" class="aw-theme-iconOutline" fill="#464646"/>
    <path id="rect1037-7" d="M14,2h4V3H14V2Z" class="aw-theme-iconOutline" fill="#464646"/>
    <path id="rect1037-7-3" d="M21,2h1V3H21V2Z" class="aw-theme-iconOutline" fill="#464646"/>
  </g>
</svg>
