<svg id="Layer_1" data-name="Layer 1" xmlns="http://www.w3.org/2000/svg" viewBox="0 0 24 24">
  <g id="g825">
    <path id="path816" d="M7.615.01a2.326,2.326,0,0,0-.658.033,1.306,1.306,0,0,0-.928.986,3.085,3.085,0,0,0-.023.463L6,1.818l-.158.08c-.054.023.161.151,1.808.151l1.891-.141-.152-.072a.868.868,0,0,0-.127-.053,1.356,1.356,0,0,1-.024-.373,1.259,1.259,0,0,0-.345-1A1.265,1.265,0,0,0,8.482.115C8.263.014,8.215.009,7.615.01ZM7.623,1c.439,0,.473,0,.52.031.092.056.1.095.111.319l.006.2-.037-.012a5.262,5.262,0,0,0-.879-.025c-.156.009-.3.02-.319.025-.035.01-.033.009-.033-.176,0-.212.019-.269.108-.328C7.152,1,7.16,1,7.623,1Zm1.889.891L7.66,1.918,5.842,1.9l-.274.137A4.6,4.6,0,0,0,3.1,5.209a8.253,8.253,0,0,0-.094,1.955,8.059,8.059,0,0,1-.1,2.01,4.275,4.275,0,0,1-.845,1.787c-.07.086-.235.269-.366.406A5.849,5.849,0,0,0,.3,13.652a5.506,5.506,0,0,0-.287,1.836L0,16H5.254l.012.105a2.382,2.382,0,0,0,.554,1.327,2.353,2.353,0,0,0,1.694.806v0a3.836,3.836,0,0,0,.515-.027A2.326,2.326,0,0,0,9.719,17a2.565,2.565,0,0,0,.265-.92L9.992,16l.088,0,.088-.006.021-.094c.012-.051.04-.2.061-.334a3.246,3.246,0,0,1,.092-.4L10.4,15H1.006v-.041a4.723,4.723,0,0,1,.172-.871,5.048,5.048,0,0,1,1.269-2.1,5.483,5.483,0,0,0,.575-.678A5.206,5.206,0,0,0,3.906,9.2,9.885,9.885,0,0,0,3.99,7.219,16.019,16.019,0,0,1,4.029,5.57,3.6,3.6,0,0,1,6,2.867a3.9,3.9,0,0,1,1.2-.349,5.088,5.088,0,0,1,.9.007,3.577,3.577,0,0,1,3.056,2.733,8.117,8.117,0,0,1,.106,2.211c.007,1.106.018,1.769.029,1.875a3.13,3.13,0,0,0,.668,1.763,5.243,5.243,0,0,0,.428.469.913.913,0,0,0,.158-.119,2.509,2.509,0,0,1,.481-.33.436.436,0,0,0,.132-.09,1.253,1.253,0,0,0-.14-.176A2.413,2.413,0,0,1,12.3,9.453l-.033-.226c-.006-.035-.015-.84-.022-1.789a9.264,9.264,0,0,0-.1-2.256,4.287,4.287,0,0,0-.383-1.08,4.846,4.846,0,0,0-2.07-2.118ZM6.246,16H8.99v.045a1.354,1.354,0,0,1-.138.447,1.375,1.375,0,0,1-.83.7,1,1,0,0,1-.36.047,1.174,1.174,0,0,1-.683-.15,1.4,1.4,0,0,1-.719-1Z" class="aw-theme-iconOutline" fill="#464646"/>
    <path id="path2-5" d="M17.5,24A6.5,6.5,0,1,1,24,17.5,6.487,6.487,0,0,1,17.5,24Zm0-12A5.5,5.5,0,1,0,23,17.5,5.549,5.549,0,0,0,17.5,12Z" class="aw-theme-iconOutline" fill="#464646"/>
    <path id="polygon4" d="M14.6,19.6l.8.8,2.1-2.2,2.1,2.2.8-.8-2.2-2.1,2.2-2.1-.8-.8-2.1,2.2-2.1-2.2-.8.8,2.2,2.1Z" class="aw-theme-iconOutline" fill="#464646"/>
  </g>
</svg>
