<svg id="Layer_1" data-name="Layer 1" xmlns="http://www.w3.org/2000/svg" viewBox="0 0 24 24">
  <g id="g963">
    <path id="rect13-9-3" d="M1,1V17H9.884v-1H1.943V2H22.057V13.3H23V1Z" class="aw-theme-iconOutline" fill="#464646"/>
    <path id="path15-5" d="M3.318,2.92l-.64.768,7.2,5.994a3.549,3.549,0,0,0,4.633-.059L21.3,3.68l-.66-.752L13.85,8.869a2.516,2.516,0,0,1-3.336.045Z" class="aw-theme-iconOutline" fill="#464646"/>
    <path id="line17-6" d="M9.928,8.953,2.7,14.414l.6.8,7.23-5.459Z" class="aw-theme-iconOutline" fill="#464646"/>
    <path id="line19-5" d="M14.387,8.969l-.567.8,4.368,3.466h1.567Z" class="aw-theme-iconOutline" fill="#464646"/>
    <path id="path833" d="M12.027,13.891a.913.913,0,0,0-.839.684.231.231,0,0,0-.018.035L9.639,20.731a.5.5,0,0,0,.364.606.481.481,0,0,0,.12.015h.111a3.1,3.1,0,0,0,6.155-.244.729.729,0,0,1,.375-.154,1.485,1.485,0,0,1,.363.045,3.1,3.1,0,0,0,6.166.353h.086a.452.452,0,0,0,.121-.016.189.189,0,0,0,.033-.013.449.449,0,0,0,.135-.067l.018-.009a.494.494,0,0,0,.214-.395.485.485,0,0,0-.052-.217l-1.5-6.01v-.009c0-.009-.01-.016-.012-.024A.906.906,0,0,0,21.4,13.9c-.4.044-.886.38-.886,1.73a.5.5,0,1,0,1,0,1.783,1.783,0,0,1,.006-.2l.777,3.111a3.086,3.086,0,0,0-5.047,1.483,1.928,1.928,0,0,0-.478-.061,1.425,1.425,0,0,0-.471.084,3.087,3.087,0,0,0-5.08-1.484L12,15.415c0,.065.006.13.006.211a.5.5,0,1,0,1,0c0-1.353-.483-1.69-.887-1.735ZM13.2,18.737h.016a2.115,2.115,0,0,1,2.2,2.025c0,.03,0,.06,0,.09A2.131,2.131,0,1,1,13.2,18.737Zm6.946,0a2.116,2.116,0,0,1,2.2,2.025c0,.03,0,.06,0,.09a2.121,2.121,0,1,1-2.205-2.115Z" class="aw-theme-iconOutline" fill="#464646"/>
    <path id="path827" d="M14.323,19.467a.5.5,0,0,1-.047.7L12.528,21.7a.5.5,0,0,1-.688-.726l.03-.026,1.748-1.528a.5.5,0,0,1,.7.053Z" class="aw-theme-iconOutline" fill="#464646"/>
    <path id="path825" d="M21.217,19.467a.5.5,0,0,1-.046.7L19.422,21.7a.5.5,0,0,1-.829-.377.5.5,0,0,1,.171-.375l1.748-1.528a.5.5,0,0,1,.7.053Z" class="aw-theme-iconOutline" fill="#464646"/>
  </g>
</svg>
