<svg id="Layer_1" data-name="Layer 1" xmlns="http://www.w3.org/2000/svg" viewBox="0 0 24 24">
  <g id="g969">
    <path id="path936" d="M12.01,9.873A7.488,7.488,0,0,0,4.369,17.2h0c0,.087.008.173.014.26h.986q-.009-.154-.012-.309A6.489,6.489,0,0,1,12,10.826a6.489,6.489,0,0,1,6.641,6.324c0,.1-.008.206-.016.309h1.018c0-.087.008-.173.009-.26a7.487,7.487,0,0,0-7.639-7.326Z" class="aw-theme-iconOutline" fill="#464646"/>
    <path id="rect939-4" d="M6.552,7.851A2.706,2.706,0,0,0,4.463,8.864a5.928,5.928,0,0,0-1.026,2.065L1.1,18.468a2.457,2.457,0,0,0,.746,2.49,3.5,3.5,0,0,0,2.37.962h15.6a3.473,3.473,0,0,0,2.362-.959,2.485,2.485,0,0,0,.756-2.485L20.71,10.937a5.7,5.7,0,0,0-1.022-2.076,2.724,2.724,0,0,0-2.1-1.01Zm0,1.216h11.04a1.454,1.454,0,0,1,1.214.593A4.648,4.648,0,0,1,19.59,11.3l2.223,7.537a1.168,1.168,0,0,1-.427,1.231,2.447,2.447,0,0,1-1.572.642H4.214a2.477,2.477,0,0,1-1.58-.644,1.14,1.14,0,0,1-.422-1.219L4.551,11.3a4.945,4.945,0,0,1,.8-1.643A1.43,1.43,0,0,1,6.552,9.067Z" class="aw-theme-iconOutline" fill="#464646"/>
    <path id="rect818" d="M4,21H6v2H4V21Z" class="aw-theme-iconOutline" fill="#464646"/>
    <path id="rect818-7" d="M18,21h2v2H18V21Z" class="aw-theme-iconOutline" fill="#464646"/>
    <path id="path840" d="M11.4,19.3a1.7,1.7,0,0,1-1.1-1.48,1.329,1.329,0,0,1,.091-.662l.115-.337L9.154,15.474,7.81,14.127l.3-.3.3-.3,1.347,1.346,1.347,1.347.247-.1a1.973,1.973,0,0,1,1.268,0,1.823,1.823,0,0,1,.9.851,1.22,1.22,0,0,1,.147.749,1.228,1.228,0,0,1-.128.71,1.91,1.91,0,0,1-.824.821,1.4,1.4,0,0,1-.664.14,1.2,1.2,0,0,1-.656-.09Z" class="aw-theme-iconOutline" fill="#464646"/>
    <path id="path886" d="M13.785,17.7a1.771,1.771,0,1,1-1.771-1.727A1.749,1.749,0,0,1,13.785,17.7Z" class="aw-theme-iconOutline" fill="#464646"/>
    <path id="rect888" d="M11,6h2.063V8H11V6Z" class="aw-theme-iconOutline" fill="#464646"/>
    <path id="path890" d="M5,2c0,2.485,3.134,4.5,7,4.5S19,4.485,19,2h-.986c0,1.933-2.687,3.5-6,3.5s-6-1.567-6-3.5Z" class="aw-theme-iconOutline" fill="#464646"/>
    <path id="rect929" d="M5,1H19.026V2H5V1Z" class="aw-theme-iconOutline" fill="#464646"/>
  </g>
</svg>
