<svg id="Layer_1" data-name="Layer 1" xmlns="http://www.w3.org/2000/svg" viewBox="0 0 24 24">
  <g id="g857">
    <path id="rect898-34-8" d="M18.109,18.7l3.994-.513a.071.071,0,0,1,.08.062l.109.85a.071.071,0,0,1-.062.08l-3.993.513a.071.071,0,0,1-.08-.062l-.11-.85A.072.072,0,0,1,18.109,18.7Z" class="aw-theme-iconOutline" fill="#464646"/>
    <path id="rect948-3" d="M10.9,20A1.918,1.918,0,0,0,9,21.924v.154A1.92,1.92,0,0,0,10.9,24H22.1A1.918,1.918,0,0,0,24,22.076v-.154A1.92,1.92,0,0,0,22.1,20Zm0,.994H22.1a.907.907,0,0,1,.908.93v.154a.906.906,0,0,1-.908.928H10.9a.907.907,0,0,1-.908-.93v-.154A.906.906,0,0,1,10.9,20.994Z" class="aw-theme-iconOutline" fill="#464646"/>
    <path id="path8-7" d="M13.5,18h-4A1.5,1.5,0,0,1,8,16.5H8A1.5,1.5,0,0,1,9.5,15h4A1.431,1.431,0,0,1,15,16.5h0A1.459,1.459,0,0,1,13.5,18Zm-4-2a.5.5,0,0,0-.5.5H9a.5.5,0,0,0,.5.5h4a.513.513,0,0,0,.5-.5h0a.49.49,0,0,0-.5-.5Z" class="aw-theme-iconOutline" fill="#464646"/>
    <path id="polygon2" d="M16,20H0V4H17V20H16V5H1V19H16Z" class="aw-theme-iconOutline" fill="#464646"/>
    <path id="path8" d="M7.5,14h-4A1.5,1.5,0,0,1,2,12.5H2A1.5,1.5,0,0,1,3.5,11h4A1.459,1.459,0,0,1,9,12.5H9A1.459,1.459,0,0,1,7.5,14Zm-4-2a.5.5,0,0,0-.5.5H3a.5.5,0,0,0,.5.5h4a.482.482,0,0,0,.5-.5H8a.468.468,0,0,0-.5-.5Z" class="aw-theme-iconOutline" fill="#464646"/>
    <path id="path12" d="M2,6V8.007l2,2L5.707,8.3h5.586L13,10.007l2-2V6Zm9,1v.3H6V7ZM5,7.594l-1,1-1-1V7H5Zm9,0-1,1-1-1V7h2Z" class="aw-theme-iconOutline" fill="#464646"/>
    <path id="rect948" d="M10.9,0A1.918,1.918,0,0,0,9,1.924v.154A1.92,1.92,0,0,0,10.9,4H22.1A1.918,1.918,0,0,0,24,2.076V1.922A1.92,1.92,0,0,0,22.1,0Zm0,.994H22.1a.907.907,0,0,1,.908.93v.154a.906.906,0,0,1-.908.928H10.9a.907.907,0,0,1-.908-.93V1.922A.906.906,0,0,1,10.9.994Z" class="aw-theme-iconOutline" fill="#464646"/>
    <path id="rect965" d="M17.836,3.365V20.658h4.519V3.365Zm.99.99h2.539V19.67H18.826Z" class="aw-theme-iconOutline" fill="#464646"/>
    <path id="rect898" d="M18.088,7.925l3.994-.513a.071.071,0,0,1,.08.061l.109.851a.07.07,0,0,1-.062.079l-3.993.514a.071.071,0,0,1-.08-.062l-.11-.85A.072.072,0,0,1,18.088,7.925Z" class="aw-theme-iconOutline" fill="#464646"/>
    <path id="rect898-3" d="M18.033,5.248l3.993-.513a.071.071,0,0,1,.08.061l.11.85a.071.071,0,0,1-.062.08L18.16,6.24a.072.072,0,0,1-.08-.062l-.109-.85A.071.071,0,0,1,18.033,5.248Z" class="aw-theme-iconOutline" fill="#464646"/>
    <path id="rect898-34" d="M18.122,13.328l3.994-.513a.07.07,0,0,1,.079.061l.11.851a.072.072,0,0,1-.062.08l-3.994.513a.071.071,0,0,1-.08-.062l-.109-.85A.072.072,0,0,1,18.122,13.328Z" class="aw-theme-iconOutline" fill="#464646"/>
    <path id="rect898-3-6" d="M18.071,10.651l3.994-.513a.071.071,0,0,1,.08.061l.109.851a.071.071,0,0,1-.062.079l-3.994.514a.072.072,0,0,1-.08-.062l-.109-.85A.072.072,0,0,1,18.071,10.651Z" class="aw-theme-iconOutline" fill="#464646"/>
    <path id="rect898-3-6-5" d="M18,16.028,22,15.515a.071.071,0,0,1,.08.061l.11.851a.072.072,0,0,1-.062.08l-3.994.513a.071.071,0,0,1-.08-.062l-.109-.85A.071.071,0,0,1,18,16.028Z" class="aw-theme-iconOutline" fill="#464646"/>
  </g>
</svg>
