<svg id="Image" xmlns="http://www.w3.org/2000/svg" viewBox="0 0 24 24">
  <g id="g858">
    <path id="path4-7" d="M10,0,0,10,10,20l.332-.332a7.367,7.367,0,0,1-.234-1.016l-.1.1L1.25,10,10,1.25,18.75,10l-.09.09a7.437,7.437,0,0,1,1.012.238L20,10ZM9.559,3.3V7.352l-1.633-1.7L7.348,6.2l2.211,2.41c.083.084.271.274.441.274a.656.656,0,0,0,.41-.227l2.352-2.453-.6-.557-1.7,1.741.021-4.084Zm4.173,3.943L11.277,9.59a.654.654,0,0,0-.226.41c0,.17.192.358.275.441l1.4,1.288a7.515,7.515,0,0,1,.677-.5l-.82-.789h2.387a7.474,7.474,0,0,1,1.664-.384l-.006-.541-4.082.021,1.738-1.7Zm-7.5.1-.554.6,1.738,1.7L3.334,9.613l-.01.928H7.379l-1.7,1.633.552.576,2.409-2.211c.083-.083.275-.271.275-.441a.657.657,0,0,0-.226-.409Zm3.811,3.748c-.17,0-.358.192-.441.275L7.391,13.77l.576.552,1.635-1.7v4.055l.453,0a7.452,7.452,0,0,1,.463-1.871l-.012-2.217.758.773a7.441,7.441,0,0,1,.5-.673l-1.313-1.371A.651.651,0,0,0,10.043,11.086Z" class="aw-theme-iconOutline" fill="#464646"/>
    <path id="path2" d="M17.5,24A6.5,6.5,0,1,1,24,17.5,6.5,6.5,0,0,1,17.5,24Zm0-12A5.5,5.5,0,1,0,23,17.5,5.5,5.5,0,0,0,17.5,12Z" class="aw-theme-iconOutline" fill="#464646"/>
    <path id="polygon4" d="M17,21h1V18l3,0V17l-3,0V14H17v3l-3,0v1l3,0Z" class="aw-theme-iconOutline" fill="#464646"/>
  </g>
</svg>
