<svg id="Layer_1" data-name="Layer 1" xmlns="http://www.w3.org/2000/svg" viewBox="0 0 24 24">
  <path d="M18,18H14.706l1.023-1.021-.707-.708-1.875,1.872a.5.5,0,0,0,0,.708l1.875,1.878.708-.707L14.709,19H18Z" class="aw-theme-iconOutline" fill="#464646"/>
  <path d="M21.854,15.149l-1.875-1.878-.708.707L20.291,15H17v1h3.294l-1.023,1.021.707.708,1.875-1.872a.5.5,0,0,0,0-.708Z" class="aw-theme-iconOutline" fill="#464646"/>
  <path d="M17.573,10.029A1.539,1.539,0,0,0,18,9V6c0-.567-.372-1.362-2-2.031V3c0-1.97-4.024-3-8-3S0,1.03,0,3V6c0,.845.744,1.516,1.9,2.008C.356,8.669,0,9.444,0,10v3c0,1.97,4.024,3,8,3,.711,0,1.41-.044,2.1-.11a7,7,0,1,0,7.477-5.861Zm-3.171.476A18.33,18.33,0,0,1,10,11C5.727,11,3,9.815,3,9V8.387A19.107,19.107,0,0,0,8,9c.336,0,.671-.01,1.005-.025C9.332,8.99,9.662,9,10,9c2.771,0,5.561-.5,7-1.472V9c0,.285-.4.743-1.531,1.174A6.929,6.929,0,0,0,14.4,10.505ZM17,6c0,.371-.569.817-1.585,1.194A1.644,1.644,0,0,0,16,6V5.06C16.72,5.418,17,5.773,17,6ZM8,1c4.273,0,7,1.185,7,2S12.273,5,8,5,1,3.815,1,3,3.727,1,8,1ZM1,6V4.528C2.439,5.5,5.229,6,8,6s5.561-.5,7-1.472V6c0,.815-2.727,2-7,2S1,6.815,1,6ZM2.007,9.056c.071,1.754,3.356,2.747,6.908,2.915C8.612,11.984,8.31,12,8,12c-4.273,0-7-1.185-7-2C1,9.772,1.281,9.415,2.007,9.056ZM8,15c-4.273,0-7-1.185-7-2V11.532C2.44,12.5,5.232,13,8,13a20.632,20.632,0,0,0,3.484-.295,6.981,6.981,0,0,0-1.148,2.158A20.764,20.764,0,0,1,8,15Zm9,8a6,6,0,1,1,6-6A6.007,6.007,0,0,1,17,23Z" class="aw-theme-iconOutline" fill="#464646"/>
</svg>
