<svg id="Layer_1" data-name="Layer 1" xmlns="http://www.w3.org/2000/svg" viewBox="0 0 24 24">
  <g id="g957">
    <path id="rect13-9-3" d="M1,1V17h9.629l.652-1H1.943V2H22.057v14.01H20.185l.615,1H23V1Z" class="aw-theme-iconOutline" fill="#464646"/>
    <path id="path15-5" d="M3.318,2.92l-.64.768,7.2,6a3.552,3.552,0,0,0,4.633-.061L21.3,3.68l-.66-.752L13.85,8.871a2.516,2.516,0,0,1-3.336.043Z" class="aw-theme-iconOutline" fill="#464646"/>
    <path id="line17-6" d="M9.928,8.955,2.7,14.416l.6.8,7.23-5.461Z" class="aw-theme-iconOutline" fill="#464646"/>
    <path id="path825" d="M16,10.117l-.348.6-1.328,2.291,2.239,3.908.572,1,1.826,3.189H13.037l1.824-3.189.014-.023-.566-.977-1.11-1.91-1.109,1.91-.58,1L7.977,24H24.021l-4.2-7.266Zm0,2,2.7,4.67.5.867L22.289,23H9.713l2.951-5.082L13.2,17l.522.9-.012.02-2.393,4.189h9.375l-2.4-4.189-.572-1-2.237-3.9Z" class="aw-theme-iconOutline" fill="#464646"/>
  </g>
</svg>
