<svg id="Layer_1" data-name="Layer 1" xmlns="http://www.w3.org/2000/svg" viewBox="0 0 24 24">
  <g id="g836">
    <path id="polygon2" d="M0,0V1H10V14.5l1-.5V0ZM0,20v1H10.5L10,20Z" class="aw-theme-iconOutline" fill="#464646"/>
    <path id="path8" d="M0,7V8H1.518a.5.5,0,0,1,.5.5v1a.5.5,0,0,1-.5.5H0v1H1.518a1.5,1.5,0,0,0,1.5-1.5v-1A1.5,1.5,0,0,0,1.518,7Z" class="aw-theme-iconOutline" fill="#464646"/>
    <path id="path12" d="M.018,2V3H5.072V4H.018V5H5.365L7.072,6.707l2-2V2ZM6.072,3h2V4.293l-1,1-1-1Z" class="aw-theme-iconOutline" fill="#464646"/>
    <path id="polygon2-2" d="M13,0V11.5l.993-.5V1H24V0Z" class="aw-theme-iconOutline" fill="#464646"/>
    <path id="path8-0" d="M16.486,7A1.494,1.494,0,0,0,15,8.5v1a1.522,1.522,0,0,0,.046.369h1.108a.5.5,0,0,1-.163-.369v-1a.5.5,0,0,1,.5-.5H24V7ZM20,10l.5,1H24V10Z" class="aw-theme-iconOutline" fill="#464646"/>
    <path id="path12-1" d="M15,2V4.707l1.984,2L18.678,5H24V4H18.968V3H24V2Zm.992,1h1.984V4.293l-.992,1-.992-1Z" class="aw-theme-iconOutline" fill="#464646"/>
    <path id="path8-04" d="M0,12v1H5.572a.5.5,0,0,1,.5.5v1a.5.5,0,0,1-.5.5H0v1H5.572a1.5,1.5,0,0,0,1.5-1.5h0v-1a1.5,1.5,0,0,0-1.5-1.5Z" class="aw-theme-iconOutline" fill="#464646"/>
    <path id="rect936" d="M23,12h1v1H23l-.5-1Z" class="aw-theme-iconOutline" fill="#464646"/>
    <path id="path2" d="M17.5,24A6.5,6.5,0,1,1,24,17.5,6.487,6.487,0,0,1,17.5,24Zm0-12A5.5,5.5,0,1,0,23,17.5,5.549,5.549,0,0,0,17.5,12Z" class="aw-theme-iconOutline" fill="#464646"/>
    <path id="polygon4" d="M14.6,19.6l.8.8,2.1-2.2,2.1,2.2.8-.8-2.2-2.1,2.2-2.1-.8-.8-2.1,2.2-2.1-2.2-.8.8,2.2,2.1Z" class="aw-theme-iconOutline" fill="#464646"/>
  </g>
</svg>
