<svg id="Layer_1" data-name="Layer 1" xmlns="http://www.w3.org/2000/svg" viewBox="0 0 24 24">
  <g id="g850">
    <path id="path850" d="M5.537,21.964a2.2,2.2,0,0,1-.389-.135,1.884,1.884,0,0,1-.934-.9C3.985,20.466,4,20.89,4,14.977c0-5.857-.012-5.468.2-5.883a1.9,1.9,0,0,1,.9-.9c.436-.212-.114-.2,6.412-.2,5.584,0,5.852,0,6.028.052a2.066,2.066,0,0,1,1.247,1c.237.48.218-.06.218,5.945s.018,5.47-.213,5.931a1.97,1.97,0,0,1-1.181,1l-.2.066-5.843,0c-4.919,0-5.873,0-6.027-.035Zm3.212-1.891V18.9H4.768v.666c0,.724.018.845.158,1.1a1.255,1.255,0,0,0,.744.56c.059.014.776.026,1.593.028l1.486,0Zm4.748,0V18.9H9.516v2.356H13.5ZM17.4,21.2a1.182,1.182,0,0,0,.824-.946c.015-.09.027-.431.027-.759v-.6H14.265v2.356h1.476A6.992,6.992,0,0,0,17.4,21.2ZM8.749,16.96V15.782H4.768v2.356H8.749Zm4.748,0V15.782H9.516v2.356H13.5Zm4.742.007L18.232,15.8l-1.984-.007-1.983-.007v2.356h3.982ZM8.734,13.833V12.655H4.782l-.008,1.15c0,.633,0,1.166.007,1.185a15.428,15.428,0,0,0,1.983.028l1.97-.007Zm4.749,0V12.655H9.531l-.008,1.15c0,.633,0,1.166.006,1.185a15.44,15.44,0,0,0,1.984.028l1.97-.007Zm4.735,0V12.641l-1.97.007-1.969.007-.007,1.15c0,.633,0,1.166.006,1.185a15.66,15.66,0,0,0,1.977.035h1.963V13.833Zm-.007-3.077L18.2,9.627l-.09-.189a1.219,1.219,0,0,0-.925-.668c-.261-.037-11.161-.034-11.4,0a1.587,1.587,0,0,0-.334.1,1.261,1.261,0,0,0-.658.821,11.655,11.655,0,0,0-.031,1.171v1.022H18.219Z" class="aw-theme-iconOutline" fill="#464646"/>
    <path id="path852" d="M7.686,11.053a.824.824,0,0,1-.489-.5.763.763,0,0,1,.674-.987.737.737,0,0,1,.765.426.526.526,0,0,1,.078.373.713.713,0,0,1-.259.532A.773.773,0,0,1,7.686,11.053Z" class="aw-theme-iconOutline" fill="#464646"/>
    <path id="path854" d="M14.825,11.06a.776.776,0,0,1-.532-.871.751.751,0,0,1,.7-.626.762.762,0,0,1,.762.42.792.792,0,0,1-.159.906A.855.855,0,0,1,14.825,11.06Z" class="aw-theme-iconOutline" fill="#464646"/>
    <path id="path827" d="M2,0V24l19.983-.008V6h-.009L22,5.986,15.324.01H14.209ZM3.1,1.008H14.212V7h6.66V22.971H3.158Zm12.223.463,5.062,4.534H15.322Z" class="aw-theme-iconOutline" fill="#464646"/>
  </g>
</svg>
