<svg id="Layer_1" data-name="Layer 1" xmlns="http://www.w3.org/2000/svg" viewBox="0 0 24 24">
  <g id="g841">
    <path id="path8-7" d="M20.5,22h-4A1.5,1.5,0,0,1,15,20.5h0A1.5,1.5,0,0,1,16.5,19h4A1.431,1.431,0,0,1,22,20.5h0A1.459,1.459,0,0,1,20.5,22Zm-4-2a.5.5,0,0,0-.5.5h0a.5.5,0,0,0,.5.5h4a.513.513,0,0,0,.5-.5h0a.49.49,0,0,0-.5-.5Z" class="aw-theme-iconOutline" fill="#464646"/>
    <path id="polygon2" d="M7,8V24H24V13H23V23H8V9H19V8Z" class="aw-theme-iconOutline" fill="#464646"/>
    <path id="path8" d="M14.5,18h-4A1.5,1.5,0,0,1,9,16.5H9A1.5,1.5,0,0,1,10.5,15h4A1.459,1.459,0,0,1,16,16.5h0A1.459,1.459,0,0,1,14.5,18Zm-4-2a.5.5,0,0,0-.5.5h0a.5.5,0,0,0,.5.5h4a.482.482,0,0,0,.5-.5h0a.468.468,0,0,0-.5-.5Z" class="aw-theme-iconOutline" fill="#464646"/>
    <path id="path12" d="M9,10v2.008l2,2L12.707,12.3H18v-1H13V11h5V10Zm1,1h2v.594l-1,1-1-1Zm9.992,3,.008.008L20.008,14Z" class="aw-theme-iconOutline" fill="#464646"/>
    <path id="polygon2-7" d="M0,0V16H6.111V15H1V1H16V7h1V0Z" class="aw-theme-iconOutline" fill="#464646"/>
    <path id="path8-5" d="M3.5,7a1.5,1.5,0,0,0,0,3H6V9H3.5a.5.5,0,0,1,0-1H6V7Z" class="aw-theme-iconOutline" fill="#464646"/>
    <path id="path12-3" d="M2,2V4.008l2,2L5.707,4.3h5.586L13,6.008l2-2V2Zm9,1v.3H6V3ZM5,3.594l-1,1-1-1V3H5Zm9,0-1,1-1-1V3h2Z" class="aw-theme-iconOutline" fill="#464646"/>
    <path id="rect822" d="M19,12h5v1H19V12Z" class="aw-theme-iconOutline" fill="#464646"/>
    <path id="rect822-2" d="M19,12V8h1v4H19Z" class="aw-theme-iconOutline" fill="#464646"/>
    <path id="rect848" d="M19.267,8.713l.7-.713h0L24,12.014h0l-.7.713h0Z" class="aw-theme-iconOutline" fill="#464646"/>
  </g>
</svg>
