<svg id="Layer_1" data-name="Layer 1" xmlns="http://www.w3.org/2000/svg" viewBox="0 0 24 24">
  <g id="g851">
    <path id="path2" d="M19,2.643C19,.552,12.786,0,9.5,0S0,.552,0,2.643A1.056,1.056,0,0,0,.18,3.2H.163L7,13.649V20.5a.5.5,0,0,0,.8.4l3.151-2.651-.6-.8L8,19.5v-6a.5.5,0,0,0-.082-.274L2.136,4.4A27.836,27.836,0,0,0,9.5,5.286,27.863,27.863,0,0,0,16.862,4.4l-4.221,6.446.837.548,5.337-8.155H18.8A1.065,1.065,0,0,0,19,2.643Zm-18,0C1,2.152,3.892,1,9.5,1S18,2.152,18,2.643,15.108,4.286,9.5,4.286,1,3.134,1,2.643Z" class="aw-theme-iconOutline" fill="#464646"/>
    <path id="rect861" d="M12,12.025h1v12H12Z" class="aw-theme-iconOutline" fill="#464646"/>
    <path id="rect863" d="M13,12.025H24v2H13Z" class="aw-theme-iconOutline" fill="#464646"/>
    <path id="rect861-1" d="M23,14.025h1v10H23Z" class="aw-theme-iconOutline" fill="#464646"/>
    <path id="rect861-16" d="M23,23.025v1H13v-1Z" class="aw-theme-iconOutline" fill="#464646"/>
    <path id="rect895" d="M15.392,17.275h1.216a.642.642,0,0,1,.642.643v1.215a.641.641,0,0,1-.642.642H15.392a.641.641,0,0,1-.642-.642V17.918A.642.642,0,0,1,15.392,17.275Z" class="aw-theme-iconOutline" fill="#464646"/>
    <path id="rect912" d="M15.5,20.525h1v1.5h-1Z" class="aw-theme-iconOutline" fill="#464646"/>
    <path id="rect912-2" d="M15.5,14.525h1v2h-1Z" class="aw-theme-iconOutline" fill="#464646"/>
    <path id="rect895-1" d="M20.6,19.275H19.383a.64.64,0,0,1-.642-.642V17.418a.641.641,0,0,1,.642-.643H20.6a.642.642,0,0,1,.643.643v1.215A.641.641,0,0,1,20.6,19.275Z" class="aw-theme-iconOutline" fill="#464646"/>
    <path id="rect912-7" d="M20.491,16.025h-1v-1.5h1Z" class="aw-theme-iconOutline" fill="#464646"/>
    <path id="rect912-2-5" d="M20.491,22.025h-1v-2h1Z" class="aw-theme-iconOutline" fill="#464646"/>
  </g>
</svg>
