<svg id="Layer_1" data-name="Layer 1" xmlns="http://www.w3.org/2000/svg" viewBox="0 0 24 24">
  <g id="g819">
    <path id="path2" d="M17.815,0a.449.449,0,0,0-.32.137L3.827,11.982c-.091.092-.181.182-.181.274L2.278,17.177.092,19.363C0,19.455,0,19.546,0,19.728s.182.274.273.365L3.008,21h.181c.091,0,.274-.092.365-.092L4.83,19.637l4.921-1.366c.091,0,.283-.209.283-.3h0c-.025-.267.008-.631-.034-.857,0-.173,0-.282.012-.454l-.444.517L4.83,12.439l12.94-11.3,3.006,3.008L16.2,9.472a7.154,7.154,0,0,1,1.281-.115l.022,0L21.778,4.42a.78.78,0,0,0,0-.638L18.133.137A.444.444,0,0,0,17.815,0ZM4.373,13.258l4.375,4.375-4.01,1.093L3.281,17.269ZM2.733,18l1.186,1.186L3.1,20l-1.731-.546Z" class="aw-theme-iconOutline" fill="#464646"/>
    <path id="path2-8" d="M17.477,24a6.492,6.492,0,1,1,6.492-6.492A6.478,6.478,0,0,1,17.477,24Zm0-11.984a5.493,5.493,0,1,0,5.493,5.492A5.541,5.541,0,0,0,17.477,12.016Z" class="aw-theme-iconOutline" fill="#464646"/>
    <path id="polygon4" d="M19.575,14.612l-2.1,2.2-2.1-2.2-.8.8,2.2,2.1-2.2,2.1.8.8,2.1-2.2,2.1,2.2.8-.8-2.2-2.1,2.2-2.1Z" class="aw-theme-iconOutline" fill="#464646"/>
  </g>
</svg>
