<svg version="1.1" id="Artwork" xmlns="http://www.w3.org/2000/svg" xmlns:xlink="http://www.w3.org/1999/xlink" x="0px" y="0px"
     viewBox="0 0 24 24" enable-background="new 0 0 24 24" xml:space="preserve">
<path class="aw-theme-iconOutline" fill="#464646" d="M23.9,8.2C23.8,8.1,23.6,8,23.4,8c-0.9,0-7.5,0-7.5,0l2.9-7.1c0.1-0.2,0-0.3-0.1-0.5
    c-0.1-0.1-0.3-0.2-0.5-0.2l-0.7,0.1c0,0-4,0.4-6,5.4L10.1,9H8.9C8.6,7.3,6.8,6,4.5,6C2,6,0,7.6,0,9.5c0,2,2,3.5,4.5,3.5h4.2
    c0,0-1.7,3.7-1.7,3.9c-0.8,2.3,0.1,4.7,1.9,5.3c0.3,0.1,0.6,0.2,1,0.2c1.6,0,3.2-1.2,3.9-3.2c0.7-2.1,0.1-4.2-1.5-5.1l0.3-0.6
    c0.2-0.4,0.4-0.5,0.8-0.5h2.9c5.4,0,7.2-3.5,7.2-3.5l0.4-0.8C24,8.6,24,8.4,23.9,8.2z M12.4,6.1c1.7-4.1,4.8-4.7,5.1-4.7L14.8,8
    l-2.3,0c-0.2,0-0.6,0-1,0.1L12.4,6.1z M4.5,12C2.6,12,1,10.9,1,9.5C1,8.1,2.6,7,4.5,7S8,8.1,8,9.5C8,10.9,6.4,12,4.5,12z M12.8,18.9
    c-0.6,1.8-2.2,2.8-3.5,2.4C7.9,20.8,7.3,19,8,17.2c0.3-0.9,0.9-1.6,1.6-2.1c0.4-0.3,0.9-0.4,1.3-0.4c0.2,0,0.4,0,0.6,0.1
    C12.8,15.3,13.4,17.1,12.8,18.9z M22.6,9.1c0,0-1.7,2.9-6.3,2.9h-2.9c-0.5,0-1.2,0.1-1.7,1.1l-0.4,0.7c-0.7-0.1-1.4,0-2,0.4l0.6-1.4
    c0.1-0.2,0.1-0.3,0-0.5S9.7,12,9.5,12H7.7c0.7-0.5,1.1-1.2,1.3-2h1.5c0.2,0,0.4-0.1,0.5-0.3l0,0C11.1,9.2,12,9,12.5,9L22.6,9.1
    L22.6,9.1z"/>
<circle class="aw-theme-iconOutline" fill="#464646" cx="12.5" cy="10.5" r="0.5"/>
</svg>
