<svg id="Layer_1" data-name="Layer 1" xmlns="http://www.w3.org/2000/svg" viewBox="0 0 24 24">
    <polygon points="4 18 7 18 7 17 3 17 3 20 9 20 9 19 4 19 4 18" class="aw-theme-iconOutline" fill="#464646"/>
    <path d="M23.355,8.229l-1.6-1.6a2.2,2.2,0,0,0-3.107,0L17,8.277V6.293L10.713,0H0V24H17V17.7l6.355-6.367A2.2,2.2,0,0,0,23.355,8.229ZM11,1.7,15.294,6H11ZM16,23H1V1h9V7h6V9.277l-2,2V9H3v3H13.277l-1,1H3v3H9.422a2.105,2.105,0,0,0,.362,2.475l1.361,1.377A.5.5,0,0,0,11.5,20h3a.5.5,0,0,0,.354-.147L16,18.7ZM13,10v1H4V10Zm-2.723,5H4V14h7.277Zm.216,1.2,2-2,3.3,3.3-1.5,1.5H11.709l-1.216-1.23A1.112,1.112,0,0,1,10.493,16.2ZM22.647,10.63,16.5,16.791l-3.3-3.3,6.156-6.156a1.2,1.2,0,0,1,1.693,0l1.6,1.6A1.2,1.2,0,0,1,22.647,10.63Z" class="aw-theme-iconOutline" fill="#464646"/>
</svg>
