<svg id="Layer_1" data-name="Layer 1" xmlns="http://www.w3.org/2000/svg" viewBox="0 0 24 24">
  <g id="g823">
    <path id="path2-2" d="M17.5,24a6.487,6.487,0,1,1,.026,0Zm0-12A5.5,5.5,0,1,0,23,17.5,5.5,5.5,0,0,0,17.5,12Z" class="aw-theme-iconOutline" fill="#464646"/>
    <path id="polygon2" d="M10,21H0V0H21V10H20V1H1V20h9Z" class="aw-theme-iconOutline" fill="#464646"/>
    <path id="path12" d="M2,2V4.707l2,2L5.707,5h9.586L17,6.707l2-2V2ZM15,3V4H6V3ZM5,4.293l-1,1-1-1V3H5Zm13,0-1,1-1-1V3h2Z" class="aw-theme-iconOutline" fill="#464646"/>
    <path id="path4" d="M12.993,16.689l.708.708,1.646-1.647v2.024a3.269,3.269,0,0,0,6.287,1.257l-.923-.384a2.269,2.269,0,0,1-4.364-.873V15.75L17.993,17.4l.708-.708-2.5-2.5a.5.5,0,0,0-.707,0h0Z" class="aw-theme-iconOutline" fill="#464646"/>
  </g>
</svg>
