<svg id="Layer_1" data-name="Layer 1" xmlns="http://www.w3.org/2000/svg" viewBox="0 0 24 24">
  <g id="g843">
    <path id="rect6" d="M0,11H2v1H0Z" class="aw-theme-iconOutline" fill="#464646"/>
    <path id="rect8" d="M3,11H5v1H3Z" class="aw-theme-iconOutline" fill="#464646"/>
    <path id="rect10" d="M6,11H8v1H6Z" class="aw-theme-iconOutline" fill="#464646"/>
    <path id="rect12" d="M9,11h2v1H9Z" class="aw-theme-iconOutline" fill="#464646"/>
    <path id="rect14" d="M12,11h2v1H12Z" class="aw-theme-iconOutline" fill="#464646"/>
    <path id="rect16" d="M15,11h2v1H15Z" class="aw-theme-iconOutline" fill="#464646"/>
    <path id="rect18" d="M18,11h2v1H18Z" class="aw-theme-iconOutline" fill="#464646"/>
    <path id="rect18-9" d="M21,11h2v1H21Z" class="aw-theme-iconOutline" fill="#464646"/>
    <path id="rect854" d="M2,2V9H22V2ZM3,3H21V8H3Z" class="aw-theme-iconOutline" fill="#464646"/>
    <path id="rect854-0" d="M2,14v7H22V14Zm1,1H21v5H3Z" class="aw-theme-iconOutline" fill="#464646"/>
  </g>
</svg>
