<svg id="svg8" xmlns="http://www.w3.org/2000/svg" viewBox="0 0 24 24">
  <g id="g1047">
    <path id="path1010" d="M16.5,23.96c-2.981-.133-5.393-1.151-6.113-2.581a2.641,2.641,0,0,1-.17-.454,48.48,48.48,0,0,1-.061-5.408c0-5.688-.011-5.331.188-5.775.609-1.353,2.709-2.361,5.469-2.625a18.369,18.369,0,0,1,2.984.048,11.2,11.2,0,0,1,1.422.27c2.025.507,3.376,1.47,3.708,2.642a53.285,53.285,0,0,1,.057,5.42c0,4.9,0,5.231-.055,5.421a3.9,3.9,0,0,1-2.59,2.324A12.6,12.6,0,0,1,16.5,23.96Zm2.087-1.054a9.5,9.5,0,0,0,2.694-.7,3.007,3.007,0,0,0,1.653-1.393c.066-.175.066-.187.066-4.266V12.452l-.242.174a8.341,8.341,0,0,1-3.508,1.3,10.714,10.714,0,0,1-2.187.157,11.875,11.875,0,0,1-1.452-.056,9.026,9.026,0,0,1-4.226-1.41c-.117-.086-.225-.162-.241-.168s-.021,1.758-.012,4.117l.015,4.129.114.231c.457.925,2.175,1.714,4.286,1.969a8.924,8.924,0,0,0,1.687.064A13.253,13.253,0,0,0,18.587,22.906Zm-.774-9.8c2.372-.143,4.345-.9,5-1.908a1,1,0,0,0,.182-.695,1.3,1.3,0,0,0-.462-.866A7.444,7.444,0,0,0,18.1,8.072a18.755,18.755,0,0,0-2.569.048,8.516,8.516,0,0,0-3.42,1.105,2.884,2.884,0,0,0-.864.895.773.773,0,0,0-.1.46.84.84,0,0,0,.122.485C11.91,12.368,14.849,13.284,17.813,13.105Z" class="aw-theme-iconOutline" fill="#464646"/>
    <path id="rect1012" d="M0,0H20V1H0Z" class="aw-theme-iconOutline" fill="#464646"/>
    <path id="rect1014" d="M0,1H1V17H0Z" class="aw-theme-iconOutline" fill="#464646"/>
    <path id="rect1016" d="M1,16H9v1H1Z" class="aw-theme-iconOutline" fill="#464646"/>
    <path id="rect1018" d="M3,13H8v1H3Z" class="aw-theme-iconOutline" fill="#464646"/>
    <path id="rect1020" d="M3,7h7V8H3Z" class="aw-theme-iconOutline" fill="#464646"/>
    <path id="rect1022" d="M3,10H7v1H3Z" class="aw-theme-iconOutline" fill="#464646"/>
    <path id="rect1024" d="M1,4H19V5H1Z" class="aw-theme-iconOutline" fill="#464646"/>
    <path id="rect1026" d="M19,1h1V6H19Z" class="aw-theme-iconOutline" fill="#464646"/>
  </g>
</svg>
