<svg id="svg5" xmlns="http://www.w3.org/2000/svg" viewBox="0 0 24 24">
  <g id="g868">
    <path id="path6" d="M14.735,16.791a.5.5,0,0,1-.457-.275,3.394,3.394,0,0,1-.183-1.1,2.851,2.851,0,0,1,2.836-2.836,3.172,3.172,0,0,1,.824.091.408.408,0,0,1,.274.549c-.091.183-.366.366-.549.275a.989.989,0,0,0-.457-.092A2,2,0,0,0,15.1,15.327a1.733,1.733,0,0,0,.183.732.444.444,0,0,1-.274.549C14.827,16.791,14.827,16.791,14.735,16.791Z" class="aw-theme-iconOutline" fill="#464646"/>
    <path id="path10" d="M16.931,18.255a2.722,2.722,0,0,1-.915-.183.434.434,0,0,1,.275-.824,2.3,2.3,0,0,0,.64.183,2,2,0,0,0,1.922-1.921,1.351,1.351,0,0,0-.092-.641.434.434,0,1,1,.824-.274,3.77,3.77,0,0,1,.091,1.006A2.675,2.675,0,0,1,16.931,18.255Z" class="aw-theme-iconOutline" fill="#464646"/>
    <path id="path846" d="M16.931,20.268a6.705,6.705,0,0,1-2.47-.366.434.434,0,1,1,.274-.824,5.08,5.08,0,0,0,2.105.366,7.223,7.223,0,0,0,6.131-3.934,10.479,10.479,0,0,0-1.922-2.471.453.453,0,0,1,.641-.64,10,10,0,0,1,2.1,2.653.817.817,0,0,1,0,.915A8.121,8.121,0,0,1,16.931,20.268Z" class="aw-theme-iconOutline" fill="#464646"/>
    <path id="path850" d="M12.448,18.712a.338.338,0,0,1-.275-.091,7.505,7.505,0,0,1-2.1-2.745.817.817,0,0,1,0-.915,8.033,8.033,0,0,1,6.862-4.392,6.49,6.49,0,0,1,2.379.366.434.434,0,1,1-.274.823,4.934,4.934,0,0,0-2.013-.366,7.221,7.221,0,0,0-6.131,3.935,7.031,7.031,0,0,0,1.922,2.47.453.453,0,0,1,.091.641A.835.835,0,0,1,12.448,18.712Z" class="aw-theme-iconOutline" fill="#464646"/>
    <path id="path51" d="M11.807,21a.554.554,0,0,1-.366-.091.443.443,0,0,1,0-.641L21.69,10.02a.453.453,0,0,1,.64.64L12.173,20.908A.546.546,0,0,1,11.807,21Z" class="aw-theme-iconOutline" fill="#464646"/>
    <path id="rect835" d="M0,6.059H24v1H0Z" class="aw-theme-iconOutline" fill="#464646"/>
    <path id="rect835-2" d="M0,12.059H10.948v1H0v-1Z" class="aw-theme-iconOutline" fill="#464646"/>
    <path id="rect835-7" d="M1,7.059v5H0v-5H1Z" class="aw-theme-iconOutline" fill="#464646"/>
    <path id="rect835-7-0" d="M24,7.059v5H23v-5h1Z" class="aw-theme-iconOutline" fill="#464646"/>
    <path id="rect883" d="M2,9H5v1H2V9Z" class="aw-theme-iconOutline" fill="#464646"/>
    <path id="rect885" d="M7,9h8v1H7V9Z" class="aw-theme-iconOutline" fill="#464646"/>
    <path id="rect887" d="M18,9h2v1H18V9Z" class="aw-theme-iconOutline" fill="#464646"/>
  </g>
</svg>
