<svg version="1.1" id="Artwork" xmlns="http://www.w3.org/2000/svg" xmlns:xlink="http://www.w3.org/1999/xlink" x="0px" y="0px"
	 width="24px" height="24px" viewBox="0 0 24 24" enable-background="new 0 0 24 24" xml:space="preserve">
	<path class="aw-theme-iconOutline" fill="#464646" d="M19,6V3h-4V0H0v18h4v3h4v3h15V6H19z M1,17V1h13v2H4v14H1z M5,20V4h13v2H8v14H5z M22,23H9V7h13V23z"/>
<polygon class="aw-theme-iconOutline" fill="#464646" points="19,14 16,14 16,11 15,11 15,14 12,14 12,15 15,15 15,18 16,18 16,15 19,15 "/>
</svg>
