<svg id="Layer_1" data-name="Layer 1" xmlns="http://www.w3.org/2000/svg" viewBox="0 0 24 24">
  <g id="g831">
    <path id="path6" d="M17.511,21.012l2.794,2.8a.464.464,0,0,0,.659,0l2.794-2.8a.467.467,0,1,0-.659-.661l-2,2V12.028h-.931V22.355l-2-2A.467.467,0,1,0,17.511,21.012Z" class="aw-theme-iconOutline" fill="#464646"/>
    <path id="path959" d="M6.9,12.136V10.468H13V13.8H6.9Z" class="aw-theme-iconOutline" fill="#464646"/>
    <path id="circle2-4" d="M6,3.167A1.028,1.028,0,0,1,5,4.222H5A1.028,1.028,0,0,1,4,3.167H4A1.029,1.029,0,0,1,5,2.111,1.029,1.029,0,0,1,6,3.167Z" class="aw-theme-iconOutline" fill="#464646"/>
    <path id="circle4-8" d="M14.985,3.167a1.028,1.028,0,0,1-1,1.055h0a1.028,1.028,0,0,1-1-1.055h0a1,1,0,1,1,2,0Z" class="aw-theme-iconOutline" fill="#464646"/>
    <path id="path6-4" d="M16.484,0a2.546,2.546,0,0,1,2.5,2.638L19,14.156l-.983-.4,0,.4L17.978,9.5h0V6.332H13L12.988,9.5h5.19l-.094,1.058H11.989l-5,0v3.168H18.187v1.053H6.994v3.166h9.6V19H2.5A2.546,2.546,0,0,1,0,16.36V2.638A2.547,2.547,0,0,1,2.5,0Zm0,1.055H2.5A1.581,1.581,0,0,0,1,2.638V5.277H17.982V2.638A1.581,1.581,0,0,0,16.484,1.055Zm-4.5,5.277h-5V9.5h5ZM6,6.332H1V9.5H6Zm0,4.222H1V13.72H6Zm13,3.168v1.053H18V13.722ZM6,14.775H1V16.36a1.578,1.578,0,0,0,1.5,1.581H6Z" class="aw-theme-iconOutline" fill="#464646"/>
    <path id="rect984" d="M12,14.7l1,0v3.341l-1,0Z" class="aw-theme-iconOutline" fill="#464646"/>
    <path id="path6-4-3" d="M18,14.673v1.691a1.58,1.58,0,0,1-1.5,1.581h-.776V19H16.5A2.545,2.545,0,0,0,19,16.364V14.65Z" class="aw-theme-iconOutline" fill="#464646"/>
  </g>
</svg>
