<svg id="svg8" xmlns="http://www.w3.org/2000/svg" viewBox="0 0 24 24">
  <g id="layer1">
    <g id="g855">
      <path id="rect818" d="M1,2H22V3H1Z" class="aw-theme-iconOutline" fill="#464646" fill-rule="evenodd"/>
      <path id="rect818-7" d="M1,21H22v1H1Z" class="aw-theme-iconOutline" fill="#464646" fill-rule="evenodd"/>
      <path id="rect850-19" d="M21,3h1V21H21Z" class="aw-theme-iconOutline" fill="#464646" fill-rule="evenodd"/>
      <path id="rect850-19-0" d="M1,3H2V21H1Z" class="aw-theme-iconOutline" fill="#464646" fill-rule="evenodd"/>
      <path id="rect850-19-0-8" d="M2,7V6H22V7Z" class="aw-theme-iconOutline" fill="#464646" fill-rule="evenodd"/>
      <path id="rect850-19-0-87" d="M6,7H7V21H6Z" class="aw-theme-iconOutline" fill="#464646" fill-rule="evenodd"/>
      <path id="rect850-19-0-87-7" d="M11,7h1V21H11Z" class="aw-theme-iconOutline" fill="#464646" fill-rule="evenodd"/>
      <path id="rect850-19-0-87-1" d="M16,7h1V21H16Z" class="aw-theme-iconOutline" fill="#464646" fill-rule="evenodd"/>
      <path id="rect850-19-0-8-2" d="M2,12V11H22v1Z" class="aw-theme-iconOutline" fill="#464646" fill-rule="evenodd"/>
      <path id="rect850-19-0-8-0" d="M2,17V16H22v1Z" class="aw-theme-iconOutline" fill="#464646" fill-rule="evenodd"/>
      <path id="path1748" d="M5.5,9A1.5,1.5,0,0,1,4,10.5H4A1.5,1.5,0,0,1,2.5,9h0A1.5,1.5,0,0,1,4,7.5H4A1.5,1.5,0,0,1,5.5,9Z" class="aw-theme-iconOutline" fill="#464646" fill-rule="evenodd"/>
      <path id="path1748-65" d="M15.5,19A1.5,1.5,0,0,1,14,20.5h0A1.5,1.5,0,0,1,12.5,19h0A1.5,1.5,0,0,1,14,17.5h0A1.5,1.5,0,0,1,15.5,19Z" class="aw-theme-iconOutline" fill="#464646" fill-rule="evenodd"/>
      <path id="path1748-0" d="M20.5,14A1.5,1.5,0,0,1,19,15.5h0A1.5,1.5,0,0,1,17.5,14h0A1.5,1.5,0,0,1,19,12.5h0A1.5,1.5,0,0,1,20.5,14Z" class="aw-theme-iconOutline" fill="#464646" fill-rule="evenodd"/>
      <path id="rect828" d="M5,4H19V5H5Z" class="aw-theme-iconOutline" fill="#464646"/>
    </g>
  </g>
</svg>
