<svg id="Layer_1" data-name="Layer 1" xmlns="http://www.w3.org/2000/svg" viewBox="0 0 24 24">
  <g id="g825">
    <path id="rect4" d="M16.286,18.857h3.428v.857H16.286Z" class="aw-theme-iconOutline" fill="#464646"/>
    <path id="rect6" d="M16.286,20.571h3.428v.858H16.286Z" class="aw-theme-iconOutline" fill="#464646"/>
    <path id="path8" d="M21.171,12H12V24H24V14.829Zm-4.885.857H18v1.714h.857V12.857h.857v2.572H16.286Zm5.143,10.286H14.571V18.429A.405.405,0,0,1,15,18h6a.405.405,0,0,1,.429.429Zm1.714,0h-.857V18.429A1.318,1.318,0,0,0,21,17.143H15a1.318,1.318,0,0,0-1.286,1.286v4.714h-.857V12.857h2.572v3.429h5.142V12.857h.258l2.314,2.314Z" class="aw-theme-iconOutline" fill="#464646"/>
    <path id="path839" d="M7.449.063Q6.586.05,5.725.122A7.009,7.009,0,0,0,1,2.026a3.425,3.425,0,0,0-.945,1.7C0,3.918,0,4.3,0,9.135v5.21l.09.316a3.737,3.737,0,0,0,.519,1.1,4.818,4.818,0,0,0,1.045,1.046,6.921,6.921,0,0,0,1.434.811,9.407,9.407,0,0,0,1.744.541l.031-.934c-.445-.148-.259-.081-.683-.229a7.754,7.754,0,0,1-2.352-1.315,2.8,2.8,0,0,1-.65-.861c-.21-.458-.2-.135-.211-4.449L.957,6.462l.309.259a8.785,8.785,0,0,0,4.97,1.791A16,16,0,0,0,8.779,8.45a10.884,10.884,0,0,0,2.3-.555,7.246,7.246,0,0,0,2.107-1.224l.229-.211v4.375h.975V7.493c0-3.564,0-3.613-.155-4.053A3.735,3.735,0,0,0,13.8,2.6a5.435,5.435,0,0,0-1.044-1.011A7.4,7.4,0,0,0,11.045.7,11.306,11.306,0,0,0,8.619.122Q8.036.074,7.449.063Zm-.541.972q.849-.012,1.7.058a7.117,7.117,0,0,1,4.058,1.686A2.165,2.165,0,0,1,13.4,4.054c.147.981-.621,1.981-2.038,2.664a9.127,9.127,0,0,1-2.707.773,20.359,20.359,0,0,1-2.531.044A8.506,8.506,0,0,1,2.234,6.253a4.477,4.477,0,0,1-.955-.959A1.8,1.8,0,0,1,1,3.975,3.482,3.482,0,0,1,3.058,1.8a8.666,8.666,0,0,1,2.684-.7Q6.324,1.051,6.908,1.035Z" class="aw-theme-iconOutline" fill="#464646"/>
    <path id="path2" d="M10.988,21.038A4.978,4.978,0,0,1,8.9,19.3a4.9,4.9,0,0,1-.855-2.781V14.1L9.979,16l.617-.606-3-2.939-3,2.853L5.3,16l1.851-1.9v2.42a5.66,5.66,0,0,0,.958,3.313,5.786,5.786,0,0,0,2.478,2.047Z" class="aw-theme-iconOutline" fill="#464646"/>
  </g>
</svg>
