<svg id="Layer_1" data-name="Layer 1" xmlns="http://www.w3.org/2000/svg" viewBox="0 0 24 24">
  <g id="g832">
    <path id="path6" d="M6.853,17.845l3-2.992a.5.5,0,0,0,0-.706l-3-2.992a.5.5,0,0,0-.708.706L8.292,14H0v1H8.292l-2.147,2.14A.5.5,0,0,0,6.853,17.845Z" class="aw-theme-iconOutline" fill="#464646"/>
    <path id="path959" d="M17.09,14.5v-1.58H11v3.16h6.09Z" class="aw-theme-iconOutline" fill="#464646"/>
    <path id="circle2-4" d="M18,6a1,1,0,0,0,1,1h0a1,1,0,0,0,1-1h0a1,1,0,0,0-1-1h0a1,1,0,0,0-1,1Z" class="aw-theme-iconOutline" fill="#464646"/>
    <path id="circle4-8" d="M9.013,6a1,1,0,0,0,1,1h0a1,1,0,1,0-1-1Z" class="aw-theme-iconOutline" fill="#464646"/>
    <path id="path6-4" d="M7.515,3a2.474,2.474,0,0,0-2.5,2.5V10h1V9H11l.01,3H11l.006,1h1L17,13v3H11v1h6v3H7.407v1H21.493a2.473,2.473,0,0,0,2.5-2.5V5.5a2.474,2.474,0,0,0-2.5-2.5Zm0,1H21.493a1.536,1.536,0,0,1,1.5,1.5V8H6.017V5.5A1.537,1.537,0,0,1,7.515,4Zm4.493,5H17v3H12.008ZM18,9H22.99v3H18Zm0,4H22.99v3H18Zm0,4H22.99v1.5a1.534,1.534,0,0,1-1.5,1.5H18Z" class="aw-theme-iconOutline" fill="#464646"/>
    <path id="rect984" d="M12,16.921H11v3.165h1Z" class="aw-theme-iconOutline" fill="#464646"/>
    <path id="path6-4-3" d="M5.049,19A2.466,2.466,0,0,0,7.5,21h.775V20H7.5a1.536,1.536,0,0,1-1.4-1Z" class="aw-theme-iconOutline" fill="#464646"/>
  </g>
</svg>
