<svg id="Artwork" xmlns="http://www.w3.org/2000/svg" viewBox="0 0 24 24">
  <g id="g960">
    <path id="path2" d="M5.911,5.708A1.621,1.621,0,1,1,7.994,4.75,1.626,1.626,0,0,1,5.911,5.708Zm.843-2.28a.765.765,0,0,0-1.041.478.766.766,0,0,0,.479,1.042.766.766,0,0,0,1.041-.479A.764.764,0,0,0,6.754,3.428Z" class="aw-theme-iconOutline" fill="#464646"/>
    <path id="path4" d="M4.57.018,1.2,9.139,7.5,11.471l-.012-.35h1v0h.416L4.139,9.361,9.607,6.027l.561,2.453L12.9,6.467l.909,3.619-.385,1.039h.865l2.443-6.609Zm.481,1.041,10.64,3.935L14.314,8.719l-.832-3.592L10.75,7.141l-.617-2.3L3.227,9.025l-.989-.367Z" class="aw-theme-iconOutline" fill="#464646"/>
    <path id="path886" d="M7.477,11.127l.394,11.457a1.617,1.617,0,0,0,1.6,1.4h9a1.453,1.453,0,0,0,1.5-1.4l.494-11.457h-1l-.494,11.357a.472.472,0,0,1-.5.5h-9a.472.472,0,0,1-.5-.5L8.477,11.127Z" class="aw-theme-iconOutline" fill="#464646"/>
    <path id="path846" d="M23.874,5.528a1.538,1.538,0,0,0-1.5-1.5h-.5v-4h-.948V.046c0,.031,0,.077,0,.134,0,.115,0,.28,0,.489,0,.418,0,1.009,0,1.716,0,1.415-.008,3.292-.013,5.164-.012,3.746-.028,7.479-.028,7.479h.985v-4h.5a1.538,1.538,0,0,0,1.5-1.5Zm-1,0v4a.472.472,0,0,1-.5.5h-.5v-5h.5A.472.472,0,0,1,22.874,5.528Z" class="aw-theme-iconOutline" fill="#464646"/>
    <path id="polygon4" d="M10.766,21h1l-.3-8h-1Z" class="aw-theme-iconOutline" fill="#464646"/>
    <path id="rect6" d="M13.466,13h1v8h-1Z" class="aw-theme-iconOutline" fill="#464646"/>
    <path id="polygon8" d="M16.266,21h1l.2-8h-1Z" class="aw-theme-iconOutline" fill="#464646"/>
    <path id="rect891" d="M7.5,11.109H20.314v.568H7.5Z" class="aw-theme-iconOutline" fill="#464646"/>
  </g>
</svg>
