<svg id="Layer_1" data-name="Layer 1" xmlns="http://www.w3.org/2000/svg" viewBox="0 0 24 24">
  <g id="g862">
    <path id="rect816" d="M0,0H24V1H0V0Z" class="aw-theme-iconOutline" fill="#464646"/>
    <path id="rect816-9" d="M0,4.043H24v1H0v-1Z" class="aw-theme-iconOutline" fill="#464646"/>
    <path id="rect816-9-0" d="M1,0V24H0V0H1Z" class="aw-theme-iconOutline" fill="#464646"/>
    <path id="rect816-9-0-7" d="M24,0V9H23V0h1Z" class="aw-theme-iconOutline" fill="#464646"/>
    <path id="rect816-9-0-7-3" d="M8,24H0V23H8v1Z" class="aw-theme-iconOutline" fill="#464646"/>
    <path id="rect1037" d="M2,2H6V3H2V2Z" class="aw-theme-iconOutline" fill="#464646"/>
    <path id="rect1037-1" d="M8,2h4V3H8V2Z" class="aw-theme-iconOutline" fill="#464646"/>
    <path id="rect1037-7" d="M14,2h4V3H14V2Z" class="aw-theme-iconOutline" fill="#464646"/>
    <path id="rect1037-7-0" d="M21,2h1V3H21V2Z" class="aw-theme-iconOutline" fill="#464646"/>
    <path id="rect841" d="M6,5H7V23H6V5Z" class="aw-theme-iconOutline" fill="#464646"/>
    <path id="rect841-3" d="M12,5h1V16H12V5Z" class="aw-theme-iconOutline" fill="#464646"/>
    <path id="rect841-0" d="M18,5h1v5H18V5Z" class="aw-theme-iconOutline" fill="#464646"/>
    <path id="rect841-32" d="M19,9v1H1V9H19Z" class="aw-theme-iconOutline" fill="#464646"/>
    <path id="rect841-32-9" d="M14,14v1H1V14H14Z" class="aw-theme-iconOutline" fill="#464646"/>
    <path id="rect841-32-9-3" d="M9,19v1H1V19H9Z" class="aw-theme-iconOutline" fill="#464646"/>
    <path id="path852" d="M9.209,23.989c-.156-.03-.309-.176-.309-.293s1.335-4.088,1.433-4.235c.041-.064,2.316-2.283,5.043-4.933,3.724-3.618,5.03-4.849,5.229-4.941a1.433,1.433,0,0,1,.51-.126c.509,0,.646.083,1.616,1A12.885,12.885,0,0,1,23.754,11.5a1.366,1.366,0,0,1-.015,1.418c-.067.09-2.326,2.3-5.018,4.908l-4.9,4.741-2.111.7c-2.155.716-2.309.762-2.5.721Zm2.15-1.393c.667-.206,1.233-.392,1.258-.413A16.993,16.993,0,0,0,10.925,20.5a11.449,11.449,0,0,0-.422,1.163c-.213.64-.4,1.2-.411,1.234s-.009.069.013.069.587-.166,1.254-.371ZM17.5,17.855l4.012-3.882-1.05-1.021a12.819,12.819,0,0,0-1.1-1.007c-.075.021-7.986,7.683-7.991,7.739s2.016,2.046,2.079,2.051c.024,0,1.847-1.746,4.053-3.879Zm5.513-5.388c.163-.288.11-.373-.759-1.225a8.084,8.084,0,0,0-.957-.855c-.213-.068-.352.01-.846.474l-.478.448L21.04,12.34l1.065,1.03.422-.392a4.27,4.27,0,0,0,.485-.512Z" class="aw-theme-iconOutline" fill="#464646"/>
  </g>
</svg>
