<svg id="Layer_1" data-name="Layer 1" xmlns="http://www.w3.org/2000/svg" viewBox="0 0 24 24">
  <g id="g824">
    <path id="polygon2" d="M12,21H0V0H21V10H20V1H1V20H12Z" class="aw-theme-iconOutline" fill="#464646"/>
    <path id="path8" d="M11.5,11h-8A1.5,1.5,0,0,1,2,9.5v-1A1.5,1.5,0,0,1,3.5,7h8A1.5,1.5,0,0,1,13,8.5v1A1.5,1.5,0,0,1,11.5,11Zm-8-3a.5.5,0,0,0-.5.5v1a.5.5,0,0,0,.5.5h8a.5.5,0,0,0,.5-.5v-1a.5.5,0,0,0-.5-.5Z" class="aw-theme-iconOutline" fill="#464646"/>
    <path id="path10" d="M9.5,16A1.5,1.5,0,0,1,8,14.5H8v-1A1.5,1.5,0,0,1,9.5,12H12v1H9.5a.5.5,0,0,0-.5.5v1a.5.5,0,0,0,.5.5H12v1Z" class="aw-theme-iconOutline" fill="#464646"/>
    <path id="path12" d="M2,2V4.707l2,2L5.707,5h9.586L17,6.707l2-2V2ZM15,3V4H6V3ZM5,4.293l-1,1-1-1V3H5Zm13,0-1,1-1-1V3h2Z" class="aw-theme-iconOutline" fill="#464646"/>
    <path id="polygon2-2" d="M17,17v1h5.256l-1.7,1.6.8.8,2.8-2.9-2.8-2.9-.8.8,1.7,1.6Z" class="aw-theme-iconOutline" fill="#464646"/>
    <path id="polygon4-1" d="M19,12H14V23h5V21h1v3H13V11h7v3H19Z" class="aw-theme-iconOutline" fill="#464646"/>
  </g>
</svg>
