<svg id="Image" xmlns="http://www.w3.org/2000/svg" viewBox="0 0 24 24">
  <g id="g841">
    <path id="path827" d="M17.211,11.006A6.491,6.491,0,1,0,17.48,11C17.391,11,17.3,11,17.211,11.006Zm.27.994a5.5,5.5,0,1,1-5.5,5.5A5.506,5.506,0,0,1,17.481,12Z" class="aw-theme-iconOutline" fill="#464646"/>
    <path id="path823" d="M20.9,16.919h-3v-3h-1v3h-3v1h3v3h1v-3h3Z" class="aw-theme-iconOutline" fill="#464646"/>
    <path id="path849" d="M11.343,13.239a7.55,7.55,0,0,0-.525.883l-1.605-.515v-2.3l2.941.949a7.556,7.556,0,0,0-.7.827l-1.245-.4v.193Z" class="aw-theme-iconOutline" fill="#464646"/>
    <path id="path847" d="M11.725,22.3H2.01V15.953l8.071,2.6a7.046,7.046,0,0,1,.121-2.744L2,13.17v-.18l8.242,2.664a7.712,7.712,0,0,1,.308-.952L1,11.616V13.9l8.213,2.647v.682L1.01,14.58V23.3H12.726A7.567,7.567,0,0,1,11.725,22.3Z" class="aw-theme-iconOutline" fill="#464646"/>
    <path id="path845" d="M18.653,8.625h1.568v1.907a7.51,7.51,0,0,1,1,.477V7.625H17.653v2.4a7.614,7.614,0,0,1,1,.09Z" class="aw-theme-iconOutline" fill="#464646"/>
    <path id="path843" d="M15.75.3a2.868,2.868,0,0,0-2.26,1.06,1.2,1.2,0,0,1-1.361.071,2.537,2.537,0,0,0-3.065.111c-.439.361-.56.312-1.009.127A4.457,4.457,0,0,0,7.3,1.418a2.434,2.434,0,0,0-2,.467,2.227,2.227,0,0,0-.822,1.779,2.3,2.3,0,0,0,1.072,1.9,2.179,2.179,0,0,0,1.967.223c.172-.077.327-.16.47-.238.483-.262.6-.326,1.133.113a2.479,2.479,0,0,0,3.389-.35.658.658,0,0,1,.49-.25.93.93,0,0,1,.7.264,2.584,2.584,0,0,0,2.09.848,2.993,2.993,0,0,0,1.721-.588,1.6,1.6,0,0,1,1.049,1.365l.072.414h1.943l.014-.488a4.732,4.732,0,0,0-1.942-3.553,3.757,3.757,0,0,0-.277-1.4A2.8,2.8,0,0,0,16.1.326,2.928,2.928,0,0,0,15.75.3Zm.045,1a1.272,1.272,0,0,1,.185.017,1.828,1.828,0,0,1,1.471.993,2.91,2.91,0,0,1,.2,1.265l-.015.319.277.148a3.708,3.708,0,0,1,1.623,2.322h-.09A2.292,2.292,0,0,0,17.37,4.573H17.2l-.131.1a2.165,2.165,0,0,1-1.265.5,1.608,1.608,0,0,1-1.4-.553,1.929,1.929,0,0,0-1.47-.555,1.65,1.65,0,0,0-1.206.623,1.473,1.473,0,0,1-1.972.2A1.68,1.68,0,0,0,7.51,4.671c-.12.066-.25.135-.4.2a1.179,1.179,0,0,1-1.031-.152A1.269,1.269,0,0,1,5.47,3.646a1.2,1.2,0,0,1,.443-.982A1.438,1.438,0,0,1,7.08,2.4a3.367,3.367,0,0,1,.588.2A1.68,1.68,0,0,0,9.7,2.311a1.562,1.562,0,0,1,1.9-.032,2.169,2.169,0,0,0,2.621-.232A1.873,1.873,0,0,1,15.8,1.3Z" class="aw-theme-iconOutline" fill="#464646"/>
  </g>
</svg>
