<svg id="Layer_1" data-name="Layer 1" xmlns="http://www.w3.org/2000/svg" viewBox="0 0 24 24">
  <g id="g819">
    <path id="path2" d="M23.588,10.9,22.1,9.41a1.442,1.442,0,0,0-1.988,0l-9.571,9.57a.465.465,0,0,0-.113.188L9.023,23.387A.469.469,0,0,0,9.467,24a.459.459,0,0,0,.148-.024l4.219-1.407a.474.474,0,0,0,.188-.112l9.566-9.571A1.407,1.407,0,0,0,23.588,10.9ZM11.536,19.312l7.7-7.695,2.15,2.15-7.695,7.7Zm-.457.868,1.739,1.739-2.609.871Zm11.846-7.957-.881.881-2.15-2.15.881-.881a.482.482,0,0,1,.663,0l1.487,1.487h0a.468.468,0,0,1,0,.662Z" class="aw-theme-iconOutline" fill="#464646"/>
    <path id="path2-4" d="M19,2.643C19,.552,12.786,0,9.5,0S0,.552,0,2.643A1.056,1.056,0,0,0,.18,3.2H.163L7,13.649V20.5a.5.5,0,0,0,.8.4l1.5-1-.6-.8-.7.4v-6a.5.5,0,0,0-.082-.274L2.136,4.4A27.836,27.836,0,0,0,9.5,5.286,27.863,27.863,0,0,0,16.862,4.4L10.146,14.706l.964.269L18.815,3.239H18.8A1.065,1.065,0,0,0,19,2.643Zm-18,0C1,2.152,3.892,1,9.5,1S18,2.152,18,2.643,15.108,4.286,9.5,4.286,1,3.134,1,2.643Z" class="aw-theme-iconOutline" fill="#464646"/>
    <path id="rect832" d="M10.146,14.706h1.017v2.331H10.146V14.706Z" class="aw-theme-iconOutline" fill="#464646"/>
  </g>
</svg>
