<svg id="Layer_1" data-name="Layer 1" xmlns="http://www.w3.org/2000/svg" viewBox="0 0 24 24">
  <g id="g836">
    <path id="path6" d="M20.853,17.845l3-2.992a.5.5,0,0,0,0-.706l-3-2.992a.5.5,0,0,0-.708.706L22.292,14H14v1h8.292l-2.147,2.14A.5.5,0,0,0,20.853,17.845Z" class="aw-theme-iconOutline" fill="#464646"/>
    <path id="path959" d="M6.9,14.5v-1.58H13v3.16H6.9Z" class="aw-theme-iconOutline" fill="#464646"/>
    <path id="circle2-4" d="M5.992,6a1,1,0,1,1-1-1A1,1,0,0,1,5.992,6Z" class="aw-theme-iconOutline" fill="#464646"/>
    <path id="circle4-8" d="M14.977,6a1,1,0,0,1-1,1h0a1,1,0,0,1-1-1h0a1,1,0,0,1,1-1h0a1,1,0,0,1,1,1Z" class="aw-theme-iconOutline" fill="#464646"/>
    <path id="path6-4" d="M16.475,3a2.474,2.474,0,0,1,2.5,2.5V10h-1V9H13l-.02,3h0v1h-1L6.99,13v3H13v1H6.99v3h9.593v1H2.5A2.473,2.473,0,0,1,0,18.5V5.5A2.474,2.474,0,0,1,2.5,3Zm0,1H2.5A1.536,1.536,0,0,0,1,5.5V8H17.973V5.5A1.537,1.537,0,0,0,16.475,4ZM11.982,9H6.99v3h4.992ZM5.992,9H1v3H5.992Zm0,4H1v3H5.992Zm0,4H1v1.5A1.534,1.534,0,0,0,2.5,20h3.5Z" class="aw-theme-iconOutline" fill="#464646"/>
    <path id="rect984" d="M11.994,16.921H13v3.165H11.994Z" class="aw-theme-iconOutline" fill="#464646"/>
    <path id="path6-4-3" d="M18.941,19a2.466,2.466,0,0,1-2.447,2h-.775V20h.775a1.536,1.536,0,0,0,1.4-1Z" class="aw-theme-iconOutline" fill="#464646"/>
  </g>
</svg>
