<svg version="1.1" id="Layer_1" xmlns="http://www.w3.org/2000/svg" xmlns:xlink="http://www.w3.org/1999/xlink" x="0px" y="0px"
	 viewBox="0 0 24 24" enable-background="new 0 0 24 24" xml:space="preserve">
<path class="aw-theme-iconOutline" fill="#464646"  d="M19,2.6C19,0.6,12.8,0,9.5,0S0,0.6,0,2.6C0,2.8,0.1,3,0.2,3.2h0L7,13.6v6.9C7,20.8,7.2,21,7.5,21
	c0.1,0,0.2,0,0.3-0.1l2-1.5l-0.6-0.8L8,19.5v-6c0-0.1,0-0.2-0.1-0.3L2.1,4.4C4.5,5,7,5.3,9.5,5.3c2.5,0,5-0.3,7.4-0.9l-4.2,6.4
	l0.8,0.5l5.3-8.2h0C18.9,3.1,19,2.9,19,2.6z M1,2.6C1,2.2,3.9,1,9.5,1S18,2.2,18,2.6s-2.9,1.6-8.5,1.6S1,3.1,1,2.6z"/>
<path class="aw-theme-iconOutline" fill="#464646"  d="M17.5,24c-3.6,0-6.5-2.9-6.5-6.5s2.9-6.5,6.5-6.5s6.5,2.9,6.5,6.5S21.1,24,17.5,24z M17.5,12
	c-3,0-5.5,2.5-5.5,5.5s2.5,5.5,5.5,5.5s5.5-2.5,5.5-5.5S20.5,12,17.5,12z"/>
<rect class="aw-theme-iconOutline" fill="#464646"  x="14" y="17" width="7" height="1"/>
</svg>
