<svg id="Layer_1" data-name="Layer 1" xmlns="http://www.w3.org/2000/svg" viewBox="0 0 24 24">
  <g id="g936">
    <path id="rect822-3" d="M0,0H23V3H0Z" class="aw-theme-iconOutline" fill="#464646"/>
    <path id="rect839" d="M0,0H1V24H0Z" class="aw-theme-iconOutline" fill="#464646"/>
    <path id="rect839-2" d="M23,0h1V24H23Z" class="aw-theme-iconOutline" fill="#464646"/>
    <path id="rect839-8" d="M20,13h1V23H20Z" class="aw-theme-iconOutline" fill="#464646"/>
    <path id="rect839-2-7" d="M7,2H8v9H7Z" class="aw-theme-iconOutline" fill="#464646"/>
    <path id="rect822-8-3" d="M4,12H21v1H4Z" class="aw-theme-iconOutline" fill="#464646"/>
    <path id="rect822-3-5-1" d="M4,23H21v1H4Z" class="aw-theme-iconOutline" fill="#464646"/>
    <path id="rect839-8-1" d="M4,13H5V23H4Z" class="aw-theme-iconOutline" fill="#464646"/>
    <path id="rect839-2-7-0" d="M17,2h1v9H17Z" class="aw-theme-iconOutline" fill="#464646"/>
    <path id="rect863-7" d="M16,15v3h3V15Zm1,1h1v1H17Z" class="aw-theme-iconOutline" fill="#464646"/>
    <path id="path6" d="M15.658,6.968l-2.794-2.8a.464.464,0,0,0-.659,0l-2.794,2.8a.467.467,0,0,0,.659.662l2-2V12H13V5.625L15,7.63A.467.467,0,0,0,15.658,6.968Z" class="aw-theme-iconOutline" fill="#464646"/>
    <path id="path6-1" d="M7.558,18a.5.5,0,0,1-.354-.146l-1-1a.5.5,0,0,1,.708-.708l.568.569,1.662-2.492a.5.5,0,0,1,.832.554l-2,3A.5.5,0,0,1,7.607,18Z" class="aw-theme-iconOutline" fill="#464646"/>
    <path id="path6-1-4" d="M12.52,18a.5.5,0,0,1-.354-.146l-1-1a.5.5,0,1,1,.708-.708l.568.569L14.1,14.223a.5.5,0,0,1,.832.554l-2,3a.5.5,0,0,1-.367.223Z" class="aw-theme-iconOutline" fill="#464646"/>
    <path id="rect901" d="M14,19v3h5V19Zm1,1h3v1H15Z" class="aw-theme-iconOutline" fill="#464646"/>
    <path id="rect901-6" d="M8.074,19v3h5V19Zm1,1h3v1h-3Z" class="aw-theme-iconOutline" fill="#464646"/>
  </g>
</svg>
