<svg id="Layer_1" data-name="Layer 1" xmlns="http://www.w3.org/2000/svg" viewBox="0 0 24 24">
  <g id="g823">
    <path id="path4" d="M13,23H0V18H13ZM1,22H12V19H1Z" class="aw-theme-iconOutline" fill="#464646"/>
    <path id="path8" d="M13,5H0V0H13ZM1,4H12V1H1Z" class="aw-theme-iconOutline" fill="#464646"/>
    <path id="path8-1" d="M0,9v5H9V13H1V10H8.033V9Z" class="aw-theme-iconOutline" fill="#464646"/>
    <path id="path2" d="M23.924,10c0-1.944-6.732-2-7.5-2s-7.5.056-7.5,2a.847.847,0,0,0,.194.508l5.306,8.141V23.5a.5.5,0,0,0,.264.441.506.506,0,0,0,.236.059.5.5,0,0,0,.277-.084l3-2a.5.5,0,0,0,.223-.416V18.649l5.305-8.14A.848.848,0,0,0,23.924,10Zm-7.5-1c3.7,0,6.024.611,6.458,1-.434.389-2.758,1-6.458,1s-6.024-.611-6.458-1C10.4,9.611,12.724,9,16.424,9Zm1.082,9.226a.5.5,0,0,0-.082.274v2.732l-2,1.333V18.5a.5.5,0,0,0-.082-.274L10.9,11.432A25.961,25.961,0,0,0,16.424,12a25.957,25.957,0,0,0,5.534-.569Z" class="aw-theme-iconOutline" fill="#464646"/>
  </g>
</svg>
