<svg id="Layer_1" data-name="Layer 1" xmlns="http://www.w3.org/2000/svg" viewBox="0 0 24 24">
  <g id="g826">
    <path id="path853" d="M11.3,23.407a2.529,2.529,0,0,0-1.024-.382,3.33,3.33,0,0,1-1-.349.517.517,0,0,1,.012-.356c.022-.044.368-.41.769-.816l.73-.736.434-1.582c.24-.869.458-1.632.486-1.7.035-.078,1.507-1.377,4.623-4.08,2.514-2.18,4.611-3.992,4.659-4.027a.417.417,0,0,1,.49.042c.077.057.668.635,1.313,1.285,1.044,1.05,1.176,1.2,1.2,1.323a.523.523,0,0,1-.024.277c-.032.087-1.436,1.736-3.982,4.676-2.163,2.5-3.948,4.57-3.968,4.6a10.82,10.82,0,0,1-1.7.527l-1.669.463-.432.426c-.335.331-.465.436-.58.468C11.438,23.53,11.441,23.53,11.3,23.407Zm.2-1.534-.317-.315-.358.378-.359.377.46.149.46.148L11.6,22.4l.215-.212Zm2.247-.441c.653-.178,1.193-.328,1.2-.334s-.578-.6-1.3-1.319-1.315-1.3-1.323-1.292-.162.55-.341,1.2l-.324,1.185.437.441c.24.242.442.44.449.44S13.092,21.61,13.746,21.432Zm5.627-4.994C21.369,14.117,23,12.2,23,12.18s-.41-.448-.912-.95l-.912-.912-1.826,1.6-4.226,3.694-2.4,2.1,1.484,1.486c.817.817,1.5,1.482,1.511,1.477S17.378,18.76,19.373,16.438Z" class="aw-theme-iconOutline" fill="#464646"/>
    <path id="path2" d="M18.981,2.642C18.981.552,12.776,0,9.494,0S.006.552.006,2.642a1.064,1.064,0,0,0,.18.556H.169L7,13.642v6.847a.5.5,0,0,0,.8.4l2-1.5-.6-.8-1.2.9v-6a.5.5,0,0,0-.082-.274L2.14,4.4a27.761,27.761,0,0,0,7.354.885A27.787,27.787,0,0,0,16.846,4.4L12.631,10.84l.836.548L18.8,3.237h-.015A1.061,1.061,0,0,0,18.981,2.642ZM1,2.642C1,2.151,3.893,1,9.494,1s8.489,1.152,8.489,1.643S15.1,4.284,9.494,4.284,1,3.132,1,2.642Z" class="aw-theme-iconOutline" fill="#464646"/>
    <path id="rect848" d="M.006,22.716l9.318.009c.7.237,2.57.358,2,1.275H0Z" class="aw-theme-iconOutline" fill="#464646"/>
    <path id="rect815" d="M.573,21.025l4.371-.012c.183,0,.286.179.407.318l.229.262c.12.138.386.407.2.407H1.157a.484.484,0,0,1-.432-.292l-.114-.276C.541,21.263.39,21.026.573,21.025Z" class="aw-theme-iconOutline" fill="#464646"/>
    <path id="rect817" d="M.222,21.924H7.274a.619.619,0,0,1,.5.292l.14.163c.138.16.364.395.153.394L.819,22.76c-.211,0-.235-.093-.356-.266l-.139-.2C.2,22.119.011,21.924.222,21.924Z" class="aw-theme-iconOutline" fill="#464646"/>
  </g>
</svg>
