<svg id="Layer_1" data-name="Layer 1" xmlns="http://www.w3.org/2000/svg" viewBox="0 0 24 24">
  <g id="g875">
    <path id="rect816" d="M0,0H24V1H0V0Z" class="aw-theme-iconOutline" fill="#464646"/>
    <path id="rect816-9" d="M0,4.043H24v1H0v-1Z" class="aw-theme-iconOutline" fill="#464646"/>
    <path id="rect816-9-0" d="M1,0V24H0V0H1Z" class="aw-theme-iconOutline" fill="#464646"/>
    <path id="rect816-9-0-7" d="M24,0V24H23V0h1Z" class="aw-theme-iconOutline" fill="#464646"/>
    <path id="rect816-9-0-7-3" d="M24,24H0V23H24v1Z" class="aw-theme-iconOutline" fill="#464646"/>
    <path id="rect993" d="M2,7H4V9H2V7Z" class="aw-theme-iconOutline" fill="#464646"/>
    <path id="rect995" d="M5.964,7.045H13v2H5.964v-2Z" class="aw-theme-iconOutline" fill="#464646"/>
    <path id="rect997" d="M6.067,11.045H9.126v2H6.067v-2Z" class="aw-theme-iconOutline" fill="#464646"/>
    <path id="rect995-9" d="M5.939,15h7v2h-7V15Z" class="aw-theme-iconOutline" fill="#464646"/>
    <path id="rect1037" d="M2,2H6V3H2V2Z" class="aw-theme-iconOutline" fill="#464646"/>
    <path id="rect1037-1" d="M8,2h4V3H8V2Z" class="aw-theme-iconOutline" fill="#464646"/>
    <path id="rect1037-7" d="M14,2h4V3H14V2Z" class="aw-theme-iconOutline" fill="#464646"/>
    <path id="rect993-0" d="M2,11H4v2H2V11Z" class="aw-theme-iconOutline" fill="#464646"/>
    <path id="rect993-1" d="M2.056,15h2v2h-2V15Z" class="aw-theme-iconOutline" fill="#464646"/>
    <path id="rect993-11" d="M2.056,19h2v2h-2V19Z" class="aw-theme-iconOutline" fill="#464646"/>
    <path id="rect997-8" d="M6,19h5v2H6V19Z" class="aw-theme-iconOutline" fill="#464646"/>
    <path id="rect997-8-3" d="M17.1,7.036h5v2h-5v-2Z" class="aw-theme-iconOutline" fill="#464646"/>
    <path id="rect995-9-4" d="M12,11h7v2H12V11Z" class="aw-theme-iconOutline" fill="#464646"/>
    <path id="rect997-8-1" d="M16.9,15h5v2h-5V15Z" class="aw-theme-iconOutline" fill="#464646"/>
    <path id="rect995-8" d="M13.885,19H22v2H13.885V19Z" class="aw-theme-iconOutline" fill="#464646"/>
    <path id="rect1037-7-3" d="M21,2h1V3H21V2Z" class="aw-theme-iconOutline" fill="#464646"/>
  </g>
</svg>
