<svg id="Image" xmlns="http://www.w3.org/2000/svg" viewBox="0 0 24 24">
  <path id="path829" d="M18.459,6.194A2.233,2.233,0,0,0,16.38,9.252l-1,.7a3.887,3.887,0,0,0-6.695.916L5.558,9.946a2.254,2.254,0,1,0-.518,1.068l3.388,1c-.009.113-.034.22-.034.336a3.882,3.882,0,0,0,.251,1.34L7.417,14.4A2.228,2.228,0,1,0,7.836,15.7c0-.06-.013-.116-.018-.175l1.393-.812a3.879,3.879,0,0,0,6.554-.571l2.713.775a1.711,1.711,0,0,0-.021.226A2.236,2.236,0,1,0,20.693,12.9h0v0a2.226,2.226,0,0,0-1.8.916l-2.747-.783a3.911,3.911,0,0,0,.07-.691,3.867,3.867,0,0,0-.261-1.37l1.128-.788a2.232,2.232,0,1,0,1.372-3.995Zm.034,1.168a1.072,1.072,0,0,1-.031,2.144,1.026,1.026,0,0,1-.3-.06,1.049,1.049,0,0,1-.747-.9,1.126,1.126,0,0,1-.026-.11,1.073,1.073,0,0,1,1.074-1.072ZM3.29,8.475h.029A1.072,1.072,0,0,1,4.434,9.5v.043c0,.022-.012.041-.013.062a1.048,1.048,0,0,1-.862.967,1.027,1.027,0,0,1-.2.044A1.073,1.073,0,0,1,3.29,8.475Zm9.068,1.131a2.733,2.733,0,0,1,2.064,1.021,2.7,2.7,0,0,1,.536,1.053,2.744,2.744,0,0,1-1.991,3.331,2.777,2.777,0,0,1-.661.083l0,0a2.8,2.8,0,0,1-2.745-2.745,2.732,2.732,0,0,1,2.722-2.742Zm8.366,4.464a1.073,1.073,0,0,1-.031,2.145l0,0a1.057,1.057,0,0,1-1.045-.958,1.016,1.016,0,0,1-.021-.11A1.072,1.072,0,0,1,20.7,14.071h.027Zm-15.276.561a.964.964,0,0,1,.152,0,1.072,1.072,0,1,1-.192,0l.04,0Z" class="aw-theme-iconOutline" fill="#464646"/>
</svg>
