<svg id="Layer_1" data-name="Layer 1" xmlns="http://www.w3.org/2000/svg" viewBox="0 0 24 24">
  <g id="g828">
    <path id="path821" d="M7.4,15.97a1.1,1.1,0,0,1-.85-.8,26.9,26.9,0,0,1-.04-2.841V9.643H7.726V9.154a3.614,3.614,0,0,1,.1-1.038A2.953,2.953,0,0,1,8.868,6.564,3.6,3.6,0,0,1,9.814,6.1a2.919,2.919,0,0,1,2.422.4,3.863,3.863,0,0,1,.749.757,3.052,3.052,0,0,1,.459,1.206c.015.108.027.418.027.69v.494h1.221v2.69a27.672,27.672,0,0,1-.039,2.839,1.082,1.082,0,0,1-.88.8C13.564,16.005,7.582,16,7.4,15.97Zm6.356-.912c.051-.05.051-.078.045-2.294l-.007-2.244H7.408L7.4,12.764c-.006,2.216,0,2.244.045,2.294s.082.051,3.153.051S13.7,15.109,13.751,15.058Zm-1.17-5.917a2.273,2.273,0,0,0-.135-1A1.832,1.832,0,0,0,12,7.48a1.9,1.9,0,0,0-1.531-.6,2.028,2.028,0,0,0-1.814,1.61,4.2,4.2,0,0,0-.037.671v.481h3.967Z" fill="#464646"/>
    <path id="path823" d="M10.166,13.813v-.355l-.1-.054a1.027,1.027,0,0,1-.412-.451.74.74,0,0,1-.081-.438.709.709,0,0,1,.082-.435,1.039,1.039,0,0,1,1.89-.009.728.728,0,0,1,.087.457.737.737,0,0,1-.075.432,1.094,1.094,0,0,1-.417.444l-.1.054v.71h-.865Zm.544-1.177a.178.178,0,0,0-.009-.251.14.14,0,0,0-.2-.007c-.073.05-.081.223-.012.263a.227.227,0,0,0,.219-.005Z" fill="#464646"/>
    <path id="path2" d="M19.7,7.1l-.8.8L22.1,11H17.975a7.491,7.491,0,0,0-14.95,0H0v1H3.025a7.491,7.491,0,0,0,14.95,0H22.1L18.9,15.105l.8.8L24,11.5ZM10.469,18a6.5,6.5,0,1,1,6.5-6.5A6.5,6.5,0,0,1,10.469,18Z" fill="#464646"/>
  </g>
</svg>
