<svg id="Layer_1" data-name="Layer 1" xmlns="http://www.w3.org/2000/svg" viewBox="0 0 24 24">
  <g id="g831">
    <path id="path4563-7" d="M14.468,10.472a1.64,1.64,0,0,1-1.036-.687,1.591,1.591,0,0,1,.2-2.056,1.55,1.55,0,0,1,1.424-.45,1.62,1.62,0,0,1,.031,3.182,1.314,1.314,0,0,1-.615.011Zm.6-.982a.685.685,0,1,0-.982-.616.678.678,0,0,0,.392.627A.784.784,0,0,0,15.071,9.49Z" class="aw-theme-iconOutline" fill="#464646"/>
    <path id="path4565-0" d="M14.42,4.936a4.725,4.725,0,0,0-2.846.957,4,4,0,0,0-1.283,4.556l.119.346-.566.564-.565.567v1.279H7.711V14.74H6.463l-.789.793c-.735.739-.793.808-.844.981a.676.676,0,0,0,0,.515c.051.172.11.241.844.981s.879.865,1.082.931a1.064,1.064,0,0,0,.615-.072c.107-.053.956-.88,2.881-2.8l.779-.777V13.928L9.9,15.059c-1.589,1.589-2.908,2.888-2.929,2.888a6.618,6.618,0,0,1-.608-.586L5.8,16.775l.541-.539.537-.541H8.666V14.16h1.568V12.334l.68-.678.68-.679-.174-.344a3.156,3.156,0,0,1-.4-1.328A3.271,3.271,0,0,1,11.3,7.7a3.393,3.393,0,0,1,2.472-1.744,4.6,4.6,0,0,1,1.653.063,3.762,3.762,0,0,1,2.058,1.4A4.2,4.2,0,0,1,17.99,8.48,3.413,3.413,0,0,1,17.645,11h1.08a4.62,4.62,0,0,0,.248-.762,4.962,4.962,0,0,0,.015-1.7A4.476,4.476,0,0,0,17.27,5.854,4.691,4.691,0,0,0,14.42,4.936Z" class="aw-theme-iconOutline" fill="#464646"/>
    <path id="path4561-6" d="M5.165,5.615a1.818,1.818,0,0,1-1.116-.8,1.691,1.691,0,0,1,.306-1.977,1.642,1.642,0,0,1,2.109-.16,1.536,1.536,0,0,1,.657,1.21,1.611,1.611,0,0,1-.467,1.3,1.515,1.515,0,0,1-.8.423A1.315,1.315,0,0,1,5.165,5.615Zm.507-.94a.744.744,0,0,0,.5-.665.772.772,0,0,0-.28-.54.709.709,0,0,0-.851.04.654.654,0,0,0-.012.983A.629.629,0,0,0,5.672,4.675Z" class="aw-theme-iconOutline" fill="#464646"/>
    <path id="path4559-9" d="M0,9.436V1.606H2.381l.183-.085a1.646,1.646,0,0,1,.289-.1c.089-.017.113-.043.148-.162A1.711,1.711,0,0,1,3.913.216a1.141,1.141,0,0,1,.6-.139A1.511,1.511,0,0,1,5.38.248l.211.1L5.747.277A1.683,1.683,0,0,1,8.1,1.368c.02.11.037.124.216.179a42.659,42.659,0,0,0,4.91.06h4.716V4.881h-.955V2.562H9.373l.022.093a3.6,3.6,0,0,1,.042.367,1.56,1.56,0,0,1-.191.9l-.1.183.1.207a1.6,1.6,0,0,1-.024,1.427,1.7,1.7,0,0,1-1.058.884c-.12.033-.147.057-.183.166a1.805,1.805,0,0,1-.7.916l-.149.087v3.968l-.819-.818-.819-.819-.818.819-.819.818V7.8L3.71,7.721a1.694,1.694,0,0,1-.784-.943l-.084-.235-.2-.074a1.383,1.383,0,0,1-.632-.42,1.646,1.646,0,0,1-.267-1.944l.1-.182-.108-.229a1.122,1.122,0,0,1-.109-.68V2.562H.955L.964,9.427l.008,6.865L2.5,16.3l1.526.008v.954H0Zm5.176-.367.316-.314.317.314a3.091,3.091,0,0,0,.341.315,5.281,5.281,0,0,0,.025-.713V7.957L6,7.919a2.023,2.023,0,0,1-.389-.142l-.211-.1-.136.07a1.713,1.713,0,0,1-.294.109l-.158.039v.747a5.573,5.573,0,0,0,.025.746A3.2,3.2,0,0,0,5.176,9.069ZM6.779,6.9a.72.72,0,0,0,.314-.61,1.153,1.153,0,0,1,.084-.362.584.584,0,0,1,.5-.209A.694.694,0,0,0,8.426,5a.712.712,0,0,0-.239-.55.48.48,0,0,1,.036-.759A.688.688,0,0,0,8.4,2.805a.65.65,0,0,0-.629-.382c-.435-.044-.577-.186-.579-.578a.721.721,0,0,0-.252-.6.708.708,0,0,0-.975.039.512.512,0,0,1-.82-.026.739.739,0,0,0-1.139.071.669.669,0,0,0-.12.414c-.031.425-.2.583-.609.583a.685.685,0,0,0-.513.183.726.726,0,0,0-.031,1.005c.3.309.3.617.009.839a.7.7,0,0,0-.186.838A.618.618,0,0,0,3.2,5.6a.62.62,0,0,1,.533.235.633.633,0,0,1,.059.3.669.669,0,0,0,.642.728c.268,0,.386-.062.656-.345.177-.184.284-.269.338-.269.077,0,.216.129.479.446a.881.881,0,0,0,.256.207.781.781,0,0,0,.621,0Z" class="aw-theme-iconOutline" fill="#464646"/>
    <path id="rect4" d="M16.286,18.857h3.428v.857H16.286Z" class="aw-theme-iconOutline" fill="#464646"/>
    <path id="rect6" d="M16.286,20.571h3.428v.858H16.286Z" class="aw-theme-iconOutline" fill="#464646"/>
    <path id="path8-3" d="M21.171,12H12V24H24V14.829Zm-4.885.857H18v1.714h.857V12.857h.857v2.572H16.286Zm5.143,10.286H14.571V18.429A.405.405,0,0,1,15,18h6a.405.405,0,0,1,.429.429Zm1.714,0h-.857V18.429A1.318,1.318,0,0,0,21,17.143H15a1.318,1.318,0,0,0-1.286,1.286v4.714h-.857V12.857h2.572v3.429h5.142V12.857h.258l2.314,2.314Z" class="aw-theme-iconOutline" fill="#464646"/>
  </g>
</svg>
