<svg id="Layer_1" data-name="Layer 1" xmlns="http://www.w3.org/2000/svg" viewBox="0 0 24 24">
  <g id="g824">
    <path id="path4563" d="M14.468,10.411a1.64,1.64,0,0,1-1.036-.687,1.591,1.591,0,0,1,.2-2.056,1.55,1.55,0,0,1,1.424-.45,1.62,1.62,0,0,1,.031,3.182,1.3,1.3,0,0,1-.615.011Zm.6-.982a.685.685,0,1,0-.982-.615.68.68,0,0,0,.392.627A.784.784,0,0,0,15.071,9.429Z" class="aw-theme-iconOutline" fill="#464646"/>
    <path id="path4565" d="M14.42,4.874a4.738,4.738,0,0,0-2.846.957,4,4,0,0,0-1.283,4.557l.119.346-.566.564-.565.569v1.279H7.711v1.535H6.463l-.789.793c-.735.739-.793.806-.844.979a.676.676,0,0,0,0,.515c.051.172.11.241.844.981s.879.865,1.082.931a1.064,1.064,0,0,0,.615-.072c.1-.052.95-.874,2.777-2.7a7.5,7.5,0,0,1,.76-2.121L9.9,15c-1.589,1.59-2.908,2.889-2.929,2.889a6.618,6.618,0,0,1-.608-.586L5.8,16.714l.541-.539.537-.539H8.666V14.1h1.568V12.273l.68-.678.68-.68-.174-.343a3.156,3.156,0,0,1-.4-1.328A3.271,3.271,0,0,1,11.3,7.636a3.39,3.39,0,0,1,2.472-1.744,4.626,4.626,0,0,1,1.653.064,3.766,3.766,0,0,1,2.058,1.4,4.2,4.2,0,0,1,.508,1.062,3.308,3.308,0,0,1-.008,1.651,7.394,7.394,0,0,1,.983.133c0-.009.006-.017.008-.026a4.962,4.962,0,0,0,.015-1.7A4.476,4.476,0,0,0,17.27,5.794,4.706,4.706,0,0,0,14.42,4.874ZM13.666,12.5a6.37,6.37,0,0,0-1.455,1.547l.771-.771.206.084c.023.008.058.016.083.025a8.188,8.188,0,0,1,.872-.771A3.333,3.333,0,0,1,13.666,12.5Z" class="aw-theme-iconOutline" fill="#464646"/>
    <path id="path4561" d="M5.165,5.555a1.823,1.823,0,0,1-1.116-.8,1.69,1.69,0,0,1,.306-1.976,1.64,1.64,0,0,1,2.109-.16,1.535,1.535,0,0,1,.657,1.209,1.611,1.611,0,0,1-.467,1.3,1.515,1.515,0,0,1-.8.423A1.326,1.326,0,0,1,5.165,5.555Zm.507-.941a.744.744,0,0,0,.5-.665.768.768,0,0,0-.28-.539.707.707,0,0,0-.851.039.654.654,0,0,0-.012.983A.629.629,0,0,0,5.672,4.614Z" class="aw-theme-iconOutline" fill="#464646"/>
    <path id="path4559" d="M0,9.375V1.546H2.381l.183-.085a1.584,1.584,0,0,1,.289-.106c.089-.017.113-.043.148-.162A1.714,1.714,0,0,1,3.913.155a1.141,1.141,0,0,1,.6-.139A1.519,1.519,0,0,1,5.38.187l.211.1L5.747.216A1.683,1.683,0,0,1,8.1,1.307c.02.11.037.124.216.179a42.659,42.659,0,0,0,4.91.06h4.716V4.821h-.955V2.5H9.373L9.4,2.6a3.539,3.539,0,0,1,.042.366,1.563,1.563,0,0,1-.191.9l-.1.182.1.207a1.6,1.6,0,0,1-.024,1.427,1.706,1.706,0,0,1-1.058.885c-.12.032-.147.057-.183.165a1.805,1.805,0,0,1-.7.916l-.149.088v3.967l-.819-.818-.819-.818-.818.818-.819.818V7.737L3.71,7.66a1.691,1.691,0,0,1-.784-.943l-.084-.235-.2-.074a1.375,1.375,0,0,1-.632-.42,1.646,1.646,0,0,1-.267-1.944l.1-.182-.108-.228a1.128,1.128,0,0,1-.109-.681V2.5H.955L.964,9.366l.008,6.866L2.5,16.24l1.526.008V17.2H0Zm5.176-.366.316-.315.317.315a3.213,3.213,0,0,0,.341.315,5.3,5.3,0,0,0,.025-.714V7.9L6,7.858a1.958,1.958,0,0,1-.389-.142l-.211-.1-.136.07a1.713,1.713,0,0,1-.294.109l-.158.04v.746a5.582,5.582,0,0,0,.025.747A3.326,3.326,0,0,0,5.176,9.009Zm1.6-2.175a.717.717,0,0,0,.314-.61,1.153,1.153,0,0,1,.084-.362.584.584,0,0,1,.5-.209.694.694,0,0,0,.745-.713.713.713,0,0,0-.239-.55.48.48,0,0,1,.036-.759A.688.688,0,0,0,8.4,2.744a.65.65,0,0,0-.629-.382c-.435-.044-.577-.186-.579-.578a.721.721,0,0,0-.252-.6.708.708,0,0,0-.975.039.512.512,0,0,1-.82-.026.739.739,0,0,0-1.139.071.669.669,0,0,0-.12.414c-.031.425-.2.583-.609.583a.685.685,0,0,0-.513.183A.726.726,0,0,0,2.738,3.45c.3.309.3.617.009.839a.7.7,0,0,0-.186.838.618.618,0,0,0,.634.41.623.623,0,0,1,.533.235.633.633,0,0,1,.059.3.669.669,0,0,0,.641.728c.269,0,.387-.062.657-.345.177-.184.284-.269.338-.269.077,0,.216.13.479.446a.865.865,0,0,0,.256.207.781.781,0,0,0,.621,0Z" class="aw-theme-iconOutline" fill="#464646"/>
    <path id="path2" d="M17.5,24A6.5,6.5,0,1,1,24,17.5,6.5,6.5,0,0,1,17.5,24Zm0-12A5.5,5.5,0,1,0,23,17.5,5.5,5.5,0,0,0,17.5,12Z" class="aw-theme-iconOutline" fill="#464646"/>
    <path id="polygon4" d="M17,21h1V18h3V17H18V14H17v3H14v1h3Z" class="aw-theme-iconOutline" fill="#464646"/>
  </g>
</svg>
