<svg id="Layer_1" data-name="Layer 1" xmlns="http://www.w3.org/2000/svg" viewBox="0 0 24 24">
  <g id="g845">
    <path id="path4565-0" d="M14.42,4.874a4.738,4.738,0,0,0-2.846.957,4,4,0,0,0-1.283,4.557l.119.346-.566.564-.565.567v1.279H7.711v1.535H6.463l-.789.793c-.735.739-.793.808-.844.981a.676.676,0,0,0,0,.515c.051.172.11.241.844.981s.879.865,1.082.931a1.064,1.064,0,0,0,.615-.072c.107-.053.956-.88,2.881-2.8L13,13.29V11.882L9.9,15c-1.589,1.59-2.908,2.889-2.929,2.889a6.618,6.618,0,0,1-.608-.586L5.8,16.714l.541-.539.537-.541H8.666V14.1h1.568V12.273l.68-.678.68-.68-.174-.343a3.156,3.156,0,0,1-.4-1.328A3.271,3.271,0,0,1,11.3,7.636a3.39,3.39,0,0,1,2.472-1.744,4.625,4.625,0,0,1,1.653.062,3.769,3.769,0,0,1,2.058,1.4,4.2,4.2,0,0,1,.508,1.062A3.666,3.666,0,0,1,18,10.037l1,0a4.212,4.212,0,0,0-.034-1.616,4.329,4.329,0,0,0-1.7-2.625A4.7,4.7,0,0,0,14.42,4.874Z" class="aw-theme-iconOutline" fill="#464646"/>
    <path id="path4563-7" d="M14.468,10.411a1.644,1.644,0,0,1-1.036-.687,1.591,1.591,0,0,1,.2-2.056,1.55,1.55,0,0,1,1.424-.45,1.62,1.62,0,0,1,.031,3.182,1.314,1.314,0,0,1-.615.011Zm.6-.982a.685.685,0,1,0-.982-.616.679.679,0,0,0,.392.627A.784.784,0,0,0,15.071,9.429Z" class="aw-theme-iconOutline" fill="#464646"/>
    <path id="path4561-6" d="M5.165,5.554a1.818,1.818,0,0,1-1.116-.8,1.691,1.691,0,0,1,.306-1.977,1.641,1.641,0,0,1,2.109-.16,1.536,1.536,0,0,1,.657,1.21,1.609,1.609,0,0,1-.467,1.3,1.509,1.509,0,0,1-.8.424A1.315,1.315,0,0,1,5.165,5.554Zm.507-.941a.742.742,0,0,0,.5-.664.77.77,0,0,0-.28-.54.709.709,0,0,0-.851.04.654.654,0,0,0-.012.983A.627.627,0,0,0,5.672,4.613Z" class="aw-theme-iconOutline" fill="#464646"/>
    <path id="path4559-9" d="M0,9.374V1.545H2.381l.183-.085a1.646,1.646,0,0,1,.289-.1c.089-.017.113-.043.148-.162A1.711,1.711,0,0,1,3.913.155a1.141,1.141,0,0,1,.6-.139A1.5,1.5,0,0,1,5.38.187l.211.1L5.747.216A1.657,1.657,0,0,1,7.663.543a1.656,1.656,0,0,1,.439.763c.02.11.037.125.216.18a43.05,43.05,0,0,0,4.91.06h4.716V4.82h-.955V2.5H9.373l.022.094a3.6,3.6,0,0,1,.042.367,1.56,1.56,0,0,1-.191.9l-.1.183.1.206a1.6,1.6,0,0,1-.024,1.428,1.7,1.7,0,0,1-1.058.884c-.12.033-.147.057-.183.166a1.805,1.805,0,0,1-.7.916l-.149.087v3.968l-.819-.819-.819-.818-.818.818-.819.819V7.737L3.71,7.66a1.694,1.694,0,0,1-.784-.943l-.084-.235-.2-.074a1.383,1.383,0,0,1-.632-.42,1.646,1.646,0,0,1-.267-1.944l.1-.182-.108-.229a1.124,1.124,0,0,1-.109-.681V2.5H.955L.964,9.366l.008,6.865,1.527.008,1.526.009V17.2H0Zm5.176-.366.316-.315.317.315a3.091,3.091,0,0,0,.341.315,5.281,5.281,0,0,0,.025-.713V7.9L6,7.858a2.093,2.093,0,0,1-.389-.142l-.211-.1-.136.069a1.635,1.635,0,0,1-.294.11L4.81,7.83v.747a5.573,5.573,0,0,0,.025.746A3.2,3.2,0,0,0,5.176,9.008Zm1.6-2.174a.72.72,0,0,0,.314-.611,1.145,1.145,0,0,1,.084-.361.587.587,0,0,1,.5-.21.693.693,0,0,0,.745-.712.712.712,0,0,0-.239-.55.48.48,0,0,1,.036-.759A.688.688,0,0,0,8.4,2.744a.65.65,0,0,0-.629-.382c-.435-.044-.577-.186-.579-.578a.721.721,0,0,0-.252-.6.706.706,0,0,0-.975.039.512.512,0,0,1-.82-.026.739.739,0,0,0-1.139.071.666.666,0,0,0-.12.414c-.031.425-.2.582-.609.583a.681.681,0,0,0-.513.183A.726.726,0,0,0,2.738,3.45c.3.309.3.617.009.839a.7.7,0,0,0-.186.838.619.619,0,0,0,.634.41.622.622,0,0,1,.533.234.641.641,0,0,1,.059.3.669.669,0,0,0,.642.728c.268,0,.386-.063.656-.345.177-.184.284-.269.338-.269.077,0,.216.129.479.446a.877.877,0,0,0,.256.206.777.777,0,0,0,.621,0Z" class="aw-theme-iconOutline" fill="#464646"/>
    <path id="path2-8" d="M21.854,17.146l-4-4-.707.707L20.293,17H12v1h8.293l-3.147,3.146.707.707,4-4A.5.5,0,0,0,21.854,17.146Z" class="aw-theme-iconOutline" fill="#464646"/>
    <path id="polygon4" d="M23,23V12H15v3H14V11H24V24H14V20h1v3Z" class="aw-theme-iconOutline" fill="#464646"/>
  </g>
</svg>
