<svg id="Layer_1" data-name="Layer 1" xmlns="http://www.w3.org/2000/svg" viewBox="0 0 24 24">
  <g id="g844">
    <path id="rect816" d="M.025,0h24V1h-24V0Z" class="aw-theme-iconOutline" fill="#464646"/>
    <path id="rect816-9" d="M.025,4.043h24v1h-24v-1Z" class="aw-theme-iconOutline" fill="#464646"/>
    <path id="rect816-9-0" d="M1.025,0V24h-1V0h1Z" class="aw-theme-iconOutline" fill="#464646"/>
    <path id="rect816-9-0-7" d="M24.025,0V24h-1V0h1Z" class="aw-theme-iconOutline" fill="#464646"/>
    <path id="rect816-9-0-7-3" d="M24.025,24h-24V23h24v1Z" class="aw-theme-iconOutline" fill="#464646"/>
    <path id="rect1037" d="M2,2H6V3H2V2Z" class="aw-theme-iconOutline" fill="#464646"/>
    <path id="rect1037-1" d="M8,2h4V3H8V2Z" class="aw-theme-iconOutline" fill="#464646"/>
    <path id="rect1037-7" d="M14,2h4V3H14V2Z" class="aw-theme-iconOutline" fill="#464646"/>
    <path id="rect1037-7-3" d="M21,2h1V3H21V2Z" class="aw-theme-iconOutline" fill="#464646"/>
    <path id="path873" d="M11.927,21.785a5.91,5.91,0,0,1-.965-.566c-.228-.143-1.509-.946-2.848-1.783s-2.472-1.558-2.52-1.6c-.166-.153-.155.1-.155-3.791A25.649,25.649,0,0,1,5.487,10.4a.549.549,0,0,1,.095-.136c.053-.046,6.115-3.836,6.235-3.9a.572.572,0,0,1,.417,0c.045.023,1.463.9,3.152,1.959,2.271,1.42,3.088,1.942,3.14,2.01l.069.091.007,3.583A26.537,26.537,0,0,1,18.56,17.7a.446.446,0,0,1-.159.185c-.061.042-1.163.734-2.45,1.539s-2.649,1.658-3.029,1.9-.723.441-.763.45a.376.376,0,0,1-.232.011Zm-.387-4.217V14.7L8.972,13.093c-1.412-.882-2.573-1.605-2.58-1.605s-.01,1.3-.006,2.877l.006,2.877L8.807,18.75c1.329.829,2.478,1.548,2.555,1.6a1.127,1.127,0,0,0,.159.09c.011,0,.019-1.29.019-2.868Zm1.289,2.687c.558-.338,4.775-2.975,4.807-3.006s.03-.624.025-2.9l-.006-2.868-2.574,1.609L12.506,14.7V17.57c0,1.577.006,2.868.012,2.868s.146-.082.311-.183Zm4.362-9.669c-.024-.017-1.194-.749-2.6-1.626l-2.554-1.6-.077.038c-.139.068-5.11,3.189-5.116,3.212s1.161.75,2.587,1.64l2.592,1.619,2.606-1.629A19.737,19.737,0,0,0,17.191,10.586Z" class="aw-theme-iconOutline" fill="#464646"/>
  </g>
</svg>
