<svg id="svg8" xmlns="http://www.w3.org/2000/svg" viewBox="0 0 24 24">
  <g id="layer1">
    <g id="g829">
      <path id="rect825" d="M2,2v9h9V2ZM3,3h7v7H3Z" class="aw-theme-iconOutline" fill="#464646" fill-rule="evenodd"/>
      <path id="rect862" d="M4.569,6.54,6.7,8.233,6.1,9,3.983,7.345Z" class="aw-theme-iconOutline" fill="#464646" fill-rule="evenodd"/>
      <path id="rect862-2" d="M8.239,4.441,5.325,8.4,6.11,9,9.1,5.112Z" class="aw-theme-iconOutline" fill="#464646" fill-rule="evenodd"/>
      <path id="rect825-3" d="M2,13v9h9V13Zm1,1h7v7H3Z" class="aw-theme-iconOutline" fill="#464646" fill-rule="evenodd"/>
      <path id="rect825-4" d="M13,13v9h9V13Zm1,1h7v7H14Z" class="aw-theme-iconOutline" fill="#464646" fill-rule="evenodd"/>
      <path id="rect862-7" d="M15.569,17.54,17.7,19.233,17.1,20l-2.12-1.655Z" class="aw-theme-iconOutline" fill="#464646" fill-rule="evenodd"/>
      <path id="rect862-2-8" d="M19.239,15.441,16.325,19.4l.785.6L20.1,16.112Z" class="aw-theme-iconOutline" fill="#464646" fill-rule="evenodd"/>
      <path id="rect825-3-7" d="M13,2v9h9V2Zm1,1h7v7H14Z" class="aw-theme-iconOutline" fill="#464646" fill-rule="evenodd"/>
    </g>
  </g>
</svg>
