<svg id="Layer_1" data-name="Layer 1" xmlns="http://www.w3.org/2000/svg" viewBox="0 0 24 24">
  <g id="g818">
    <path id="path2" d="M.237,22.886l.425-.265A21.813,21.813,0,0,0,11,4V2.707L8.356,5.353l-.707-.707L11.5.793l3.854,3.853-.708.708L12,2.707V4A21.81,21.81,0,0,0,22.341,22.622l.424.265a.5.5,0,0,1-.529.849h0l-.424-.266A22.776,22.776,0,0,1,11.5,8.759,22.781,22.781,0,0,1,1.191,23.47l-.424.265a.5.5,0,1,1-.53-.849Z" class="aw-theme-iconOutline" fill="#464646"/>
    <path id="path2-1" d="M17.655,20.207l0,0-.044,3.742-1-.012.065-5.448,5.449.063-.012,1-3.742-.045,0-.005Z" class="aw-theme-iconOutline" fill="#464646"/>
  </g>
</svg>
