<svg id="Layer_1" data-name="Layer 1" xmlns="http://www.w3.org/2000/svg" viewBox="0 0 24 24">
  <g id="g851">
    <path id="path2" d="M0-.092V19H5.613q-.279-.432-.515-.889l-.01-.019H.908V15.363H6.621a11.016,11.016,0,0,1,.9-.908H.908V11.727H8.182v2.187a10.652,10.652,0,0,1,.91-.621V.818h10v11.5q.465.228.908.5V-.092Zm.908.91H8.182V3.545H.908Zm0,3.637H8.182V7.182H.908Zm0,3.637H8.182v2.726H.908Z" class="aw-theme-iconOutline" fill="#464646"/>
    <path id="path2-4-2" d="M15.425,21.958a3.5,3.5,0,1,1,3.5-3.5h0A3.5,3.5,0,0,1,15.425,21.958Zm0-6a2.5,2.5,0,1,0,2.5,2.5h0A2.5,2.5,0,0,0,15.425,15.958Z" class="aw-theme-iconOutline" fill="#464646"/>
    <path id="path4-9-5" d="M15.425,23.958a9.643,9.643,0,0,1-8.436-5.269.5.5,0,0,1,0-.481,9.655,9.655,0,0,1,8.436-5.25,9.656,9.656,0,0,1,8.44,5.259.5.5,0,0,1,0,.482A9.658,9.658,0,0,1,15.425,23.958ZM8,18.449a8.616,8.616,0,0,0,7.425,4.509,8.634,8.634,0,0,0,7.427-4.5,8.63,8.63,0,0,0-7.427-4.5A8.63,8.63,0,0,0,8,18.449Z" class="aw-theme-iconOutline" fill="#464646"/>
  </g>
</svg>
