<svg id="Layer_1" data-name="Layer 1" xmlns="http://www.w3.org/2000/svg" viewBox="0 0 24 24">
  <g id="g818">
    <path id="path2" d="M9,21a.5.5,0,0,1-.381-.176l-8.5-10a.5.5,0,0,1,0-.648l8.5-10a.518.518,0,0,1,.732-.03l.03.03,7.765,9.136a.5.5,0,0,1-.762.647L9,1.272,1.156,10.5,9,19.728l.645-.759a.5.5,0,0,1,.762.648h0L9.381,20.824A.5.5,0,0,1,9,21Z" class="aw-theme-iconOutline" fill="#464646"/>
    <path id="path4" d="M17.5,24A6.5,6.5,0,1,1,24,17.5,6.5,6.5,0,0,1,17.5,24Zm0-12A5.5,5.5,0,1,0,23,17.5,5.5,5.5,0,0,0,17.5,12Z" class="aw-theme-iconOutline" fill="#464646"/>
    <path id="rect815" d="M20.474,15.1,17.26,19.479l-2.519-2.624-.689.774,3.325,3.324S21.3,15.732,21.268,15.7A7.945,7.945,0,0,0,20.474,15.1Z" class="aw-theme-iconOutline" fill="#464646" fill-rule="evenodd"/>
  </g>
</svg>
