<svg id="Layer_1" data-name="Layer 1" xmlns="http://www.w3.org/2000/svg" viewBox="0 0 24 24">
  <g id="g836">
    <path id="path863" d="M13.39,21.422a15.93,15.93,0,0,1-5.651-1.408,1.372,1.372,0,0,0-.7-.179,8.6,8.6,0,0,0-2.2.447c-1.739.486-1.777.5-2.1.459a1.7,1.7,0,0,1-1.311-.879,4.2,4.2,0,0,1-.305-1.043,3.489,3.489,0,0,1-.177-1.152A1.685,1.685,0,0,1,1,17.235a1.861,1.861,0,0,1,.752-1.089c.247-.163.354-.2,1.529-.483a13.874,13.874,0,0,0,1.963-.586,10.038,10.038,0,0,1,2.117-.635,5.225,5.225,0,0,1,.947-.069,7.562,7.562,0,0,1,2.544.478,10.977,10.977,0,0,1,1.451.681c.629.317,1.17.585,1.2.6s.726.112,1.541.225c1,.139,1.528.22,1.627.248a1.408,1.408,0,0,1,.617.355l.107.1.633-.3.633-.3,1.181-.8a7.879,7.879,0,0,1,1.558-.967,2.067,2.067,0,0,1,.491-.087,1.449,1.449,0,0,1,1.283.809,1.752,1.752,0,0,1,.212.881,1.93,1.93,0,0,1-.588,1.409c-.144.144-1.029.817-1.49,1.134a10.474,10.474,0,0,1-1.908,1.067c-2.579,1.22-3.062,1.4-4.071,1.494C15.089,21.429,13.754,21.44,13.39,21.422Zm1.477-.989c1.121-.043,1.439-.152,4.092-1.406a10.38,10.38,0,0,0,1.319-.684,19.684,19.684,0,0,0,1.848-1.356,1.071,1.071,0,0,0,.259-.477.871.871,0,0,0-.188-.775.468.468,0,0,0-.568-.059c-.048.022-.5.319-1,.66a10.834,10.834,0,0,1-2.2,1.34L17.731,18l-.02.183a1.893,1.893,0,0,1-1.274,1.606,1.525,1.525,0,0,1-.571.087,13.255,13.255,0,0,1-1.579-.192,10.766,10.766,0,0,1-1.852-.321c-.224-.073-2.513-1.2-2.612-1.282a.493.493,0,0,1,0-.726.424.424,0,0,1,.364-.127c.122.008.142.017,1.234.558a8.275,8.275,0,0,0,1.485.681c.075.019.766.124,1.536.233a7.894,7.894,0,0,0,1.537.181.885.885,0,0,0,.712-.625c.1-.326,0-.6-.243-.687-.061-.022-.467-.085-1.169-.182-1.8-.25-1.907-.266-2.055-.311-.1-.029-.519-.233-1.306-.629a8.837,8.837,0,0,0-1.53-.706,6.509,6.509,0,0,0-2.093-.378,6.639,6.639,0,0,0-2.558.592,14.6,14.6,0,0,1-2.074.637c-1.329.325-1.315.321-1.46.468a.825.825,0,0,0-.231.412,1.505,1.505,0,0,0,.053.8,7.922,7.922,0,0,0,.273,1.1.7.7,0,0,0,.7.383c.109-.018.414-.1,1.284-.345a9.218,9.218,0,0,1,2.833-.555,2.022,2.022,0,0,1,1,.243,15.906,15.906,0,0,0,3.631,1.141A14.073,14.073,0,0,0,14.867,20.433Z" class="aw-theme-iconOutline" fill="#464646"/>
    <path id="path857" d="M18.523,16.374a2,2,0,0,1-.715-.223,2.083,2.083,0,0,1-1-1.176l-.034-.1-1.25,0-1.25,0-.037.089a3.167,3.167,0,0,1-.291.55,2.642,2.642,0,0,1-.451.447,2.992,2.992,0,0,1-.451.244,2.017,2.017,0,0,1-2.485-.882,1.992,1.992,0,0,1-.06-1.9,2.023,2.023,0,0,1,.32-.469l.115-.13-.257-.445c-.142-.245-.4-.694-.576-1-.247-.429-.325-.551-.345-.543a2.469,2.469,0,0,1-.842.058,2.089,2.089,0,0,1-1.493-1.06,1.918,1.918,0,0,1-.247-.955,2.034,2.034,0,0,1,1.349-1.9,1.708,1.708,0,0,1,.624-.123,2.332,2.332,0,0,1,.591.056c.039.007.063-.03.39-.6l.57-.989.222-.385L10.8,4.79a2.063,2.063,0,0,1-.331-.5,1.8,1.8,0,0,1-.19-.941,1.792,1.792,0,0,1,.188-.774,2.059,2.059,0,0,1,1.274-1.093,2.123,2.123,0,0,1,.548-.072,1.792,1.792,0,0,1,.879.2A2,2,0,0,1,14.2,2.729l.053.135h2.508l.032-.093a2.8,2.8,0,0,1,.315-.6,2.127,2.127,0,0,1,.9-.682,2.141,2.141,0,0,1,1.357-.038,2.072,2.072,0,0,1,1.391,2.174A2.162,2.162,0,0,1,20.2,4.791l-.054.067.583,1.01c.321.556.592,1.02.6,1.031s.05.012.154-.015a1.594,1.594,0,0,1,.447-.036,1.423,1.423,0,0,1,.474.043,2.127,2.127,0,0,1,1.021.626,1.817,1.817,0,0,1,.513,1.092,2.049,2.049,0,0,1-.052.716,2.167,2.167,0,0,1-.588,1.007,1.9,1.9,0,0,1-.93.522,2.172,2.172,0,0,1-.911-.012c-.09-.023-.093-.023-.121.014-.064.084-1.178,2-1.178,2.028a1.447,1.447,0,0,0,.12.148,1.986,1.986,0,0,1,.393,1.93,2.66,2.66,0,0,1-.311.617,2.025,2.025,0,0,1-.87.662,1.711,1.711,0,0,1-.7.134c-.134,0-.256,0-.27,0Zm.506-.953a1.306,1.306,0,0,0,.218-.086,1.093,1.093,0,0,0,.567-.731,1.428,1.428,0,0,0-.029-.651.967.967,0,0,0-.266-.4,1.117,1.117,0,0,0-1.785,1.284.927.927,0,0,0,.215.287,1.074,1.074,0,0,0,.616.327A2.3,2.3,0,0,0,19.029,15.421Zm-6.323-.131a1.26,1.26,0,0,0,.43-.274,1.187,1.187,0,0,0,.244-.4,1.054,1.054,0,0,0-.526-1.246.915.915,0,0,0-.46-.105,1.006,1.006,0,0,0-.465.1.791.791,0,0,0-.27.205.925.925,0,0,0-.31.729.978.978,0,0,0,.308.743.939.939,0,0,0,.76.3A1.177,1.177,0,0,0,12.706,15.29Zm4.069-1.474a2,2,0,0,1,2.355-1.463l.2.045c.04.007.074-.047.615-.985.314-.546.58-1.005.589-1.021s0-.048-.084-.135a2.269,2.269,0,0,1-.531-1,1.394,1.394,0,0,1-.039-.422,1.424,1.424,0,0,1,.023-.345c.013-.042.024-.08.025-.085a2.653,2.653,0,0,1,.145-.366,2.369,2.369,0,0,1,.359-.556.975.975,0,0,0,.1-.112c0-.009-.486-.857-.9-1.576a3.586,3.586,0,0,0-.29-.46,1.133,1.133,0,0,0-.142.033,1.983,1.983,0,0,1-.843.032l-.118-.024a2.343,2.343,0,0,1-.3-.1,2.014,2.014,0,0,1-.684-.478,1.957,1.957,0,0,1-.475-.832L16.728,3.8l-1.213,0L14.3,3.809l-.032.109c-.018.06-.041.14-.052.177a2.644,2.644,0,0,1-.3.561,2.207,2.207,0,0,1-.726.607,2.77,2.77,0,0,1-.481.167,2.376,2.376,0,0,1-.824-.008.642.642,0,0,0-.165-.027,7.547,7.547,0,0,0-.487.838.062.062,0,0,1-.016.039c-.009.009-.152.255-.319.546l-.3.53.13.146a1.944,1.944,0,0,1,.542,1.364,1.7,1.7,0,0,1-.079.576,2.188,2.188,0,0,1-.49.839l-.108.122.366.637c.5.87.729,1.256.763,1.29s.038.026.172-.006a2.128,2.128,0,0,1,1.013.044,2.257,2.257,0,0,1,.589.29,2.183,2.183,0,0,1,.785,1.166l.03.122h2.433ZM22.121,10a1.177,1.177,0,0,0,.791-.576.941.941,0,0,0,.121-.546.9.9,0,0,0-.045-.363,1.144,1.144,0,0,0-.817-.769,1.07,1.07,0,0,0-.755.093,1.058,1.058,0,0,0-.6.787,1.305,1.305,0,0,0,.1.772,1.184,1.184,0,0,0,.715.582A.981.981,0,0,0,22.121,10ZM9.568,9.919a1.032,1.032,0,0,0,.462-.289.99.99,0,0,0,.312-.752,1,1,0,0,0-.32-.777,1.011,1.011,0,0,0-.734-.331,1.022,1.022,0,0,0-.837.3,1.077,1.077,0,0,0-.319.791,1.065,1.065,0,0,0,.58,1,.973.973,0,0,0,.542.11A1.115,1.115,0,0,0,9.568,9.919Zm9.4-5.437a1.543,1.543,0,0,0,.277-.1A1.05,1.05,0,0,0,19.8,3.7a1.488,1.488,0,0,0,0-.591,1.088,1.088,0,0,0-.825-.8,1.1,1.1,0,0,0-1.035.3,1.053,1.053,0,0,0-.328.769,1.145,1.145,0,0,0,.287.763,1.319,1.319,0,0,0,.4.29,1.206,1.206,0,0,0,.672.05Zm-6.333-.033a1.067,1.067,0,0,0,.752-.758,1.33,1.33,0,0,0,0-.507,1.061,1.061,0,0,0-.768-.758,1.134,1.134,0,0,0-.747.1,1.121,1.121,0,0,0-.429.452,1.246,1.246,0,0,0-.09.248,1.419,1.419,0,0,0,.029.547,1.11,1.11,0,0,0,.706.674A1.409,1.409,0,0,0,12.634,4.449Z" class="aw-theme-iconOutline" fill="#464646"/>
  </g>
</svg>
