<svg version="1.1" id="Layer_1" xmlns="http://www.w3.org/2000/svg" xmlns:xlink="http://www.w3.org/1999/xlink" x="0px" y="0px"
	 viewBox="0 0 24 24" enable-background="new 0 0 24 24" xml:space="preserve">
<path class="aw-theme-iconOutline" fill="#dc3c00" d="M3.6,18L3,17.2L20.4,6L21,6.8L3.6,18z"/>
<path class="aw-theme-iconOutline" fill="#dc3c00" d="M3,4H1V3h2V4z M6,3H4v1h2V3z M9,3H7v1h2V3z M12,3h-2v1h2V3z M15,3h-2v1h2V3z M18,3h-2v1h2V3z M21,3h-2v1h2V3z
	 M23,3h-1v1h1V3z M2,20H1v1h1V20z M5,20H3v1h2V20z M8,20H6v1h2V20z M11,20H9v1h2V20z M14,20h-2v1h2V20z M17,20h-2v1h2V20z M20,20h-2
	v1h2V20z M23,20h-2v1h2V20z M2,5H1v2h1V5z M2,8H1v2h1V8z M2,11H1v2h1V11z M2,14H1v2h1V14z M2,17H1v2h1V17z M23,5h-1v2h1V5z M23,8h-1
	v2h1V8z M23,11h-1v2h1V11z M23,14h-1v2h1V14z M23,17h-1v2h1V17z"/>
<path class="aw-theme-iconOutline" fill="#dc3c00" d="M20.4,18L3,6.8L3.6,6L21,17.2L20.4,18z"/>
</svg>
