<svg id="Layer_1" data-name="Layer 1" xmlns="http://www.w3.org/2000/svg" viewBox="0 0 24 24">
  <g id="g818">
    <path id="path2-0" d="M15.63,22.5a.5.5,0,0,1-.381-.176l-8.5-10a.5.5,0,0,1,0-.648l8.5-10a.518.518,0,0,1,.762,0l7.909,10a.5.5,0,0,1-.762.647L15.63,2.772,7.786,12l7.844,9.228,7.514-9.557a.5.5,0,1,1,.762.648L16.011,22.324A.5.5,0,0,1,15.63,22.5Z" fill="#464646"/>
    <path id="path2-0-4" d="M9,22.5a.5.5,0,0,1-.381-.176l-8.5-10a.5.5,0,0,1,0-.648l8.5-10a.518.518,0,0,1,.762,0l3.389,4.3-.655.762L9,2.772,1.156,12,9,21.228l3.156-4.061.661.78L9.381,22.324A.5.5,0,0,1,9,22.5Z" fill="#464646"/>
    <path id="path4" d="M5.016,11.549v1h10.3l-2.15,2.15.707.707,3-3a.5.5,0,0,0,0-.707l-3-3-.707.707L15.3,11.549Z" fill="#464646"/>
  </g>
</svg>
