<svg id="svg5" xmlns="http://www.w3.org/2000/svg" viewBox="0 0 24 24">
  <g id="g816">
    <path id="path823" d="M3.44,0A3.352,3.352,0,0,0,.069,2.672,3.29,3.29,0,0,0,.024,3.738a.778.778,0,0,0,.02.119c.005.04.011.066.017.1s.016.082.025.123a.077.077,0,0,0,.008.042c.01.044.02.087.032.129.024.085.052.168.081.25.014.036.027.074.041.108l.007.018c.013.031.029.06.043.09A2.342,2.342,0,0,0,.4,4.945c.042.077.09.15.138.224.017.026.031.054.05.08l.01.014c.02.028.041.053.061.081.055.073.111.144.17.212l.079.088c.011.012.024.021.034.033.031.031.061.063.093.092l.065.064a.576.576,0,0,0,.073.05l-.007.009.007.008a3.394,3.394,0,0,0,.3.224L7.215,16.1H4.246a2.784,2.784,0,0,0-2.78,2.78V21H9.473l.007-.986H2.452V18.876a1.8,1.8,0,0,1,1.794-1.794H8.532L8.54,16.1v-.027h-.2L2.916,6.661a3.277,3.277,0,0,0,.443.046A3.347,3.347,0,0,0,6.041,5.35l.1.169,3.535,6.109.756-.636L6.992,5.032h6.024V6.147h2.8V4.63l2.582,1.2,1.935-1.908L18.4,4.841l-2.582-1.2V3.151l2.582-1.2,1.935.828L18.4.964l-2.582,1.2V.55h-2.8V1.67H6.266c-.021-.036-.046-.069-.067-.1-.038-.059-.076-.117-.116-.173-.018-.025-.032-.051-.05-.075l-.012-.015C6,1.278,5.966,1.258,5.942,1.23A3.273,3.273,0,0,0,5.507.792c-.029-.024-.05-.057-.08-.08L5.394.687C5.367.666,5.337.648,5.309.627c-.049-.035-.1-.069-.15-.1C5.136.514,5.117.5,5.093.483L5.04.45H5.034C5,.429,4.958.42,4.922.4A3.317,3.317,0,0,0,4.408.184C4.367.17,4.333.144,4.291.132s-.067-.016-.1-.025S4.139.1,4.113.09c-.05-.011-.1-.02-.152-.029A.5.5,0,0,1,3.888.045L3.775.028C3.664.014,3.552.005,3.44,0ZM3.3,1.951a1.4,1.4,0,1,1,.058,2.8A1.4,1.4,0,0,1,3.3,1.951Zm3.342.705h6.373l0,1.386H6.643A3.3,3.3,0,0,0,6.643,2.656Z" class="aw-theme-iconOutline" fill="#464646"/>
    <path id="path2" d="M17.165,8a.392.392,0,0,0-.211.061l-6.4,4v0a.4.4,0,0,0-.138.143.4.4,0,0,0-.049.2v7.2a.4.4,0,0,0,.187.34l5.189,3.244,1.211.757v0l.01,0,.01.01a.4.4,0,0,0,.193.051c.018,0,.034-.013.053-.016a.38.38,0,0,0,.14-.035l.01-.01.008,0,1.211-.755,5.188-3.244a.4.4,0,0,0,.188-.338V12.4a.4.4,0,0,0-.188-.34l-6.4-4A.4.4,0,0,0,17.165,8Zm0,.873L22.811,12.4l-5.646,3.527L11.521,12.4Zm-6,4.249,5.6,3.5v6.255l-5.6-3.5V13.122Zm12,0v6.255l-5.6,3.5V16.622Z" class="aw-theme-iconOutline" fill="#464646"/>
  </g>
</svg>
