<svg id="svg8" xmlns="http://www.w3.org/2000/svg" viewBox="0 0 24 24">
  <g id="layer1">
    <g id="g842">
      <path id="rect818-2" d="M1,2H23V3H1Z" class="aw-theme-iconOutline" fill="#464646" fill-rule="evenodd"/>
      <path id="rect818-7-0" d="M1,21H23v1H1Z" class="aw-theme-iconOutline" fill="#464646" fill-rule="evenodd"/>
      <path id="rect850-5" d="M22,3h1V21H22Z" class="aw-theme-iconOutline" fill="#464646" fill-rule="evenodd"/>
      <path id="rect858" d="M16,7h1V17H16Z" class="aw-theme-iconOutline" fill="#464646" fill-rule="evenodd"/>
      <path id="rect858-2-6-9" d="M20,6V7H17V6Z" class="aw-theme-iconOutline" fill="#464646" fill-rule="evenodd"/>
      <path id="rect858-2-6-9-4" d="M16,6V7H13V6Z" class="aw-theme-iconOutline" fill="#464646" fill-rule="evenodd"/>
      <path id="rect858-2-6-9-3" d="M20,17v1H17V17Z" class="aw-theme-iconOutline" fill="#464646" fill-rule="evenodd"/>
      <path id="rect858-2-6-9-4-1" d="M16,17v1H13V17Z" class="aw-theme-iconOutline" fill="#464646" fill-rule="evenodd"/>
      <path id="path907" d="M6.4,17.953a5.759,5.759,0,0,1-1.36-.285A4.05,4.05,0,0,1,3.077,16.54a.515.515,0,0,1,.249-.751c.212-.08.378-.034.733.2a4.646,4.646,0,0,0,2.778.891,2.972,2.972,0,0,0,1.45-.292,3.182,3.182,0,0,0,1.3-1.245,2.078,2.078,0,0,0-.463-2.39,3.687,3.687,0,0,0-2.352-.974c-.625-.038-.837-.162-.873-.514a.423.423,0,0,1,.064-.295c.158-.252.226-.272,1.048-.3a3.051,3.051,0,0,0,1-.113,2.135,2.135,0,0,0,.876-.576,1.632,1.632,0,0,0-.1-2.42,2.339,2.339,0,0,0-1.854-.643,3.12,3.12,0,0,0-2.253.851c-.318.313-.412.369-.61.369a.524.524,0,0,1-.52-.611,2.606,2.606,0,0,1,1.371-1.22,4.319,4.319,0,0,1,2.092-.472A3.449,3.449,0,0,1,9.7,7.1a2.7,2.7,0,0,1-.426,4.2c-.156.106-.27.205-.253.22s.158.109.313.21a3.492,3.492,0,0,1,1.3,1.484,3.046,3.046,0,0,1-.708,3.512A4.261,4.261,0,0,1,6.4,17.952Z" class="aw-theme-iconOutline" fill="#464646"/>
    </g>
  </g>
</svg>
