<svg id="svg8" xmlns="http://www.w3.org/2000/svg" viewBox="0 0 24 24">
  <g id="g839">
    <path id="path1010" d="M7.17,0C6.6-.006,6.018.006,5.656.04,2.9.306.8,1.318.188,2.677c-.2.446-.188.088-.188,5.8a48.972,48.972,0,0,0,.061,5.433,2.682,2.682,0,0,0,.17.455C.95,15.8,3.363,16.824,6.344,16.957a13.392,13.392,0,0,0,3.062-.237V15.714c-.312.066-.608.136-.976.186a13.133,13.133,0,0,1-1.352.059,8.988,8.988,0,0,1-1.687-.065c-2.111-.256-3.828-1.048-4.285-1.977L.99,13.683.977,9.536C.968,7.167.973,5.393.988,5.4s.123.082.241.169A8.987,8.987,0,0,0,5.455,6.987a11.931,11.931,0,0,0,1.451.055,10.648,10.648,0,0,0,2.188-.157A8.316,8.316,0,0,0,12.6,5.573l.242-.173V9.508c0,.456,0,.444,0,.805h.982c0-.664,0-.84,0-1.856a54.256,54.256,0,0,0-.056-5.445C13.439,1.835,12.088.87,10.063.36A11.19,11.19,0,0,0,8.641.087,14.131,14.131,0,0,0,7.17,0ZM6.631.98C7.139.971,7.656.975,7.943,1a7.417,7.417,0,0,1,4.432,1.571,1.3,1.3,0,0,1,.463.869,1.014,1.014,0,0,1-.182.7c-.654,1.016-2.627,1.772-5,1.916-2.963.18-5.9-.74-6.546-2.05a.836.836,0,0,1-.124-.486.783.783,0,0,1,.106-.461,2.894,2.894,0,0,1,.863-.9,8.5,8.5,0,0,1,3.42-1.11C5.624,1.013,6.123.989,6.631.98Z" class="aw-theme-iconOutline" fill="#464646"/>
    <path id="rect1012" d="M11,11.946h5v1.005H11Z" class="aw-theme-iconOutline" fill="#464646"/>
    <path id="rect1014" d="M11,12.951h1V24H11Z" class="aw-theme-iconOutline" fill="#464646"/>
    <path id="rect1016" d="M12,23H23v1H12Z" class="aw-theme-iconOutline" fill="#464646"/>
    <path id="rect1018" d="M14,20.987h6v1H14Z" class="aw-theme-iconOutline" fill="#464646"/>
    <path id="rect1020" d="M14,14.96h7v1H14Z" class="aw-theme-iconOutline" fill="#464646"/>
    <path id="rect1022" d="M14,17.973h5v1.005H14Z" class="aw-theme-iconOutline" fill="#464646"/>
    <path id="rect1014-8" d="M23,12.951h1V24H23Z" class="aw-theme-iconOutline" fill="#464646"/>
    <path id="path4" d="M21.342,4.593l-.708.711,1.647,1.654H20.257A3.286,3.286,0,0,0,19,13.273l.384-.927a2.281,2.281,0,0,1,.873-4.384h2.024L20.634,9.615l.708.712,2.5-2.512a.5.5,0,0,0,0-.71h0Z" class="aw-theme-iconOutline" fill="#464646"/>
  </g>
</svg>
