<svg id="Image" xmlns="http://www.w3.org/2000/svg" viewBox="0 0 24 24">
  <path id="path852" d="M2.871,10.469a1.064,1.064,0,1,0,1.065,1.063A1.065,1.065,0,0,0,2.871,10.469Zm-.014.717a.347.347,0,0,1,.36.333v.013a.35.35,0,1,1-.36-.346Z" class="aw-theme-iconOutline" fill="#464646"/>
  <path id="path848" d="M8.063,11.96a1.064,1.064,0,1,0,1.065,1.063A1.063,1.063,0,0,0,8.063,11.96Zm-.013.717a.346.346,0,0,1,.359.333v.013a.343.343,0,1,1-.359-.346Z" class="aw-theme-iconOutline" fill="#464646"/>
  <path id="path844" d="M13.125,10.469a1.064,1.064,0,1,0,1.065,1.063A1.064,1.064,0,0,0,13.125,10.469Zm-.014.717a.347.347,0,0,1,.36.333v.013a.35.35,0,1,1-.36-.346Z" class="aw-theme-iconOutline" fill="#464646"/>
  <g id="g837">
    <path id="path840" d="M6.032.094V.621A4.649,4.649,0,0,0,2.756,5.2V6.774a.752.752,0,0,1-.715.785H1.332a.374.374,0,0,0-.358.392v1.42l-.352.351a.362.362,0,0,0-.07.407l.259.548-.574.2A.356.356,0,0,0,0,11.217v.63a.359.359,0,0,0,.237.338l.574.2-.259.546a.36.36,0,0,0,.07.408l.443.443a.36.36,0,0,0,.408.07l.545-.258.208.581a.363.363,0,0,0,.338.239h.63a.359.359,0,0,0,.326-.239l.2-.577.547.256a.357.357,0,0,0,.406-.07l.443-.445a.316.316,0,0,0,.062-.119v.115a.358.358,0,0,0,.239.338l.574.2-.261.544a.362.362,0,0,0,.072.408l.444.443a.358.358,0,0,0,.408.072l.544-.258.2.579a.359.359,0,0,0,.338.239h.63a.36.36,0,0,0,.338-.239l.205-.579.544.258a.357.357,0,0,0,.408-.07l.443-.445a.357.357,0,0,0,.072-.406l-.26-.546.575-.2a.353.353,0,0,0,.22-.282l.4.4a.362.362,0,0,0,.408.068l.545-.259.2.582a.363.363,0,0,0,.34.239h.628a.359.359,0,0,0,.338-.239l.206-.58.543.259a.36.36,0,0,0,.408-.07l.445-.445a.36.36,0,0,0,.07-.408l-.259-.547.576-.206A.356.356,0,0,0,16,11.847v-.63a.36.36,0,0,0-.235-.344l0,0-.572-.2.259-.544a.361.361,0,0,0-.07-.409l-.111-.11V7.955a.377.377,0,0,0-.354-.4H14.2a.753.753,0,0,1-.715-.787V5.2A4.626,4.626,0,0,0,10.026.575V.094ZM7.05,1.259h2.2V8.014h.775V1.375A3.882,3.882,0,0,1,12.707,5.2V6.775A1.53,1.53,0,0,0,14.2,8.338h.3v1.2H1.746v-1.2h.3A1.53,1.53,0,0,0,3.536,6.774V5.2a3.92,3.92,0,0,1,2.5-3.775V8.014h.777V1.272C6.892,1.266,6.97,1.259,7.05,1.259Zm1.612,9.048h2.231l.168.362-.572.2a.355.355,0,0,0-.222.284l-.4-.4a.357.357,0,0,0-.408-.07l-.546.26-.2-.566C8.705,10.348,8.679,10.332,8.662,10.307Zm-7.231.008H4.31l-.146.3a.468.468,0,0,0-.008.374.46.46,0,0,0,.272.254l.6.216v.123l-.6.209a.459.459,0,0,0-.282.583h0a.376.376,0,0,0,.02.046L4.44,13l-.088.085-.575-.274a.457.457,0,0,0-.371-.008.47.47,0,0,0-.261.276l-.214.605h-.12L2.6,13.079a.462.462,0,0,0-.259-.278.453.453,0,0,0-.371.01l-.577.274L1.3,13l.274-.578a.462.462,0,0,0-.223-.614l-.041-.015-.6-.21v-.121l.6-.214a.462.462,0,0,0,.274-.256.454.454,0,0,0-.01-.373Zm3.674,0H7.466c-.017.025-.044.042-.054.072l-.2.566-.548-.261a.364.364,0,0,0-.407.072l-.445.444a.352.352,0,0,0-.062.118v-.117a.361.361,0,0,0-.241-.338l0,0-.574-.2Zm6.582,0h2.88l-.144.3a.46.46,0,0,0,.217.611h0a.432.432,0,0,0,.045.019l.6.214,0,.123-.6.213a.458.458,0,0,0-.287.579v0a.286.286,0,0,0,.02.048l.274.578-.088.085-.575-.274a.459.459,0,0,0-.372-.008.474.474,0,0,0-.258.276l-.214.605h-.124l-.212-.605a.468.468,0,0,0-.259-.278.458.458,0,0,0-.375.01l-.575.274-.086-.087.272-.574a.451.451,0,0,0,.01-.375.462.462,0,0,0-.27-.257l-.6-.213v-.121l.6-.216a.458.458,0,0,0,.28-.583.49.49,0,0,0-.018-.046Zm-3.678.554h.122l.214.6a.458.458,0,0,0,.255.266.462.462,0,0,0,.375-.007l.575-.275.086.086-.274.577a.462.462,0,0,0,.222.614h0l.041.015.6.214-.006.113-.6.213a.459.459,0,0,0-.284.582v0a.489.489,0,0,0,.02.048l.272.576-.086.087-.573-.272A.457.457,0,0,0,8.6,14.3a.475.475,0,0,0-.267.276l-.212.607H8l-.212-.607a.463.463,0,0,0-.26-.276.454.454,0,0,0-.368.01l-.577.274L6.5,14.493l.273-.574a.454.454,0,0,0-.261-.631l-.6-.209v-.12l.6-.214a.459.459,0,0,0,.264-.632L6.5,11.538l.086-.086.577.275a.458.458,0,0,0,.61-.216.336.336,0,0,0,.02-.043Zm-2.261.77L6,12.166l-.574.2a.363.363,0,0,0-.237.34l0-.008v.207l-.251-.521.576-.2a.355.355,0,0,0,.237-.336Zm4.514.241a.356.356,0,0,0,.227.3l.572.2-.135.28a.353.353,0,0,0-.225-.3l-.573-.2Z" class="aw-theme-iconOutline" fill="#464646"/>
    <path id="path821" d="M14.355,24a3.357,3.357,0,0,1-2.374-5.729c.4-.4.743-.743,1.042-1.055,1.514-1.545,1.97-2.011,3.139-2.18a3.352,3.352,0,0,1,3.807,2.821v.032l-.919.127a2.419,2.419,0,0,0-2.726-2.066l-.032.005c-.836.12-1.135.406-2.6,1.9-.309.316-.65.667-1.055,1.068a2.431,2.431,0,0,0,0,3.436,2.488,2.488,0,0,0,3.436,0l2.058-2.053.658.655-2.06,2.052A3.346,3.346,0,0,1,14.355,24Z" class="aw-theme-iconOutline" fill="#464646"/>
    <path id="path2" d="M18.376,20.007a3.382,3.382,0,0,1-3.349-2.9l.921-.124a2.448,2.448,0,0,0,2.428,2.093,2.361,2.361,0,0,0,1.693-.715l2.292-2.292a2.431,2.431,0,0,0,0-3.436,2.486,2.486,0,0,0-3.435,0l-2.058,2.053-.658-.65,2.06-2.055a3.437,3.437,0,0,1,4.748,0,3.359,3.359,0,0,1,0,4.746l-2.293,2.292A3.261,3.261,0,0,1,18.376,20.007Z" class="aw-theme-iconOutline" fill="#464646"/>
  </g>
</svg>
