<svg id="Layer_1" data-name="Layer 1" xmlns="http://www.w3.org/2000/svg" viewBox="0 0 24 24">
  <g id="g881">
    <path id="rect816" d="M0,0H24V1H0V0Z" class="aw-theme-iconOutline" fill="#464646"/>
    <path id="rect816-9" d="M0,4.043H24v1H0v-1Z" class="aw-theme-iconOutline" fill="#464646"/>
    <path id="rect816-9-0" d="M1,0V24H0V0H1Z" class="aw-theme-iconOutline" fill="#464646"/>
    <path id="rect816-9-0-7" d="M24,0V24H23V0h1Z" class="aw-theme-iconOutline" fill="#464646"/>
    <path id="rect816-9-0-7-3" d="M24,24H0V23H24v1Z" class="aw-theme-iconOutline" fill="#464646"/>
    <path id="rect995-9" d="M6,16h7v2H6V16Z" class="aw-theme-iconOutline" fill="#464646"/>
    <path id="rect1037" d="M2,2H6V3H2V2Z" class="aw-theme-iconOutline" fill="#464646"/>
    <path id="rect1037-1" d="M8,2h4V3H8V2Z" class="aw-theme-iconOutline" fill="#464646"/>
    <path id="rect1037-7" d="M14,2h4V3H14V2Z" class="aw-theme-iconOutline" fill="#464646"/>
    <path id="rect993-1" d="M2,16H4v2H2V16Z" class="aw-theme-iconOutline" fill="#464646"/>
    <path id="rect993-11" d="M2,20H4v2H2V20Z" class="aw-theme-iconOutline" fill="#464646"/>
    <path id="rect997-8" d="M6,20h5v2H6V20Z" class="aw-theme-iconOutline" fill="#464646"/>
    <path id="rect997-8-1" d="M17,16h5v2H17V16Z" class="aw-theme-iconOutline" fill="#464646"/>
    <path id="rect995-8" d="M14,20h8v2H14V20Z" class="aw-theme-iconOutline" fill="#464646"/>
    <path id="rect1037-7-3" d="M21,2h1V3H21V2Z" class="aw-theme-iconOutline" fill="#464646"/>
    <path id="rect833" d="M1,14H23v1H1V14Z" class="aw-theme-iconOutline" fill="#464646"/>
    <path id="rect997" d="M4,8H7V9H4V8Z" class="aw-theme-iconOutline" fill="#464646"/>
    <path id="rect995-9-47" d="M7,6h4V7H7V6Z" class="aw-theme-iconOutline" fill="#464646"/>
    <path id="rect993-1-9" d="M2,10H4v1H2V10Z" class="aw-theme-iconOutline" fill="#464646"/>
    <path id="rect997-8-3" d="M18,12h4v1H18V12Z" class="aw-theme-iconOutline" fill="#464646"/>
    <path id="rect995-9-4" d="M11,8h5V9H11V8Z" class="aw-theme-iconOutline" fill="#464646"/>
    <path id="rect997-8-1-0" d="M14,10h5v1H14V10Z" class="aw-theme-iconOutline" fill="#464646"/>
  </g>
</svg>
