<svg id="Image" xmlns="http://www.w3.org/2000/svg" viewBox="0 0 24 24">
  <g id="g848">
    <path id="path852" d="M2.885,10.543a1.069,1.069,0,1,0,1.07,1.068A1.069,1.069,0,0,0,2.885,10.543Zm-.014.721a.347.347,0,0,1,.361.334v.013a.351.351,0,1,1-.361-.347Z" class="aw-theme-iconOutline" fill="#464646"/>
    <path id="path848" d="M8.1,12.041a1.069,1.069,0,1,0,1.07,1.068A1.069,1.069,0,0,0,8.1,12.041Zm-.014.721a.347.347,0,0,1,.361.334v.013a.344.344,0,1,1-.361-.347Z" class="aw-theme-iconOutline" fill="#464646"/>
    <path id="path844" d="M13.188,10.543a1.069,1.069,0,1,0,1.07,1.068A1.069,1.069,0,0,0,13.188,10.543Zm-.014.721a.347.347,0,0,1,.361.334v.013a.352.352,0,1,1-.361-.347Z" class="aw-theme-iconOutline" fill="#464646"/>
    <path id="path840" d="M6.061.1V.629a4.67,4.67,0,0,0-3.291,4.6V6.811a.757.757,0,0,1-.719.789H1.338a.377.377,0,0,0-.36.393V9.42l-.354.353a.361.361,0,0,0-.07.409l.259.55-.576.2A.358.358,0,0,0,0,11.275v.633a.361.361,0,0,0,.238.34l.576.2L.555,13a.36.36,0,0,0,.07.41l.445.446a.364.364,0,0,0,.41.07l.547-.26.209.584a.365.365,0,0,0,.34.24h.633a.361.361,0,0,0,.328-.24l.205-.58.549.258a.36.36,0,0,0,.408-.07l.446-.448a.316.316,0,0,0,.062-.119V13.4a.36.36,0,0,0,.24.34l.576.2-.261.547a.362.362,0,0,0,.072.41l.445.446a.362.362,0,0,0,.41.072l.547-.26.205.582a.359.359,0,0,0,.34.24h.633a.361.361,0,0,0,.34-.24l.205-.582.547.26a.36.36,0,0,0,.41-.07l.445-.448a.36.36,0,0,0,.073-.408l-.262-.549.578-.2a.356.356,0,0,0,.221-.283l.4.4a.363.363,0,0,0,.41.069l.149-.071a3.5,3.5,0,0,1,.412-1,.507.507,0,0,0-.065.024l-.578.275-.086-.088.274-.576a.455.455,0,0,0,.009-.377.463.463,0,0,0-.271-.258l-.605-.215v-.121l.605-.216a.461.461,0,0,0,.281-.586c-.006-.016-.01-.032-.017-.047l-.147-.307h2.895l-.145.307a.46.46,0,0,0,.147.572,3.353,3.353,0,0,1,1.437.012.361.361,0,0,0-.236-.33l0,0-.574-.2.259-.547a.36.36,0,0,0-.07-.41l-.111-.112V8a.378.378,0,0,0-.356-.4h-.722a.758.758,0,0,1-.719-.791V5.232A4.649,4.649,0,0,0,10.074.582V.1ZM7.084,1.27H9.3V8.057h.779V1.387a3.9,3.9,0,0,1,2.692,3.845V6.813a1.538,1.538,0,0,0,1.5,1.57h.3V9.588H1.754V8.381h.3a1.538,1.538,0,0,0,1.5-1.57V5.232A3.94,3.94,0,0,1,6.064,1.439V8.057h.782V1.283C6.925,1.277,7,1.27,7.084,1.27ZM8.7,10.361h2.242l.168.364-.574.2a.354.354,0,0,0-.223.285l-.4-.4a.36.36,0,0,0-.41-.071L8.957,11l-.2-.568C8.747,10.4,8.72,10.386,8.7,10.361Zm-7.265.008H4.33l-.146.307a.46.46,0,0,0,.265.631l.6.216v.123l-.6.211a.46.46,0,0,0-.283.586h0a.276.276,0,0,0,.02.047l.275.58-.088.086L3.8,12.881a.461.461,0,0,0-.373-.008.468.468,0,0,0-.262.277l-.215.608H2.824l-.215-.612a.464.464,0,0,0-.259-.279.454.454,0,0,0-.373.01l-.581.275-.085-.086.275-.58a.465.465,0,0,0-.225-.617l-.041-.015-.6-.211v-.122l.6-.214a.465.465,0,0,0,.276-.258.458.458,0,0,0-.01-.375Zm3.691,0H7.5c-.017.025-.045.042-.055.072l-.2.569L6.7,10.748a.362.362,0,0,0-.408.072l-.447.446a.349.349,0,0,0-.063.119v-.117a.359.359,0,0,0-.242-.34l0,0-.576-.2Zm2.918.557H8.17l.215.6a.464.464,0,0,0,.633.26l.578-.275.086.086-.276.58a.465.465,0,0,0,.224.617h0l.041.016.6.214-.006.114-.6.215a.46.46,0,0,0-.286.584h0a.414.414,0,0,0,.019.049l.274.578-.086.088-.576-.273a.458.458,0,0,0-.373-.012.472.472,0,0,0-.268.277l-.213.61H8.037l-.213-.61a.466.466,0,0,0-.261-.277.458.458,0,0,0-.37.01l-.58.275-.086-.088L6.8,13.99a.461.461,0,0,0-.215-.615l-.047-.02-.6-.209v-.121l.605-.214a.47.47,0,0,0,.275-.26.458.458,0,0,0-.009-.375L6.533,11.6l.086-.086.58.275a.46.46,0,0,0,.614-.217.33.33,0,0,0,.019-.043ZM5.775,11.7l.252.53-.576.2a.363.363,0,0,0-.238.341l0-.007v.207l-.252-.524.578-.2a.356.356,0,0,0,.238-.338Zm4.536.242a.356.356,0,0,0,.228.3l.574.2-.134.282a.356.356,0,0,0-.227-.3l-.576-.2Z" class="aw-theme-iconOutline" fill="#464646"/>
    <path id="path8" d="M15.5,16a.5.5,0,0,1-.354-.147l-2-2a.5.5,0,0,1,.707-.707l2,2A.5.5,0,0,1,15.5,16Z" class="aw-theme-iconOutline" fill="#464646"/>
    <path id="path10" d="M14.5,17h-2a.5.5,0,1,1,0-1h2a.5.5,0,0,1,0,1Z" class="aw-theme-iconOutline" fill="#464646"/>
    <path id="path12" d="M16.5,15a.5.5,0,0,1-.5-.5v-2a.5.5,0,0,1,1,0v2a.5.5,0,0,1-.5.5Z" class="aw-theme-iconOutline" fill="#464646"/>
    <path id="path14" d="M22.5,23a.5.5,0,0,1-.354-.146l-2-2a.5.5,0,0,1,.707-.707l2,2A.5.5,0,0,1,22.5,23Z" class="aw-theme-iconOutline" fill="#464646"/>
    <path id="path16" d="M19.5,24a.5.5,0,0,1-.5-.5v-2a.5.5,0,0,1,1,0v2a.5.5,0,0,1-.5.5Z" class="aw-theme-iconOutline" fill="#464646"/>
    <path id="path18" d="M23.5,20h-2a.5.5,0,0,1,0-1h2a.5.5,0,1,1,0,1Z" class="aw-theme-iconOutline" fill="#464646"/>
    <path id="path20" d="M21.885,18.5a.478.478,0,0,1-.338-.816l.8-.8a2.283,2.283,0,0,0,0-3.231h0a2.339,2.339,0,0,0-3.232,0l-.755.823a.478.478,0,0,1-.7-.646l.771-.838a3.308,3.308,0,0,1,4.6-.015,3.242,3.242,0,0,1,0,4.585h0l-.8.8A.472.472,0,0,1,21.885,18.5Z" class="aw-theme-iconOutline" fill="#464646"/>
    <path id="path22" d="M15.264,23.979a3.241,3.241,0,0,1-2.294-5.535l.858-.792a.478.478,0,0,1,.7.65.5.5,0,0,1-.053.05l-.847.777a2.287,2.287,0,0,0,.014,3.219,2.341,2.341,0,0,0,3.232,0l.813-.812a.478.478,0,0,1,.676.676h0l-.812.812A3.216,3.216,0,0,1,15.264,23.979Z" class="aw-theme-iconOutline" fill="#464646"/>
  </g>
</svg>
