<svg id="Layer_1" data-name="Layer 1" xmlns="http://www.w3.org/2000/svg" viewBox="0 0 24 24">
  <g id="g857">
    <path id="rect816" d="M0,0H24V1H0V0Z" class="aw-theme-iconOutline" fill="#464646"/>
    <path id="rect816-9" d="M0,4H24V5H0V4Z" class="aw-theme-iconOutline" fill="#464646"/>
    <path id="rect816-9-0" d="M1,0V24H0V0H1Z" class="aw-theme-iconOutline" fill="#464646"/>
    <path id="rect816-9-0-7" d="M24,0V24H23V0h1Z" class="aw-theme-iconOutline" fill="#464646"/>
    <path id="rect816-9-0-7-3" d="M24,24H0V23H24v1Z" class="aw-theme-iconOutline" fill="#464646"/>
    <path id="rect997" d="M4,12H7v2H4V12Z" class="aw-theme-iconOutline" fill="#464646"/>
    <path id="rect995-9" d="M7,9h4v2H7V9Z" class="aw-theme-iconOutline" fill="#464646"/>
    <path id="rect1037" d="M2,2H6V3H2V2Z" class="aw-theme-iconOutline" fill="#464646"/>
    <path id="rect1037-1" d="M8,2h4V3H8V2Z" class="aw-theme-iconOutline" fill="#464646"/>
    <path id="rect1037-7" d="M14,2h4V3H14V2Z" class="aw-theme-iconOutline" fill="#464646"/>
    <path id="rect993-1" d="M2,15H4v2H2V15Z" class="aw-theme-iconOutline" fill="#464646"/>
    <path id="rect997-8-3" d="M17,18h5v2H17V18Z" class="aw-theme-iconOutline" fill="#464646"/>
    <path id="rect995-9-4" d="M10,12h5v2H10V12Z" class="aw-theme-iconOutline" fill="#464646"/>
    <path id="rect997-8-1" d="M14,15h5v2H14V15Z" class="aw-theme-iconOutline" fill="#464646"/>
    <path id="rect1037-7-0" d="M21,2h1V3H21V2Z" class="aw-theme-iconOutline" fill="#464646"/>
  </g>
</svg>
