<svg id="Image" xmlns="http://www.w3.org/2000/svg" viewBox="0 0 24 24">
  <g id="g1121">
    <path id="path1078" d="M2.281,3.922A1.574,1.574,0,0,1,1.172,3.08,1.513,1.513,0,1,1,3.711,3.4,1.6,1.6,0,0,1,2.281,3.922Z" class="aw-theme-iconOutline" fill="#464646"/>
    <path id="path1080" d="M5.868,6.391a1.512,1.512,0,1,1,1.96-1.446,1.444,1.444,0,0,1-.486,1.1,1.271,1.271,0,0,1-.97.386A1.712,1.712,0,0,1,5.868,6.391Z" class="aw-theme-iconOutline" fill="#464646"/>
    <path id="path1082" d="M6.839,10.883a1.5,1.5,0,0,1-1.1-1.9,1.484,1.484,0,0,1,.828-.942A1.047,1.047,0,0,1,7.2,7.932a1.036,1.036,0,0,1,.646.123,1.507,1.507,0,0,1-1.006,2.828Z" class="aw-theme-iconOutline" fill="#464646"/>
    <path id="path1084" d="M10.966,8.856a1.522,1.522,0,0,1-1-1.766,1.476,1.476,0,0,1,.441-.76,1.525,1.525,0,0,1,2.424.454,1.027,1.027,0,0,1,.122.627,1.048,1.048,0,0,1-.114.619,1.517,1.517,0,0,1-.723.738,1.093,1.093,0,0,1-.615.144A1.322,1.322,0,0,1,10.966,8.856Z" class="aw-theme-iconOutline" fill="#464646"/>
    <path id="path1086" d="M14.58,10.052A1.634,1.634,0,0,1,13.6,9.04a1.653,1.653,0,0,1,.084-1.063,1.529,1.529,0,0,1,2.468-.411,1.5,1.5,0,0,1-.436,2.408,1.156,1.156,0,0,1-.6.123A1.7,1.7,0,0,1,14.58,10.052Z" class="aw-theme-iconOutline" fill="#464646"/>
    <path id="path1088" d="M18.223,7.012a1.583,1.583,0,0,1-1.09-.85,1,1,0,0,1-.118-.62,1.24,1.24,0,0,1,.363-1.006,1.4,1.4,0,0,1,1.217-.5,1.119,1.119,0,0,1,.58.137,1.5,1.5,0,0,1,.721,1.99A1.545,1.545,0,0,1,18.223,7.012Z" class="aw-theme-iconOutline" fill="#464646"/>
    <path id="path1090" d="M21.282,3.883a1.532,1.532,0,0,1-1.24-1.7A1.512,1.512,0,0,1,21.777.908a1.418,1.418,0,0,1,.81.393,1.408,1.408,0,0,1,.428.678,1.559,1.559,0,0,1-.145,1.176,1.87,1.87,0,0,1-.669.606,2.332,2.332,0,0,1-.692.158Z" class="aw-theme-iconOutline" fill="#464646"/>
    <path id="path1092" d="M17.464,13.806a1.572,1.572,0,0,1-1.121-.848,1.021,1.021,0,0,1-.12-.64,1.024,1.024,0,0,1,.12-.64,1.533,1.533,0,0,1,2.463-.413,1.483,1.483,0,0,1,0,2.1,1.536,1.536,0,0,1-1.345.44Z" class="aw-theme-iconOutline" fill="#464646"/>
    <path id="path1094" d="M13.293,14.96a1.521,1.521,0,1,1,.467,0A.922.922,0,0,1,13.293,14.96Z" class="aw-theme-iconOutline" fill="#464646"/>
    <path id="path1096" d="M9.14,13.94a1.5,1.5,0,0,1-.31-2.818,1.034,1.034,0,0,1,.668-.133,1.041,1.041,0,0,1,.634.115,1.506,1.506,0,0,1,.845,1.017A1.525,1.525,0,0,1,9.14,13.94Z" class="aw-theme-iconOutline" fill="#464646"/>
    <path id="path1098" d="M9.23,17.9a1.628,1.628,0,0,1-.679-.385A1.5,1.5,0,0,1,9.151,15a1.54,1.54,0,0,1,1.883.9,1.828,1.828,0,0,1,.018,1.034,1.621,1.621,0,0,1-.923.923A1.915,1.915,0,0,1,9.23,17.9Z" class="aw-theme-iconOutline" fill="#464646"/>
    <path id="path1100" d="M11.013,20.89a1.617,1.617,0,0,1-.914-.817,1.117,1.117,0,0,1-.1-.618,1.053,1.053,0,0,1,.106-.629,1.931,1.931,0,0,1,.3-.416,1.517,1.517,0,0,1,2.466,1.683,1.847,1.847,0,0,1-.564.642,1.611,1.611,0,0,1-1.3.155Z" class="aw-theme-iconOutline" fill="#464646"/>
    <path id="path1102" d="M14.39,21.886a1.562,1.562,0,0,1-1.034-.839,1.539,1.539,0,0,1,.055-1.376,1.891,1.891,0,0,1,.529-.538,1.572,1.572,0,0,1,1.446-.078,1.507,1.507,0,0,1-1,2.831Z" class="aw-theme-iconOutline" fill="#464646"/>
    <path id="path1104" d="M15.486,18.11A1.513,1.513,0,1,1,16.973,15.6a1.5,1.5,0,0,1-.619,2.494A1.706,1.706,0,0,1,15.486,18.11Z" class="aw-theme-iconOutline" fill="#464646"/>
    <path id="polyline36" d="M3.342,6.963a.5.5,0,0,0-.485.676l5.8,15.533a.5.5,0,0,0,.472.326h7.454a.5.5,0,0,0,.471-.326l5.8-15.533a.5.5,0,0,0-.3-.639.5.5,0,0,0-.646.295L16.233,22.5H9.48L3.8,7.3A.5.5,0,0,0,3.342,6.963Z" class="aw-theme-iconOutline" fill="#464646"/>
  </g>
</svg>
