<svg version="1.1" id="Artwork" xmlns="http://www.w3.org/2000/svg" xmlns:xlink="http://www.w3.org/1999/xlink" x="0px" y="0px"
	 width="24px" height="24px" viewBox="0 0 24 24" enable-background="new 0 0 24 24" xml:space="preserve">
<path class="aw-theme-iconOutline" fill="#464646" d="M20.6,5l-0.8-3.6L8.2,4L7.4,2.6C7.1,2.2,6.7,2,6.2,2H1.4C0.6,2,0,2.6,0,3.4V23h24V5H20.6z M23,6v2h-1.8
	l-0.4-2H23z M20.2,8H3.8L3.4,6.1L19,2.6L20.2,8z M1,3.4C1,3.2,1.2,3,1.4,3h4.9c0.1,0,0.3,0.1,0.3,0.1l0.6,1.1l-5,1.1L2.8,8H1V3.4z
	 M23,22H1V9h22V22z"/>
</svg>
