<svg id="Image" xmlns="http://www.w3.org/2000/svg" viewBox="0 0 24 24">
  <g id="g824">
    <path id="path836" d="M3.277,22.058C1.6,21.01.184,20.113.135,20.065l-.09-.087-.01-3.535L.026,12.909l.081-.116c.058-.081.977-.674,3.133-2.019,2.914-1.819,3.058-1.9,3.218-1.9s.354.12,3.219,1.915c1.8,1.13,3.084,1.953,3.128,2.013.075.1.075.117.086,3.47.006,1.852,0,3.44-.012,3.528a.446.446,0,0,1-.137.272c-.062.061-1.466.956-3.119,1.989a31.3,31.3,0,0,1-3.15,1.891C6.337,23.964,6.175,23.868,3.277,22.058Zm2.709-2.227-.009-2.809-2.5-1.559C2.106,14.605.969,13.9.953,13.9s-.024,1.265-.019,2.81l.01,2.81,2.48,1.555c1.365.856,2.5,1.557,2.526,1.559A23.193,23.193,0,0,0,5.986,19.831Zm3.479,1.251,2.481-1.554.009-2.813c.005-1.546,0-2.812-.016-2.812s-1.155.706-2.535,1.569L6.894,17.04v2.8a23.574,23.574,0,0,0,.045,2.8C6.964,22.637,8.1,21.936,9.465,21.082Zm-.432-6.457c1.365-.853,2.485-1.562,2.49-1.577S6.55,9.891,6.468,9.867c-.032-.009-5.107,3.142-5.11,3.173,0,.01,1.143.733,2.541,1.607A27.608,27.608,0,0,0,6.5,16.2C6.527,16.189,7.669,15.478,9.033,14.625Z" class="aw-theme-iconOutline" fill="#464646"/>
    <path id="rect837" d="M4,0V6h7V0ZM5,1h5V5H5Z" class="aw-theme-iconOutline" fill="#464646"/>
    <path id="rect839" d="M14,6v8H24V6Zm1,1h8v6H15Z" class="aw-theme-iconOutline" fill="#464646"/>
    <path id="rect837-8" d="M17,16v6h7V16Zm1,1h5v4H18Z" class="aw-theme-iconOutline" fill="#464646"/>
    <path id="path856" d="M10.933,2.127v1.5A10.038,10.038,0,0,1,14.367,4.99a9.39,9.39,0,0,1,1.184,1.016c.067.074.094.076,1.09.076h1.023l-.119-.254a13.841,13.841,0,0,0-1.451-1.4,11.207,11.207,0,0,0-4.063-2.086C11.7,2.253,11.269,2.183,10.933,2.127Z" class="aw-theme-iconOutline" fill="#464646"/>
    <path id="path860" d="M19.44,15.591c-.025-.393-.114-1.261-.152-1.475l-.021-.216H20.78l.019.2c.024.12.117,1.085.148,1.547l.023.432h-1.5Z" class="aw-theme-iconOutline" fill="#464646"/>
  </g>
</svg>
