<svg version="1.1" id="Layer_1" xmlns="http://www.w3.org/2000/svg" xmlns:xlink="http://www.w3.org/1999/xlink" x="0px" y="0px"
	 viewBox="0 0 24 24" enable-background="new 0 0 24 24" xml:space="preserve">
<path class="aw-theme-iconOutline" fill="#464646" d="M22.6,9.6L20,12.3V12c0-4.4-3.6-8-8-8C9.3,4,6.8,5.4,5.3,7.6l0.8,0.5C7.4,6.2,9.6,5,12,5c3.9,0,7,3.1,7,7
	v0.3l-2.6-2.6l-0.7,0.7l3.9,3.9l3.9-3.9L22.6,9.6z"/>
<path class="aw-theme-iconOutline" fill="#464646" d="M17.9,15.8c-1.3,2-3.5,3.2-5.9,3.2c-3.9,0-7-3.1-7-7v-0.3l2.6,2.6l0.7-0.7L4.5,9.8l-3.9,3.9l0.7,0.7L4,11.7
	V12c0,4.4,3.6,8,8,8c2.7,0,5.2-1.4,6.7-3.6L17.9,15.8z"/>
</svg>
