<svg version="1.1" id="Artwork" xmlns="http://www.w3.org/2000/svg" xmlns:xlink="http://www.w3.org/1999/xlink" x="0px" y="0px"
	 viewBox="0 0 24 24" enable-background="new 0 0 24 24" xml:space="preserve">
<path class="aw-theme-iconOutline" fill="#464646" d="M20,24H4V12h16V24z M5,23h14V13H5V23z"/>
<path class="aw-theme-iconOutline" fill="#464646" d="M21.5,5H20V0H4v5H2.5C1.1,5,0,6.1,0,7.5V18h3v-1H1V7.5C1,6.7,1.7,6,2.5,6h19C22.3,6,23,6.7,23,7.5V17h-2v1h3
	V7.5C24,6.1,22.9,5,21.5,5z M5,1h14v4H5V1z"/>
<rect x="17" y="9" class="aw-theme-iconOutline" fill="#464646" width="3" height="1"/>
</svg>
