<svg id="Layer_1" data-name="Layer 1" xmlns="http://www.w3.org/2000/svg" viewBox="0 0 24 24">
  <g id="g825">
    <path id="path2" d="M17.344.074,7.307,2.275l-.764-.7A1.413,1.413,0,0,0,5.4,1H1.434A1.386,1.386,0,0,0,0,2.328V23H12.009V22H1V7H21v3.505l1,.4V3H18.09Zm-.731,1.184L17.822,6H3.951L3.557,4.123ZM1.434,2H5.4a.416.416,0,0,1,.346.186l.375.349-3.752.822L2.93,6H1V2.328C1,2.15,1.2,2,1.434,2Zm16.91,2H21V6H18.854Z" class="aw-theme-iconOutline" fill="#464646"/>
    <path id="path2-2" d="M17.5,24A6.5,6.5,0,1,1,24,17.5h0A6.487,6.487,0,0,1,17.526,24Zm0-12A5.5,5.5,0,1,0,23,17.5h0A5.55,5.55,0,0,0,17.5,12Z" class="aw-theme-iconOutline" fill="#464646"/>
    <path id="path4-8" d="M18.546,13l-.708.708,1.647,1.646H17.461A3.269,3.269,0,0,0,16.2,21.641l.384-.923a2.269,2.269,0,0,1,.873-4.364h2.024L17.838,18l.708.708,2.5-2.5a.5.5,0,0,0,0-.707h0Z" class="aw-theme-iconOutline" fill="#464646"/>
    <path id="path894" d="M2.008,7.977v13H11l-.5-1H3.008v-11h15v1.048a7.64,7.64,0,0,1,1,.129V7.977Z" class="aw-theme-iconOutline" fill="#464646"/>
    <path id="rect828" d="M3,11H13l-1,1H3Z" class="aw-theme-iconOutline" fill="#464646"/>
    <path id="rect831" d="M5,12H6v8H5Z" class="aw-theme-iconOutline" fill="#464646"/>
  </g>
</svg>
