<svg id="Layer_1" data-name="Layer 1" xmlns="http://www.w3.org/2000/svg" viewBox="0 0 24 24">
  <g id="g1005">
    <path id="rect13-9-3" d="M1,1V17H8V16H2V2H22V8h1V1ZM3.342,2.922,2.7,3.689,7.891,8H9.424Zm17.267.008L14.836,8H16.35l4.92-4.318ZM8,10.416l-5.279,4,.6.8L8,11.672Z" class="aw-theme-iconOutline" fill="#464646"/>
    <path id="rect837" d="M9,9v4.091h5.455V9Zm.682.682h4.091v2.727H9.682Z" class="aw-theme-iconOutline" fill="#464646"/>
    <path id="rect839" d="M15.818,13.091v5.454h7.5V13.091Zm.682.682h6.136v4.091H16.5Z" class="aw-theme-iconOutline" fill="#464646"/>
    <path id="rect837-8" d="M18.545,19.909V24H24V19.909Zm.682.682h4.091v2.727H19.227Z" class="aw-theme-iconOutline" fill="#464646"/>
    <path id="path856" d="M18.239,13.1a6.247,6.247,0,0,0-.807-.692A6.5,6.5,0,0,0,14.76,11.4c-.135-.019-.327-.035-.344-.035s-.031-.118-.031-.507V10.35l.268.017a7.994,7.994,0,0,1,1.186.226,7.658,7.658,0,0,1,2.77,1.422,9.537,9.537,0,0,1,.989.959l.081.173h-.7C18.3,13.147,18.284,13.146,18.239,13.1Z" class="aw-theme-iconOutline" fill="#464646"/>
    <path id="path860" d="M20.891,19.63c-.017-.267-.078-.86-.1-1l-.014-.148H21.8l.014.136c.016.081.079.739.1,1.054l.015.295H20.908Z" class="aw-theme-iconOutline" fill="#464646"/>
  </g>
</svg>
