<svg id="Layer_1" data-name="Layer 1" xmlns="http://www.w3.org/2000/svg" viewBox="0 0 24 24">
  <g id="g863">
    <path id="rect816" d="M.178,0H11.407V1H.178V0Z" class="aw-theme-iconOutline" fill="#464646"/>
    <path id="rect816-9" d="M.025,4H11.237V5H.025V4Z" class="aw-theme-iconOutline" fill="#464646"/>
    <path id="rect816-9-0" d="M1.025,0V24h-1V0h1Z" class="aw-theme-iconOutline" fill="#464646"/>
    <path id="rect816-9-0-7" d="M13.2,0V24h-1V0h1Z" class="aw-theme-iconOutline" fill="#464646"/>
    <path id="rect816-9-0-7-3" d="M11,24H0V23H11v1Z" class="aw-theme-iconOutline" fill="#464646"/>
    <path id="rect1037" d="M2,2H4V3H2V2Z" class="aw-theme-iconOutline" fill="#464646"/>
    <path id="rect1037-1" d="M5,2H7V3H5V2Z" class="aw-theme-iconOutline" fill="#464646"/>
    <path id="rect1037-7-3" d="M8,2H9V3H8V2Z" class="aw-theme-iconOutline" fill="#464646"/>
    <path id="rect816-7" d="M12.763,0H23.39V1H12.763V0Z" class="aw-theme-iconOutline" fill="#464646"/>
    <path id="rect816-9-9" d="M12.924,4H23.39V5H12.924V4Z" class="aw-theme-iconOutline" fill="#464646"/>
    <path id="rect816-9-0-8" d="M11.8,0V24h-1V0h1Z" class="aw-theme-iconOutline" fill="#464646"/>
    <path id="rect816-9-0-7-8" d="M24,0V24H23V0h1Z" class="aw-theme-iconOutline" fill="#464646"/>
    <path id="rect816-9-0-7-3-4" d="M23.305,24H13V23H23.305v1Z" class="aw-theme-iconOutline" fill="#464646"/>
    <path id="rect1037-16" d="M14,2h2V3H14V2Z" class="aw-theme-iconOutline" fill="#464646"/>
    <path id="rect1037-1-0" d="M17,2h2V3H17V2Z" class="aw-theme-iconOutline" fill="#464646"/>
    <path id="rect1037-7-3-5" d="M21,2h1V3H21V2Z" class="aw-theme-iconOutline" fill="#464646"/>
  </g>
</svg>
