<svg id="Image" xmlns="http://www.w3.org/2000/svg" viewBox="0 0 24 24">
  <g id="g835">
    <path id="rect837" d="M0,8v4H5.991V8ZM1,9H4.993v2H1Z" class="aw-theme-iconOutline" fill="#464646"/>
    <path id="rect839" d="M6.99,12v6.019h7.988V12Zm1,1H13.98v4H7.988Z" class="aw-theme-iconOutline" fill="#464646"/>
    <path id="rect837-8" d="M9.986,20v4h5.991V20Zm1,1h3.994v2H10.984Z" class="aw-theme-iconOutline" fill="#464646"/>
    <path id="path856" d="M9.84,12.277a6.792,6.792,0,0,0-.859-.739,6.939,6.939,0,0,0-2.846-1.071c-.145-.02-.348-.037-.367-.037s-.031-.127-.031-.541v-.54l.284.018a8.491,8.491,0,0,1,1.264.242,8.126,8.126,0,0,1,2.95,1.517,10.073,10.073,0,0,1,1.054,1.022l.086.184h-.742c-.724,0-.744,0-.793-.055Z" class="aw-theme-iconOutline" fill="#464646"/>
    <path id="path860" d="M12.845,19.245c-.018-.286-.083-.917-.111-1.073l-.015-.257h1.1l.014.246c.017.087.085.789.107,1.125l.017.714H12.867Z" class="aw-theme-iconOutline" fill="#464646"/>
    <path id="rect837-7" d="M8.023,0V4h5.991V0Zm1,1h3.994V3H9.022Z" class="aw-theme-iconOutline" fill="#464646"/>
    <path id="rect839-06" d="M15.013,4v6.019H23V4Zm1,1H22V9H16.012Z" class="aw-theme-iconOutline" fill="#464646"/>
    <path id="rect837-8-6" d="M18.009,12v4H24V12Zm1,1H23v2H19.007Z" class="aw-theme-iconOutline" fill="#464646"/>
    <path id="path856-2" d="M17.863,4.277A6.723,6.723,0,0,0,17,3.538a6.939,6.939,0,0,0-2.846-1.071c-.145-.02-.348-.037-.366-.037s-.032-.127-.032-.541v-.54l.284.018a8.491,8.491,0,0,1,1.264.242,8.138,8.138,0,0,1,2.951,1.517,10.162,10.162,0,0,1,1.053,1.022l.087.184h-.743C17.932,4.332,17.912,4.331,17.863,4.277Z" class="aw-theme-iconOutline" fill="#464646"/>
    <path id="path860-2" d="M20.868,11.245c-.018-.286-.083-.917-.11-1.073l-.016-.257h1.1l.014.246c.017.087.085.789.107,1.125l.017.714H20.89Z" class="aw-theme-iconOutline" fill="#464646"/>
  </g>
</svg>
