<svg id="Layer_1" data-name="Layer 1" xmlns="http://www.w3.org/2000/svg" viewBox="0 0 24 24">
  <g id="g855">
    <path id="path909" d="M3,0V17.251h.977V.977H14.156l5.867,6.076L20,16.4h.977L21,6.66,14.57,0ZM3,17.133V24H20.988V20.3h-.976v2.72H3.977V17.133Z" class="aw-theme-iconOutline" fill="#464646"/>
    <path id="rect847" d="M20,16.305l.974.023.012,4.032-.975-.015Z" class="aw-theme-iconOutline" fill="#464646"/>
    <path id="path826" d="M5.927,12.186l-.483.286a.393.393,0,0,0-.194.337V18.5a.388.388,0,0,0,.194.335l5.249,3.107a.4.4,0,0,0,.411,0l.59-.35c-.008-.152-.025-.3-.025-.456s.017-.3.025-.455l-.4.235V16.092l4.49-2.6V15a7.361,7.361,0,0,1,.767-.441V13.491a3.928,3.928,0,0,0-.031-.826.6.6,0,0,0-.3-.315l-.333-.175-1.322.011.942.559-4.668,2.7L6.4,12.82l1.071-.634Zm.116,1.339L10.5,16.162v4.756L6.043,18.281Z" class="aw-theme-iconOutline" fill="#464646"/>
    <path id="rect836" d="M11.084,21.954l5.277-3.094a.4.4,0,0,0,.122-.557.406.406,0,0,0-.555-.122L11.084,21.02Z" class="aw-theme-iconOutline" fill="#464646"/>
    <path id="rect838-9" d="M15.782,14.349h.766V18.5h-.766Z" class="aw-theme-iconOutline" fill="#464646"/>
    <path id="rect856" d="M7.887,10.7h6.029a.377.377,0,0,1,0,.754H7.887a.377.377,0,0,1,0-.754Z" class="aw-theme-iconOutline" fill="#464646"/>
    <path id="rect856-9" d="M8.641,9.189h3.108a.377.377,0,0,1,0,.754H8.641a.377.377,0,0,1,0-.754Z" class="aw-theme-iconOutline" fill="#464646"/>
    <path id="rect856-8" d="M11.451,9.347l.3-.83a.375.375,0,0,1,.482-.227c.2.071.336.055.268.253L12.107,9.7c-.067.2-.233.2-.429.132A.375.375,0,0,1,11.451,9.347Z" class="aw-theme-iconOutline" fill="#464646"/>
    <path id="rect881" d="M8.264,3.914V6.175H15.8V3.914Zm.754.754h6.028v.753H9.018Z" class="aw-theme-iconOutline" fill="#464646"/>
    <path id="path886" d="M13.539,6.175H10.525l.84,1.663.38.718.749,0,.37-.726Zm-.795.528L12.3,7.908h-.309l-.524-1.2Z" class="aw-theme-iconOutline" fill="#464646"/>
  </g>
</svg>
