<svg id="Image" xmlns="http://www.w3.org/2000/svg" viewBox="0 0 24 24">
  <g id="g824">
    <path id="rect837" d="M0,0V5.455H7.273V0ZM.909.909H6.364V4.545H.909Z" class="aw-theme-iconOutline" fill="#464646"/>
    <path id="rect839" d="M9.092,5.455v7.272h8.414l1.586-1.508V5.455ZM10,6.363h8.182v5.455H10Z" class="aw-theme-iconOutline" fill="#464646"/>
    <path id="rect837-8" d="M12.727,14.545v2.721l.91-.866v-.945h1l.957-.91Z" class="aw-theme-iconOutline" fill="#464646"/>
    <path id="path856" d="M12.318,5.46a8.6,8.6,0,0,0-1.075-.924A8.7,8.7,0,0,0,7.68,3.2c-.182-.025-.436-.046-.459-.046s-.039-.158-.039-.676V1.8l.355.023a10.512,10.512,0,0,1,1.582.3,10.177,10.177,0,0,1,3.694,1.9A12.635,12.635,0,0,1,14.132,5.3l.108.23h-.93C12.405,5.529,12.379,5.527,12.318,5.46Z" class="aw-theme-iconOutline" fill="#464646"/>
    <path id="path860" d="M15.7,12.637l.02.2c.034.195.116.985.138,1.342l.006.113L17.117,13.1c-.008-.072-.023-.256-.027-.278l-.018-.181Z" class="aw-theme-iconOutline" fill="#464646"/>
    <path id="path852" d="M10.283,23.99c-.145-.029-.288-.164-.288-.273s1.243-3.8,1.334-3.94c.038-.06,2.155-2.125,4.693-4.591,3.465-3.367,4.68-4.512,4.865-4.6a1.327,1.327,0,0,1,.475-.117c.473,0,.6.077,1.5.93a11.762,11.762,0,0,1,.952.969,1.271,1.271,0,0,1-.013,1.319c-.063.085-2.165,2.14-4.67,4.568l-4.557,4.412-1.964.65c-2,.666-2.149.709-2.33.671Zm2-1.3c.621-.191,1.148-.364,1.171-.383a15.818,15.818,0,0,0-1.574-1.565,10.432,10.432,0,0,0-.393,1.082c-.2.6-.369,1.113-.383,1.149s-.008.064.013.064.546-.155,1.166-.346ZM18,18.282l3.734-3.613-.978-.95a12.135,12.135,0,0,0-1.026-.937c-.07.02-7.431,7.149-7.437,7.2s1.877,1.9,1.935,1.908c.023,0,1.719-1.624,3.772-3.609Zm5.13-5.014c.152-.268.1-.347-.706-1.14a7.552,7.552,0,0,0-.891-.795c-.2-.064-.328.009-.787.441l-.445.416.991.96.991.958.392-.364a3.919,3.919,0,0,0,.452-.477Z" class="aw-theme-iconOutline" fill="#464646"/>
  </g>
</svg>
