<svg id="Image" xmlns="http://www.w3.org/2000/svg" viewBox="0 0 24 24">
  <g id="g865">
    <path id="path831" d="M16.875,5.516a.384.384,0,0,0-.189.05L9.953,9.32a.378.378,0,0,0-.191.328l-.7,6.975A.375.375,0,0,0,9.438,17a.386.386,0,0,0,.187-.051l.527-.3a7.574,7.574,0,0,1,.182-.966l-.52.3.7-6.108,5.89-3.357-.42,3.672a7.183,7.183,0,0,1,.756-.127l.42-4.2c0-.134.017-.229-.1-.3A.384.384,0,0,0,16.875,5.516Z" class="aw-theme-iconOutline" fill="#464646"/>
    <path id="path827" d="M1.2,5.536a.378.378,0,0,0-.37.377L1.3,12.767a.379.379,0,0,0,.19.328l6.647,3.8a.358.358,0,0,0,.187.049v0a.377.377,0,0,0,.377-.377L8.228,9.715a.378.378,0,0,0-.19-.328l-6.646-3.8A.365.365,0,0,0,1.2,5.536Zm.384,1.026L7.476,9.934l.466,5.985L2.048,12.55Z" class="aw-theme-iconOutline" fill="#464646"/>
    <path id="path823" d="M8.885.515a.374.374,0,0,0-.179.05l-6.652,3.8a.378.378,0,0,0,0,.655L8.706,8.831a.381.381,0,0,0,.187.049.376.376,0,0,0,.185-.049l6.669-3.8a.376.376,0,0,0,.14-.513.372.372,0,0,0-.14-.141L9.083.565A.382.382,0,0,0,8.885.515Zm.007.812L14.8,4.705,8.892,8.069,3,4.7Z" class="aw-theme-iconOutline" fill="#464646"/>
    <path id="path4-7" d="M10.833,4.209,9.3,5.775,9.321,2.1l-.834-.008V5.741L7.016,4.209l-.519.5,1.99,2.165c.076.077.244.247.4.247a.592.592,0,0,0,.369-.2l2.116-2.208Z" class="aw-theme-iconOutline" fill="#464646"/>
    <path id="path4-7-3" d="M13.293,11.56l-.349-.612a8.774,8.774,0,0,1,.951.1l.976-.588a9.786,9.786,0,0,0-1.725-.3l1.8-1.122-.38-.611L12.032,9.958c-.091.059-.293.187-.324.337a.586.586,0,0,0,.123.4l.864,1.283Z" class="aw-theme-iconOutline" fill="#464646"/>
    <path id="path4-7-3-0" d="M3.842,12.771l1.214-1.823c-1.857.231-3.651.531-4.036,2.4L0,13.35c.606-2.1,2.361-2.961,4.854-3.191l-1.8-1.122.38-.611L5.968,9.958c.091.059.293.187.324.337a.586.586,0,0,1-.123.4L4.44,13.192Z" class="aw-theme-iconOutline" fill="#464646"/>
    <path id="path2" d="M11,17.5A6.5,6.5,0,1,1,17.5,24,6.5,6.5,0,0,1,11,17.5Zm12,0A5.5,5.5,0,1,0,17.5,23,5.5,5.5,0,0,0,23,17.5Z" class="aw-theme-iconOutline" fill="#464646"/>
    <path id="path4" d="M17,21h1V15.7l2.15,2.15.707-.707-3-3a.5.5,0,0,0-.707,0l-3,3,.707.707L17,15.709Z" class="aw-theme-iconOutline" fill="#464646"/>
  </g>
</svg>
