<svg id="Layer_1" data-name="Layer 1" xmlns="http://www.w3.org/2000/svg" viewBox="0 0 24 24">
  <g id="g882">
    <path id="rect816-92" d="M0,0H21V1H0V0Z" class="aw-theme-iconOutline" fill="#464646"/>
    <path id="rect816-9-2" d="M0,4H21V5H0V4Z" class="aw-theme-iconOutline" fill="#464646"/>
    <path id="rect816-9-0-6" d="M1,0V21H0V0H1Z" class="aw-theme-iconOutline" fill="#464646"/>
    <path id="rect816-9-0-7-6" d="M22,0V10.978H21V0h1Z" class="aw-theme-iconOutline" fill="#464646"/>
    <path id="rect816-9-0-7-3-1" d="M11,22H0V21H11v1Z" class="aw-theme-iconOutline" fill="#464646"/>
    <path id="rect1037-3" d="M2,2H5V3H2V2Z" class="aw-theme-iconOutline" fill="#464646"/>
    <path id="rect1037-1-9" d="M7,2h3V3H7V2Z" class="aw-theme-iconOutline" fill="#464646"/>
    <path id="rect1037-7-8" d="M12,2h3V3H12V2Z" class="aw-theme-iconOutline" fill="#464646"/>
    <path id="rect1037-7-3" d="M18,2h1V3H18V2Z" class="aw-theme-iconOutline" fill="#464646"/>
    <path id="rect861-3" d="M12,12h1V24H12Z" class="aw-theme-iconOutline" fill="#464646"/>
    <path id="rect863-3" d="M13,12H24v2H13Z" class="aw-theme-iconOutline" fill="#464646"/>
    <path id="rect861-1-3" d="M23,14h1V24H23Z" class="aw-theme-iconOutline" fill="#464646"/>
    <path id="rect861-16-6" d="M23,23v1H13V23Z" class="aw-theme-iconOutline" fill="#464646"/>
    <path id="rect895-7" d="M15.392,17.25h1.216a.641.641,0,0,1,.642.642v1.216a.641.641,0,0,1-.642.642H15.392a.641.641,0,0,1-.642-.642V17.892A.641.641,0,0,1,15.392,17.25Z" class="aw-theme-iconOutline" fill="#464646"/>
    <path id="rect912-9" d="M15.5,20.5h1V22h-1Z" class="aw-theme-iconOutline" fill="#464646"/>
    <path id="rect912-2-2" d="M15.5,14.5h1v2h-1Z" class="aw-theme-iconOutline" fill="#464646"/>
    <path id="rect895-1-7" d="M20.6,19.25H19.383a.641.641,0,0,1-.642-.642V17.392a.641.641,0,0,1,.642-.642H20.6a.642.642,0,0,1,.643.642v1.216A.642.642,0,0,1,20.6,19.25Z" class="aw-theme-iconOutline" fill="#464646"/>
    <path id="rect912-7-4" d="M20.491,16h-1V14.5h1Z" class="aw-theme-iconOutline" fill="#464646"/>
    <path id="rect912-2-5-1" d="M20.491,22h-1V20h1Z" class="aw-theme-iconOutline" fill="#464646"/>
    <path id="rect997" d="M4,9H7v2H4V9Z" class="aw-theme-iconOutline" fill="#464646"/>
    <path id="rect995-9" d="M7,6h4V8H7V6Z" class="aw-theme-iconOutline" fill="#464646"/>
    <path id="rect993-1" d="M2,12H4v2H2V12Z" class="aw-theme-iconOutline" fill="#464646"/>
    <path id="rect995-9-4" d="M10,9h5v2H10V9Z" class="aw-theme-iconOutline" fill="#464646"/>
  </g>
</svg>
