<svg id="Layer_1" data-name="Layer 1" xmlns="http://www.w3.org/2000/svg" viewBox="0 0 24 24">
  <g id="g957">
    <path id="rect13-9-3" d="M1,1V17H13.319a6.177,6.177,0,0,1-.392-1H1.943V2H22.057V9.506A5.919,5.919,0,0,1,23,10.536V1Z" class="aw-theme-iconOutline" fill="#464646"/>
    <path id="path15-5" d="M3.29,2.914l-.584.78,7.2,6a3.493,3.493,0,0,0,4.579-.058l6.785-5.943-.6-.768L13.879,8.863a2.576,2.576,0,0,1-3.393.045Z" class="aw-theme-iconOutline" fill="#464646"/>
    <path id="line17-6" d="M9.954,8.948,2.723,14.409l.549.809L10.5,9.757Z" class="aw-theme-iconOutline" fill="#464646"/>
    <path id="path968" d="M21.85,18.721c-.059.045-.118.088-.178.129a4.981,4.981,0,0,1-.44.26q-.175.089-.357.162V22.5l-1.664-1.28a.48.48,0,0,0-.586,0L16.961,22.5V19.266l0,0a4.935,4.935,0,0,1-.455-.226q-.222-.125-.432-.272l-.084-.064v4.8a.494.494,0,0,0,.488.5.484.484,0,0,0,.294-.1l2.15-1.652,2.15,1.652a.48.48,0,0,0,.683-.1.511.511,0,0,0,.1-.3Z" class="aw-theme-iconOutline" fill="#464646"/>
    <path id="path966" d="M16.033,10.13c-.145.093-.286.194-.422.3a5.374,5.374,0,0,0-.744.723,4.842,4.842,0,0,0-.314.414,5.163,5.163,0,0,0-.273.443q-.124.228-.226.467c-.067.16-.127.323-.178.488a5.165,5.165,0,0,0-.128.5,4.941,4.941,0,0,0-.078.514c-.017.172-.026.345-.026.517,0,.124,0,.247.014.369.012.173.033.345.062.516s.068.339.114.506.1.332.164.494.134.319.212.473.165.3.259.451a4.985,4.985,0,0,0,.3.422,4.868,4.868,0,0,0,.342.39,5.071,5.071,0,0,0,.38.354c.1.079.2.155.3.227h.03v.023l.086.064a5.153,5.153,0,0,0,.443.272,5,5,0,0,0,.466.226l0,0v-.019a5.165,5.165,0,0,0,4.01,0V19.3c.124-.049.247-.1.367-.162q.231-.119.45-.26c.061-.041.122-.084.182-.128V18.7a5.165,5.165,0,0,0-3-9.373,5.111,5.111,0,0,0-2.78.826Zm2.876.2h0a4.173,4.173,0,0,1-.086,8.344c-.046,0-.09-.011-.136-.012a4.168,4.168,0,0,1,.22-8.332Z" class="aw-theme-iconOutline" fill="#464646"/>
    <path id="path823" d="M21.621,13l-2.358,3-.666.846-.067.085L16.3,14.2l.52-.435.306-.257,1.415,1.685L18.686,15,20.8,12.346Z" class="aw-theme-iconOutline" fill="#464646"/>
  </g>
</svg>
