<svg id="Layer_1" data-name="Layer 1" xmlns="http://www.w3.org/2000/svg" viewBox="0 0 24 24">
  <path d="M9.707,0H0V21H9V20H1V1H9V6h5V8h1V5.293ZM10,1.707,13.293,5H10Z" class="aw-theme-iconOutline" fill="#464646"/>
  <path d="M23.956,17.3a7.675,7.675,0,1,0-.058.379l.019,0ZM23,16.5c0,.106-.011.209-.016.314l-1.421.233L20.509,20h-.435l-.106-2.208-.455-.02c-1.235-.055-1.339-.642-1.339-1.188a.517.517,0,0,1,.134-.408A.785.785,0,0,1,18.8,16h3.124l-.142-2.3-.582-.044-.184-.644H19.772l-.64.557-.521.019-.007-.54,1.706-.539-.334-1.165.211-.189A6.5,6.5,0,0,1,23,16.5Zm-7.271-6.45-.247.348,0,.608-1.109-.259L12.52,12.073l1.807.919.12.288-1.534.467L12.3,15H11v1.423l-.88-1.152A6.512,6.512,0,0,1,15.729,10.05Zm-2.874,9.856-.325-.737,1.232-.639L15,19.38V20.6l-.669.662-.476,1.172q-.277-.124-.542-.273l.414-1.89ZM16.5,23a6.466,6.466,0,0,1-1.714-.237l.326-.869L16,21.016V18.854l-2.156-1.48-1.385.687-1.209.683.852,1.932.469.2-.149.683a6.487,6.487,0,0,1-2.408-4.774l1.351,1.77L12,17.66V16h.92l.7-1.423,2.175-.662-.686-1.648-.669-.34.144-.1,1.883.439.013-1.542.5-.7a6.432,6.432,0,0,1,2.3.605l-.431.384.24.834-1.486.469.03,2.306,1.9-.069.624-.543h.12l.169.59.406.03.023.37H18.817a1.813,1.813,0,0,0-1.205.458,1.52,1.52,0,0,0-.438,1.126,1.975,1.975,0,0,0,1.838,2.142L19.121,21h2.058A6.475,6.475,0,0,1,16.5,23Zm4.736-2.062,1.071-3,.55-.09A6.479,6.479,0,0,1,21.236,20.938Z" class="aw-theme-iconOutline" fill="#464646"/>
  <path d="M9.854,10.146l-3-3a.5.5,0,0,0-.708,0l-3,3a.5.5,0,0,0,.708.708L6,8.707V17H7V8.707l2.146,2.147a.5.5,0,0,0,.708-.708Z" class="aw-theme-iconOutline" fill="#464646"/>
</svg>
