<svg id="Layer_1" data-name="Layer 1" xmlns="http://www.w3.org/2000/svg" viewBox="0 0 24 24">
  <g id="g831">
    <path id="polygon2" d="M11,21H0V0H21V11H20V1H1V20H11Z" class="aw-theme-iconOutline" fill="#464646"/>
    <path id="path8" d="M11.5,11h-8A1.5,1.5,0,0,1,2,9.5v-1A1.5,1.5,0,0,1,3.5,7h8A1.5,1.5,0,0,1,13,8.5v1A1.5,1.5,0,0,1,11.5,11Zm-8-3a.5.5,0,0,0-.5.5v1a.5.5,0,0,0,.5.5h8a.5.5,0,0,0,.5-.5v-1a.5.5,0,0,0-.5-.5Z" class="aw-theme-iconOutline" fill="#464646"/>
    <path id="path10" d="M9.5,16A1.5,1.5,0,0,1,8,14.5H8v-1A1.5,1.5,0,0,1,9.5,12H11v1H9.5a.5.5,0,0,0-.5.5v1a.5.5,0,0,0,.5.5H11v1Z" class="aw-theme-iconOutline" fill="#464646"/>
    <path id="path12" d="M2,2V4.707l2,2L5.707,5h9.586L17,6.707l2-2V2ZM15,3V4H6V3ZM5,4.293l-1,1-1-1V3H5Zm13,0-1,1-1-1V3h2Z" class="aw-theme-iconOutline" fill="#464646"/>
    <path id="rect4" d="M16.286,18.857h3.428v.857H16.286Z" class="aw-theme-iconOutline" fill="#464646"/>
    <path id="rect6" d="M16.286,20.571h3.428v.858H16.286Z" class="aw-theme-iconOutline" fill="#464646"/>
    <path id="path8-3" d="M21.171,12H12V24H24V14.829Zm-4.885.857H18v1.714h.857V12.857h.857v2.572H16.286Zm5.143,10.286H14.571V18.429A.405.405,0,0,1,15,18h6a.405.405,0,0,1,.429.429Zm1.714,0h-.857V18.429A1.318,1.318,0,0,0,21,17.143H15a1.318,1.318,0,0,0-1.286,1.286v4.714h-.857V12.857h2.572v3.429h5.142V12.857h.258l2.314,2.314Z" class="aw-theme-iconOutline" fill="#464646"/>
  </g>
</svg>
