<svg id="Layer_1" data-name="Layer 1" xmlns="http://www.w3.org/2000/svg" viewBox="0 0 24 24">
  <g id="g837">
    <path id="path2" d="M11.7,0H0V24H11V23H1V1H11V6h5v5.2h1V5.3ZM12,1.7,15.3,5H12Z" class="aw-theme-iconOutline" fill="#464646"/>
    <path id="polygon4" d="M3.4,13.4l-.8-.8L6.5,8.8l3,2.5,4.2-3.7.6.8L9.5,12.7l-3-2.5Z" class="aw-theme-iconOutline" fill="#464646"/>
    <path id="path6" d="M6,22H2V18H6ZM3,21H5V19H3Z" class="aw-theme-iconOutline" fill="#464646"/>
    <path id="polygon8" d="M10,22H7V15h3v1H8v5h2Z" class="aw-theme-iconOutline" fill="#464646"/>
    <path id="rect4" d="M16.286,18.857h3.428v.857H16.286Z" class="aw-theme-iconOutline" fill="#464646"/>
    <path id="rect6" d="M16.286,20.571h3.428v.858H16.286Z" class="aw-theme-iconOutline" fill="#464646"/>
    <path id="path8-3" d="M21.171,12H12V24H24V14.829Zm-4.885.857H18v1.714h.857V12.857h.857v2.572H16.286Zm5.143,10.286H14.571V18.429A.405.405,0,0,1,15,18h6a.405.405,0,0,1,.429.429Zm1.714,0h-.857V18.429A1.318,1.318,0,0,0,21,17.143H15a1.318,1.318,0,0,0-1.286,1.286v4.714h-.857V12.857h2.572v3.429h5.142V12.857h.258l2.314,2.314Z" class="aw-theme-iconOutline" fill="#464646"/>
    <path id="rect823" d="M10,15h1v7H10V15Z" class="aw-theme-iconOutline" fill="#464646"/>
  </g>
</svg>
