<svg id="Image" xmlns="http://www.w3.org/2000/svg" viewBox="0 0 24 24">
  <g id="g897">
    <path id="rect827-9-3-2-6-1-4" d="M16.951,23.091h-10v.985h10Z" class="aw-theme-iconOutline" fill="#464646"/>
    <path id="rect827-9-3-2-3-4" d="M9.9,19.608,6.942,23.094l1.1.457L11,20.064Z" class="aw-theme-iconOutline" fill="#464646"/>
    <path id="rect827-9-3-2-3-4-9" d="M13.965,19.579l2.962,3.486-1.094.456L12.87,20.036Z" class="aw-theme-iconOutline" fill="#464646"/>
    <path id="rect827-0" d="M0,0H24V1H0Z" class="aw-theme-iconOutline" fill="#464646"/>
    <path id="rect827-9-32" d="M0,19v2H24V19Zm16.987.531h1v1.033h-1Zm2,0h1v1.033h-1Zm2,0h1v1.033H21Z" class="aw-theme-iconOutline" fill="#464646"/>
    <path id="rect827-9-3-0" d="M0,0V19H1V0Z" class="aw-theme-iconOutline" fill="#464646"/>
    <path id="rect827-9-3-7-5" d="M23,1V19h1V1Z" class="aw-theme-iconOutline" fill="#464646"/>
    <path id="rect859" d="M4.667,4.72h12v.667h-12Z" class="aw-theme-iconOutline" fill="#464646"/>
    <path id="rect863" d="M12,3.43h.725V4.1H12Z" class="aw-theme-iconOutline" fill="#464646"/>
    <path id="rect863-6" d="M14.667,3.387h.725v.666h-.725Z" class="aw-theme-iconOutline" fill="#464646"/>
    <path id="rect863-7" d="M13.333,3.387h.725v.666h-.725Z" class="aw-theme-iconOutline" fill="#464646"/>
    <path id="rect902" d="M4,2.72h.667V14.053H4Z" class="aw-theme-iconOutline" fill="#464646"/>
    <path id="rect904" d="M4,2.053H17.333V2.72H4Z" class="aw-theme-iconOutline" fill="#464646"/>
    <path id="rect906" d="M16.667,2.72h.666V6.053h-.666Z" class="aw-theme-iconOutline" fill="#464646"/>
    <path id="rect908" d="M4.667,13.387h6.758v.666H4.667Z" class="aw-theme-iconOutline" fill="#464646"/>
    <path id="rect910" d="M5.333,6.72h5.334v.667H5.333Z" class="aw-theme-iconOutline" fill="#464646"/>
    <path id="rect912" d="M5.333,8.72H10v.667H5.333Z" class="aw-theme-iconOutline" fill="#464646"/>
    <path id="rect914" d="M5.333,10.72h5.334v.667H5.333Z" class="aw-theme-iconOutline" fill="#464646"/>
    <path id="rect912-1" d="M14,8.053h4V8.72H14Z" class="aw-theme-iconOutline" fill="#464646"/>
    <path id="rect912-1-4" d="M14,9.387h4v.666H14Z" class="aw-theme-iconOutline" fill="#464646"/>
    <path id="rect912-1-5" d="M14,10.72h4v.667H14Z" class="aw-theme-iconOutline" fill="#464646"/>
    <path id="path954" d="M17,13.387a1,1,0,1,1-1-1A1,1,0,0,1,17,13.387Z" class="aw-theme-iconOutline" fill="#464646"/>
    <path id="path954-0" d="M16.667,16.053A.667.667,0,0,1,16,16.72h0a.667.667,0,1,1,0-1.333h0a.667.667,0,0,1,.667.666Z" class="aw-theme-iconOutline" fill="#464646"/>
    <path id="rect971" d="M12,6.72V18.053h8V6.72Zm.667.667h6.666v10H12.667Z" class="aw-theme-iconOutline" fill="#464646"/>
  </g>
</svg>
