<svg id="Layer_1" data-name="Layer 1" xmlns="http://www.w3.org/2000/svg" viewBox="0 0 24 24">
  <g id="g830">
    <g id="text819">
      <path id="path821" d="M11.055,24H8.305l-.8-2.492H3.523L2.734,24H0L4.078,12.8H7.07ZM6.93,19.57l-1.2-3.765A4.917,4.917,0,0,1,5.539,14.8H5.477a4.268,4.268,0,0,1-.2.976l-1.218,3.8Z" class="aw-theme-iconOutline" fill="#464646"/>
    </g>
    <g id="text819-5">
      <path id="path818" d="M13.279,8.464H11.216l-.6-1.869H7.63L7.039,8.464H4.988L8.046.062h2.245ZM10.185,5.142l-.9-2.824a3.619,3.619,0,0,1-.141-.756H9.1a3.178,3.178,0,0,1-.146.732L8.035,5.142Z" class="aw-theme-iconOutline" fill="#464646"/>
    </g>
    <path id="path4" d="M23.854,20.145a.5.5,0,0,0-.707,0h0L21,22.292V10H20V22.292l-2.146-2.147a.5.5,0,0,0-.708.708l3,3a.5.5,0,0,0,.707,0h0l3-3a.5.5,0,0,0,0-.707Z" class="aw-theme-iconOutline" fill="#464646"/>
    <path id="path6" d="M17.146,13.853a.5.5,0,0,0,.708-.708l-3-3a.5.5,0,0,0-.707,0h0l-3,3a.5.5,0,0,0,.708.708L14,11.706V24h1V11.706Z" class="aw-theme-iconOutline" fill="#464646"/>
  </g>
</svg>
