<svg id="Image" xmlns="http://www.w3.org/2000/svg" viewBox="0 0 24 24">
  <g id="g835">
    <path id="path847" d="M6.015,10.845V3.69H9.249L9.362,3.6a1.055,1.055,0,0,1,.674-.219H10.2l.011-.05a1.511,1.511,0,0,1,.384-.784,1.593,1.593,0,0,1,.684-.4,3.821,3.821,0,0,1,.845-.032,3.643,3.643,0,0,1,.845.033,1.454,1.454,0,0,1,1.051,1.127l.02.1.2.01a1.039,1.039,0,0,1,.651.221L15,3.69h3.236V18H6.015Zm11.289,0v-6.2H15.345V5.919H8.909V4.643H6.949v12.4H17.3ZM14.392,4.7c0-.258,0-.271-.043-.319l-.044-.051-.6,0-.6-.005V3.874c0-.428,0-.448-.043-.534a.586.586,0,0,0-.258-.256,2.139,2.139,0,0,0-.67-.032c-.574,0-.606,0-.683.038a.464.464,0,0,0-.246.237l-.051.1-.006.444-.006.444-.593.005-.593,0L9.9,4.379c-.041.048-.043.061-.043.319v.269h4.53Z" class="aw-theme-iconOutline" fill="#464646"/>
    <path id="path849" d="M10.2,12.107c-.593-.72-1.08-1.316-1.083-1.325s.7-.62.742-.633c.009,0,.331.367.715.823s.706.825.713.822.708-.858,1.555-1.9S14.385,8,14.393,8s.753.592.749.606-3.86,4.814-3.866,4.813S10.788,12.826,10.2,12.107Z" class="aw-theme-iconOutline" fill="#464646"/>
    <path id="path851" d="M11.941,4.341a.44.44,0,1,1,.357,0C12.1,4.428,12.141,4.428,11.941,4.341Z" class="aw-theme-iconOutline" fill="#464646"/>
    <path id="rect827-9-3-2-6-1-4" d="M16.951,23.091h-10v.985h10Z" class="aw-theme-iconOutline" fill="#464646"/>
    <path id="rect827-9-3-2-3-4" d="M9.9,19.608,6.942,23.094l1.1.457L11,20.064Z" class="aw-theme-iconOutline" fill="#464646"/>
    <path id="rect827-9-3-2-3-4-9" d="M13.965,19.579l2.962,3.486-1.094.456L12.87,20.036Z" class="aw-theme-iconOutline" fill="#464646"/>
    <path id="rect827-0" d="M0,0H24V1H0Z" class="aw-theme-iconOutline" fill="#464646"/>
    <path id="rect827-9-32" d="M0,19v2H24V19Zm16.987.531h1v1.033h-1Zm2,0h1v1.033h-1Zm2,0h1v1.033H21Z" class="aw-theme-iconOutline" fill="#464646"/>
    <path id="rect827-9-3-0" d="M0,0V19H1V0Z" class="aw-theme-iconOutline" fill="#464646"/>
    <path id="rect827-9-3-7-5" d="M23,1V19h1V1Z" class="aw-theme-iconOutline" fill="#464646"/>
  </g>
</svg>
