<svg id="Layer_1" data-name="Layer 1" xmlns="http://www.w3.org/2000/svg" viewBox="0 0 24 24">
  <g id="g858">
    <path id="path936" d="M10,8.078a6.8,6.8,0,0,0-6.937,6.653h0c0,.079.006.158.011.237h.9c-.007-.094-.01-.188-.012-.281A5.893,5.893,0,0,1,9.988,8.945,6.157,6.157,0,0,1,14.6,11h1.138A7.025,7.025,0,0,0,10,8.078Z" class="aw-theme-iconOutline" fill="#464646"/>
    <path id="rect939-4" d="M5.043,6.242a2.457,2.457,0,0,0-1.9.92,5.374,5.374,0,0,0-.932,1.875L.09,15.885a2.228,2.228,0,0,0,.678,2.261,3.168,3.168,0,0,0,2.15.874H11v-1.1H2.918a2.244,2.244,0,0,1-1.434-.586,1.031,1.031,0,0,1-.382-1.1L3.225,9.377a4.473,4.473,0,0,1,.724-1.492,1.3,1.3,0,0,1,1.094-.539H15.068a1.32,1.32,0,0,1,1.1.539,4.233,4.233,0,0,1,.713,1.484L17.363,11h1.112L17.9,9.045a5.171,5.171,0,0,0-.927-1.885,2.474,2.474,0,0,0-1.9-.918Z" class="aw-theme-iconOutline" fill="#464646"/>
    <path id="rect818" d="M2.724,18.184H4.541V20H2.724V18.184Z" class="aw-theme-iconOutline" fill="#464646"/>
    <path id="path840" d="M9.442,16.639a1.54,1.54,0,0,1-1-1.343,1.188,1.188,0,0,1,.082-.6l.1-.306L7.405,13.165l-1.22-1.223.275-.275.275-.275,1.223,1.223,1.224,1.223.224-.088a1.786,1.786,0,0,1,1.151,0,1.66,1.66,0,0,1,.815.773,1.111,1.111,0,0,1,.133.68,1.117,1.117,0,0,1-.116.644,1.727,1.727,0,0,1-.748.746,1.268,1.268,0,0,1-.6.128,1.106,1.106,0,0,1-.6-.082Z" class="aw-theme-iconOutline" fill="#464646"/>
    <path id="path886" d="M11.61,15.19A1.588,1.588,0,0,1,10,16.758h0A1.568,1.568,0,1,1,11.61,15.19Z" class="aw-theme-iconOutline" fill="#464646"/>
    <path id="rect888" d="M9.081,4.562h1.873V6.378H9.081V4.562Z" class="aw-theme-iconOutline" fill="#464646"/>
    <path id="path890" d="M3.633.929c0,2.257,2.846,4.087,6.357,4.087h0c3.51,0,6.357-1.83,6.357-4.087h-.9c0,1.756-2.44,3.179-5.449,3.179S4.553,2.685,4.553.929h-.92Z" class="aw-theme-iconOutline" fill="#464646"/>
    <path id="rect929" d="M3.633.021H16.37V.929H3.633V.021Z" class="aw-theme-iconOutline" fill="#464646"/>
    <path id="rect861" d="M12,12h1V24H12Z" class="aw-theme-iconOutline" fill="#464646"/>
    <path id="rect863" d="M13,12H24v2H13Z" class="aw-theme-iconOutline" fill="#464646"/>
    <path id="rect861-1" d="M23,14h1V24H23Z" class="aw-theme-iconOutline" fill="#464646"/>
    <path id="rect861-16" d="M23,23v1H13V23Z" class="aw-theme-iconOutline" fill="#464646"/>
    <path id="rect895" d="M15.392,17.25h1.216a.641.641,0,0,1,.642.642v1.216a.641.641,0,0,1-.642.642H15.392a.641.641,0,0,1-.642-.642V17.892A.641.641,0,0,1,15.392,17.25Z" class="aw-theme-iconOutline" fill="#464646"/>
    <path id="rect912" d="M15.5,20.5h1V22h-1Z" class="aw-theme-iconOutline" fill="#464646"/>
    <path id="rect912-2" d="M15.5,14.5h1v2h-1Z" class="aw-theme-iconOutline" fill="#464646"/>
    <path id="rect895-1" d="M20.6,19.25H19.383a.641.641,0,0,1-.642-.642V17.392a.641.641,0,0,1,.642-.642H20.6a.642.642,0,0,1,.643.642v1.216A.642.642,0,0,1,20.6,19.25Z" class="aw-theme-iconOutline" fill="#464646"/>
    <path id="rect912-7" d="M20.491,16h-1V14.5h1Z" class="aw-theme-iconOutline" fill="#464646"/>
    <path id="rect912-2-5" d="M20.491,22h-1V20h1Z" class="aw-theme-iconOutline" fill="#464646"/>
  </g>
</svg>
