<svg id="Layer_1" data-name="Layer 1" xmlns="http://www.w3.org/2000/svg" viewBox="0 0 24 24">
  <g id="g829">
    <path id="path2" d="M17.519,24a6.5,6.5,0,1,1,6.5-6.5A6.487,6.487,0,0,1,17.519,24Zm0-12a5.5,5.5,0,1,0,5.5,5.5A5.549,5.549,0,0,0,17.519,12Z" class="aw-theme-iconOutline" fill="#464646"/>
    <path id="polygon4" d="M16.846,17.432l-2.2,2.1.8.8,2.1-2.2,2.1,2.2.8-.8-2.2-2.1,2.2-2.1-.8-.8-2.1,2.2-2.1-2.2-.8.8Z" class="aw-theme-iconOutline" fill="#464646"/>
    <path id="path1144" d="M7.355,7.084a18.489,18.489,0,0,0-4.63.553A5.133,5.133,0,0,0,.443,8.764a1.662,1.662,0,0,0-.427.642.989.989,0,0,0-.061.449,1.225,1.225,0,0,0,.2.749,2.91,2.91,0,0,0,.678.675,6.012,6.012,0,0,0,.848.451l.127.051,0,3.8c0,3.464,0,3.817.039,3.963.3,1.228,2.228,2.143,4.863,2.312.3.02,1.4.015,1.7-.007a10.333,10.333,0,0,0,2.443-.459V20.266a8.512,8.512,0,0,1-2.156.5,18.168,18.168,0,0,1-2.037.031,10.43,10.43,0,0,1-1.947-.334,3.063,3.063,0,0,1-1.8-1.059L2.865,19.3V15.707a26.28,26.28,0,0,1,.041-3.578c.085.025.577.134.826.182a20.863,20.863,0,0,0,2.1.269c.5.042,2.708.042,3.2,0a18.146,18.146,0,0,0,2.883-.445l.221-.057v.369h1.078v-.738l.185-.084a2.949,2.949,0,0,0,1.332-1.088,1.4,1.4,0,0,0,.1-1.111c-.272-.789-1.221-1.4-2.83-1.824A18.7,18.7,0,0,0,7.355,7.084Zm.063,1.383a17.735,17.735,0,0,1,2.086.1,9.66,9.66,0,0,1,3.625.937c.188.113.4.3.4.35s-.128.187-.281.289a10.754,10.754,0,0,1-4.824,1.093c-.421.022-1.443.026-1.846.008a10.884,10.884,0,0,1-4.994-1.117c-.222-.159-.27-.218-.242-.3A2.769,2.769,0,0,1,2.6,9.113,15.392,15.392,0,0,1,7.418,8.467Z" class="aw-theme-iconOutline" fill="#464646"/>
    <path id="rect1146" d="M23.45.017,24,0V2.966L8.271,5.9l-.55-2.949ZM13.8,2.833l-4.915.916.183.983,4.915-.916Z" class="aw-theme-iconOutline" fill="#464646"/>
    <path id="path840" d="M3.151,3.493,2,2.765.852,3.5l.383-1.253-1.1-.8L1.526,1.4,2,.18,2.471,1.4l1.389.04-1.1.8Z" class="aw-theme-iconOutline" fill="#464646"/>
    <path id="path840-4" d="M6.112,5.767l-.6-.447-.6.449L5.107,5l-.578-.489.729-.028.248-.753.248.753.729.023L5.908,5Z" class="aw-theme-iconOutline" fill="#464646"/>
    <path id="path840-4-4" d="M2.605,7.11,2,6.662l-.6.45.2-.77-.577-.491.729-.027L2,5.071l.249.753.729.024L2.4,6.34Z" class="aw-theme-iconOutline" fill="#464646"/>
    <path id="path840-4-3-7" d="M6.974,2.286l-.605-.448-.6.45.2-.769-.576-.491L6.121,1,6.37.247,6.619,1l.729.024-.575.493Z" class="aw-theme-iconOutline" fill="#464646"/>
  </g>
</svg>
