<svg id="Layer_1" data-name="Layer 1" xmlns="http://www.w3.org/2000/svg" viewBox="0 0 24 24">
  <g id="g852">
    <path id="path909" d="M0,0V21H8.994l.012-1H.977V.977H9l6.023,6.076L15,9h.977L16,6.66,9.57,0Z" class="aw-theme-iconOutline" fill="#464646"/>
    <path id="rect857" d="M3,7h9V8H3Z" class="aw-theme-iconOutline" fill="#464646"/>
    <path id="rect857-6" d="M3,10H9v1H3Z" class="aw-theme-iconOutline" fill="#464646"/>
    <path id="rect857-6-9" d="M3,13H9v1H3Z" class="aw-theme-iconOutline" fill="#464646"/>
    <path id="rect861" d="M10,10h1V24H10Z" class="aw-theme-iconOutline" fill="#464646"/>
    <path id="rect863" d="M11,10H24v2H11Z" class="aw-theme-iconOutline" fill="#464646"/>
    <path id="rect861-1" d="M23,12h1V24H23Z" class="aw-theme-iconOutline" fill="#464646"/>
    <path id="rect861-16" d="M23,23v1H10.958V23Z" class="aw-theme-iconOutline" fill="#464646"/>
    <path id="rect895" d="M13.771,16h1.458a.769.769,0,0,1,.771.771v1.458a.769.769,0,0,1-.771.771H13.771A.769.769,0,0,1,13,18.229V16.771A.769.769,0,0,1,13.771,16Z" class="aw-theme-iconOutline" fill="#464646"/>
    <path id="rect895-5" d="M18.771,15h1.458a.769.769,0,0,1,.771.771v1.458a.769.769,0,0,1-.771.771H18.771A.769.769,0,0,1,18,17.229V15.771A.769.769,0,0,1,18.771,15Z" class="aw-theme-iconOutline" fill="#464646"/>
    <path id="rect912" d="M14,20h1v2H14Z" class="aw-theme-iconOutline" fill="#464646"/>
    <path id="rect912-2" d="M14,13h1v2H14Z" class="aw-theme-iconOutline" fill="#464646"/>
    <path id="rect912-2-5" d="M19,19.034h1v3H19Z" class="aw-theme-iconOutline" fill="#464646"/>
    <path id="rect912-2-3" d="M19,13h1v1H19Z" class="aw-theme-iconOutline" fill="#464646"/>
    <path id="rect857-6-9-1" d="M3,16H9v1H3Z" class="aw-theme-iconOutline" fill="#464646"/>
  </g>
</svg>
