<svg id="Image" xmlns="http://www.w3.org/2000/svg" viewBox="0 0 24 24">
  <g id="g836">
    <path id="path825" d="M10.632,10.713v.037a.111.111,0,0,1,0-.019.021.021,0,0,1,0-.008h0l0,0Z" class="aw-theme-iconOutline" fill="#464646" fill-rule="evenodd"/>
    <path id="rect901" d="M2,5H3V21H2Z" class="aw-theme-iconOutline" fill="#464646"/>
    <path id="rect903" d="M3,7H7.129V8H3Z" class="aw-theme-iconOutline" fill="#464646"/>
    <path id="rect903-2" d="M3,13.938H7v1H3Z" class="aw-theme-iconOutline" fill="#464646"/>
    <path id="rect903-2-8" d="M3,20H13.065v1H3Z" class="aw-theme-iconOutline" fill="#464646"/>
    <path id="path2" d="M23.954,13.776H21.033v-.365a1.123,1.123,0,0,0-1.1-1.1H17.017a1.123,1.123,0,0,0-1.1,1.1v.365H13v.73h.73l.292,8.472A1.181,1.181,0,0,0,15.191,24h6.573a1.061,1.061,0,0,0,1.1-1.022l.365-8.472h.73Zm-7.3-.365a.346.346,0,0,1,.366-.365h2.921a.345.345,0,0,1,.365.365v.365H16.651Zm5.478,9.494a.345.345,0,0,1-.365.365H15.191a.345.345,0,0,1-.365-.365l-.365-8.4h8.033Z" class="aw-theme-iconOutline" fill="#464646"/>
    <path id="polygon4" d="M16.871,21.809l-.22-5.842h-.73l.219,5.842Z" class="aw-theme-iconOutline" fill="#464646"/>
    <path id="rect6" d="M18.112,15.967h.73v5.842h-.73Z" class="aw-theme-iconOutline" fill="#464646"/>
    <path id="polygon8" d="M20.887,21.809l.146-5.842H20.3l-.146,5.842Z" class="aw-theme-iconOutline" fill="#464646"/>
    <path id="rect899" d="M0,0V5H5V0ZM1,1H4V4H1Z" class="aw-theme-iconOutline" fill="#464646"/>
    <path id="rect899-6" d="M7.064,5.072v5h5v-5Zm1,1h3v3h-3Z" class="aw-theme-iconOutline" fill="#464646"/>
    <path id="rect899-6-9" d="M7,12.044v5h5v-5Zm1,1h3v3H8Z" class="aw-theme-iconOutline" fill="#464646"/>
  </g>
</svg>
