<svg id="Layer_1" data-name="Layer 1" xmlns="http://www.w3.org/2000/svg" viewBox="0 0 24 24">
  <g id="g824">
    <path id="path2" d="M17.344.074,7.307,2.275l-.764-.7A1.413,1.413,0,0,0,5.4,1H1.434A1.386,1.386,0,0,0,0,2.328V23H12.009V22H1V7H21v3.505l1,.4V3H18.09Zm-.731,1.184L17.822,6H3.951L3.557,4.123ZM1.434,2H5.4a.416.416,0,0,1,.346.186l.375.349-3.752.822L2.93,6H1V2.328C1,2.15,1.2,2,1.434,2Zm16.91,2H21V6H18.854Z" class="aw-theme-iconOutline" fill="#464646"/>
    <path id="path2-2" d="M17.5,24A6.5,6.5,0,1,1,24,17.5h0A6.487,6.487,0,0,1,17.526,24Zm0-12A5.5,5.5,0,1,0,23,17.5h0A5.55,5.55,0,0,0,17.5,12Z" class="aw-theme-iconOutline" fill="#464646"/>
    <path id="path4-8" d="M18.546,13l-.708.708,1.647,1.646H17.461A3.269,3.269,0,0,0,16.2,21.641l.384-.923a2.269,2.269,0,0,1,.873-4.364h2.024L17.838,18l.708.708,2.5-2.5a.5.5,0,0,0,0-.707h0Z" class="aw-theme-iconOutline" fill="#464646"/>
    <path id="path894" d="M2.008,7.977v13H11l-.5-1H3.008v-11h15v1.048a7.64,7.64,0,0,1,1,.129V7.977Z" class="aw-theme-iconOutline" fill="#464646"/>
    <path id="path892" d="M4.008,9.977v2.007l2,2,1.707-1.707h4.412a7.5,7.5,0,0,1,4.881-2.259V9.977Zm1,.8h2v.793l-1,1-1-1Zm3,0h5v.7h-5Z" class="aw-theme-iconOutline" fill="#464646"/>
    <path id="path886" d="M5.508,14.977a1.5,1.5,0,1,0,0,3h4a1.793,1.793,0,0,0,.508-.069c-.009-.136-.014-.272-.016-.408a7.514,7.514,0,0,1,.365-2.295,1.534,1.534,0,0,0-.857-.228Zm0,1h4a.468.468,0,0,1,.5.5.482.482,0,0,1-.5.5h-4a.5.5,0,1,1,0-1Z" class="aw-theme-iconOutline" fill="#464646"/>
  </g>
</svg>
