<svg id="svg8" xmlns="http://www.w3.org/2000/svg" viewBox="0 0 24 24">
  <g id="layer1">
    <g id="g861">
      <path id="rect818-2" d="M1,2H23V3H1Z" class="aw-theme-iconOutline" fill="#464646" fill-rule="evenodd"/>
      <path id="rect818-7-0" d="M1,21H23v1H1Z" class="aw-theme-iconOutline" fill="#464646" fill-rule="evenodd"/>
      <path id="rect850-5" d="M22,3h1V21H22Z" class="aw-theme-iconOutline" fill="#464646" fill-rule="evenodd"/>
      <path id="rect858" d="M16,7h1V17H16Z" class="aw-theme-iconOutline" fill="#464646" fill-rule="evenodd"/>
      <path id="rect858-2-6-9" d="M20,6V7H17V6Z" class="aw-theme-iconOutline" fill="#464646" fill-rule="evenodd"/>
      <path id="rect858-2-6-9-4" d="M16,6V7H13V6Z" class="aw-theme-iconOutline" fill="#464646" fill-rule="evenodd"/>
      <path id="rect858-2-6-9-3" d="M20,17v1H17V17Z" class="aw-theme-iconOutline" fill="#464646" fill-rule="evenodd"/>
      <path id="rect858-2-6-9-4-1" d="M16,17v1H13V17Z" class="aw-theme-iconOutline" fill="#464646" fill-rule="evenodd"/>
      <path id="path12" d="M10.3,17.768,6.517,7.42,2.555,17.768,1.671,17.4,6.029,6.212c.078-.31.894-.3.971.011l4.192,11.2Z" class="aw-theme-iconOutline" fill="#464646"/>
      <path id="path16" d="M3.33,18H1.394c-.232,0-.387-.2-.387-.5s.155-.5.387-.5H3.33c.232,0,.387.2.387.5S3.562,18,3.33,18Z" class="aw-theme-iconOutline" fill="#464646"/>
      <path id="path20" d="M11.459,18H9.523c-.232,0-.387-.2-.387-.5s.155-.5.387-.5h1.936c.232,0,.387.2.387.5S11.691,18,11.459,18Z" class="aw-theme-iconOutline" fill="#464646"/>
      <path id="rect32" d="M3.53,13H9.324v1H3.53Z" class="aw-theme-iconOutline" fill="#464646"/>
      <path id="path16-0" d="M6.366,6.986H3.549a.5.5,0,1,1,0-1H6.366a.5.5,0,1,1,0,1Z" class="aw-theme-iconOutline" fill="#464646"/>
    </g>
  </g>
</svg>
