<svg id="Layer_1" data-name="Layer 1" xmlns="http://www.w3.org/2000/svg" viewBox="0 0 24 24">
  <g id="g898">
    <path id="path894" d="M21.619,17.34a1.742,1.742,0,0,1-1.03-1.556c0-.369.051-.513.514-1.413a9.732,9.732,0,0,0,.827-2.1,4.947,4.947,0,0,1,.351-1.032c.022.037.159.488.3,1a11.3,11.3,0,0,0,.816,2.048c.495,1,.551,1.155.546,1.51a1.708,1.708,0,0,1-1,1.52A1.955,1.955,0,0,1,21.619,17.34Zm1.139-1c.379-.319.368-.533-.067-1.377a5.544,5.544,0,0,0-.422-.742,5.529,5.529,0,0,0-.424.747c-.316.612-.376.787-.336.968a.809.809,0,0,0,.757.586A.721.721,0,0,0,22.758,16.338Z" class="aw-theme-iconOutline" fill="#464646"/>
    <path id="path890" d="M3.367,23.85A4.121,4.121,0,0,1,.572,21.8a3.96,3.96,0,0,1-.04-3.626c.25-.525.451-.734,7.783-8.089,4.14-4.153,7.728-7.81,7.974-8.126s.531-.664.634-.772c.666-.7,2.354,0,4.051,1.671,1.49,1.471,2.316,2.97,2.086,3.788-.1.358-.15.412-.83.918-.365.271-3.36,3.2-8.2,8.022C5.885,23.7,6.169,23.442,5.165,23.737A4.759,4.759,0,0,1,3.367,23.85ZM19.308,9.021l1.868-1.853L20.84,7a9.739,9.739,0,0,1-1.972-1.469,10.086,10.086,0,0,1-2.033-2.653c-.016-.027-7.689,7.673-7.712,7.74-.011.031.2-.018.474-.109A10.06,10.06,0,0,1,12.99,10.1a13.481,13.481,0,0,1,2.168.118,7,7,0,0,1,1.965.59.367.367,0,0,0,.23.089C17.4,10.884,18.28,10.041,19.308,9.021Zm2.886-2.674A5.693,5.693,0,0,0,20.813,4,7.178,7.178,0,0,0,17.726,1.85c-.19,0-.2.018-.166.2a5.961,5.961,0,0,0,1,1.794,8.909,8.909,0,0,0,2.8,2.368C21.9,6.47,22.194,6.518,22.194,6.347Z" class="aw-theme-iconOutline" fill="#464646"/>
  </g>
</svg>
