<svg id="Layer_1" data-name="Layer 1" xmlns="http://www.w3.org/2000/svg" viewBox="0 0 24 24">
  <g id="g844">
    <path id="path2" d="M0,0V24H24V23H1V4.7A.7.7,0,0,1,1.7,4H8.3a.7.7,0,0,1,.7.7V8H23V24h1V0ZM1,1H23V7H22V4.7A1.7,1.7,0,0,0,20.3,3H16.7a1.7,1.7,0,0,0-1.2.5A1.7,1.7,0,0,0,14.3,3H10.7a1.7,1.7,0,0,0-1.2.5A1.7,1.7,0,0,0,8.3,3H1.7a1.687,1.687,0,0,0-.7.154Zm9.7,3h3.6a.7.7,0,0,1,.7.7V7H10V4.7A.7.7,0,0,1,10.7,4Zm6,0h3.6a.7.7,0,0,1,.7.7V7H16V4.7A.7.7,0,0,1,16.7,4Z" class="aw-theme-iconOutline" fill="#464646"/>
    <path id="rect816" d="M2,9H22v1H2V9Z" class="aw-theme-iconOutline" fill="#464646"/>
    <path id="rect816-9" d="M2.508,13H21.525v1H2.508V13Z" class="aw-theme-iconOutline" fill="#464646"/>
    <path id="rect816-9-0" d="M3,9V22H2V9H3Z" class="aw-theme-iconOutline" fill="#464646"/>
    <path id="rect816-9-0-7" d="M22,9V22H21V9h1Z" class="aw-theme-iconOutline" fill="#464646"/>
    <path id="rect1037" d="M4,11H8v1H4V11Z" class="aw-theme-iconOutline" fill="#464646"/>
    <path id="rect1037-1" d="M9,11h4v1H9V11Z" class="aw-theme-iconOutline" fill="#464646"/>
    <path id="rect1037-7" d="M14,11h4v1H14V11Z" class="aw-theme-iconOutline" fill="#464646"/>
    <path id="rect1037-7-6" d="M19,11h1v1H19V11Z" class="aw-theme-iconOutline" fill="#464646"/>
    <path id="rect816-9-3" d="M2.542,21H21.458v1H2.542V21Z" class="aw-theme-iconOutline" fill="#464646"/>
  </g>
</svg>
