<svg id="Image" xmlns="http://www.w3.org/2000/svg" viewBox="0 0 24 24">
  <g id="g866">
    <path id="path849" d="M4,12.042l.826-.692L6.84,13.733l4.391-5.408.818.659L6.833,15.476Z" class="aw-theme-iconOutline" fill="#464646"/>
    <path id="path843" d="M7.754,0A1.852,1.852,0,0,0,5.9,1.787H5.486a1.407,1.407,0,0,0-1.025.447H0V22H14V21H1V3.234H4.08V5.021h8.707V3.234H16v5.78c.169-.012.344-.028.51-.028s.327.015.49.026V2.234H12.406a1.407,1.407,0,0,0-1.025-.447h-.408A1.852,1.852,0,0,0,9.113,0Zm0,1H9.113a.851.851,0,0,1,.86.84v.947h1.408a.4.4,0,0,1,.406.4v.839H5.08V3.182a.4.4,0,0,1,.406-.395H6.9V1.84A.85.85,0,0,1,7.754,1Z" class="aw-theme-iconOutline" fill="#464646"/>
    <path id="path2" d="M8.433,1.906a.5.5,0,1,0,.5.5A.5.5,0,0,0,8.433,1.906Z" class="aw-theme-iconOutline" fill="#464646"/>
    <path id="path4" d="M24,11.929c0-1.8-5.835-1.857-6.5-1.857s-6.5.052-6.5,1.857a.826.826,0,0,0,.158.456l4.485,6.651v4.5a.464.464,0,0,0,.721.386l2.786-1.857a.465.465,0,0,0,.207-.386V19.036l4.483-6.648A.809.809,0,0,0,24,11.929ZM17.5,11c3.218,0,5.213.573,5.546.929-.332.355-2.329.928-5.546.928s-5.213-.573-5.546-.928C12.287,11.573,14.283,11,17.5,11Zm1.008,7.632a.458.458,0,0,0-.079.261V21.43l-1.858,1.238V18.893a.458.458,0,0,0-.079-.261L12.87,13.307a21.7,21.7,0,0,0,4.63.479,21.739,21.739,0,0,0,4.627-.479Z" class="aw-theme-iconOutline" fill="#464646"/>
  </g>
</svg>
