<svg id="Layer_1" data-name="Layer 1" xmlns="http://www.w3.org/2000/svg" viewBox="0 0 24 24">
  <g id="g959">
    <path id="rect13-9-3" d="M1,1V17H11.049v-1H1.943V2H22.057v9.876H23V1Z" class="aw-theme-iconOutline" fill="#464646"/>
    <path id="path15-5" d="M3.318,2.92l-.64.768,7.2,6a3.552,3.552,0,0,0,4.633-.061L21.3,3.68l-.66-.752L13.85,8.871a2.516,2.516,0,0,1-3.336.043Z" class="aw-theme-iconOutline" fill="#464646"/>
    <path id="line17-6" d="M9.928,8.955,2.7,14.416l.6.8,7.23-5.461Z" class="aw-theme-iconOutline" fill="#464646"/>
    <path id="line19-5" d="M14.387,8.97l-.565.8L16.39,11.8h1.566Z" class="aw-theme-iconOutline" fill="#464646"/>
    <path id="path831" d="M16.414,12.727a1.023,1.023,0,0,0-1.022,1.023v.814H13.468a1.478,1.478,0,0,0-1.476,1.479V21.9a1.478,1.478,0,0,0,1.476,1.477h.121V24h.735v-.623h7.322V24h.73v-.623H22.5A1.479,1.479,0,0,0,23.976,21.9V16.043A1.479,1.479,0,0,0,22.5,14.564H20.576V13.75a1.024,1.024,0,0,0-1.024-1.023Zm0,1,3.164.023v.814h-1.1v-.621H17.5v.621H16.4Zm-2.946,1.837H17.5v.379h.98v-.379H22.5a.479.479,0,0,1,.477.479l0,5.857a.479.479,0,0,1-.476.477h-.124V22h-.732v.377h-7.32V22h-.735v.377h-.121a.477.477,0,0,1-.476-.477V16.043a.478.478,0,0,1,.475-.479Z" class="aw-theme-iconOutline" fill="#464646"/>
  </g>
</svg>
