<svg id="Layer_1" data-name="Layer 1" xmlns="http://www.w3.org/2000/svg" viewBox="0 0 24 24">
  <g id="g854">
    <path id="rect816" d="M0,0H24V1H0V0Z" class="aw-theme-iconOutline" fill="#464646"/>
    <path id="rect816-9" d="M0,4H24V5H0V4Z" class="aw-theme-iconOutline" fill="#464646"/>
    <path id="rect816-9-0" d="M1,0V24H0V0H1Z" class="aw-theme-iconOutline" fill="#464646"/>
    <path id="rect816-9-0-7" d="M24,0V24H23V0h1Z" class="aw-theme-iconOutline" fill="#464646"/>
    <path id="rect816-9-0-7-3" d="M24,24H0V23H24v1Z" class="aw-theme-iconOutline" fill="#464646"/>
    <path id="rect993" d="M2,7H7V9H2V7Z" class="aw-theme-iconOutline" fill="#464646"/>
    <path id="rect995" d="M6,11h7v2H6V11Z" class="aw-theme-iconOutline" fill="#464646"/>
    <path id="rect997" d="M12,15h5v2H12V15Z" class="aw-theme-iconOutline" fill="#464646"/>
    <path id="rect995-9" d="M15,19h7v2H15V19Z" class="aw-theme-iconOutline" fill="#464646"/>
    <path id="rect1037" d="M2,2H6V3H2V2Z" class="aw-theme-iconOutline" fill="#464646"/>
    <path id="rect1037-1" d="M8,2h4V3H8V2Z" class="aw-theme-iconOutline" fill="#464646"/>
    <path id="rect1037-7" d="M14,2h4V3H14V2Z" class="aw-theme-iconOutline" fill="#464646"/>
    <path id="rect1037-7-6" d="M21,2h1V3H21V2Z" class="aw-theme-iconOutline" fill="#464646"/>
  </g>
</svg>
