<svg id="Layer_1" data-name="Layer 1" xmlns="http://www.w3.org/2000/svg" viewBox="0 0 24 24">
  <g id="g830">
    <path id="path2" d="M7.5,0A4.461,4.461,0,0,0,3,4.4C3,7,5,10,7.5,10S12,7,12,4.4A4.461,4.461,0,0,0,7.5,0Zm0,1A3.458,3.458,0,0,1,11,4.4C11,6.4,9.4,9,7.5,9S4,6.4,4,4.4A3.458,3.458,0,0,1,7.5,1Z" class="aw-theme-iconOutline" fill="#464646"/>
    <path id="rect4" d="M3,17H4v5H3Z" class="aw-theme-iconOutline" fill="#464646"/>
    <path id="path821" d="M3.387,10.025A.653.653,0,0,0,3.1,10.1,5.2,5.2,0,0,0,0,14.7V22H1V14.7a4.323,4.323,0,0,1,2.3-3.6,7.887,7.887,0,0,0,8.6,0,3.031,3.031,0,0,1,.684.486,6.9,6.9,0,0,1,.889-.607A4.2,4.2,0,0,0,12.1,10.1a.446.446,0,0,0-.5,0,6.912,6.912,0,0,1-8,0A.3.3,0,0,0,3.387,10.025Zm8.662,2.043c-.107.1-.2.215-.3.325Q11.893,12.225,12.049,12.068Z" class="aw-theme-iconOutline" fill="#464646"/>
    <path id="path857" d="M15.868,22.94l2.307-2.21-.737-.705-2.3,2.211a2.866,2.866,0,0,1-3.848,0,2.548,2.548,0,0,1,0-3.7c.454-.432.832-.81,1.182-1.15,1.64-1.612,1.975-1.92,2.911-2.05l.035-.005a2.693,2.693,0,0,1,3.053,2.225l1.03-.137v-.031a3.732,3.732,0,0,0-4.26-3.041h0c-1.31.182-1.82.683-3.516,2.347-.335.331-.719.706-1.167,1.136a3.518,3.518,0,0,0,0,5.112A3.865,3.865,0,0,0,15.868,22.94Z" class="aw-theme-iconOutline" fill="#464646"/>
    <path id="path2-5" d="M20.339,18.64l2.567-2.468a3.518,3.518,0,0,0,0-5.111,3.958,3.958,0,0,0-5.316,0l-2.308,2.208.738.705,2.3-2.211a2.865,2.865,0,0,1,3.847,0,2.548,2.548,0,0,1,0,3.7L19.608,17.93a2.751,2.751,0,0,1-4.615-1.484l-1.03.134a3.806,3.806,0,0,0,6.38,2.059Z" class="aw-theme-iconOutline" fill="#464646"/>
  </g>
</svg>
