<svg id="Layer_1" data-name="Layer 1" xmlns="http://www.w3.org/2000/svg" viewBox="0 0 24 24">
  <g id="g847">
    <path id="path840" d="M8,9.787l-.344.342-.342.344L8.836,12l1.508,1.51a1.881,1.881,0,0,0-.3,1.01A1.945,1.945,0,0,0,11.59,16.4a1.236,1.236,0,0,0,.181.034,2.06,2.06,0,0,0,.272.019,2,2,0,0,0,.449-.051,1.317,1.317,0,0,0,.147-.039,1.821,1.821,0,0,0,.2-.072c.012,0,.021-.006.033-.012l.014-.007a1.93,1.93,0,0,0,1.154-1.75,1.964,1.964,0,0,0-1.994-1.934h0a2.045,2.045,0,0,0-.961.242l-.029.012L9.525,11.313Z" class="aw-theme-iconOutline" fill="#464646"/>
    <path id="path842" d="M7.028,21.583a8.091,8.091,0,0,1-2.543-2.931,9.168,9.168,0,0,1-.96-4.855,8.733,8.733,0,0,1,6.827-7.726,7.368,7.368,0,0,1,1.7-.171,7.987,7.987,0,0,1,1.686.172,8.6,8.6,0,0,1,4.478,2.472,8.415,8.415,0,0,1,2.332,6.77,9.087,9.087,0,0,1-3.507,6.27L16.579,22l-.922-1.2-.922-1.07h-2.06c-1.134,0-2.321-.018-2.638,0H9.461L8.633,20.75l-.925,1.132-.1.118-.583-.417Zm1.221-1.864L9.032,18.7h.994c.547,0,1.932.016,3.079,0H15.19l.752.938a8.287,8.287,0,0,0,.817.938,7.746,7.746,0,0,0,1.263-1.313,7.9,7.9,0,0,0,.646-8.562,7.626,7.626,0,0,0-6.014-3.817,7.771,7.771,0,0,0-4.214.875,7.932,7.932,0,0,0-3.192,3.272A8.084,8.084,0,0,0,5.9,19.164a8.359,8.359,0,0,0,1.5,1.515A9.134,9.134,0,0,0,8.249,19.719Z" class="aw-theme-iconOutline" fill="#464646"/>
    <path id="rect816" d="M0,0H24V1H0V0Z" class="aw-theme-iconOutline" fill="#464646"/>
    <path id="rect816-9" d="M0,4.043H24v1H0v-1Z" class="aw-theme-iconOutline" fill="#464646"/>
    <path id="rect816-9-0" d="M1,0V24H0V0H1Z" class="aw-theme-iconOutline" fill="#464646"/>
    <path id="rect816-9-0-7" d="M24,0V24H23V0h1Z" class="aw-theme-iconOutline" fill="#464646"/>
    <path id="rect816-9-0-7-3" d="M24,24H0V23H24v1Z" class="aw-theme-iconOutline" fill="#464646"/>
    <path id="rect1037" d="M2,2H6V3H2V2Z" class="aw-theme-iconOutline" fill="#464646"/>
    <path id="rect1037-1" d="M8,2h4V3H8V2Z" class="aw-theme-iconOutline" fill="#464646"/>
    <path id="rect1037-7" d="M14,2h4V3H14V2Z" class="aw-theme-iconOutline" fill="#464646"/>
    <path id="rect1037-7-3" d="M21,2h1V3H21V2Z" class="aw-theme-iconOutline" fill="#464646"/>
  </g>
</svg>
