<svg id="Image" xmlns="http://www.w3.org/2000/svg" viewBox="0 0 24 24">
  <g id="g822">
    <path id="path828" d="M15,17.482V13.973h1.859v5.749H20v1.27H15Z" class="aw-theme-iconOutline" fill="#464646"/>
    <path id="path843" d="M17.5,10.965a6.507,6.507,0,0,0-6.5,6.517h0a6.5,6.5,0,1,0,6.5-6.517Zm0,.931a5.577,5.577,0,0,1,5.569,5.586h0A5.578,5.578,0,0,1,17.5,23.069h0a5.578,5.578,0,0,1-5.569-5.587h0A5.578,5.578,0,0,1,17.5,11.9Z" class="aw-theme-iconOutline" fill="#464646"/>
    <path id="path821" d="M2.165,21.943a2.556,2.556,0,0,1-1.283-.725A2.493,2.493,0,0,1,.173,20a1.836,1.836,0,0,1,.036-1.2c.051-.1,1.815-2.084,3.92-4.413s3.823-4.249,3.816-4.266-.753-.786-1.658-1.706L4.641,6.745l-.949.947-.949.948L1.371,7.251,0,5.861l.926-.906c.509-.5,1.832-1.8,2.94-2.889L5.88.082l.2.141a1.472,1.472,0,0,0,.905.329A1.633,1.633,0,0,0,8,.2L8.286,0l.791.81.79.81L8.644,2.815,7.42,4.011l1.587,1.61L10.6,7.231l.1-.089a3.64,3.64,0,0,0,.273-.3l.174-.207-.073-.367A10.449,10.449,0,0,1,11,4.021a4.16,4.16,0,0,1,.841-2.128A5.182,5.182,0,0,1,15.226.051C15.8-.018,16.05.017,16.305.2c.319.235.408.352.429.562a.451.451,0,0,1-.066.323c-.047.073-.473.573-.946,1.111-.843.957-.865.988-1,1.37-.2.55-.444,1.267-.432,1.275s.326.282.712.618l.7.613.183-.07c.1-.038.453-.19.781-.339.554-.251.614-.29.834-.546a19.259,19.259,0,0,1,1.824-1.973c.193-.067.4.018.669.276.328.315.356.43.329,1.355A4.333,4.333,0,0,1,19.8,6.921a4.187,4.187,0,0,1-1.562,1.823,5.29,5.29,0,0,1-3.216.764h-.744l-.255.3-.333.387c-.077.089-.071.1.28.477a3.461,3.461,0,0,1,.342.4c-.009.007-.194.129-.411.271l-.394.259-.269-.306c-.148-.168-1.579-1.638-3.181-3.266S7.083,5,7.008,4.924l-.136-.141-.73.7-.729.7.748.768c.411.423,1.909,1.947,3.33,3.387,1.513,1.535,2.573,2.642,2.56,2.676a4.611,4.611,0,0,1-.258.4l-.237.338-.27-.268-.271-.267L7.422,17.421C5.445,19.738,3.8,21.66,3.759,21.692a2.193,2.193,0,0,1-.313.174A2.23,2.23,0,0,1,2.165,21.943Zm.946-1.049c.061-.055,1.7-1.967,3.65-4.25L10.3,12.493l-.808-.809-.807-.808-.162.165c-.089.091-1.795,1.974-3.791,4.183-3.578,3.962-3.628,4.02-3.628,4.2a1.66,1.66,0,0,0,.607,1.2C2.113,20.958,2.877,21.1,3.111,20.894ZM13.293,9.11c.5-.589.525-.6,1.357-.585A4.928,4.928,0,0,0,17.8,7.837,3.821,3.821,0,0,0,19.2,5.679a4.676,4.676,0,0,0,.128-1.074c-.012-.012-.1.067-.191.175s-.425.486-.739.838l-.571.64-.949.429c-.522.236-1.015.442-1.1.459-.3.06-.441-.032-1.442-.916-.526-.464-.986-.889-1.022-.944-.17-.26-.107-.569.386-1.895l.274-.739.683-.773a6.946,6.946,0,0,0,.654-.8,3.822,3.822,0,0,0-1.2.316,3.757,3.757,0,0,0-1.8,1.636,3.862,3.862,0,0,0-.332,2.036A8.413,8.413,0,0,0,12.1,6.3c.125.64.108.69-.457,1.306l-.34.371.789.789c.433.434.8.788.811.787S13.091,9.349,13.293,9.11ZM5.178,4.915,8.064,2.076,8.55,1.6l-.183-.184-.184-.183-.391.128a2.557,2.557,0,0,1-1.537.023l-.263-.095-.731.719C2.454,4.767,1.369,5.845,1.369,5.871c0,.043,1.341,1.413,1.379,1.408C2.764,7.277,3.858,6.213,5.178,4.915Z" class="aw-theme-iconOutline" fill="#464646"/>
    <path id="path823" d="M2.685,19.451a.5.5,0,0,1,.113-.842.473.473,0,0,1,.547.109.444.444,0,0,1,.113.541A.5.5,0,0,1,2.685,19.451Z" class="aw-theme-iconOutline" fill="#464646"/>
    <path id="path948" d="M12.918,10.963l-.121-.136-.008.006Z" class="aw-theme-iconOutline" fill="#464646"/>
  </g>
</svg>
