<svg id="Layer_1" data-name="Layer 1" xmlns="http://www.w3.org/2000/svg" viewBox="0 0 24 24">
  <g id="g899">
    <path id="rect816" d="M0,0H24V1H0V0Z" class="aw-theme-iconOutline" fill="#464646"/>
    <path id="rect816-9" d="M0,4.043H24v1H0v-1Z" class="aw-theme-iconOutline" fill="#464646"/>
    <path id="rect816-9-0" d="M1,0V24H0V0H1Z" class="aw-theme-iconOutline" fill="#464646"/>
    <path id="rect816-9-0-7" d="M24,0V24H23V0h1Z" class="aw-theme-iconOutline" fill="#464646"/>
    <path id="rect816-9-0-7-3" d="M24,24H0V23H24v1Z" class="aw-theme-iconOutline" fill="#464646"/>
    <path id="rect1037" d="M2.049,1.888H6.112v.971H2.049V1.888Z" class="aw-theme-iconOutline" fill="#464646"/>
    <path id="rect1037-1" d="M8.213,2h4.063v.971H8.213V2Z" class="aw-theme-iconOutline" fill="#464646"/>
    <path id="rect1037-7" d="M14,2.072h4.063v.971H14V2.072Z" class="aw-theme-iconOutline" fill="#464646"/>
    <path id="rect1037-7-0" d="M21,2h1V3H21V2Z" class="aw-theme-iconOutline" fill="#464646"/>
    <path id="rect841" d="M6,5H7V23H6V5Z" class="aw-theme-iconOutline" fill="#464646"/>
    <path id="rect841-3" d="M12,5h1V23H12V5Z" class="aw-theme-iconOutline" fill="#464646"/>
    <path id="rect841-0" d="M18,5h1V23H18V5Z" class="aw-theme-iconOutline" fill="#464646"/>
    <path id="rect841-32" d="M23,9v1H1V9H23Z" class="aw-theme-iconOutline" fill="#464646"/>
    <path id="rect841-32-9" d="M23,14v1H1V14H23Z" class="aw-theme-iconOutline" fill="#464646"/>
    <path id="rect841-32-9-3" d="M23,19v1H1V19H23Z" class="aw-theme-iconOutline" fill="#464646"/>
    <path id="path959" d="M3.5,7a.5.5,0,1,1-.5.5A.5.5,0,0,1,3.5,7Z" class="aw-theme-iconOutline" fill="#464646"/>
    <path id="path963" d="M4.5,6a.5.5,0,1,1-.5.5A.5.5,0,0,1,4.5,6Z" class="aw-theme-iconOutline" fill="#464646"/>
    <path id="path965" d="M2.5,6a.5.5,0,1,1-.5.5A.5.5,0,0,1,2.5,6Z" class="aw-theme-iconOutline" fill="#464646"/>
    <path id="path967" d="M8,7.5A.5.5,0,1,0,8.5,7,.5.5,0,0,0,8,7.5Z" class="aw-theme-iconOutline" fill="#464646"/>
    <path id="path971" d="M10.525,7a.5.5,0,1,1-.5.5A.5.5,0,0,1,10.525,7Z" class="aw-theme-iconOutline" fill="#464646"/>
    <path id="path973" d="M14.5,6a.5.5,0,1,1-.5.5A.5.5,0,0,1,14.5,6Z" class="aw-theme-iconOutline" fill="#464646"/>
    <path id="path977" d="M9.525,6a.5.5,0,1,1-.5.5A.5.5,0,0,1,9.525,6Z" class="aw-theme-iconOutline" fill="#464646"/>
    <path id="path979" d="M16.5,6a.5.5,0,1,1-.5.5A.5.5,0,0,1,16.5,6Z" class="aw-theme-iconOutline" fill="#464646"/>
    <path id="path981" d="M14.975,7.5a.5.5,0,1,0,.5-.5A.5.5,0,0,0,14.975,7.5Z" class="aw-theme-iconOutline" fill="#464646"/>
    <path id="path985" d="M21.5,7.5A.5.5,0,1,0,22,7,.5.5,0,0,0,21.5,7.5Z" class="aw-theme-iconOutline" fill="#464646"/>
    <path id="path987" d="M20,7a.5.5,0,1,1-.5.5A.5.5,0,0,1,20,7Z" class="aw-theme-iconOutline" fill="#464646"/>
    <path id="path991" d="M21,6a.5.5,0,1,1-.5.5A.5.5,0,0,1,21,6Z" class="aw-theme-iconOutline" fill="#464646"/>
    <path id="path967-4" d="M8,17.5a.5.5,0,1,0,.5-.5h0A.5.5,0,0,0,8,17.5Z" class="aw-theme-iconOutline" fill="#464646"/>
    <path id="path971-5" d="M10.5,17a.5.5,0,1,1-.5.5.5.5,0,0,1,.5-.5Z" class="aw-theme-iconOutline" fill="#464646"/>
    <path id="path977-9" d="M9.513,16a.5.5,0,1,1-.5.5.5.5,0,0,1,.5-.5Z" class="aw-theme-iconOutline" fill="#464646"/>
    <path id="path959-0" d="M9.5,12a.5.5,0,1,1-.5.5H9A.5.5,0,0,1,9.5,12Z" class="aw-theme-iconOutline" fill="#464646"/>
    <path id="path963-4" d="M10.5,11a.5.5,0,1,1-.5.5A.5.5,0,0,1,10.5,11Z" class="aw-theme-iconOutline" fill="#464646"/>
    <path id="path965-3" d="M8.5,11a.5.5,0,1,1-.5.5A.5.5,0,0,1,8.5,11Z" class="aw-theme-iconOutline" fill="#464646"/>
    <path id="path959-3" d="M9.5,21.5A.5.5,0,1,1,9,22H9A.5.5,0,0,1,9.5,21.5Z" class="aw-theme-iconOutline" fill="#464646"/>
    <path id="path963-7" d="M10.5,20.5a.5.5,0,1,1-.5.5A.5.5,0,0,1,10.5,20.5Z" class="aw-theme-iconOutline" fill="#464646"/>
    <path id="path965-4" d="M8.5,20.5A.5.5,0,1,1,8,21,.5.5,0,0,1,8.5,20.5Z" class="aw-theme-iconOutline" fill="#464646"/>
  </g>
</svg>
