<svg id="Layer_1" data-name="Layer 1" xmlns="http://www.w3.org/2000/svg" viewBox="0 0 24 24">
  <g id="g832">
    <path id="rect816" d="M0,0H21V1H0V0Z" class="aw-theme-iconOutline" fill="#464646"/>
    <path id="rect816-9" d="M0,6H21V7H0V6Z" class="aw-theme-iconOutline" fill="#464646"/>
    <path id="rect816-9-0" d="M1,0V21H0V0H1Z" class="aw-theme-iconOutline" fill="#464646"/>
    <path id="rect816-9-0-7" d="M22,0V11.366L21,10.7V0h1Z" class="aw-theme-iconOutline" fill="#464646"/>
    <path id="rect816-9-0-7-3" d="M10.8,21H0V20H10l.5,1Z" class="aw-theme-iconOutline" fill="#464646"/>
    <path id="rect816-9-6" d="M8,7V20H7V7H8Z" class="aw-theme-iconOutline" fill="#464646"/>
    <path id="path2-2" d="M17.5,24A6.5,6.5,0,1,1,24,17.5h0A6.487,6.487,0,0,1,17.526,24Zm0-12A5.5,5.5,0,1,0,23,17.5h0A5.55,5.55,0,0,0,17.5,12Z" class="aw-theme-iconOutline" fill="#464646"/>
    <path id="path4-8" d="M18.546,13l-.708.708,1.647,1.646H17.461A3.269,3.269,0,0,0,16.2,21.641l.384-.923a2.269,2.269,0,0,1,.873-4.364h2.024L17.838,18l.708.708,2.5-2.5a.5.5,0,0,0,0-.707h0Z" class="aw-theme-iconOutline" fill="#464646"/>
  </g>
</svg>
