<svg id="Layer_1" data-name="Layer 1" xmlns="http://www.w3.org/2000/svg" viewBox="0 0 24 24">
  <g id="g907">
    <path id="rect859-6" d="M.169,15.655H5.852c.088-.011.162.146.167.352s-.062.381-.15.392H.169c-.088-.011-.154-.186-.15-.392C.024,15.817.088,15.665.169,15.655Z" class="aw-theme-iconOutline" fill="#464646"/>
    <path id="rect861-9" d="M.372.026A.373.373,0,0,1,.745.4h0V16.028a.373.373,0,0,1-.745,0V.4A.371.371,0,0,1,.372.026Z" class="aw-theme-iconOutline" fill="#464646"/>
    <path id="rect863-8" d="M.309.026h13.46a.378.378,0,0,1,0,.743H.309a.378.378,0,0,1,0-.743Z" class="aw-theme-iconOutline" fill="#464646"/>
    <path id="rect869-44" d="M1.692,8.471H6.359c.092.011.162.187.157.392s-.072.342-.157.353H1.692c-.092.011-.171-.147-.175-.353s.065-.381.157-.392Z" class="aw-theme-iconOutline" fill="#464646"/>
    <path id="rect869-4-3" d="M1.644,10.662H6.311c.092.011.162.186.157.392,0,.19-.072.342-.157.352H1.644c-.092.011-.171-.146-.175-.352s.065-.381.157-.392A.054.054,0,0,1,1.644,10.662Z" class="aw-theme-iconOutline" fill="#464646"/>
    <path id="rect869-2-4" d="M1.714,12.884H6.4c.092.011.162.187.157.392s-.072.342-.157.353H1.714c-.092-.011-.162-.187-.157-.393C1.561,13.046,1.629,12.894,1.714,12.884Z" class="aw-theme-iconOutline" fill="#464646"/>
    <path id="rect869-5-6" d="M3,2.233h9.684a.372.372,0,1,1,0,.743H3a.372.372,0,0,1,0-.743Z" class="aw-theme-iconOutline" fill="#464646"/>
    <path id="rect869-0-5" d="M10.143,4.331H13.43a.373.373,0,0,1,0,.744H10.143a.373.373,0,0,1,0-.744Z" class="aw-theme-iconOutline" fill="#464646"/>
    <path id="path922-5" d="M10.113,6.367,9.6,6.354l-.275-.24-.5-.436c-.32-.272-.58-.5-.893-.806L7.7,4.639l-.9.131c-1.906.278-2.692.385-2.987.47-.075.02-.084.013-.274-.134-.241-.186-.456-.436-.418-.436.017,0,.636-.092,1.379-.2A25.4,25.4,0,0,1,7.859,4.02a3.109,3.109,0,0,1,.755.585A24.854,24.854,0,0,0,10.8,6.433l-.064-.021c-.109,0-.34-.04-.622-.048Z" class="aw-theme-iconOutline" fill="#464646"/>
    <path id="path996" d="M6.218,6.92a5.416,5.416,0,0,1-1.975-.7,4.09,4.09,0,0,1-.709-.436c-.178-.128-.436-.338-.585-.464a3.289,3.289,0,0,1-.506-.529,7.376,7.376,0,0,1-.754-1.148C1.177,2.8.949,2.393.459,1.471.182.95.145.876.161.864S.857.7.863.706s.135.247.29.545c.5.936.7,1.29,1.183,2.093a7.624,7.624,0,0,0,.681,1.037,4.706,4.706,0,0,0,.948.856,3.975,3.975,0,0,0,.639.391,6.007,6.007,0,0,0,1.28.506A10.707,10.707,0,0,0,7.411,6.3c.074-.012,1.587,0,2.441.006.312,0,4.7.01,5.224.019.862.013.52-.047.587-.065.025-.008-.035-.09-.373-.512-.372-.464-.837-1.1-1.122-1.548a4.8,4.8,0,0,1-.53-1.139,4.213,4.213,0,0,1-.244-1.174C13.365,1.56,13.327.372,13.346.36h.727l.011.744a9.451,9.451,0,0,0,.069,1.09,7.7,7.7,0,0,0,.307,1.074,3.631,3.631,0,0,0,.27.522c.279.429.753,1.079,1.139,1.562l.42.528c.074.091.208.254.3.364a2,2,0,0,1,.2.275.517.517,0,0,1,.075.131.4.4,0,0,1-.035.245c-.047.094-.2.127-.2.129s-1.158-.019-3.17,0c-.71.006-1.544.008-2.052,0s-.655,0-.994,0c-1.026,0-.88-.007-.917,0-.057.01-2.589-.014-2.9-.063Z" class="aw-theme-iconOutline" fill="#464646"/>
    <path id="rect859-6-2" d="M7.454,23.255h13.4a.373.373,0,1,1,.04.744.267.267,0,0,1-.04,0H7.454a.373.373,0,0,1,0-.744Z" class="aw-theme-iconOutline" fill="#464646"/>
    <path id="rect861-9-0" d="M7.454,7.626A.373.373,0,0,1,7.827,8h0V23.628a.373.373,0,0,1-.745,0V8a.371.371,0,0,1,.372-.371Z" class="aw-theme-iconOutline" fill="#464646"/>
    <path id="rect863-8-7" d="M7.391,7.626h13.46a.378.378,0,0,1,0,.743H7.391a.378.378,0,0,1,0-.743Z" class="aw-theme-iconOutline" fill="#464646"/>
    <path id="rect865-0-3" d="M20.851,14.225a.383.383,0,0,1,.373.39h0v8.994a.373.373,0,0,1-.745,0V14.615a.38.38,0,0,1,.371-.39h0Z" class="aw-theme-iconOutline" fill="#464646"/>
    <path id="rect869-44-7" d="M8.991,16.071H19.46a.373.373,0,0,1,0,.745H8.991a.373.373,0,0,1-.04-.745A.267.267,0,0,1,8.991,16.071Z" class="aw-theme-iconOutline" fill="#464646"/>
    <path id="rect869-4-3-7" d="M8.943,18.262H19.412a.373.373,0,0,1,0,.744H8.943a.373.373,0,0,1-.04-.744A.267.267,0,0,1,8.943,18.262Z" class="aw-theme-iconOutline" fill="#464646"/>
    <path id="rect869-2-4-9" d="M8.991,20.484H19.46a.373.373,0,0,1,0,.745H8.991a.373.373,0,0,1,0-.745Z" class="aw-theme-iconOutline" fill="#464646"/>
    <path id="rect869-5-6-8" d="M10.086,9.833H19.77a.372.372,0,1,1,0,.743H10.086a.372.372,0,0,1,0-.743Z" class="aw-theme-iconOutline" fill="#464646"/>
    <path id="rect869-0-5-3" d="M17.225,11.931h3.287a.373.373,0,0,1,0,.744H17.225a.373.373,0,0,1,0-.744Z" class="aw-theme-iconOutline" fill="#464646"/>
    <path id="path922-5-7" d="M17.2,13.967l-.51-.013-.275-.24-.5-.436c-.32-.272-.58-.505-.893-.806l-.241-.233-.9.131c-1.906.278-2.692.385-2.987.47-.075.02-.084.013-.274-.134-.241-.186-.456-.436-.418-.436.017,0,.636-.092,1.379-.2a25.4,25.4,0,0,1,3.366-.447,3.109,3.109,0,0,1,.755.585,24.854,24.854,0,0,0,2.181,1.828l-.064-.021c-.109,0-.34-.04-.622-.048Z" class="aw-theme-iconOutline" fill="#464646"/>
    <path id="path996-9" d="M13.3,14.52a5.416,5.416,0,0,1-1.975-.7,4.09,4.09,0,0,1-.709-.436c-.178-.128-.436-.338-.585-.464a3.289,3.289,0,0,1-.506-.529,7.376,7.376,0,0,1-.754-1.148c-.512-.85-.74-1.252-1.23-2.174-.277-.521-.314-.595-.3-.607s.7-.165.7-.158.135.247.29.545c.5.936.7,1.29,1.183,2.093a7.624,7.624,0,0,0,.681,1.037,4.706,4.706,0,0,0,.948.856,3.975,3.975,0,0,0,.639.391,6.007,6.007,0,0,0,1.28.506,10.707,10.707,0,0,0,1.527.166c.074-.012,1.587,0,2.441.006.312,0,4.7.01,5.224.018.862.014.52-.047.587-.065.025-.007-.035-.089-.373-.511-.372-.465-.837-1.1-1.122-1.549a4.775,4.775,0,0,1-.53-1.138,4.213,4.213,0,0,1-.244-1.174c-.029-.328-.067-1.515-.048-1.527h.727l.011.744a9.465,9.465,0,0,0,.069,1.09,7.7,7.7,0,0,0,.307,1.074,3.62,3.62,0,0,0,.27.521c.279.43.753,1.08,1.139,1.563l.42.528c.074.09.208.254.3.364a1.889,1.889,0,0,1,.2.275.485.485,0,0,1,.075.131.4.4,0,0,1-.035.245c-.047.094-.2.126-.2.129s-1.158-.019-3.17,0c-.71.006-1.544.007-2.052,0s-.655,0-.994,0c-1.026,0-.88-.006-.917,0-.057.01-2.589-.015-2.9-.064Z" class="aw-theme-iconOutline" fill="#464646"/>
  </g>
</svg>
