<svg id="svg838" xmlns="http://www.w3.org/2000/svg" viewBox="0 0 24 24">
  <g id="g836">
    <path id="path906" d="M10.435,17.239a1.495,1.495,0,0,1-1.051-2.2,1.547,1.547,0,0,1,.925-.719,1.745,1.745,0,0,1,.751,0A1.53,1.53,0,0,1,12.132,15.4a1.625,1.625,0,0,1-.01.772,1.486,1.486,0,0,1-1.158,1.063,1.876,1.876,0,0,1-.529.007Zm.383-.737a.766.766,0,0,0,.542-.412.582.582,0,0,0,.065-.284.593.593,0,0,0-.034-.282.743.743,0,0,0-.458-.459.6.6,0,0,0-.283-.033.641.641,0,0,0-.469.194A.742.742,0,0,0,10.52,16.5a.578.578,0,0,0,.3.007Z" class="aw-theme-iconOutline" fill="#464646"/>
    <path id="path904" d="M4.8,10.9a.893.893,0,0,1-.427-.251.865.865,0,0,1-.277-.657.855.855,0,0,1,.254-.637A.921.921,0,0,1,5.677,9.33a.916.916,0,0,1,.007,1.321A.94.94,0,0,1,4.8,10.9Zm.37-.622a.332.332,0,0,0,.04-.566.274.274,0,0,0-.189-.05.272.272,0,0,0-.187.049.314.314,0,0,0-.127.355.288.288,0,0,0,.166.212A.318.318,0,0,0,5.168,10.28Z" class="aw-theme-iconOutline" fill="#464646"/>
    <path id="path902" d="M4.318,12.624c-.087-.255-.161-.466-.164-.47s-.2.084-.447.2-.448.2-.457.2-.183-.178-.387-.388l-.372-.381.2-.444a3.437,3.437,0,0,0,.186-.456,1.817,1.817,0,0,0-.2-.077c-.1-.036-.308-.106-.454-.158l-.265-.093V9.44l.077-.028.461-.163c.212-.075.389-.139.392-.143S2.8,8.9,2.691,8.655l-.2-.445.095-.1c.053-.055.224-.231.381-.39l.285-.29.421.194c.232.107.435.2.452.2s.056-.059.193-.439l.162-.449h1.1l.018.049c.239.668.3.825.308.836A3.208,3.208,0,0,0,6.35,7.64c.237-.109.438-.2.449-.2s.764.741.764.766c0,.01-.089.216-.2.457s-.2.439-.192.443.212.077.463.165l.457.16.005.558,0,.557-.293.108-.433.158a.458.458,0,0,0-.149.071,3.937,3.937,0,0,0,.191.459l.2.438-.386.386-.385.386-.444-.2a3.247,3.247,0,0,0-.456-.188,2.352,2.352,0,0,0-.1.232l-.176.454-.092.238H4.477Zm1-.512c.064-.2.13-.394.147-.43a.423.423,0,0,1,.209-.187c.128-.053.193-.038.6.145.21.094.391.17.4.17a.325.325,0,0,0,.1-.077l.076-.078-.174-.393c-.225-.51-.228-.583-.038-.758a1.468,1.468,0,0,1,.451-.219c.205-.08.381-.146.39-.146A.31.31,0,0,0,7.491,10V9.86L7.1,9.716c-.435-.161-.5-.2-.564-.353s-.049-.22.141-.648c.09-.2.164-.379.164-.387a.375.375,0,0,0-.077-.091l-.078-.076L6.3,8.334c-.492.221-.592.235-.739.1-.089-.08-.121-.144-.278-.557l-.124-.327H4.9l-.128.4c-.141.438-.173.494-.314.548s-.24.031-.664-.16l-.378-.17-.084.081-.083.081.032.075.171.388c.151.342.169.409.135.515-.058.178-.148.236-.688.441l-.3.114,0,.134,0,.134.288.113c.158.063.34.131.4.153a.386.386,0,0,1,.3.4,2.07,2.07,0,0,1-.148.4c-.077.173-.154.348-.172.389l-.032.074.083.082.084.081.4-.178c.408-.183.465-.2.586-.157.162.055.216.137.393.6l.149.387H5.2Z" class="aw-theme-iconOutline" fill="#464646"/>
    <path id="path898" d="M9.1,19.742l-.674-.273.021-.432c.012-.238.027-.556.034-.707l.013-.274-.052.009c-.154.027-1.328.135-1.333.123s-.138-.327-.3-.707l-.293-.692.042-.045c.023-.025.256-.235.518-.468s.476-.427.477-.433-.236-.219-.526-.475L6.5,14.9l.115-.28.278-.68.163-.4.092.009c.148.014,1.306.067,1.314.06s-.014-.316-.039-.7-.042-.692-.039-.7.326-.141.716-.3c.573-.241.713-.294.728-.274.083.111.9,1.055.91,1.052s.228-.249.491-.547l.478-.542.668.295c.368.162.672.3.677.3s-.006.32-.024.7-.03.7-.025.7.282-.011.619-.035.648-.043.694-.043H14.4l.272.642.3.709.027.066-.543.444c-.3.245-.544.454-.544.466s.215.21.477.44.494.436.515.457l.04.039-.276.674-.277.674-.1,0-.7-.033c-.325-.015-.6-.023-.6-.017s.079,1.3.1,1.394c.007.044,0,.049-.7.288-.391.133-.719.242-.729.242s-.218-.23-.463-.512-.454-.512-.465-.512-.224.23-.474.512-.458.514-.464.516-.315-.119-.686-.269Zm3.012-.583.242-.1-.009-.065c-.025-.19-.082-1.081-.073-1.14a.589.589,0,0,1,.34-.417c.079-.03.117-.031.583-.012.274.012.556.026.625.032l.127.01.087-.219.087-.22-.047-.038c-.025-.021-.233-.2-.461-.407-.47-.417-.5-.461-.5-.657a.593.593,0,0,1,.091-.333c.022-.031.235-.223.474-.426l.456-.39c.018-.016,0-.073-.087-.274l-.11-.253-.146.007c-.57.028-1.146.039-1.2.024a.635.635,0,0,1-.286-.3,3.217,3.217,0,0,1,.006-.69c.015-.339.026-.618.022-.621a4.055,4.055,0,0,0-.414-.165c-.013,0-.219.21-.458.466-.462.5-.512.538-.683.555a.592.592,0,0,1-.346-.1,3.105,3.105,0,0,1-.413-.463l-.366-.45-.034-.039-.243.1-.243.1v.259c0,.143,0,.438.009.656l.009.395-.048.091a.545.545,0,0,1-.262.253c-.069.027-.123.028-.548.009-.26-.011-.55-.026-.644-.032l-.173-.011-.085.208a1.254,1.254,0,0,0-.08.225c0,.01.209.2.456.415.528.466.539.481.539.72s-.022.276-.553.729c-.244.207-.452.386-.463.4s.009.087.083.265c.086.2.11.246.141.246s.311-.025.647-.056a2.8,2.8,0,0,1,.681-.035.624.624,0,0,1,.3.294c.044.1.044.162.006,1.083l-.012.289.2.084c.112.046.209.084.217.084s.2-.209.429-.465c.357-.4.428-.47.5-.5a.587.587,0,0,1,.533.06c.035.027.233.246.441.487s.385.439.395.439S11.982,19.215,12.116,19.159Z" class="aw-theme-iconOutline" fill="#464646"/>
    <path id="rect836" d="M2.348,0A2.354,2.354,0,0,0,0,2.348v19.3A2.354,2.354,0,0,0,2.348,24h19.3A2.354,2.354,0,0,0,24,21.652V2.348A2.354,2.354,0,0,0,21.652,0Zm0,1h19.3A1.334,1.334,0,0,1,23,2.348v19.3A1.334,1.334,0,0,1,21.652,23H2.348A1.334,1.334,0,0,1,1,21.652V2.348A1.334,1.334,0,0,1,2.348,1Z" class="aw-theme-iconOutline" fill="#464646"/>
    <path id="rect842" d="M1,3H23.475V4H1Z" class="aw-theme-iconOutline" fill="#464646"/>
    <path id="path2" d="M19.085,10h-3V7h3Zm-2-1h1V8h-1Z" class="aw-theme-iconOutline" fill="#464646"/>
    <path id="path4-0" d="M19.085,15h-3V12h3Zm-2-1h1V13h-1Z" class="aw-theme-iconOutline" fill="#464646"/>
    <path id="path6" d="M19.085,20h-3V17h3Zm-2-1h1V18h-1Z" class="aw-theme-iconOutline" fill="#464646"/>
    <path id="rect14" d="M20,8.1h2v1H20Z" class="aw-theme-iconOutline" fill="#464646"/>
    <path id="rect16" d="M20,13h2v1H20Z" class="aw-theme-iconOutline" fill="#464646"/>
    <path id="rect18" d="M19.915,18.051h2v1h-2Z" class="aw-theme-iconOutline" fill="#464646"/>
  </g>
</svg>
