<svg id="Layer_1" data-name="Layer 1" xmlns="http://www.w3.org/2000/svg" viewBox="0 0 24 24">
  <g id="g825">
    <path id="path4" d="M17.952,8a6.16,6.16,0,0,0-6.19,6.154,5.76,5.76,0,0,0,.762,2.84l-3.9,3.882A1.862,1.862,0,0,0,8.048,22.2a1.522,1.522,0,0,0,.571,1.231,1.633,1.633,0,0,0,2.476,0L15,19.55a5.839,5.839,0,0,0,2.857.758,6.16,6.16,0,0,0,6.191-6.154A6.08,6.08,0,0,0,17.952,8ZM10.524,22.864a.816.816,0,0,1-1.238,0,.806.806,0,0,1,0-1.231L13.1,17.846a7.588,7.588,0,0,0,1.238,1.231Zm7.428-3.5a5.207,5.207,0,1,1,5.238-5.207A5.269,5.269,0,0,1,17.952,19.361Z" class="aw-theme-iconOutline" fill="#464646"/>
    <path id="polygon4" d="M20.152,11,18,13.276,15.848,11l-.82.828L17.283,14l-2.255,2.172.82.828L18,14.724,20.152,17l.82-.828L18.717,14l2.255-2.172Z" class="aw-theme-iconOutline" fill="#464646"/>
    <path id="path4-4-4-8" d="M4.046,6.23,1.87,4.029l6.174-.021L8.056,2.86H1.916L4.046.746,3.354,0,.343,2.909C.236,3.019,0,3.26,0,3.48a.858.858,0,0,0,.284.529L3.355,7Z" class="aw-theme-iconOutline" fill="#464646"/>
    <path id="path4-4-4-6-7" d="M12.01,6.23l2.177-2.2L8.021,4.008,8,2.86h6.14L12.01.746,12.7,0l3.01,2.909c.107.11.343.351.343.571a.858.858,0,0,1-.284.529L12.7,7Z" class="aw-theme-iconOutline" fill="#464646"/>
    <path id="path4-4-4-8-8" d="M6.23,19.954l-2.2,2.176-.021-6.174L2.86,15.944v6.14L.746,19.954,0,20.646l2.909,3.011c.11.107.351.343.571.343a.858.858,0,0,0,.529-.284L7,20.645Z" class="aw-theme-iconOutline" fill="#464646"/>
    <path id="path4-4-4-6-7-6" d="M6.23,11.99l-2.2-2.177-.021,6.166L2.86,16V9.86L.746,11.99,0,11.3l2.909-3.01c.11-.107.351-.343.571-.343a.858.858,0,0,1,.529.284L7,11.3Z" class="aw-theme-iconOutline" fill="#464646"/>
  </g>
</svg>
