<svg id="Layer_1" data-name="Layer 1" xmlns="http://www.w3.org/2000/svg" viewBox="0 0 24 24">
  <g id="g824">
    <path id="path4" d="M17.952,8a6.16,6.16,0,0,0-6.19,6.154,5.76,5.76,0,0,0,.762,2.84l-3.9,3.882A1.862,1.862,0,0,0,8.048,22.2a1.522,1.522,0,0,0,.571,1.231,1.633,1.633,0,0,0,2.476,0L15,19.55a5.839,5.839,0,0,0,2.857.758,6.16,6.16,0,0,0,6.191-6.154A6.08,6.08,0,0,0,17.952,8ZM10.524,22.864a.816.816,0,0,1-1.238,0,.806.806,0,0,1,0-1.231L13.1,17.846a7.588,7.588,0,0,0,1.238,1.231Zm7.428-3.5a5.207,5.207,0,1,1,5.238-5.207A5.269,5.269,0,0,1,17.952,19.361Z" class="aw-theme-iconOutline" fill="#464646"/>
    <path id="path4-4-4-8-8" d="M12.01.77l2.177,2.2-6.175.021L8,4.14h6.14L12.01,6.254,12.7,7l3.01-2.909c.107-.11.343-.351.343-.571a.858.858,0,0,0-.284-.529L12.7,0Z" class="aw-theme-iconOutline" fill="#464646"/>
    <path id="path4-4-4-6-7-6" d="M4.046.77,1.87,2.971l8.175.021.022,1.148H1.916l2.13,2.114L3.354,7,.343,4.091C.236,3.981,0,3.74,0,3.52a.858.858,0,0,1,.284-.529L3.355,0Z" class="aw-theme-iconOutline" fill="#464646"/>
    <path id="rect825" d="M14.5,13.5h7v1h-7Z" class="aw-theme-iconOutline" fill="#464646"/>
  </g>
</svg>
