<svg id="Layer_1" data-name="Layer 1" xmlns="http://www.w3.org/2000/svg" viewBox="0 0 24 24">
  <g id="g823">
    <path id="path4" d="M17.952,8a6.16,6.16,0,0,0-6.19,6.154,5.76,5.76,0,0,0,.762,2.84l-3.9,3.882A1.862,1.862,0,0,0,8.048,22.2a1.522,1.522,0,0,0,.571,1.231,1.633,1.633,0,0,0,2.476,0L15,19.55a5.839,5.839,0,0,0,2.857.758,6.16,6.16,0,0,0,6.191-6.154A6.08,6.08,0,0,0,17.952,8ZM10.524,22.864a.816.816,0,0,1-1.238,0,.806.806,0,0,1,0-1.231L13.1,17.846a7.588,7.588,0,0,0,1.238,1.231Zm7.428-3.5a5.207,5.207,0,1,1,5.238-5.207A5.269,5.269,0,0,1,17.952,19.361Z" class="aw-theme-iconOutline" fill="#464646"/>
    <path id="path4-4-4-8-8" d="M6.23,19.954l-2.2,2.176-.021-6.174L2.86,15.944v6.14L.746,19.954,0,20.646l2.909,3.011c.11.107.351.343.571.343a.858.858,0,0,0,.529-.284L7,20.645Z" class="aw-theme-iconOutline" fill="#464646"/>
    <path id="path4-4-4-6-7-6" d="M6.23,11.99l-2.2-2.176L4.008,17.99l-1.148.021V9.861L.746,11.99,0,11.3,2.909,8.287c.11-.106.351-.343.571-.343a.858.858,0,0,1,.529.284L7,11.3Z" class="aw-theme-iconOutline" fill="#464646"/>
    <path id="polygon4" d="M17.5,17.5h1v-3h3v-1h-3v-3h-1v3h-3v1h3Z" class="aw-theme-iconOutline" fill="#464646"/>
  </g>
</svg>
