<svg id="Artwork" xmlns="http://www.w3.org/2000/svg" viewBox="0 0 24 24">
  <g id="g818">
    <path id="path847" d="M10.087,15.444a1.768,1.768,0,0,1-.614-.326,1.737,1.737,0,0,1-.4-.587l-.053-.143-.006-3.73L9.006,6.929h1.637V6.3a4.716,4.716,0,0,1,.2-1.688,3.83,3.83,0,0,1,2.9-2.552,4.928,4.928,0,0,1,1.213-.046,3.907,3.907,0,0,1,2.12.937,3.952,3.952,0,0,1,1.2,2.1,6.094,6.094,0,0,1,.09,1.291v.589l.812.006L20,6.94l.005,3.667c.007,4.065.017,3.783-.142,4.1a1.492,1.492,0,0,1-.794.7l-.168.061-4.348,0c-3.494,0-4.372,0-4.468-.025Zm8.69-1.126c.12-.084.115.051.115-3.227V8.05H10.128V11.1c0,2.169.007,3.069.025,3.119.05.146-.271.136,4.358.137C18.372,14.355,18.73,14.352,18.777,14.318Zm-1.521-8.06a3.36,3.36,0,0,0-.115-1.192,2.748,2.748,0,0,0-.7-1.133,2.673,2.673,0,0,0-3.583-.244,2.852,2.852,0,0,0-.651.7,2.123,2.123,0,0,0-.294.566,3.176,3.176,0,0,0-.147,1.291v.684h5.492Z" class="aw-theme-iconOutline" fill="#464646"/>
    <path id="path4" d="M14.5,0A9.56,9.56,0,0,0,5,9.5a9.392,9.392,0,0,0,1.6,5.2L.7,20.6a2,2,0,0,0,0,2.7A1.457,1.457,0,0,0,2,24H2a1.612,1.612,0,0,0,1.3-.6l5.9-6A9.392,9.392,0,0,0,14.4,19a9.5,9.5,0,0,0,.1-19ZM2.7,22.7a.864.864,0,0,1-.6.3h0a1.08,1.08,0,0,1-.7-.3.854.854,0,0,1,0-1.3l5.8-5.8a15.38,15.38,0,0,0,1.3,1.2ZM14.5,18A8.5,8.5,0,1,1,23,9.5,8.493,8.493,0,0,1,14.5,18Z" class="aw-theme-iconOutline" fill="#464646"/>
    <path id="path4-4" d="M15.7,10.863a1.219,1.219,0,1,0-2.437,0A1.147,1.147,0,0,0,14.075,12v.894h.813V12A1.147,1.147,0,0,0,15.7,10.863Zm-1.218.406a.407.407,0,1,1,.406-.406A.384.384,0,0,1,14.482,11.269Z" class="aw-theme-iconOutline" fill="#464646"/>
  </g>
</svg>
