<svg id="Image" xmlns="http://www.w3.org/2000/svg" viewBox="0 0 16 16">
  <g id="g825">
    <g id="g6">
      <path id="circle2" d="M13,8A5,5,0,1,1,8,3,5,5,0,0,1,13,8Z" fill="#14915a"/>
      <path id="path4" d="M8,4A4,4,0,1,1,4,8,4,4,0,0,1,8,4M8,3a5,5,0,1,0,5,5A5,5,0,0,0,8,3Z" fill="#4e4a48"/>
    </g>
    <path id="path8" d="M12,1a2.991,2.991,0,0,1,.857,5.86,4.953,4.953,0,0,1,.129,1A3.992,3.992,0,1,0,8.137,3.014a4.953,4.953,0,0,1,1,.129A3,3,0,0,1,12,1Z" fill="#4e4a48"/>
    <path id="path14" d="M4,15a2.991,2.991,0,0,1-.857-5.86,4.953,4.953,0,0,1-.129-1,3.992,3.992,0,1,0,4.849,4.849,4.953,4.953,0,0,1-1-.129A3,3,0,0,1,4,15Z" fill="#4e4a48"/>
  </g>
</svg>
