<svg id="Layer_1" data-name="Layer 1" xmlns="http://www.w3.org/2000/svg" viewBox="0 0 16 16">
  <path d="M13,15H2.005a1.969,1.969,0,0,1-1.68-.96,2.164,2.164,0,0,1-.088-2.126L.244,11.9,5.558,2.163a2.2,2.2,0,0,1,3.886,0L14.757,11.9a2.173,2.173,0,0,1-.08,2.14A1.972,1.972,0,0,1,13,15Z" fill="#464646"/>
  <path d="M1.126,12.372a1.174,1.174,0,0,0,.05,1.144A.965.965,0,0,0,2.005,14H13a.964.964,0,0,0,.829-.484,1.172,1.172,0,0,0,.047-1.151L8.566,2.643a1.242,1.242,0,0,0-2.131,0Z" fill="#fa142d"/>
  <path d="M8.207,9.5,9.854,7.854a.5.5,0,0,0-.708-.708L7.5,8.793,5.854,7.146a.5.5,0,0,0-.708.708L6.793,9.5,5.146,11.146a.5.5,0,0,0,.708.708L7.5,10.207l1.646,1.647a.5.5,0,0,0,.708-.708Z" fill="#fff"/>
</svg>
