<svg id="Image" xmlns="http://www.w3.org/2000/svg" viewBox="0 0 16 16">
  <g id="g841">
    <path id="path836" d="M7.138,14.964a6.983,6.983,0,0,1-3.359-1.145,6.335,6.335,0,0,1-.879-.7c0-.014.678-1.629.753-1.795.038-.083.042-.08.38.265a5.056,5.056,0,0,0,3.22,1.451,4.808,4.808,0,0,0,2.142-.3,3.431,3.431,0,0,0,.861-.488,5.55,5.55,0,0,0-.342-.5,5.187,5.187,0,0,1-.331-.484c.015-.014,3.771-.151,3.785-.139s-.947,3.407-.994,3.539c-.01.027-.168-.143-.392-.424-.207-.258-.388-.474-.4-.48a2.12,2.12,0,0,0-.367.213,6.4,6.4,0,0,1-3.076,1c-.26.019-.511.032-.558.029S7.334,14.978,7.138,14.964Z" fill="#dc0000"/>
    <path id="path817" d="M12.515,8.959l-1.21-1.5.611-.009.612-.009V7.3a4.336,4.336,0,0,0-.785-2.048,6.3,6.3,0,0,0-1.25-1.245A6.39,6.39,0,0,0,9.8,3.6a4.207,4.207,0,0,0-1.826-.488l-.415-.023.4-.915c.36-.83.405-.916.484-.926a5.735,5.735,0,0,1,1.319.265,7.089,7.089,0,0,1,4.086,3.625,6.8,6.8,0,0,1,.582,1.7c.04.214.08.426.089.471l.015.081.609-.025a4.582,4.582,0,0,1,.608,0c0,.021-1.95,3.023-2,3.079C13.735,10.448,13.18,9.785,12.515,8.959Z" fill="#005f87"/>
    <path id="path815" d="M1.039,10.14a7.224,7.224,0,0,1-.016-4.1A6.425,6.425,0,0,1,3.509,2.452a1.962,1.962,0,0,0,.373-.281c0-.02-.129-.264-.286-.543s-.282-.511-.278-.514,3.653.419,3.671.437S5.5,4.917,5.444,4.975a2.441,2.441,0,0,1-.337-.483,4.61,4.61,0,0,0-.339-.509,3.6,3.6,0,0,0-.7.529A5.468,5.468,0,0,0,2.823,9.576a4.948,4.948,0,0,0,.2.517c.081.182.148.338.148.347s-.457.017-1.016.017H1.141Z" fill="#005f87"/>
  </g>
</svg>
