<svg id="Layer_1" data-name="Layer 1" xmlns="http://www.w3.org/2000/svg" viewBox="0 0 16 16">
  <g id="g854">
    <path id="path845" d="M15.7,8.05A7.75,7.75,0,0,1,7.95,15.8h0A7.75,7.75,0,0,1,.2,8.05h0A7.75,7.75,0,0,1,7.95.3h0A7.75,7.75,0,0,1,15.7,8.05Z" fill="#3c91af"/>
    <path id="rect6" d="M7.5,3h1v7.778h-1Z" fill="#fff"/>
    <path id="rect8" d="M7.5,11.889h1V13h-1Z" fill="#fff"/>
    <path id="path827" d="M8,0a8,8,0,1,0,8,8A8,8,0,0,0,8,0ZM8,1A7,7,0,1,1,1,8,7,7,0,0,1,8,1Z" class="aw-theme-iconOutline" fill="#464646"/>
  </g>
</svg>
