<svg id="Image" xmlns="http://www.w3.org/2000/svg" viewBox="0 0 16 16">
  <g id="g875">
    <path id="rect819" d="M3,5H4v6H3Z" fill="#db780b"/>
    <path id="rect819-5" d="M12,5h1v6H12Z" fill="#db780b"/>
    <path id="rect836" d="M5,12h6v1H5Z" fill="#db780b"/>
    <path id="rect838" d="M5,3h6V4H5Z" fill="#db780b"/>
    <path id="rect826-6-1-1" d="M.244,1l2.94,2.965a.492.492,0,0,0,.707-.029.508.508,0,0,0-.029-.707L.922.264A.491.491,0,0,0,.215.293.507.507,0,0,0,.244,1Z" fill="#db780b"/>
    <path id="rect826-8-9-6-63-8" d="M0,.686.242,2.668a.5.5,0,1,0,.993-.121L1,.565A.5.5,0,1,0,0,.686Z" fill="#db780b"/>
    <path id="rect826-8-9-6-5-5-8" d="M.636.041,2.631.115a.5.5,0,0,1-.039,1L.6,1.04a.5.5,0,0,1,.039-1Z" fill="#db780b"/>
    <path id="rect826-6-1-1-0" d="M.244,15.041l2.94-2.965a.492.492,0,0,1,.707.03.506.506,0,0,1-.029.706L.922,15.777a.492.492,0,0,1-.707-.03A.507.507,0,0,1,.244,15.041Z" fill="#db780b"/>
    <path id="rect826-8-9-6-63-8-5" d="M0,15.354l.238-1.982a.5.5,0,0,1,.993.122L1,15.476A.5.5,0,0,1,0,15.354Z" fill="#db780b"/>
    <path id="rect826-8-9-6-5-5-8-7" d="M.636,16l1.995-.075a.5.5,0,0,0-.039-1L.6,15a.5.5,0,0,0,.039,1Z" fill="#db780b"/>
    <path id="rect826-6-1-1-0-9" d="M15.776,15.041l-2.94-2.965a.491.491,0,0,0-.706.03.506.506,0,0,0,.029.706l2.94,2.965a.491.491,0,0,0,.706-.03A.506.506,0,0,0,15.776,15.041Z" fill="#db780b"/>
    <path id="rect826-8-9-6-63-8-5-0" d="M16.017,15.354l-.239-1.982a.5.5,0,0,0-.993.122l.239,1.982a.5.5,0,0,0,.993-.122Z" fill="#db780b"/>
    <path id="rect826-8-9-6-5-5-8-7-6" d="M15.384,16l-2-.075a.5.5,0,1,1,.039-1L15.423,15a.5.5,0,0,1-.039,1Z" fill="#db780b"/>
    <path id="rect826-6-1-1-0-9-1" d="M15.776,1l-2.94,2.965a.491.491,0,0,1-.706-.029.508.508,0,0,1,.029-.707L15.1.264a.49.49,0,0,1,.706.029A.506.506,0,0,1,15.776,1Z" fill="#db780b"/>
    <path id="rect826-8-9-6-63-8-5-0-9" d="M16.017.686l-.239,1.982a.5.5,0,1,1-.993-.121L15.024.565a.5.5,0,0,1,.993.121Z" fill="#db780b"/>
    <path id="rect826-8-9-6-5-5-8-7-6-3" d="M15.384.041l-2,.074a.5.5,0,1,0,.039,1l1.995-.074a.5.5,0,0,0-.039-1Z" fill="#db780b"/>
  </g>
</svg>
