<svg version="1.1" id="Layer_1" xmlns="http://www.w3.org/2000/svg" xmlns:xlink="http://www.w3.org/1999/xlink" x="0px" y="0px"
	 viewBox="0 0 16 16" style="enable-background:new 0 0 16 16;"  xml:space="preserve">

<path class="aw-theme-iconOutline" fill="#dc3c00" d="M3.3,11.4l-0.6-0.8l10-7l0.6,0.8L3.3,11.4z"/>
<path class="aw-theme-iconOutline" fill="#dc3c00" d="M2,2H1V1h1V2z M4,1H3v1h1V1z M6,1H5v1h1V1z M9,1H7v1h2V1z M11,1h-1v1h1V1z M13,1h-1v1h1V1z M15,1h-1v1h1V1z
	 M2,13H1v1h1V13z M4,13H3v1h1V13z M6,13H5v1h1V13z M9,13H7v1h2V13z M11,13h-1v1h1V13z M13,13h-1v1h1V13z M15,13h-1v1h1V13z M2,3H1v1
	h1V3z M2,5H1v1h1V5z M2,7H1v1h1V7z M2,9H1v1h1V9z M2,11H1v1h1V11z M15,3h-1v1h1V3z M15,5h-1v1h1V5z M15,7h-1v1h1V7z M15,9h-1v1h1V9z
	 M15,11h-1v1h1V11z"/>
<path  class="aw-theme-iconOutline" fill="#dc3c00" d="M12.7,11.4l-10-7l0.6-0.8l10,7L12.7,11.4z"/>
</svg>
