<svg id="Image" xmlns="http://www.w3.org/2000/svg" viewBox="0 0 16 16">
  <g id="g821">
    <path id="circle4" d="M16,8A8,8,0,1,1,8,0,8,8,0,0,1,16,8Z" fill="#dc0000"/>
    <path id="path6" d="M8,1a6.957,6.957,0,0,1,7,7,6.957,6.957,0,0,1-7,7A6.957,6.957,0,0,1,1,8,6.957,6.957,0,0,1,8,1M8,0a8,8,0,1,0,8,8A8.024,8.024,0,0,0,8,0Z" class="aw-theme-iconOutline" fill="#464646"/>
    <path id="path840" d="M8,2a6,6,0,1,0,6,6A6,6,0,0,0,8,2ZM8,3A5,5,0,1,1,3,8,5,5,0,0,1,8,3Z" fill="#fff"/>
    <path id="rect845" d="M3.52,11.485,11.654,3.8l.687.726-8.134,7.69Z" fill="#fff"/>
  </g>
</svg>
