<svg id="Image" xmlns="http://www.w3.org/2000/svg" viewBox="0 0 16 16">
  <g id="g825">
    <path id="rect851" d="M1.774,10H14.226C15.209,10,16,11.338,16,13s-.791,3-1.774,3H1.774C.791,16,0,14.662,0,13S.791,10,1.774,10Z" fill="#005f87"/>
    <path id="rect851-7" d="M1.689,11H14.311c.382,0,.689.871.689,1.952v.1C15,14.129,14.693,15,14.311,15H1.689C1.307,15,1,14.129,1,13.048v-.1C1,11.871,1.307,11,1.689,11Z" fill="#e3faff"/>
    <path id="rect4" d="M1.74,10H14.248v1.36H1.74Z" fill="#e3faff"/>
    <path id="path6" d="M10.853,8.146a.5.5,0,0,0-.708,0L9,9.293V5.5A2.5,2.5,0,0,0,6.5,3H1V4H6.5A1.5,1.5,0,0,1,8,5.5V9.293L6.854,8.146a.5.5,0,0,0-.708.708l2,2a.5.5,0,0,0,.708,0l2-2A.5.5,0,0,0,10.853,8.146Z" fill="#005f87"/>
  </g>
</svg>
