<svg id="Image" xmlns="http://www.w3.org/2000/svg" viewBox="0 0 16 16">
  <g id="g869">
    <path id="rect4" d="M5,5h6v6H5Z" fill="#e3faff"/>
    <path id="rect819" d="M4,5H5v6H4Z" fill="#005f87"/>
    <path id="rect819-5" d="M11,5h1v6H11Z" fill="#005f87"/>
    <path id="rect836" d="M5,11h6v1H5Z" fill="#005f87"/>
    <path id="rect838" d="M5,4h6V5H5Z" fill="#005f87"/>
    <path id="rect826-6-1-1" d="M3.776,3.141.836.176A.491.491,0,0,0,.13.206.506.506,0,0,0,.159.912L3.1,3.877a.491.491,0,0,0,.706-.03A.506.506,0,0,0,3.776,3.141Z" fill="#005f87"/>
    <path id="rect826-8-9-6-63-8" d="M4.017,3.454,3.778,1.472a.5.5,0,0,0-.993.122l.239,1.982a.5.5,0,0,0,.993-.122Z" fill="#005f87"/>
    <path id="rect826-8-9-6-5-5-8" d="M3.384,4.1,1.389,4.025a.5.5,0,0,1,.039-1l2,.074a.5.5,0,0,1-.039,1Z" fill="#005f87"/>
    <path id="rect826-6-1-1-0" d="M3.849,12.8.909,15.764A.491.491,0,0,1,.2,15.735a.508.508,0,0,1,.029-.707l2.94-2.964a.49.49,0,0,1,.706.029A.506.506,0,0,1,3.849,12.8Z" fill="#005f87"/>
    <path id="rect826-8-9-6-63-8-5" d="M4.09,12.486l-.239,1.982a.5.5,0,1,1-.992-.121L3.1,12.365a.5.5,0,0,1,.993.121Z" fill="#005f87"/>
    <path id="rect826-8-9-6-5-5-8-7" d="M3.458,11.841l-2,.074a.5.5,0,1,0,.04,1l2-.074a.5.5,0,0,0-.039-1Z" fill="#005f87"/>
    <path id="rect826-6-1-1-0-9" d="M12.228,12.8l2.94,2.965a.491.491,0,0,0,.706-.029.508.508,0,0,0-.029-.707l-2.94-2.964a.491.491,0,0,0-.707.029A.507.507,0,0,0,12.228,12.8Z" fill="#005f87"/>
    <path id="rect826-8-9-6-63-8-5-0" d="M11.987,12.486l.239,1.982a.5.5,0,1,0,.992-.121l-.238-1.982a.5.5,0,1,0-.993.121Z" fill="#005f87"/>
    <path id="rect826-8-9-6-5-5-8-7-6" d="M12.619,11.841l2,.074a.5.5,0,0,1-.039,1L12.58,12.84a.5.5,0,1,1,.039-1Z" fill="#005f87"/>
    <path id="rect826-6-1-1-0-9-1" d="M12.209,3.141,15.149.176a.491.491,0,0,1,.706.03.506.506,0,0,1-.029.706l-2.94,2.965a.492.492,0,0,1-.707-.03A.506.506,0,0,1,12.209,3.141Z" fill="#005f87"/>
    <path id="rect826-8-9-6-63-8-5-0-9" d="M11.968,3.454l.239-1.982a.5.5,0,0,1,.992.122L12.96,3.576a.5.5,0,1,1-.992-.122Z" fill="#005f87"/>
    <path id="rect826-8-9-6-5-5-8-7-6-3" d="M12.6,4.1l2-.075a.5.5,0,1,0-.039-1L12.561,3.1a.5.5,0,0,0,.039,1Z" fill="#005f87"/>
  </g>
</svg>
