<svg id="Layer_1" data-name="Layer 1" xmlns="http://www.w3.org/2000/svg" viewBox="0 0 16 16">
  <g id="g835">
    <path id="path881" d="M4.705,8.232a9.017,9.017,0,0,1-3.193-.765,2.286,2.286,0,0,1-.669-.511L.785,6.877l.132-.152a6.277,6.277,0,0,1,3.67-1.176,16.616,16.616,0,0,1,2.026,0,6.234,6.234,0,0,1,3.534,1.138.7.7,0,0,1,.157.185c0,.13-.527.518-.972.716a8.764,8.764,0,0,1-2.481.6C6.547,8.223,4.96,8.256,4.705,8.232Z" fill="#a8a8a8"/>
    <path id="path879" d="M2.645,14.7a1.535,1.535,0,0,1-.509-.367l-.087-.107L2.04,11.27c-.009-2.834-.007-2.954.046-2.94.031.008.189.039.352.069l.365.068.07.014v3.156c0,1.736-.01,3.156-.023,3.156A1.37,1.37,0,0,1,2.645,14.7Z" fill="#c8c8c8"/>
    <path id="path877" d="M4.96,15.172A7.1,7.1,0,0,1,3.821,15l-.313-.076.007-3.1.006-3.1.069.015c.174.036.9.094,1.471.116a16.85,16.85,0,0,0,3.092-.166c.237-.038.85-.156.932-.18a15.176,15.176,0,0,1,.043,2.8V14.12l-.07.094a4.215,4.215,0,0,1-2.721.96,10.376,10.376,0,0,1-1.377,0Z" fill="#c8c8c8"/>
    <path id="path875" d="M4.874,15.965c-1.707-.129-3.067-.707-3.469-1.475-.175-.334-.165-.145-.17-3.336l0-2.868L.985,8.154a1.853,1.853,0,0,1-.878-.816.707.707,0,0,1-.074-.419.721.721,0,0,1,.09-.453c.26-.544.992-.967,2.181-1.26a14.637,14.637,0,0,1,7.424.25c1.2.459,1.7,1.167,1.347,1.917a2.067,2.067,0,0,1-.969.837l-.209.1v2.853c0,3.094,0,2.968-.129,3.259-.327.707-1.406,1.259-2.879,1.472A9.722,9.722,0,0,1,4.874,15.965Zm1.345-.981a4.055,4.055,0,0,0,2.623-.915l.071-.1V8.627l-.055.014c-.167.042-.809.161-1.047.2A16.232,16.232,0,0,1,3.262,8.81c-.194-.032-.391-.065-.437-.071-.083-.013-.429-.086-.557-.119L2.2,8.6v2.622c0,1.8.008,2.65.026,2.714.11.395,1.054.829,2.143.986A9.083,9.083,0,0,0,6.219,14.984Zm.237-7.047a8.95,8.95,0,0,0,3.212-.659c.26-.127.492-.3.492-.359s-.248-.252-.487-.369A8.818,8.818,0,0,0,6.556,5.9a21.86,21.86,0,0,0-2.411.037A6.25,6.25,0,0,0,1.133,6.8l-.115.107.094.1c.456.47,1.911.834,3.762.941C5.182,7.964,6.09,7.959,6.456,7.937Z" class="aw-theme-iconOutline" fill="#464646"/>
    <path id="rect846-1" d="M9.942,3,4.956,2.624h0l.075-1h0L10.017,2h0L9.942,3Z" fill="#a8a8a8"/>
    <path id="rect848-1" d="M15.926,3.445l-7.978-.6h0l.075-1h0l7.977.6h0l-.074,1Z" class="aw-theme-iconOutline" fill="#464646"/>
    <path id="path1005" d="M4.242,7.113l1.246-.886,1.226.916L6.3,5.628l1.21-.939L6,4.639l-.478-1.5L5.011,4.627l-1.506.014,1.19.968Z" fill="#ffcd50"/>
    <path id="path1005-2" d="M.841,4.048l1.246-.886,1.226.915L2.894,2.562,4.1,1.624,2.6,1.573,2.121.077,1.61,1.562.1,1.576l1.19.967Z" fill="#ffcd50"/>
  </g>
</svg>
