<svg id="Image" xmlns="http://www.w3.org/2000/svg" viewBox="0 0 16 16">
  <g id="g824">
    <path id="path842" d="M8,0a8,8,0,1,0,8,8A8,8,0,0,0,8,0ZM8,1A7,7,0,1,1,1,8,7,7,0,0,1,8,1Z" fill="#005f87"/>
    <path id="path860" d="M5.5,3A2.5,2.5,0,1,0,8,5.5,2.5,2.5,0,0,0,5.5,3Zm0,1A1.5,1.5,0,1,1,4,5.5,1.5,1.5,0,0,1,5.5,4Z" fill="#005f87"/>
    <path id="path860-3" d="M10.5,8A2.5,2.5,0,0,0,8,10.5H8A2.5,2.5,0,1,0,10.5,8Zm0,1A1.5,1.5,0,1,1,9,10.5,1.5,1.5,0,0,1,10.5,9Z" fill="#005f87"/>
    <path id="rect924" d="M7.763,5H13V6H7.763Z" fill="#005f87"/>
    <path id="rect924-3" d="M3,10H8.373v1H3Z" fill="#005f87"/>
  </g>
</svg>
