<svg id="Image" xmlns="http://www.w3.org/2000/svg" viewBox="0 0 16 16">
  <g id="g1105">
    <path id="path1079" d="M.6,9.559C.583,6.4.638,3.476.642,3.476S6.007,6.568,6.025,6.585a1.588,1.588,0,0,0,.47.05h.352L6.818,5.159,6.941,3.6,9.615,5.176,12.1,6.652l.572-.034,0-.135V3.652L12.705.4,14.22.5h1.024V7.926l.22,7.7-7.423-.017L.635,15.556Z" fill="#e3faff"/>
    <path id="rect822" d="M12,0h1V7H12Z" fill="#005f87"/>
    <path id="rect824" d="M15,0h1V16H15Z" fill="#005f87"/>
    <path id="rect826-6" d="M13,0h2V1H13Z" fill="#005f87"/>
    <path id="rect826-8-9-0" d="M1,3,6.509,6.118,6.019,7,.515,3.882Z" fill="#005f87"/>
    <path id="rect822-6-3" d="M0,3H1V7H0Z" fill="#005f87"/>
    <path id="rect826-8-9-0-2" d="M7,2.986l5.489,3.132L12,7,6.511,3.867Z" fill="#005f87"/>
    <path id="rect822-6-3-7" d="M6,3l1-.014L7,7H6Z" fill="#005f87"/>
    <path id="rect824-6" d="M0,7H1v9H0Z" fill="#005f87"/>
    <path id="rect824-6-6" d="M15,15v1H1V15Z" fill="#005f87"/>
    <path id="path973" d="M9.976,10.944A2.019,2.019,0,0,1,8,13,2.062,2.062,0,0,1,8,8.883H8a2.02,2.02,0,0,1,1.976,2.061Z" fill="#005f87"/>
    <path id="path973-3" d="M4.051,8.042A1.026,1.026,0,0,1,3.008,9.049a1.008,1.008,0,1,1,0-2.014A1.026,1.026,0,0,1,4.051,8.042Z" fill="#005f87"/>
    <path id="path973-3-1" d="M5.07,13.028a1.043,1.043,0,1,1-1.043-1.067h0A1.055,1.055,0,0,1,5.07,13.028Z" fill="#005f87"/>
    <path id="path973-3-3" d="M13.028,9.01a1.044,1.044,0,1,1-1.043-.995A1.02,1.02,0,0,1,13.028,9.01Z" fill="#005f87"/>
    <path id="path973-3-5" d="M13.938,12.992a.959.959,0,1,1-.958-.983A.971.971,0,0,1,13.938,12.992Z" fill="#005f87"/>
    <path id="rect826-8-9-0-3" d="M3.716,8.079l3.787,2.2-.336.623L3.379,8.7Z" fill="#005f87"/>
    <path id="rect826-8-9-0-3-8" d="M4.213,13.494,8,11.291l-.337-.623-3.787,2.2Z" fill="#005f87"/>
    <path id="rect826-8-9-0-3-8-7" d="M8.452,11.42l3.788-2.2L11.9,8.6,8.116,10.8Z" fill="#005f87"/>
    <path id="rect826-8-9-0-3-8-7-4" d="M9.42,10.752l3.788,2.2-.337.623-3.787-2.2Z" fill="#005f87"/>
  </g>
</svg>
