<svg id="Image" xmlns="http://www.w3.org/2000/svg" viewBox="0 0 16 16">
  <g id="g825">
    <path id="rect851" d="M1.774,10.01H14.226c.983,0,1.774,1.336,1.774,3S15.209,16,14.226,16H1.774C.791,16,0,14.664,0,13.005S.791,10.01,1.774,10.01Z" fill="#005f87"/>
    <path id="rect851-7" d="M1.689,11H14.311c.382,0,.689.871.689,1.952v.1C15,14.129,14.693,15,14.311,15H1.689C1.307,15,1,14.129,1,13.048v-.1C1,11.871,1.307,11,1.689,11Z" fill="#e3faff"/>
    <path id="rect4" d="M1.74,10H14.248v1.36H1.74Z" fill="#e3faff"/>
    <path id="path6" d="M12.105,1.147a.494.494,0,0,0,0,.708L13.268,3H9.537A2.492,2.492,0,0,0,7,5.5V11H8.015V5.5A1.51,1.51,0,0,1,9.537,4h3.731L12.105,5.147a.5.5,0,1,0,.718.708l2.028-2a.494.494,0,0,0,0-.708l-2.028-2A.512.512,0,0,0,12.105,1.147Z" fill="#005f87"/>
  </g>
</svg>
