<svg id="Image" xmlns="http://www.w3.org/2000/svg" viewBox="0 0 16 16">
  <g id="g824">
    <path id="path820" d="M13,8.137c0-.046,0-.09,0-.137A4.991,4.991,0,0,0,9.14,3.143,2.991,2.991,0,0,1,15,4a.5.5,0,1,0,1,0,3.992,3.992,0,0,0-7.863-.986C8.091,3.012,8.047,3,8,3A4.991,4.991,0,0,0,3.143,6.86a3.3,3.3,0,0,0-.137,1C3.005,7.909,3,7.953,3,8a4.991,4.991,0,0,0,3.86,4.857A2.991,2.991,0,0,1,1,12a.5.5,0,1,0-1,0,3.992,3.992,0,0,0,7.863.986c.046,0,.09.014.137.014a4.991,4.991,0,0,0,4.857-3.86A4.516,4.516,0,0,0,13,8.137Z" fill="#4e4a48"/>
    <path id="path2" d="M8,12a4,4,0,1,1,4-4A4,4,0,0,1,8,12Z"/>
    <path id="circle4" d="M12,8A4,4,0,1,1,8,4,4,4,0,0,1,12,8Z" fill="#ffcd50"/>
  </g>
</svg>
