<svg id="svg10" xmlns="http://www.w3.org/2000/svg" viewBox="0 0 16 16">
  <path id="path2" d="M7.517,1.728.318,13.74a.508.508,0,0,0,0,.479.564.564,0,0,0,.453.24h14.4a.527.527,0,0,0,.453-.24.444.444,0,0,0,0-.479L8.45,1.728a.542.542,0,0,0-.48-.264A.5.5,0,0,0,7.517,1.728Z" fill="#eb780a"/>
  <path id="path8" d="M14.862,14.782H1.137a1.155,1.155,0,0,1-.977-.5.936.936,0,0,1-.02-1.016h0L7,1.716a1.175,1.175,0,0,1,1.006-.534,1.157,1.157,0,0,1,1,.547l6.866,11.547a.934.934,0,0,1-.032,1.01A1.157,1.157,0,0,1,14.862,14.782ZM1.451,13.771l13.059.013A.193.193,0,0,0,14.7,13.5L8.208,2.513a.224.224,0,0,0-.375,0L1.265,13.486A.193.193,0,0,0,1.451,13.771Z" class="aw-theme-iconOutline" fill="#464646"/>
  <rect id="rect829" x="7.5" y="4.5" width="1" height="6" fill="#fff"/>
  <circle id="path831" cx="8" cy="12.25" r="0.75" fill="#fff"/>
</svg>
