<svg id="Image" xmlns="http://www.w3.org/2000/svg" viewBox="0 0 16 16">
  <g id="g851">
    <path id="circle2" d="M16,8A8,8,0,1,1,8,0,8,8,0,0,1,16,8Z" fill="#14915a"/>
    <path id="path4" d="M8,1A7,7,0,1,1,1,8H1A7.008,7.008,0,0,1,8,1M8,0a8,8,0,1,0,8,8h0A8,8,0,0,0,8,0Z" class="aw-theme-iconOutline" fill="#464646"/>
    <path id="path836" d="M3.281,8.262c.6-.583.535-.551,1.035-1.036l2.92,2.889,3.837-6.44c.534.311.8.53,1.3.788-1.341,2.2-4.432,7.372-4.836,8.009C5.559,10.5,3.428,8.426,3.281,8.262Z" fill="#fff"/>
  </g>
</svg>
