<svg id="Image" xmlns="http://www.w3.org/2000/svg" xmlns:xlink="http://www.w3.org/1999/xlink" viewBox="0 0 16 16">
  <defs>
    <linearGradient id="linear-gradient" x1="0.933" y1="17.159" x2="15.094" y2="2.969" gradientTransform="matrix(1, 0, 0, -1, 0, 18)" gradientUnits="userSpaceOnUse">
      <stop offset="0" stop-color="#73b4c8"/>
      <stop offset="0.175" stop-color="#6aaec3"/>
      <stop offset="0.457" stop-color="#529eb5"/>
      <stop offset="0.809" stop-color="#2c839f"/>
      <stop offset="1" stop-color="#147391"/>
    </linearGradient>
  </defs>
  <g id="g830">
    <path id="path1127" d="M7,15.344A7.529,7.529,0,0,1,.969,10.4,7.432,7.432,0,0,1,4.213,1.566,8.209,8.209,0,0,1,6.77.627a9.355,9.355,0,0,1,2.562,0,7.438,7.438,0,0,1,.362,14.6,5.953,5.953,0,0,1-1.47.145A11.125,11.125,0,0,1,7,15.344Z" fill="url(#linear-gradient)"/>
    <path id="path973" d="M8,0a8,8,0,1,0,8,8A8,8,0,0,0,8,0ZM8,1a7,7,0,0,1,7,7h0a7,7,0,0,1-7,7H8A7,7,0,0,1,1,8H1A7,7,0,0,1,8,1Z" class="aw-theme-iconOutline" fill="#464646"/>
    <g id="text1131">
      <path id="path823" d="M7.191,10.743a3.041,3.041,0,0,1-.14-.514,3.487,3.487,0,0,1-.061-.638,1.779,1.779,0,0,1,.219-.883,3.775,3.775,0,0,1,.56-.745,7.46,7.46,0,0,1,.726-.66q.393-.322.726-.645a3.767,3.767,0,0,0,.551-.684A1.457,1.457,0,0,0,10,5.183a1.268,1.268,0,0,0-.166-.653A1.4,1.4,0,0,0,9.4,4.054a2.007,2.007,0,0,0-.648-.284,2.977,2.977,0,0,0-.778-.1A3.613,3.613,0,0,0,5.407,4.692V3.34A5.68,5.68,0,0,1,8.18,2.6a4.94,4.94,0,0,1,1.251.153,3.171,3.171,0,0,1,1.023.461,2.189,2.189,0,0,1,.7.753,2.119,2.119,0,0,1,.253,1.052,2.194,2.194,0,0,1-.227,1.014,3.615,3.615,0,0,1-.577.821,6.9,6.9,0,0,1-.744.692q-.4.322-.752.645a3.633,3.633,0,0,0-.569.66,1.358,1.358,0,0,0-.227.76,2.05,2.05,0,0,0,.1.645,4.266,4.266,0,0,0,.193.484Zm.788,3.2a1.042,1.042,0,0,1-.683-.246.759.759,0,0,1-.288-.6.746.746,0,0,1,.288-.6,1.047,1.047,0,0,1,1.365,0,.747.747,0,0,1,.289.6.76.76,0,0,1-.289.6A1.04,1.04,0,0,1,7.979,13.938Z" fill="#fff"/>
    </g>
  </g>
</svg>
