<svg id="Layer_1" data-name="Layer 1" xmlns="http://www.w3.org/2000/svg" xmlns:xlink="http://www.w3.org/1999/xlink" viewBox="0 0 48 48">
  <defs>
    <linearGradient id="linear-gradient" x1="0.995" y1="44.86" x2="46.495" y2="13.492" gradientTransform="matrix(1, 0, 0, -1, 0, 48)" gradientUnits="userSpaceOnUse">
      <stop offset="0" stop-color="#cde6eb"/>
      <stop offset="0.221" stop-color="#c6e2e8"/>
      <stop offset="0.542" stop-color="#b3d8e1"/>
      <stop offset="0.921" stop-color="#93c7d5"/>
      <stop offset="1" stop-color="#8cc3d2"/>
    </linearGradient>
    <linearGradient id="linear-gradient-2" x1="22.729" y1="15.643" x2="48.436" y2="0.476" gradientTransform="matrix(1, 0, 0, -1, 0, 48)" gradientUnits="userSpaceOnUse">
      <stop offset="0" stop-color="#73b4c8"/>
      <stop offset="1" stop-color="#177491"/>
    </linearGradient>
    <linearGradient id="linear-gradient-3" x1="28.255" y1="18.645" x2="34.173" y2="10.473" gradientTransform="matrix(1, 0, 0, -1, 0, 48)" gradientUnits="userSpaceOnUse">
      <stop offset="0" stop-color="#fff"/>
      <stop offset="1" stop-color="#bebdbd"/>
    </linearGradient>
    <linearGradient id="linear-gradient-4" x1="28.812" y1="7.523" x2="32.842" y2="3.492" xlink:href="#linear-gradient-3"/>
  </defs>
  <g id="g921">
    <path id="rect13-9-3-7" d="M1.5,3.5h45v31H1.5Z" stroke="#464646" stroke-miterlimit="10" fill="url(#linear-gradient)"/>
    <path id="path15-5-6" d="M4.761,6.644l15.361,12.54a6.576,6.576,0,0,0,8.507-.108L43.114,6.644" fill="none" stroke="#6e6e6e" stroke-miterlimit="10"/>
    <path id="line17-6-0" d="M20.2,19.3,4.761,30.722" fill="none" stroke="#6e6e6e" stroke-miterlimit="10"/>
    <path id="line19-5-0" d="M43.842,30.768,28.768,19.05" fill="none" stroke="#6e6e6e" stroke-miterlimit="10"/>
    <g id="g37">
      <path id="path21" d="M28.906,18.79,14.064,44.5a2,2,0,0,0,1.732,3H45.481a2,2,0,0,0,1.732-3L32.37,18.79a2,2,0,0,0-3.464,0Z" fill="url(#linear-gradient-2)"/>
      <g id="g35">
        <g id="g27">
          <path id="path23" d="M28.845,38.035V27.43a.6.6,0,0,1,.6-.6h2.372a.6.6,0,0,1,.6.6h0v10.6Z" fill="url(#linear-gradient-3)"/>
          <path id="path25" d="M31.825,27.327a.1.1,0,0,1,.1.1h0V37.535h-2.58V27.43a.1.1,0,0,1,.1-.1h2.38m0-1H29.452a1.1,1.1,0,0,0-1.1,1.1h0v11.1H32.93V27.43a1.1,1.1,0,0,0-1.1-1.1h0Z" fill="#6f6e6e"/>
        </g>
        <g id="g33">
          <path id="circle29" d="M32.427,42.3a1.789,1.789,0,1,1-1.789-1.789A1.789,1.789,0,0,1,32.427,42.3Z" fill="url(#linear-gradient-4)"/>
          <path id="path31" d="M30.638,41.014A1.289,1.289,0,1,1,29.345,42.3a1.288,1.288,0,0,1,1.293-1.286m0-1A2.289,2.289,0,1,0,32.927,42.3a2.288,2.288,0,0,0-2.293-2.289Z" fill="#6f6e6e"/>
        </g>
      </g>
    </g>
    <path id="path930" d="M15,47.886a2.389,2.389,0,0,1-1.644-2.139c-.063-.884-1.083.979,9.636-17.6,2.177-3.774,4.329-7.507,4.782-8.3.875-1.523,1.2-1.93,1.756-2.2a2.464,2.464,0,0,1,3.076.727c.1.135.971,1.613,1.937,3.285,3.736,6.461,5.815,10.05,6.495,11.211.389.665.707,1.224.707,1.242,0,.04.746,1.342,3.6,6.289,1.259,2.178,2.352,4.1,2.429,4.268a2.606,2.606,0,0,1-.052,1.892,2.884,2.884,0,0,1-1.253,1.269l-.324.15-15.4.015C16.076,48.009,15.338,48,15,47.886Zm31.192-1.011a1.5,1.5,0,0,0,.746-1.676c-.045-.15-2.672-4.764-5.838-10.252S34.558,23.6,33.6,21.931A34.49,34.49,0,0,0,31.623,18.7a1.783,1.783,0,0,0-1.2-.358,1.687,1.687,0,0,0-.971.582c-.1.132-3.545,6.062-7.65,13.178C14.672,44.465,14.337,45.06,14.31,45.428a2.009,2.009,0,0,0,.055.638,1.616,1.616,0,0,0,.785.864c.262.119.919.124,15.49.126H45.857Z" fill="#464646"/>
  </g>
</svg>
