<svg id="Image" xmlns="http://www.w3.org/2000/svg" xmlns:xlink="http://www.w3.org/1999/xlink" viewBox="0 0 48 48">
  <defs>
    <linearGradient id="linear-gradient" x1="0.71" y1="45.846" x2="45.072" y2="7.092" gradientTransform="matrix(1, 0, 0, -1, 0, 52)" gradientUnits="userSpaceOnUse">
      <stop offset="0" stop-color="#fff"/>
      <stop offset="0.221" stop-color="#fbfbfc"/>
      <stop offset="0.541" stop-color="#ececec"/>
      <stop offset="0.92" stop-color="#d0cecd"/>
      <stop offset="1" stop-color="#c9c6c5"/>
    </linearGradient>
    <linearGradient id="linear-gradient-2" x1="186.654" y1="994.862" x2="224.248" y2="1036.71" gradientTransform="translate(-98.286 -584.475) scale(0.604)" gradientUnits="userSpaceOnUse">
      <stop offset="0" stop-color="#fff"/>
      <stop offset="1" stop-color="#dcdcdc"/>
    </linearGradient>
    <linearGradient id="linear-gradient-3" x1="218.535" y1="1021.709" x2="232.642" y2="1035.895" gradientTransform="translate(-98.286 -584.475) scale(0.604)" gradientUnits="userSpaceOnUse">
      <stop offset="0" stop-color="#74b3c7"/>
      <stop offset="0.177" stop-color="#6badc2"/>
      <stop offset="0.464" stop-color="#539db4"/>
      <stop offset="0.822" stop-color="#2d839d"/>
      <stop offset="1" stop-color="#177490"/>
    </linearGradient>
    <linearGradient id="linear-gradient-4" x1="197.522" y1="1004.671" x2="222.562" y2="1029.958" gradientTransform="translate(-95.872 -584.475) scale(0.604)" xlink:href="#linear-gradient-2"/>
  </defs>
  <g id="g918">
    <path id="path35" d="M1.5,43h45V10h-27L16.094,4.891A2,2,0,0,0,14.43,4H3.5a2,2,0,0,0-2,2Z" fill="url(#linear-gradient)"/>
    <path id="path37" d="M47,43.5H1V6A2.5,2.5,0,0,1,3.5,3.5H14.43a2.493,2.493,0,0,1,2.08,1.114L19.768,9.5H47Zm-45-1H46v-32H19.232L15.678,5.168A1.5,1.5,0,0,0,14.43,4.5H3.5A1.5,1.5,0,0,0,2,6Z" fill="#4e4a48"/>
    <path id="rect9" d="M13.428,14.956h22.33V39.7H13.428Z" stroke="#464646" stroke-width="0.604" fill="url(#linear-gradient-2)"/>
    <path id="line15" d="M15.54,20.984H25.2" fill="none" stroke="#147391" stroke-miterlimit="10" stroke-width="0.604"/>
    <path id="line17" d="M15.54,22.8h6.639" fill="none" stroke="#147391" stroke-miterlimit="10" stroke-width="0.604"/>
    <path id="line27" d="M15.54,27.646h6.035" fill="none" stroke="#147391" stroke-miterlimit="10" stroke-width="0.604"/>
    <path id="line29" d="M15.54,29.458h6.035" fill="none" stroke="#147391" stroke-miterlimit="10" stroke-width="0.604"/>
    <path id="line39" d="M15.54,33.69h7.242" fill="none" stroke="#147391" stroke-miterlimit="10" stroke-width="0.604"/>
    <path id="line41" d="M15.54,35.493h6.035" fill="none" stroke="#147391" stroke-miterlimit="10" stroke-width="0.604"/>
    <path id="path939" d="M16.133,16.465a.6.6,0,1,1-.6-.6h0A.6.6,0,0,1,16.133,16.465Z" fill="#147391"/>
    <path id="rect941" d="M15.512,11.637h.036a.283.283,0,0,1,.284.281v4.263a.284.284,0,0,1-.282.284h-.038a.283.283,0,0,1-.284-.282V11.921a.283.283,0,0,1,.282-.284Z" fill="#464646"/>
    <path id="path939-3" d="M30.628,16.465a.6.6,0,1,1-.6-.6h0A.6.6,0,0,1,30.628,16.465Z" fill="#147391"/>
    <path id="rect941-6" d="M30.008,11.637h.037a.283.283,0,0,1,.281.284h0v4.26a.283.283,0,0,1-.281.284h-.039a.283.283,0,0,1-.283-.282V11.921a.282.282,0,0,1,.282-.284Z" fill="#464646"/>
    <path id="path939-2" d="M27.128,16.494a.6.6,0,1,1-.6-.6.6.6,0,0,1,.6.6Z" fill="#147391"/>
    <path id="rect941-60" d="M26.508,11.665h.037a.283.283,0,0,1,.283.283h0V16.21a.283.283,0,0,1-.282.284h-.038a.283.283,0,0,1-.283-.283h0V11.949a.283.283,0,0,1,.282-.284Z" fill="#464646"/>
    <path id="path939-1" d="M23.382,16.465a.6.6,0,1,1-.6-.6h0A.6.6,0,0,1,23.382,16.465Z" fill="#147391"/>
    <path id="rect941-82" d="M22.76,11.637H22.8a.283.283,0,0,1,.283.282v4.262a.283.283,0,0,1-.281.284H22.76a.284.284,0,0,1-.284-.282V11.921a.283.283,0,0,1,.283-.284Z" fill="#464646"/>
    <path id="path939-84" d="M19.757,16.465a.6.6,0,1,1-.6-.6h0A.6.6,0,0,1,19.757,16.465Z" fill="#147391"/>
    <path id="rect941-9" d="M19.136,11.637h.037a.283.283,0,0,1,.283.282v4.262a.284.284,0,0,1-.282.284h-.038a.283.283,0,0,1-.284-.282V11.921a.283.283,0,0,1,.283-.284Z" fill="#464646"/>
    <path id="path939-4" d="M34.254,16.465a.6.6,0,1,1-.6-.6h0A.6.6,0,0,1,34.254,16.465Z" fill="#147391"/>
    <path id="rect941-89" d="M33.632,11.637h.037a.283.283,0,0,1,.283.282v4.262a.283.283,0,0,1-.281.284h-.039a.283.283,0,0,1-.283-.282V11.921a.282.282,0,0,1,.282-.284Z" fill="#464646"/>
    <path id="path1079" d="M33.844,34.218l5.746,5.745a1.224,1.224,0,0,0,1.731.007l.007-.007.1-.1a1.167,1.167,0,0,0,.041-1.65c-.013-.014-.027-.027-.041-.04l-5.793-5.794Z" fill="#4593ab" fill-rule="evenodd"/>
    <path id="path1081" d="M33.844,34.218l5.746,5.745a1.224,1.224,0,0,0,1.731.007l.007-.007.1-.1a1.167,1.167,0,0,0,.041-1.65c-.013-.014-.027-.027-.041-.04l-5.793-5.794" stroke="#464646" stroke-miterlimit="10" stroke-width="0.628" fill="url(#linear-gradient-3)"/>
    <path id="path1083" d="M29.692,21.037A7.243,7.243,0,1,1,22.45,28.28h0a7.233,7.233,0,0,1,7.223-7.243Z" stroke="#464646" stroke-linecap="round" stroke-linejoin="round" stroke-width="0.628" fill="url(#linear-gradient-4)"/>
    <path id="path45" d="M28.542,29.487l-1.781-2.113-1.8,1.49,3.561,4.375,6.221-7.676-1.778-1.454" fill="#147391"/>
    <path id="polygon47" d="M28.584,30.788l4.458-5.458.647.491-5.113,6.267-2.663-3.265.653-.482Z" fill="#3b90b2"/>
  </g>
</svg>
