<svg id="Layer_1" data-name="Layer 1" xmlns="http://www.w3.org/2000/svg" xmlns:xlink="http://www.w3.org/1999/xlink" viewBox="0 0 48 48">
  <defs>
    <linearGradient id="linear-gradient" x1="2.089" y1="42.24" x2="46.66" y2="11.24" gradientTransform="matrix(1, 0, 0, -1, 0, 48)" gradientUnits="userSpaceOnUse">
      <stop offset="0" stop-color="#cde6eb"/>
      <stop offset="0.221" stop-color="#c6e2e8"/>
      <stop offset="0.542" stop-color="#b3d8e1"/>
      <stop offset="0.921" stop-color="#93c7d5"/>
      <stop offset="1" stop-color="#8cc3d2"/>
    </linearGradient>
    <linearGradient id="linear-gradient-2" x1="27.712" y1="20.849" x2="44.226" y2="36.988" gradientTransform="translate(0 0.72)" gradientUnits="userSpaceOnUse">
      <stop offset="0" stop-color="#f2f2f2"/>
      <stop offset="1" stop-color="#999"/>
    </linearGradient>
    <linearGradient id="linear-gradient-3" x1="31.485" y1="9.08" x2="40.816" y2="0.863" gradientTransform="matrix(1, 0, 0, -1, 0, 48)" xlink:href="#linear-gradient-2"/>
    <linearGradient id="linear-gradient-4" x1="30.077" y1="23.095" x2="42.891" y2="35.767" gradientTransform="translate(0 0.72)" gradientUnits="userSpaceOnUse">
      <stop offset="0" stop-color="#fff"/>
      <stop offset="1" stop-color="#dcdcdc"/>
    </linearGradient>
  </defs>
  <g id="g915">
    <path id="rect13-9-3-7" d="M1.5,5.5h45v31H1.5Z" stroke="#464646" stroke-miterlimit="10" fill="url(#linear-gradient)"/>
    <path id="path15-5-6" d="M4.761,8.644l15.361,12.54a6.576,6.576,0,0,0,8.507-.108L43.114,8.644" fill="none" stroke="#6e6e6e" stroke-miterlimit="10"/>
    <path id="line17-6-0" d="M20.2,21.3,4.761,32.722" fill="none" stroke="#6e6e6e" stroke-miterlimit="10"/>
    <path id="line19-5-0" d="M43.842,32.818,28.768,21.1" fill="none" stroke="#6e6e6e" stroke-miterlimit="10"/>
    <g id="g44">
      <path id="path28" d="M45.6,30.736a.408.408,0,0,0-.054.541l1.476,2.04-2.359.875a.41.41,0,0,0-.257.479l.585,2.449-2.517-.1a.4.4,0,0,0-.42.345l-.4,2.485L39.37,38.808a.411.411,0,0,0-.52.158l-1.319,2.142-1.713-1.85a.407.407,0,0,0-.54-.054L33.24,40.68l-.876-2.36a.406.406,0,0,0-.48-.256l-2.448.583.094-2.515a.412.412,0,0,0-.345-.421l-2.486-.4,1.049-2.28a.41.41,0,0,0-.158-.521l-2.142-1.319,1.846-1.711a.409.409,0,0,0,.053-.541L25.871,26.9l2.359-.875a.41.41,0,0,0,.257-.48L27.9,23.1l2.517.1a.409.409,0,0,0,.42-.345l.4-2.486,2.285,1.048a.411.411,0,0,0,.52-.158l1.319-2.142,1.713,1.845a.41.41,0,0,0,.54.053l2.039-1.475.875,2.359a.409.409,0,0,0,.48.257l2.449-.585-.095,2.517a.411.411,0,0,0,.345.42l2.486.4-1.048,2.282a.409.409,0,0,0,.158.52l2.142,1.319Z" fill="url(#linear-gradient-2)"/>
      <g id="g34">
        <path id="path30" d="M37.957,41.37a.5.5,0,0,1-.377.236h-.049a.5.5,0,0,1-.366-.16l-1.659-1.788-1.973,1.429a.509.509,0,0,1-.438.073.5.5,0,0,1-.324-.3l-.823-2.218V46.5l4.2-3.151a.5.5,0,0,1,.6,0l4.2,3.151V40.081L39.234,39.3Z" fill="url(#linear-gradient-3)"/>
        <path id="path32" d="M30.948,38.806V47.5a.5.5,0,0,0,.8.4l4.7-3.525,4.7,3.525a.5.5,0,0,0,.8-.4V40.247c-.02.015.023-.013,0,0a.357.357,0,0,0,.2-.313l.388-2.406,2.437.092a.553.553,0,0,0,.406-.183.5.5,0,0,0,.1-.433l-.566-2.37,2.285-.848a.5.5,0,0,0,.3-.643.507.507,0,0,0-.064-.119L46,31.05l1.788-1.659a.5.5,0,0,0,.027-.707.53.53,0,0,0-.1-.085l-2.075-1.277,1.012-2.213a.5.5,0,0,0-.375-.7l-2.407-.388.092-2.437a.5.5,0,0,0-.48-.519.48.48,0,0,0-.136.013l-2.372.567-.845-2.287a.5.5,0,0,0-.643-.3.507.507,0,0,0-.119.064l-1.975,1.431-1.658-1.79a.5.5,0,0,0-.707-.026.53.53,0,0,0-.085.1L33.661,20.92l-2.213-1.014a.5.5,0,0,0-.7.375l-.389,2.408L27.923,22.6a.464.464,0,0,0-.406.183.5.5,0,0,0-.1.433l.565,2.372-2.285.847a.5.5,0,0,0-.231.763L26.9,29.168l-1.787,1.657a.5.5,0,0,0-.026.707.53.53,0,0,0,.1.085l2.074,1.277-1.012,2.213a.5.5,0,0,0,.375.7l2.407.387-.091,2.437a.5.5,0,0,0,.486.513.475.475,0,0,0,.13-.013M40.948,46.5l-4.2-3.151a.5.5,0,0,0-.6,0l-4.2,3.151V38.642l.823,2.217a.5.5,0,0,0,.324.3.509.509,0,0,0,.438-.073l1.973-1.428,1.659,1.786a.5.5,0,0,0,.366.16h.049a.5.5,0,0,0,.377-.236l1.277-2.074,1.714.787Zm4.314-16.13a.91.91,0,0,0-.12,1.2l1.091,1.507-1.74.645a.91.91,0,0,0-.571,1.065l.431,1.809-1.846-.07a.89.89,0,0,0-.944.765l-.3,1.836-1.684-.769a.909.909,0,0,0-1.154.35l-.977,1.578-1.26-1.359a.9.9,0,0,0-1.2-.123l-1.506,1.09-.647-1.736a.9.9,0,0,0-1.068-.573l-1.806.43.069-1.86a.919.919,0,0,0-.766-.932l-1.837-.294.775-1.687a.911.911,0,0,0-.351-1.156l-1.581-.974,1.363-1.263a.909.909,0,0,0,.12-1.2l-1.091-1.506L28.4,26.5a.91.91,0,0,0,.57-1.065l-.431-1.809,1.859.071a.9.9,0,0,0,.932-.765l.3-1.837,1.688.774a.909.909,0,0,0,1.153-.351l.975-1.582L36.715,21.3a.912.912,0,0,0,1.2.118l1.506-1.089.645,1.739a.911.911,0,0,0,1.067.573l1.807-.433-.07,1.861a.911.911,0,0,0,.766.93l1.837.3L44.7,26.983a.909.909,0,0,0,.35,1.156l1.582.974Z" fill="#474647"/>
      </g>
      <g id="g40">
        <path id="path36" d="M38.934,36.115a6.5,6.5,0,1,1,3.513-8.494h0A6.5,6.5,0,0,1,38.934,36.115Z" fill="url(#linear-gradient-4)"/>
        <path id="path38" d="M36.456,37.107a7,7,0,1,1,2.669-.533A7,7,0,0,1,36.456,37.107Zm-.018-13a6,6,0,1,0,2.31,11.551h0a6,6,0,0,0-2.31-11.551Z" fill="#6f6f6f"/>
      </g>
      <path id="polygon42" d="M40.448,27.108l-4,7.5-4-3.5,1-.5,2.5,1.5,3.5-5.5Z" fill="#6f6f6f"/>
    </g>
  </g>
</svg>
