<svg id="Image" xmlns="http://www.w3.org/2000/svg" xmlns:xlink="http://www.w3.org/1999/xlink" viewBox="0 0 48 48">
  <defs>
    <linearGradient id="linear-gradient" x1="4.437" y1="48" x2="48.437" y2="4" gradientTransform="matrix(1, 0, 0, -1, 0, 50)" gradientUnits="userSpaceOnUse">
      <stop offset="0" stop-color="#fff"/>
      <stop offset="1" stop-color="#dcdcdc"/>
    </linearGradient>
    <linearGradient id="linear-gradient-2" x1="103.335" y1="878.192" x2="129.851" y2="904.708" gradientTransform="translate(-62.574 -640.012) scale(0.745)" gradientUnits="userSpaceOnUse">
      <stop offset="0" stop-color="#a0d1db"/>
      <stop offset="1" stop-color="#6ab1c3"/>
    </linearGradient>
    <linearGradient id="linear-gradient-3" x1="106.65" y1="881.507" x2="126.536" y2="901.393" gradientTransform="translate(-62.574 -640.012) scale(0.745)" gradientUnits="userSpaceOnUse">
      <stop offset="0" stop-color="#fff"/>
      <stop offset="1" stop-color="#b1b4b4"/>
    </linearGradient>
    <linearGradient id="linear-gradient-4" x1="119.522" y1="-524.379" x2="143.041" y2="-547.898" gradientTransform="matrix(0.745, 0, 0, -0.745, -62.574, -364.48)" gradientUnits="userSpaceOnUse">
      <stop offset="0" stop-color="#6ab1c3"/>
      <stop offset="0.175" stop-color="#64acbe"/>
      <stop offset="0.457" stop-color="#509cb0"/>
      <stop offset="0.809" stop-color="#31849d"/>
      <stop offset="1" stop-color="#1f7690"/>
    </linearGradient>
  </defs>
  <g id="g893">
    <path id="rect16" d="M5.437,1h42V47h-42Z" fill="url(#linear-gradient)"/>
    <path id="path18" d="M5.438,1V11.062H1.5a.5.5,0,0,0,0,1H5.438v24H1.5a.5.5,0,0,0,0,1H5.438V47h42V1Zm41,45h-40V37.062h4.874a.5.5,0,0,0,0-1H6.438v-24h4.874a.5.5,0,0,0,0-1H6.438V2h40Z" fill="#464646"/>
    <g id="g31">
      <path id="circle27" d="M38.213,23.834A13.963,13.963,0,1,1,24.25,9.871,13.963,13.963,0,0,1,38.213,23.834Z" fill="url(#linear-gradient-2)"/>
      <path id="path29" d="M24.25,38.169A14.335,14.335,0,1,1,38.585,23.834,14.335,14.335,0,0,1,24.25,38.169Zm0-27.925a13.591,13.591,0,1,0,13.59,13.59A13.589,13.589,0,0,0,24.25,10.244Z" fill="#3f4143"/>
    </g>
    <g id="g37">
      <path id="circle33" d="M34.722,23.834A10.472,10.472,0,1,1,24.25,13.362h0A10.473,10.473,0,0,1,34.722,23.834Z" fill="url(#linear-gradient-3)"/>
      <path id="path35" d="M24.25,34.679A10.845,10.845,0,1,1,35.1,23.834h0A10.857,10.857,0,0,1,24.25,34.679Zm0-20.944a10.1,10.1,0,1,0,10.1,10.1h0A10.11,10.11,0,0,0,24.25,13.735Z" fill="#3f4143"/>
    </g>
    <path id="circle42" d="M44.088,33.329A10.343,10.343,0,0,1,33.745,43.672h0A10.343,10.343,0,0,1,23.4,33.329h0A10.343,10.343,0,0,1,33.745,22.986h0A10.343,10.343,0,0,1,44.088,33.329Z" fill="url(#linear-gradient-4)"/>
    <path id="path44" d="M33.745,44.5a11.17,11.17,0,1,1,11.17-11.17A11.171,11.171,0,0,1,33.745,44.5Zm0-21.513A10.343,10.343,0,1,0,44.088,33.329,10.341,10.341,0,0,0,33.745,22.986Z" fill="#3f4143"/>
    <path id="path1425" d="M34.855,41.178c2.47-.4,3.482-1.44,5.86-6.023a3.89,3.89,0,0,0,.577-1.423,1.367,1.367,0,0,0-1.808-1.321c-.384.114-.436.161-1.326,1.207l-.193.227,0-3.256c0-1.791-.035-3.39-.073-3.553a1.407,1.407,0,0,0-.562-.835,1.057,1.057,0,0,0-.715-.156,2.916,2.916,0,0,0-.676.062c-.132.048-.171.034-.171-.06a1.5,1.5,0,0,0-.588-.9,1.381,1.381,0,0,0-1.99.478c-.111.171-.134.175-.409.085a1.813,1.813,0,0,0-1.32.143,1.558,1.558,0,0,0-.525,1.2l-.033.477-.35-.055a1.368,1.368,0,0,0-1.69.767c-.129.3-.186,7.589-.067,8.683a4.476,4.476,0,0,0,3.529,4.191,11.811,11.811,0,0,0,2.535.063Zm-2.315-.667a3.654,3.654,0,0,1-3-2.882c-.173-.6-.175-.644-.175-4.768,0-4.4.012-4.557.346-4.736A1.37,1.37,0,0,1,30.5,28.1a.721.721,0,0,1,.251.284c.11.2.133.527.155,2.168a12.821,12.821,0,0,0,.105,2.026c.106.128.252.119.395-.024.1-.1.119-.471.119-2.881,0-2.935.026-3.173.368-3.356a.859.859,0,0,1,.9.1L33,26.6l.038,2.781c.035,2.543.049,2.789.17,2.866a.218.218,0,0,0,.265,0c.122-.077.136-.336.171-3.143a19.619,19.619,0,0,1,.134-3.227.743.743,0,0,1,1.159-.1l.221.222v3a27.684,27.684,0,0,0,.079,3.149.265.265,0,0,0,.487-.024c.022-.094.048-1.261.059-2.594.02-2.6.029-2.658.416-2.835a.878.878,0,0,1,1.052.276c.036.075.076,1.906.088,4.07a38.4,38.4,0,0,0,.1,4.032c.183.221.359.083,1.014-.791.879-1.172,1.026-1.306,1.426-1.306a.666.666,0,0,1,.735.524c.108.359.047.5-1.062,2.5-1.478,2.668-2.253,3.642-3.288,4.134a6.9,6.9,0,0,1-3.728.373Z" fill="#1f7690" stroke="#1f7690" stroke-miterlimit="10" stroke-width="0.076"/>
    <path id="path1427" d="M34.752,40.424c1.859-.264,2.682-.977,4.258-3.691a12.792,12.792,0,0,0,1.525-3.079.661.661,0,0,0-.987-.576,8.018,8.018,0,0,0-.86,1.009c-.823,1.07-.885,1.131-1.119,1.1-.355-.051-.364-.15-.365-4.276,0-3.7-.007-3.881-.146-4.051-.115-.142-.218-.179-.5-.179s-.384.037-.5.179c-.136.167-.144.329-.144,2.652,0,2.117-.017,2.5-.118,2.642a.4.4,0,0,1-.637.022,28.13,28.13,0,0,1-.078-3.148v-3l-.222-.221a.6.6,0,0,0-.887-.042l-.208.179-.032,3.1a30.584,30.584,0,0,1-.108,3.191.489.489,0,0,1-.575,0,20.752,20.752,0,0,1-.1-2.847l-.023-2.748-.212-.183c-.427-.367-.928-.162-1.041.426-.036.186-.067,1.5-.069,2.915,0,2.8-.02,2.913-.42,2.913-.383,0-.416-.173-.416-2.216,0-2.246-.043-2.4-.655-2.4a.521.521,0,0,0-.549.388c-.057.164-.083,1.543-.083,4.344,0,3.808.01,4.145.146,4.676a3.614,3.614,0,0,0,2.58,2.817,8.785,8.785,0,0,0,2.547.12Z" fill="#fff" stroke="#1f7690" stroke-miterlimit="10" stroke-width="0.225"/>
    <path id="path1456" d="M37.5,34.562a8.027,8.027,0,0,0-1.485.841A9.9,9.9,0,0,0,34.74,37.07l.59.453a9.29,9.29,0,0,1,1.185-1.546,7.359,7.359,0,0,1,1.353-.766Z" fill="#1f7690"/>
  </g>
</svg>
