<svg id="Image" xmlns="http://www.w3.org/2000/svg" xmlns:xlink="http://www.w3.org/1999/xlink" viewBox="0 0 48 48">
  <defs>
    <linearGradient id="linear-gradient" x1="7.529" y1="45.171" x2="34.817" y2="17.883" gradientTransform="matrix(1, 0, 0, -1, 0, 50)" gradientUnits="userSpaceOnUse">
      <stop offset="0" stop-color="#fff"/>
      <stop offset="1" stop-color="#bebdbd"/>
    </linearGradient>
    <linearGradient id="linear-gradient-2" x1="14.844" y1="19.422" x2="35.159" y2="-0.895" gradientTransform="matrix(1, 0, 0, -1, 0, 50)" gradientUnits="userSpaceOnUse">
      <stop offset="0" stop-color="#73b4c8"/>
      <stop offset="1" stop-color="#177492"/>
    </linearGradient>
    <linearGradient id="linear-gradient-3" x1="6.101" y1="43.753" x2="14.663" y2="35.191" xlink:href="#linear-gradient-2"/>
    <linearGradient id="linear-gradient-4" x1="29.364" y1="43.068" x2="36.558" y2="35.874" xlink:href="#linear-gradient-2"/>
    <linearGradient id="linear-gradient-5" x1="36.778" y1="40.744" x2="42.327" y2="35.194" xlink:href="#linear-gradient"/>
    <linearGradient id="linear-gradient-6" x1="37.044" y1="43.547" x2="42.061" y2="38.531" xlink:href="#linear-gradient"/>
    <linearGradient id="linear-gradient-7" x1="26.141" y1="21.769" x2="43.853" y2="4.058" gradientTransform="matrix(1, 0, 0, -1, 0, 50.637)" gradientUnits="userSpaceOnUse">
      <stop offset="0" stop-color="#afd7e1"/>
      <stop offset="1" stop-color="#73b4c8"/>
    </linearGradient>
    <linearGradient id="linear-gradient-8" x1="33.586" y1="14.414" x2="36.414" y2="11.586" gradientTransform="matrix(1, 0, 0, -1, 0, 50.637)" gradientUnits="userSpaceOnUse">
      <stop offset="0" stop-color="#73b4c8"/>
      <stop offset="0.175" stop-color="#6aaec3"/>
      <stop offset="0.457" stop-color="#529eb5"/>
      <stop offset="0.809" stop-color="#2c839f"/>
      <stop offset="1" stop-color="#147391"/>
    </linearGradient>
  </defs>
  <g id="g961">
    <path id="path29" d="M19.281,36.788,7.082,15.605l-.1-.064a5.892,5.892,0,0,1-.526-.406l-.092-.082c-.168-.154-.283-.266-.394-.385l-.145-.157c-.107-.123-.208-.25-.306-.382l-.111-.148A5.58,5.58,0,0,1,4.769,12.8l-.046-.127c-.078-.216-.128-.367-.171-.523L4.5,11.925c-.038-.158-.066-.317-.092-.478l-.032-.21a5.978,5.978,0,0,1-.045-.707,6.063,6.063,0,0,1,6.055-6.055,6.416,6.416,0,0,1,.746.05l.147.023a5.85,5.85,0,0,1,.6.122l.183.046a6.057,6.057,0,0,1,1.341.572l.106.064a6.1,6.1,0,0,1,1.667,1.49,6.252,6.252,0,0,1,.444.661l.146.249H30.659v5.555H16.613L30.145,36.788Z" fill="url(#linear-gradient)"/>
    <path id="path31" d="M7.475,43.525V38.7A1.821,1.821,0,0,1,9.3,36.88H40.707a1.821,1.821,0,0,1,1.82,1.82v4.827Z" fill="url(#linear-gradient-2)"/>
    <path id="path33" d="M10.384,16.584a6.055,6.055,0,1,1,6.054-6.056v0A6.061,6.061,0,0,1,10.384,16.584Zm0-9.286a3.232,3.232,0,1,0,3.231,3.233h0A3.236,3.236,0,0,0,10.384,7.3Z" fill="url(#linear-gradient-3)"/>
    <path id="rect35" d="M30.729,5.567h4.463v9.925H30.729Z" fill="url(#linear-gradient-4)"/>
    <path id="polygon37" d="M40.2,13.562l2.47-1.353,2.043-.033-1.173,1.416L40.2,15.422l-5-2.727V10.834Z" fill="url(#linear-gradient-5)"/>
    <path id="polygon39" d="M43.541,7.4l1.173,1.416-2.043-.033L40.2,7.43l-5,2.728V8.3l5-2.727Z" fill="url(#linear-gradient-6)"/>
    <g id="g45">
      <path id="path41" d="M14.115,10.53a3.731,3.731,0,1,0-3.731,3.731A3.73,3.73,0,0,0,14.115,10.53Zm-6.462,0a2.731,2.731,0,1,1,2.731,2.731A2.731,2.731,0,0,1,7.653,10.53Z" fill="#464646"/>
      <path id="path43" d="M40.2,12.992l-4.508-2.459v-.074L40.2,8l2.339,1.281,3.253.052L43.866,7.008,40.2,5,35.692,7.459V5.067H30.23V7.252H16.055A6.6,6.6,0,0,0,14.4,5.357l-.044-.032h0a6.654,6.654,0,0,0-.586-.4h0l-.115-.07h0a6.47,6.47,0,0,0-1.45-.619h0c-.065-.019-.132-.034-.2-.051h0a6.541,6.541,0,0,0-1.618-.21h0a6.555,6.555,0,0,0-6.558,6.552v0h0a6.59,6.59,0,0,0,.181,1.5h0c.013.054.028.107.042.16q.08.3.188.6c.023.065.045.13.071.194h0a6.542,6.542,0,0,0,.3.654h0a6.6,6.6,0,0,0,.838,1.2h0l.055.06a6.519,6.519,0,0,0,1.2,1.055L18.468,36.378H9.3A2.32,2.32,0,0,0,6.98,38.7v5.327H43.027V38.7a2.32,2.32,0,0,0-2.32-2.32H30.485L17.478,13.807H30.23v2.185h5.462V13.533L40.2,15.992l3.666-2.008,1.926-2.325-3.253.052Zm-4.5-4.4L40.2,6.14l3.019,1.653.418.506L42.8,8.285,40.68,7.123,40.2,6.86l-.48.262L35.7,9.315Zm6.327,30.1v4.327H7.975V38.7A1.321,1.321,0,0,1,9.3,37.38H40.707a1.321,1.321,0,0,1,1.32,1.32ZM6.8,14.769c-.059-.05-.115-.1-.172-.156-.094-.087-.185-.176-.273-.268-.057-.06-.113-.121-.167-.184-.084-.1-.163-.2-.24-.3-.046-.062-.1-.123-.139-.187-.076-.109-.134-.209-.194-.31s-.124-.213-.181-.323c-.065-.129-.129-.26-.193-.417-.027-.065-.049-.132-.073-.2-.049-.134-.094-.27-.132-.408-.02-.07-.038-.14-.054-.211-.034-.143-.061-.288-.083-.435l-.014-.089c-.006-.036-.013-.071-.017-.108a5.751,5.751,0,0,1-.041-.643h0a5.56,5.56,0,0,1,5.555-5.555c.142,0,.282.011.421.021.085.007.168.014.262.026a.879.879,0,0,1,.135.02l.057.009c.17.027.337.06.5.1l.033.008c.046.012.093.023.138.036a5.542,5.542,0,0,1,1.21.515c.045.025.088.053.131.08.157.1.309.2.454.308.031.024.064.047.1.072a5.594,5.594,0,0,1,.97.987l.027.035a5.478,5.478,0,0,1,.358.535c.014.025.03.048.044.073l.061.105A5.547,5.547,0,0,1,7.15,15.031,4.236,4.236,0,0,1,6.8,14.769ZM29.279,36.288H19.57L8.315,16.746a6.535,6.535,0,0,0,7.873-3.175l.424.735Zm.881-23.481H16.524a6.461,6.461,0,0,0,0-4.555H30.16Zm4.532,2.185H31.23V6.067h3.462Zm8.944-2.3-.418.506L40.2,14.853,35.7,12.4v-.722l4.021,2.193.48.262.479-.263,2.12-1.163Z" fill="#464646"/>
    </g>
    <path id="path45" d="M27.137,47.5,30.5,44.137l9-.013L42.864,47.5A12.976,12.976,0,0,0,47.5,37.644a12.5,12.5,0,0,0-25,.085v0A12.785,12.785,0,0,0,27.137,47.5Z" stroke="#464646" stroke-linejoin="round" fill="url(#linear-gradient-7)"/>
    <path id="line47" d="M33.684,36.384,29.5,32.137" fill="none" stroke="#147391"/>
    <path id="circle49" d="M37,37.637a2,2,0,1,1-2-2A2,2,0,0,1,37,37.637Z" stroke="#147391" stroke-miterlimit="10" fill="url(#linear-gradient-8)"/>
  </g>
</svg>
