<svg id="svg55" xmlns="http://www.w3.org/2000/svg" xmlns:xlink="http://www.w3.org/1999/xlink" viewBox="0 0 48 48">
  <defs>
    <linearGradient id="linear-gradient" x1="6.992" y1="750.992" x2="33.508" y2="777.508" gradientTransform="translate(0 -744)" gradientUnits="userSpaceOnUse">
      <stop offset="0" stop-color="#a0d1db"/>
      <stop offset="1" stop-color="#6ab1c3"/>
    </linearGradient>
    <linearGradient id="linear-gradient-2" x1="10.307" y1="754.307" x2="30.193" y2="774.193" gradientTransform="translate(0 -744)" gradientUnits="userSpaceOnUse">
      <stop offset="0" stop-color="#fff"/>
      <stop offset="1" stop-color="#b1b4b4"/>
    </linearGradient>
    <linearGradient id="linear-gradient-3" x1="23.228" y1="-397.13" x2="44.396" y2="-418.51" gradientTransform="matrix(1, 0, 0, -1, 0, -374)" gradientUnits="userSpaceOnUse">
      <stop offset="0" stop-color="#6ab1c3"/>
      <stop offset="0.175" stop-color="#64acbe"/>
      <stop offset="0.457" stop-color="#509cb0"/>
      <stop offset="0.809" stop-color="#31849d"/>
      <stop offset="1" stop-color="#1f7690"/>
    </linearGradient>
  </defs>
  <g id="g852">
    <g id="Image">
      <g id="g39">
        <g id="g31">
          <path id="circle27" d="M39,20.25A18.75,18.75,0,1,1,20.25,1.5,18.75,18.75,0,0,1,39,20.25Z" fill="url(#linear-gradient)"/>
          <path id="path29" d="M20.25,39.5A19.25,19.25,0,1,1,39.5,20.25,19.251,19.251,0,0,1,20.25,39.5Zm0-37.5A18.25,18.25,0,1,0,38.5,20.25,18.25,18.25,0,0,0,20.25,2Z" fill="#3f4143"/>
        </g>
        <g id="g37">
          <path id="circle33" d="M34.312,20.25A14.062,14.062,0,1,1,20.25,6.188h0A14.062,14.062,0,0,1,34.312,20.25Z" fill="url(#linear-gradient-2)"/>
          <path id="path35" d="M20.25,34.813A14.563,14.563,0,1,1,34.813,20.25h0A14.58,14.58,0,0,1,20.25,34.813Zm0-28.125A13.563,13.563,0,1,0,33.813,20.251h0A13.578,13.578,0,0,0,20.25,6.688Z" fill="#3f4143"/>
        </g>
      </g>
    </g>
    <g id="g46">
      <path id="circle42" d="M46.889,33A13.889,13.889,0,0,1,33,46.889h0A13.889,13.889,0,0,1,19.111,33h0A13.889,13.889,0,0,1,33,19.111h0A13.889,13.889,0,0,1,46.889,33Z" fill="url(#linear-gradient-3)"/>
      <path id="path44" d="M33,48A15,15,0,1,1,48,33,15,15,0,0,1,33,48Zm0-28.889A13.889,13.889,0,1,0,46.89,33,13.889,13.889,0,0,0,33,19.111Z" fill="#3f4143"/>
    </g>
    <path id="path1425" d="M34.492,43.54c3.315-.536,4.675-1.934,7.867-8.088a5.228,5.228,0,0,0,.777-1.91,1.837,1.837,0,0,0-2.429-1.775c-.516.153-.586.217-1.78,1.622l-.26.3-.005-4.373c0-2.405-.047-4.553-.1-4.772a1.888,1.888,0,0,0-.755-1.12,1.415,1.415,0,0,0-.96-.21,3.962,3.962,0,0,0-.908.083c-.177.065-.229.046-.229-.08a2.011,2.011,0,0,0-.79-1.214,1.856,1.856,0,0,0-2.673.641c-.149.23-.18.236-.548.114a2.43,2.43,0,0,0-1.772.193,2.089,2.089,0,0,0-.707,1.615l-.043.64-.471-.073a1.836,1.836,0,0,0-2.269,1.03c-.173.4-.249,10.191-.091,11.659a6.013,6.013,0,0,0,4.74,5.628,15.822,15.822,0,0,0,3.4.085Zm-3.11-.895a4.911,4.911,0,0,1-4.029-3.87c-.232-.8-.234-.865-.234-6.4,0-5.9.015-6.12.465-6.36a1.841,1.841,0,0,1,1.056-.035.966.966,0,0,1,.337.382c.147.27.179.707.209,2.911a17.01,17.01,0,0,0,.141,2.72c.142.172.338.16.53-.032.14-.14.16-.633.16-3.868,0-3.942.035-4.261.493-4.507a1.153,1.153,0,0,1,1.2.136l.285.245.051,3.735c.046,3.414.066,3.745.229,3.848a.291.291,0,0,0,.356,0c.163-.1.182-.451.228-4.22a26.274,26.274,0,0,1,.181-4.334,1,1,0,0,1,1.556-.138l.3.3v4.031A37.309,37.309,0,0,0,35,31.412a.356.356,0,0,0,.655-.032c.028-.126.063-1.693.078-3.483.028-3.49.039-3.569.559-3.806a1.178,1.178,0,0,1,1.412.37c.049.1.1,2.559.118,5.465a51.86,51.86,0,0,0,.14,5.415c.246.3.482.112,1.362-1.063,1.18-1.573,1.377-1.754,1.914-1.754a.9.9,0,0,1,.988.7c.144.482.063.675-1.427,3.364-1.984,3.583-3.024,4.891-4.415,5.551A9.271,9.271,0,0,1,31.382,42.645Z" fill="#1f7690" stroke="#1f7690" stroke-miterlimit="10" stroke-width="0.102"/>
    <path id="path1427" d="M34.353,42.528c2.5-.354,3.6-1.312,5.718-4.957a17.2,17.2,0,0,0,2.048-4.135.888.888,0,0,0-1.325-.773,10.765,10.765,0,0,0-1.156,1.355c-1.106,1.437-1.189,1.519-1.5,1.474-.476-.069-.488-.2-.489-5.743,0-4.967-.011-5.211-.2-5.44-.154-.191-.293-.24-.67-.24s-.516.049-.67.24c-.183.225-.2.442-.2,3.562,0,2.842-.023,3.355-.158,3.548a.536.536,0,0,1-.855.029A37.476,37.476,0,0,1,34.8,27.22V23.189l-.3-.3a.8.8,0,0,0-1.191-.056l-.28.24-.042,4.158a40.638,40.638,0,0,1-.146,4.285.657.657,0,0,1-.772,0,28,28,0,0,1-.139-3.822L31.9,24l-.285-.245c-.573-.493-1.246-.218-1.4.572-.048.249-.089,2.011-.092,3.914-.005,3.758-.027,3.912-.564,3.912-.515,0-.559-.233-.559-2.976,0-3.016-.057-3.227-.879-3.227a.7.7,0,0,0-.737.522c-.077.22-.113,2.072-.113,5.833,0,5.113.014,5.566.2,6.279a4.853,4.853,0,0,0,3.464,3.782,11.777,11.777,0,0,0,3.421.162Z" fill="#fff" stroke="#1f7690" stroke-miterlimit="10" stroke-width="0.302"/>
    <path id="path1456" d="M38.045,34.656a10.844,10.844,0,0,0-1.994,1.129,13.326,13.326,0,0,0-1.715,2.238l.793.61a12.357,12.357,0,0,1,1.592-2.076,9.89,9.89,0,0,1,1.816-1.03Z" fill="#1f7690"/>
  </g>
</svg>
