<svg id="Image" xmlns="http://www.w3.org/2000/svg" xmlns:xlink="http://www.w3.org/1999/xlink" viewBox="0 0 48 48">
  <defs>
    <linearGradient id="linear-gradient" x1="4.437" y1="48" x2="48.437" y2="4" gradientTransform="matrix(1, 0, 0, -1, 0, 50)" gradientUnits="userSpaceOnUse">
      <stop offset="0" stop-color="#fff"/>
      <stop offset="1" stop-color="#dcdcdc"/>
    </linearGradient>
    <linearGradient id="linear-gradient-2" x1="170.699" y1="973.797" x2="208.293" y2="1015.645" gradientTransform="translate(-91.394 -596.128) scale(0.625)" xlink:href="#linear-gradient"/>
    <linearGradient id="linear-gradient-3" x1="202.58" y1="1000.644" x2="216.687" y2="1014.83" gradientTransform="translate(-91.394 -596.128) scale(0.625)" gradientUnits="userSpaceOnUse">
      <stop offset="0" stop-color="#74b3c7"/>
      <stop offset="0.177" stop-color="#6badc2"/>
      <stop offset="0.464" stop-color="#539db4"/>
      <stop offset="0.822" stop-color="#2d839d"/>
      <stop offset="1" stop-color="#177490"/>
    </linearGradient>
    <linearGradient id="linear-gradient-4" x1="181.567" y1="983.606" x2="206.607" y2="1008.893" gradientTransform="translate(-88.895 -596.128) scale(0.625)" xlink:href="#linear-gradient"/>
  </defs>
  <g id="g960">
    <path id="rect16" d="M5.437,1h42V47h-42Z" fill="url(#linear-gradient)"/>
    <path id="path18" d="M5.438,1V11.062H1.5a.5.5,0,0,0,0,1H5.438v24H1.5a.5.5,0,0,0,0,1H5.438V47h42V1Zm41,45h-40V37.062h4.874a.5.5,0,0,0,0-1H6.438v-24h4.874a.5.5,0,0,0,0-1H6.438V2h40Z" fill="#464646"/>
    <path id="rect9" d="M14.312,11.408H37.435V37.03H14.312Z" stroke="#464646" stroke-width="0.625" fill="url(#linear-gradient-2)"/>
    <path id="line15" d="M16.5,17.649h10" fill="none" stroke="#147391" stroke-miterlimit="10" stroke-width="0.625"/>
    <path id="line17" d="M16.5,19.532h6.874" fill="none" stroke="#147391" stroke-miterlimit="10" stroke-width="0.625"/>
    <path id="line27" d="M16.5,24.548h6.249" fill="none" stroke="#147391" stroke-miterlimit="10" stroke-width="0.625"/>
    <path id="line29" d="M16.5,26.425h6.249" fill="none" stroke="#147391" stroke-miterlimit="10" stroke-width="0.625"/>
    <path id="line39" d="M16.5,30.806H24" fill="none" stroke="#147391" stroke-miterlimit="10" stroke-width="0.625"/>
    <path id="line41" d="M16.5,32.674h6.249" fill="none" stroke="#147391" stroke-miterlimit="10" stroke-width="0.625"/>
    <path id="path939" d="M17.114,12.97a.625.625,0,1,1-.625-.624.625.625,0,0,1,.625.624Z" fill="#147391"/>
    <path id="rect941" d="M16.47,7.971h.038a.293.293,0,0,1,.294.291v4.415a.293.293,0,0,1-.292.293h-.04a.291.291,0,0,1-.293-.292h0V8.265a.292.292,0,0,1,.292-.294Z" fill="#464646"/>
    <path id="path939-3" d="M32.123,12.97a.625.625,0,1,1-.625-.624.625.625,0,0,1,.625.624Z" fill="#147391"/>
    <path id="rect941-6" d="M31.481,7.971h.038a.293.293,0,0,1,.292.294h0v4.412a.293.293,0,0,1-.292.293h-.04a.291.291,0,0,1-.293-.292h0V8.265a.292.292,0,0,1,.292-.294Z" fill="#464646"/>
    <path id="path939-2" d="M28.5,13a.625.625,0,1,1-.625-.625h0A.625.625,0,0,1,28.5,13Z" fill="#147391"/>
    <path id="rect941-60" d="M27.857,8H27.9a.293.293,0,0,1,.293.293h0v4.413A.292.292,0,0,1,27.9,13h-.04a.293.293,0,0,1-.293-.293h0V8.294A.293.293,0,0,1,27.856,8Z" fill="#464646"/>
    <path id="path939-1" d="M24.619,12.97A.625.625,0,1,1,24,12.346a.624.624,0,0,1,.624.624Z" fill="#147391"/>
    <path id="rect941-82" d="M23.976,7.971h.038a.293.293,0,0,1,.293.292v4.414a.292.292,0,0,1-.291.293h-.04a.292.292,0,0,1-.294-.292h0V8.265a.294.294,0,0,1,.293-.294Z" fill="#464646"/>
    <path id="path939-84" d="M20.867,12.97a.625.625,0,1,1-.625-.624.625.625,0,0,1,.625.624Z" fill="#147391"/>
    <path id="rect941-9" d="M20.223,7.971h.038a.292.292,0,0,1,.293.292v4.414a.291.291,0,0,1-.291.293h-.04a.293.293,0,0,1-.294-.292h0V8.265a.294.294,0,0,1,.293-.294Z" fill="#464646"/>
    <path id="path939-4" d="M35.878,12.97a.625.625,0,1,1-.625-.624.625.625,0,0,1,.625.624Z" fill="#147391"/>
    <path id="rect941-89" d="M35.234,7.971h.038a.292.292,0,0,1,.293.292v4.414a.292.292,0,0,1-.291.293h-.04a.293.293,0,0,1-.294-.292h0V8.265a.294.294,0,0,1,.293-.294Z" fill="#464646"/>
    <path id="path1079" d="M35.453,31.353,41.4,37.3a1.267,1.267,0,0,0,1.792.008L43.2,37.3l.1-.1a1.207,1.207,0,0,0,.042-1.708q-.02-.021-.042-.042l-6-6Z" fill="#4593ab" fill-rule="evenodd"/>
    <path id="path1081" d="M35.453,31.353,41.4,37.3a1.267,1.267,0,0,0,1.792.008L43.2,37.3l.1-.1a1.207,1.207,0,0,0,.042-1.708q-.02-.021-.042-.042l-6-6" stroke="#464646" stroke-miterlimit="10" stroke-width="0.65" fill="url(#linear-gradient-3)"/>
    <path id="path1083" d="M31.154,17.7a7.5,7.5,0,1,1-7.5,7.5h0a7.488,7.488,0,0,1,7.479-7.5Z" stroke="#464646" stroke-linecap="round" stroke-linejoin="round" stroke-width="0.65" fill="url(#linear-gradient-4)"/>
    <path id="path45" d="M29.963,26.454l-1.845-2.187-1.861,1.542,3.688,4.531,6.441-7.949-1.841-1.5" fill="#147391"/>
    <path id="polygon47" d="M30.006,27.8l4.617-5.652.67.509L30,29.147l-2.757-3.38.676-.5Z" fill="#3b90b2"/>
  </g>
</svg>
