<svg version="1.1" id="Layer_1" xmlns="http://www.w3.org/2000/svg" xmlns:xlink="http://www.w3.org/1999/xlink" x="0px" y="0px"
	 viewBox="0 0 48 48" style="enable-background:new 0 0 48 48;"  xml:space="preserve">
<path class="aw-theme-iconOutline-bogus" fill="#dc3c00" d="M5.6,37L5,36.2L42.4,11l0.6,0.8L5.6,37z"/>
<path class="aw-theme-iconOutline-bogus" fill="#dc3c00" d="M5,8H1V7h4V8z M11,7H7v1h4V7z M17,7h-4v1h4V7z M23,7h-4v1h4V7z M29,7h-4v1h4V7z M35,7h-4v1h4V7z M41,7h-4v1h4V7
	z M47,7h-4v1h4V7z M5,40H1v1h4V40z M11,40H7v1h4V40z M17,40h-4v1h4V40z M23,40h-4v1h4V40z M29,40h-4v1h4V40z M35,40h-4v1h4V40z
	 M41,40h-4v1h4V40z M47,40h-4v1h4V40z M2,10H1v4h1V10z M2,16H1v4h1V16z M2,22H1v4h1V22z M2,28H1v4h1V28z M2,34H1v4h1V34z M47,10h-1
	v4h1V10z M47,16h-1v4h1V16z M47,22h-1v4h1V22z M47,28h-1v4h1V28z M47,34h-1v4h1V34z"/>
<path class="aw-theme-iconOutline-bogus" fill="#dc3c00" d="M42.4,37L5,11.8L5.6,11L43,36.2L42.4,37z"/>
</svg>
