<svg id="Layer_1" data-name="Layer 1" xmlns="http://www.w3.org/2000/svg" xmlns:xlink="http://www.w3.org/1999/xlink" viewBox="0 0 48 48">
  <defs>
    <linearGradient id="linear-gradient" x1="25.818" y1="0.493" x2="25.818" y2="47.495" gradientTransform="matrix(1, 0, 0, -1, 0, 48)" gradientUnits="userSpaceOnUse">
      <stop offset="0" stop-color="#afd7e1"/>
      <stop offset="1" stop-color="#73b4c8"/>
    </linearGradient>
    <linearGradient id="linear-gradient-2" x1="28.95" y1="38.495" x2="28.95" y2="47.495" gradientTransform="matrix(1, 0, 0, -1, 0, 48)" gradientUnits="userSpaceOnUse">
      <stop offset="0" stop-color="#147391"/>
      <stop offset="0.191" stop-color="#2c839f"/>
      <stop offset="0.543" stop-color="#529eb5"/>
      <stop offset="0.825" stop-color="#6aaec3"/>
      <stop offset="1" stop-color="#73b4c8"/>
    </linearGradient>
    <linearGradient id="linear-gradient-3" x1="4.314" y1="8.897" x2="10.827" y2="2.385" xlink:href="#linear-gradient-2"/>
    <linearGradient id="linear-gradient-4" x1="56.724" y1="54.946" x2="78.007" y2="76.732" gradientTransform="translate(-9.373 -8.196) scale(0.653 0.646)" gradientUnits="userSpaceOnUse">
      <stop offset="0" stop-color="#a5cfdc"/>
      <stop offset="0.128" stop-color="#9cc9d7"/>
      <stop offset="0.335" stop-color="#84bacb"/>
      <stop offset="0.596" stop-color="#5ea2b7"/>
      <stop offset="0.896" stop-color="#28809b"/>
      <stop offset="1" stop-color="#147391"/>
    </linearGradient>
    <linearGradient id="linear-gradient-5" x1="81.565" y1="-16.835" x2="91.511" y2="-6.889" gradientTransform="matrix(0.653, 0, 0, -0.646, -9.373, 22.364)" gradientUnits="userSpaceOnUse">
      <stop offset="0" stop-color="#f2f2f2"/>
      <stop offset="1" stop-color="#999"/>
    </linearGradient>
    <linearGradient id="linear-gradient-6" x1="60.861" y1="59.604" x2="73.799" y2="72.024" gradientTransform="translate(-9.373 -8.196) scale(0.653 0.646)" gradientUnits="userSpaceOnUse">
      <stop offset="0" stop-color="#fff"/>
      <stop offset="1" stop-color="#dcdcdc"/>
    </linearGradient>
    <linearGradient id="linear-gradient-7" x1="30.558" y1="11.163" x2="36.859" y2="6.045" gradientTransform="matrix(1.03, 0, 0, -1.146, -0.403, 52.494)" xlink:href="#linear-gradient-4"/>
  </defs>
  <g id="g921">
    <path id="path19" d="M12.3,9.505a4.5,4.5,0,0,0,0-9A4.351,4.351,0,0,0,7.951,4.856l3.535,38.3a4.351,4.351,0,0,1-4.351,4.351H40.149A4.351,4.351,0,0,0,44.5,43.156v0L41.05,9.505Z" stroke="#464646" stroke-linejoin="round" fill="url(#linear-gradient)"/>
    <path id="path21" d="M41.1.505H12.3a4.5,4.5,0,0,1,0,9H41.1a4.5,4.5,0,0,0,0-9Z" stroke="#464646" stroke-linejoin="round" stroke-width="1.034" fill="url(#linear-gradient-2)"/>
    <line id="line23" x1="37" y1="36.5" x2="16" y2="36.5" fill="none" stroke="#fff" stroke-linejoin="round"/>
    <line id="line25" x1="36" y1="30.5" x2="15" y2="30.5" fill="none" stroke="#fff" stroke-linejoin="round"/>
    <line id="line27" x1="35" y1="24.5" x2="14" y2="24.5" fill="none" stroke="#fff" stroke-linejoin="round"/>
    <line id="line29" x1="25" y1="18.5" x2="13" y2="18.5" fill="none" stroke="#fff" stroke-linejoin="round"/>
    <path id="path31" d="M11.057,38.5H5.01A5.575,5.575,0,0,0,2.73,43a4.5,4.5,0,0,0,4.5,4.5h0a4.346,4.346,0,0,0,4.258-4.342Z" stroke="#464646" stroke-linejoin="round" stroke-width="1.034" fill="url(#linear-gradient-3)"/>
    <path id="path28" d="M40.612,34.77a.261.261,0,0,0-.035.349l.964,1.319L40,37a.266.266,0,0,0-.168.31l.382,1.583-1.644-.065a.26.26,0,0,0-.274.223l-.261,1.606-1.494-.673a.268.268,0,0,0-.339.1l-.862,1.384-1.119-1.2a.267.267,0,0,0-.352-.035l-1.332.954-.572-1.526a.265.265,0,0,0-.313-.165l-1.6.377.061-1.626a.267.267,0,0,0-.225-.272l-1.624-.258.685-1.474a.264.264,0,0,0-.1-.337l-1.4-.852,1.2-1.106a.262.262,0,0,0,.035-.35l-.964-1.318,1.541-.565a.266.266,0,0,0,.168-.311l-.382-1.583L30.7,29.9a.267.267,0,0,0,.275-.223l.261-1.607,1.492.678a.271.271,0,0,0,.34-.1l.862-1.384,1.119,1.192a.269.269,0,0,0,.352.035l1.332-.954.572,1.525a.266.266,0,0,0,.313.166l1.6-.378-.062,1.627a.265.265,0,0,0,.225.271L41,31l-.685,1.475a.263.263,0,0,0,.1.336l1.4.853Z" fill="url(#linear-gradient-4)"/>
    <path id="path30" d="M35.618,41.643a.325.325,0,0,1-.246.152H35.34a.327.327,0,0,1-.239-.1l-1.084-1.156-1.288.924a.334.334,0,0,1-.286.047.323.323,0,0,1-.212-.194l-.538-1.433v5.079l2.744-2.037a.33.33,0,0,1,.392,0l2.743,2.037V40.81L36.453,40.3Z" fill="url(#linear-gradient-5)"/>
    <g id="g40">
      <path id="path36" d="M36.257,38.246a4.262,4.262,0,0,1-5.549-2.271,4.186,4.186,0,0,1,2.3-5.49,4.261,4.261,0,0,1,5.548,2.271h0A4.185,4.185,0,0,1,36.257,38.246Z" fill="url(#linear-gradient-6)"/>
      <path id="path38" d="M34.638,38.887a4.561,4.561,0,1,1,1.743-.344A4.625,4.625,0,0,1,34.638,38.887Zm-.012-8.4a3.878,3.878,0,1,0,.043,7.756,3.957,3.957,0,0,0,1.466-.29h0a3.864,3.864,0,0,0,2.139-5.06A3.92,3.92,0,0,0,34.626,30.485Z" fill="#6f6f6f"/>
    </g>
    <polygon id="polygon42" points="36.592 32.101 37.245 32.425 34.633 37.272 32.02 35.01 32.673 34.687 34.306 35.656 36.592 32.101" fill="#464646"/>
    <path id="path1062" d="M31.617,42.47c0-1.535.012-2.778.027-2.761s.135.354.268.751a6.931,6.931,0,0,0,.3.811c.149.21.433.094,1.1-.449l.664-.539.625.719c.6.686.754.8.948.659a6.737,6.737,0,0,0,.52-.838c.24-.429.451-.784.468-.788a4.957,4.957,0,0,1,.566.264l.534.272v2.306c0,1.269-.014,2.307-.031,2.307s-.661-.519-1.431-1.154a10.742,10.742,0,0,0-1.541-1.153,6.242,6.242,0,0,0-1.112.806l-1.441,1.192-.47.387Z" fill="url(#linear-gradient-7)"/>
    <path id="path32" d="M31.04,39.986v5.619a.325.325,0,0,0,.327.323.338.338,0,0,0,.2-.064l3.07-2.279,3.07,2.279a.331.331,0,0,0,.342.03.324.324,0,0,0,.18-.289V40.917c-.013.01.015-.008,0,0a.23.23,0,0,0,.131-.2l.253-1.555,1.592.059a.363.363,0,0,0,.265-.118.323.323,0,0,0,.066-.28l-.37-1.532,1.492-.548a.322.322,0,0,0,.193-.416.3.3,0,0,0-.042-.077l-.933-1.276L42.04,33.9a.321.321,0,0,0,.017-.457.357.357,0,0,0-.067-.055l-1.356-.825.661-1.431a.32.32,0,0,0-.162-.427.345.345,0,0,0-.083-.025l-1.572-.251.06-1.575a.325.325,0,0,0-.313-.336.332.332,0,0,0-.089.009l-1.55.367-.551-1.479a.328.328,0,0,0-.42-.19.323.323,0,0,0-.078.041l-1.29.925-1.083-1.157a.33.33,0,0,0-.462-.017.4.4,0,0,0-.056.067l-.834,1.341-1.445-.655a.329.329,0,0,0-.433.16.336.336,0,0,0-.024.082l-.255,1.556-1.591-.06a.3.3,0,0,0-.265.118.32.32,0,0,0-.065.28L29.1,31.44l-1.493.547a.323.323,0,0,0-.193.415.366.366,0,0,0,.042.078l.934,1.276-1.167,1.071a.32.32,0,0,0-.017.457.3.3,0,0,0,.068.055l1.354.825L27.97,37.6a.319.319,0,0,0,.009.287.326.326,0,0,0,.236.167l1.572.25-.059,1.575a.324.324,0,0,0,.317.332.341.341,0,0,0,.085-.008m7.442,4.761-2.743-2.037a.33.33,0,0,0-.392,0l-2.744,2.037V39.88l.538,1.433a.322.322,0,0,0,.212.193.331.331,0,0,0,.286-.047l1.288-.923L35.1,41.691a.327.327,0,0,0,.239.1h.032a.325.325,0,0,0,.246-.152l.835-1.341,1.119.509ZM40.39,34.533a.584.584,0,0,0-.078.776l.712.974-1.136.417a.585.585,0,0,0-.373.688l.281,1.169-1.206-.045a.579.579,0,0,0-.616.494l-.2,1.187-1.1-.5a.6.6,0,0,0-.754.226l-.638,1.02-.823-.878a.592.592,0,0,0-.784-.08l-.984.7-.422-1.122a.59.59,0,0,0-.7-.371l-1.179.278.045-1.2a.6.6,0,0,0-.5-.6l-1.2-.19.507-1.091a.586.586,0,0,0-.23-.747l-1.032-.629.89-.817a.582.582,0,0,0,.078-.775l-.712-.974,1.137-.417a.587.587,0,0,0,.372-.689l-.281-1.169,1.214.046a.587.587,0,0,0,.609-.5l.2-1.187,1.1.5a.6.6,0,0,0,.753-.226l.637-1.023.827.882a.6.6,0,0,0,.784.076l.984-.7L37,29.165a.6.6,0,0,0,.7.37l1.18-.28-.045,1.2a.59.59,0,0,0,.5.6l1.2.194-.506,1.091a.584.584,0,0,0,.229.747l1.033.629Z" fill="#474647"/>
  </g>
</svg>
