<svg id="Layer_1" data-name="Layer 1" xmlns="http://www.w3.org/2000/svg" xmlns:xlink="http://www.w3.org/1999/xlink" viewBox="0 0 48 48">
  <defs>
    <linearGradient id="linear-gradient" x1="92.412" y1="865.529" x2="136.412" y2="909.529" gradientTransform="translate(-59.822 -650.956) scale(0.756)" gradientUnits="userSpaceOnUse">
      <stop offset="0" stop-color="#fff"/>
      <stop offset="0.221" stop-color="#f8f8f8"/>
      <stop offset="0.541" stop-color="#e5e5e5"/>
      <stop offset="0.92" stop-color="#c6c6c6"/>
      <stop offset="1" stop-color="#bebebe"/>
    </linearGradient>
    <linearGradient id="linear-gradient-2" x1="114.884" y1="887.711" x2="93.752" y2="867.153" gradientTransform="translate(-59.822 -650.956) scale(0.756)" gradientUnits="userSpaceOnUse">
      <stop offset="0" stop-color="#73b4c8"/>
      <stop offset="0.175" stop-color="#6aaec3"/>
      <stop offset="0.457" stop-color="#529eb5"/>
      <stop offset="0.809" stop-color="#2c839f"/>
      <stop offset="1" stop-color="#147391"/>
    </linearGradient>
    <linearGradient id="linear-gradient-3" x1="115.132" y1="-94.192" x2="136.881" y2="-116.06" gradientTransform="matrix(0.756, 0, 0, -0.756, -59.822, -51.044)" xlink:href="#linear-gradient-2"/>
    <linearGradient id="linear-gradient-4" x1="0.738" y1="48.663" x2="22.02" y2="27.382" gradientTransform="matrix(1.045, 0, 0, -1.07, 11.619, 77.524)" gradientUnits="userSpaceOnUse">
      <stop offset="0" stop-color="#fff"/>
      <stop offset="0.228" stop-color="#fafafa"/>
      <stop offset="0.488" stop-color="#ededed"/>
      <stop offset="0.762" stop-color="#d7d6d6"/>
      <stop offset="1" stop-color="#bdbcbc"/>
    </linearGradient>
  </defs>
  <g id="g917">
    <path id="rect13" d="M10.378,3.378H43.622V36.622H10.378Z" stroke="#464646" stroke-miterlimit="3.864" stroke-width="0.756" fill="url(#linear-gradient)"/>
    <path id="rect26" d="M10.756,3.756H27V20H10.756Z" fill="url(#linear-gradient-2)"/>
    <path id="rect39" d="M27,20H43.244V36.244H27Z" fill="url(#linear-gradient-3)"/>
    <path id="line50" d="M10.756,20H43.244" fill="none" stroke="#147391" stroke-miterlimit="3.864" stroke-width="0.756"/>
    <path id="line52" d="M27,3.756V36.244" fill="none" stroke="#147391" stroke-miterlimit="3.864" stroke-width="0.756"/>
    <path id="path942" d="M22.844,12.067a4.533,4.533,0,1,1-4.568-4.534l.035,4.534Z" fill="#fff" stroke="#147391" stroke-linecap="square" stroke-width="0.529"/>
    <path id="path959" d="M19.941,5.892l-.024,4.533h4.529A4.525,4.525,0,0,0,19.941,5.892Z" fill="#fff" stroke="#147391" stroke-linecap="square" stroke-width="0.529"/>
    <path id="polyline28" d="M30.06,30.384l3.192-3.147,3.192,2.1L40.7,25.667" fill="none" stroke="#fff" stroke-width="1.08"/>
    <path id="circle30" d="M31.124,30.384a1.064,1.064,0,1,1-1.078-1.05h.014A1.059,1.059,0,0,1,31.124,30.384Z" fill="#147391" stroke="#fff" stroke-width="0.756"/>
    <path id="circle32" d="M34.316,27.237a1.064,1.064,0,1,1-1.078-1.05h.014A1.058,1.058,0,0,1,34.316,27.237Z" fill="#147391" stroke="#fff" stroke-width="0.756"/>
    <path id="circle34" d="M41.765,25.667A1.058,1.058,0,0,1,40.7,26.716h0a1.05,1.05,0,1,1,1.065-1.049Z" fill="#147391" stroke="#fff" stroke-width="0.756"/>
    <path id="circle36" d="M37.508,29.334a1.064,1.064,0,1,1-1.079-1.048h.015A1.058,1.058,0,0,1,37.508,29.334Z" fill="#147391" stroke="#fff" stroke-width="0.756"/>
    <path id="rect38" d="M11.964,31.015h3.287v3.341H11.964Z" fill="#3c91af" stroke="#147391" stroke-width="0.756"/>
    <path id="rect40" d="M16.894,29.01h3.287v5.346H16.894Z" fill="#3c91af" stroke="#147391" stroke-width="0.756"/>
    <path id="rect42" d="M21.824,25.667h3.287v8.689H21.824Z" fill="#3c91af" stroke="#147391" stroke-width="0.756"/>
    <path id="path1013" d="M33.483,14.722c-.07-.049-4.195-3.718-4.169-3.8s6.313-4.893,6.4-4.894,3.5,5.181,3.527,5.261-.046,4.953-.115,5C37.25,15.745,35.346,15.3,33.483,14.722Z" fill="none" stroke="#3c91af" stroke-linecap="square" stroke-width="0.529"/>
    <path id="rect992" d="M35.49,4.5h.4v7.528h-.4Z" fill="#147391"/>
    <path id="rect992-1" d="M28.111,11.1l.045-.411,7.339.81-.045.411Z" fill="#147391"/>
    <path id="rect992-1-4" d="M31.174,18.125l-.377-.283,4.528-6.084.377.281Z" fill="#147391"/>
    <path id="rect992-1-4-4" d="M40.119,17.975,40.5,17.7l-4.472-6.007-.377.279Z" fill="#147391"/>
    <path id="rect992-1-8" d="M42.9,11.16l-.047-.423-7.447.823.047.423Z" fill="#147391"/>
    <path id="path1061" d="M36.444,6.08a.756.756,0,1,1-.755-.755.755.755,0,0,1,.755.755Z" fill="#464646"/>
    <path id="path1061-3" d="M30.13,10.87a.756.756,0,1,1-.756-.756h0A.757.757,0,0,1,30.13,10.87Z" fill="#464646"/>
    <path id="path1061-3-7" d="M34.191,14.636a.756.756,0,1,1-.755-.756A.755.755,0,0,1,34.191,14.636Z" fill="#464646"/>
    <path id="path1061-3-7-3" d="M39.844,16.276a.756.756,0,1,1-.755-.756h0A.756.756,0,0,1,39.844,16.276Z" fill="#464646"/>
    <path id="path1061-3-7-3-4-7" d="M40.005,11.332a.756.756,0,1,1-.756-.756h0A.756.756,0,0,1,40.005,11.332Z" fill="#464646"/>
    <path id="path45" d="M34.632,37.706l3.2-1.489a4.145,4.145,0,0,0,.544-.306l4.672-3.135c2.978-1.718,4.78,2.576,2.14,4.572a32.265,32.265,0,0,1-5.137,3.428c-7.814,3.671-7.757,3.695-12.169,3.695A31.557,31.557,0,0,1,14.65,41.392c-1.794-.812-5.239.5-9.42,1.582A2.489,2.489,0,0,1,2.213,41.2c-.122-.444-.376-1.587-.612-2.681a2.881,2.881,0,0,1,1.8-3.428,62.05,62.05,0,0,0,6.391-1.78c3.57-1.379,6.32-2.277,11.709-.289.161.06,3.673,1.822,4.6,2.3a2.434,2.434,0,0,0,.77.242l5.959.822c3.048.5,1.845,5.148-1.4,4.857l-5.538-.774a5.659,5.659,0,0,1-1.716-.528l-4.395-2.159" stroke="#464646" stroke-linecap="round" stroke-linejoin="round" stroke-width="1.058" fill="url(#linear-gradient-4)"/>
    <path id="rect860" d="M34.246,36.534h1.093V37.5H34.246Z" fill="#464646"/>
  </g>
</svg>
