<svg id="Layer_1" data-name="Layer 1" xmlns="http://www.w3.org/2000/svg" xmlns:xlink="http://www.w3.org/1999/xlink" viewBox="0 0 48 48">
    <linearGradient id="linear-gradient" x1="1.75" y1="41.75" x2="38.75" y2="4.75" gradientTransform="matrix(1, 0, 0, -1, 0, 48)" gradientUnits="userSpaceOnUse">
      <stop offset="0" stop-color="#fff"/>
      <stop offset="0.232" stop-color="#fafafa"/>
      <stop offset="0.496" stop-color="#ededed"/>
      <stop offset="0.775" stop-color="#d6d6d6"/>
      <stop offset="1" stop-color="#bebebe"/>
    </linearGradient>
    <linearGradient id="paper_gradient" data-name="paper gradient" x1="23.25" y1="44.25" x2="36.25" y2="31.25" gradientTransform="matrix(1, 0, 0, -1, 0, 48)" gradientUnits="userSpaceOnUse">
      <stop offset="0" stop-color="#fff"/>
      <stop offset="0.221" stop-color="#f8f8f8"/>
      <stop offset="0.541" stop-color="#e5e5e5"/>
      <stop offset="0.92" stop-color="#c6c6c6"/>
      <stop offset="1" stop-color="#bebebe"/>
    </linearGradient>
    <linearGradient id="linear-gradient-2" x1="18.25" y1="14.25" x2="28.75" y2="24.75" gradientTransform="matrix(1, 0, 0, 1, 0, 0)" xlink:href="#linear-gradient"/>
    <linearGradient id="linear-gradient-3" x1="18.25" y1="19.25" x2="28.75" y2="29.75" gradientTransform="matrix(1, 0, 0, 1, 0, 0)" xlink:href="#linear-gradient"/>
    <linearGradient id="linear-gradient-4" x1="18.25" y1="24.25" x2="28.75" y2="34.75" gradientTransform="matrix(1, 0, 0, 1, 0, 0)" xlink:href="#linear-gradient"/>
    <linearGradient id="linear-gradient-5" x1="18.25" y1="29.25" x2="28.75" y2="39.75" gradientTransform="matrix(1, 0, 0, 1, 0, 0)" xlink:href="#linear-gradient"/>
    <linearGradient id="Dark_Blue_Grad" data-name="Dark Blue Grad" x1="29.527" y1="37.473" x2="39.473" y2="47.419" gradientUnits="userSpaceOnUse">
      <stop offset="0" stop-color="#73b4c8"/>
      <stop offset="0.175" stop-color="#6aaec3"/>
      <stop offset="0.457" stop-color="#529eb5"/>
      <stop offset="0.809" stop-color="#2c839f"/>
      <stop offset="1" stop-color="#147391"/>
    </linearGradient>
    <linearGradient id="Dark_Blue_Grad-2" x1="26.721" y1="22.221" x2="42.279" y2="37.778" xlink:href="#Dark_Blue_Grad"/>
    <linearGradient id="New_Gradient_Swatch_1" data-name="New Gradient Swatch 1" x1="29.902" y1="25.403" x2="39.097" y2="34.597" gradientUnits="userSpaceOnUse">
      <stop offset="0" stop-color="#cde6eb"/>
      <stop offset="0.221" stop-color="#c6e2e8"/>
      <stop offset="0.542" stop-color="#b3d8e1"/>
      <stop offset="0.921" stop-color="#93c7d5"/>
      <stop offset="1" stop-color="#8cc3d2"/>
    </linearGradient>
  <polygon points="26.5 0.5 7.5 0.5 7.5 42.5 39.5 42.5 39.5 13.5 26.5 0.5" stroke="#464646" stroke-miterlimit="10" fill="url(#linear-gradient)"/>
  <polygon points="26.5 0.5 26.5 13.5 39.5 13.5 26.5 0.5" stroke="#464646" stroke-linejoin="round" fill="url(#paper_gradient)"/>
  <line x1="13" y1="19.5" x2="34" y2="19.5" stroke="#464646" stroke-miterlimit="10" fill="url(#linear-gradient-2)"/>
  <line x1="13" y1="24.5" x2="34" y2="24.5" stroke="#464646" stroke-miterlimit="10" fill="url(#linear-gradient-3)"/>
  <line x1="13" y1="29.5" x2="34" y2="29.5" stroke="#464646" stroke-miterlimit="10" fill="url(#linear-gradient-4)"/>
  <line x1="13" y1="34.5" x2="34" y2="34.5" stroke="#464646" stroke-miterlimit="10" fill="url(#linear-gradient-5)"/>
  <polyline points="39.5 37.5 39.5 47.392 34.5 43.642 29.5 47.392 29.5 37.5" stroke="#464646" stroke-linecap="round" stroke-linejoin="round" fill="url(#Dark_Blue_Grad)"/>
  <path d="M43.654,30.628a.409.409,0,0,0-.054.541l1.476,2.04-2.359.875a.41.41,0,0,0-.257.479l.585,2.449-2.517-.095a.4.4,0,0,0-.42.345l-.4,2.485L37.422,38.7a.41.41,0,0,0-.52.158L35.583,41,33.87,39.155a.407.407,0,0,0-.54-.054l-2.038,1.476-.876-2.36a.406.406,0,0,0-.48-.256l-2.448.583.094-2.515a.412.412,0,0,0-.345-.421l-2.486-.4L25.8,32.923a.41.41,0,0,0-.158-.521L23.5,31.083l1.846-1.711a.409.409,0,0,0,.053-.541l-1.476-2.039,2.359-.875a.41.41,0,0,0,.257-.48l-.584-2.449,2.517.095a.409.409,0,0,0,.42-.345l.4-2.486L31.577,21.3a.41.41,0,0,0,.52-.158L33.416,19l1.713,1.846a.41.41,0,0,0,.54.053l2.039-1.475.875,2.359a.409.409,0,0,0,.48.257l2.449-.585-.095,2.517a.411.411,0,0,0,.345.42l2.486.4L43.2,27.078a.409.409,0,0,0,.158.52L45.5,28.917Z" stroke="#464646" stroke-linecap="round" stroke-linejoin="round" fill="url(#Dark_Blue_Grad-2)"/>
  <path d="M36.986,36.007a6.5,6.5,0,1,1,3.519-8.49A6.5,6.5,0,0,1,36.986,36.007Z" stroke="#147391" stroke-linecap="round" stroke-linejoin="round" stroke-width="0.994" fill="url(#New_Gradient_Swatch_1)"/>
  <polygon points="30.5 31 31.5 30.5 34 32 37.5 26.5 38.5 27 34.5 34.5 30.5 31" fill="#147391"/>
</svg>
