<svg id="Layer_1" data-name="Layer 1" xmlns="http://www.w3.org/2000/svg" xmlns:xlink="http://www.w3.org/1999/xlink" viewBox="0 0 48 48">
  <defs>
    <linearGradient id="linear-gradient" x1="1.058" y1="44.905" x2="46.96" y2="13.083" gradientTransform="matrix(1, 0, 0, -1, 0, 48)" gradientUnits="userSpaceOnUse">
      <stop offset="0" stop-color="#cde6eb"/>
      <stop offset="0.221" stop-color="#c6e2e8"/>
      <stop offset="0.542" stop-color="#b3d8e1"/>
      <stop offset="0.921" stop-color="#93c7d5"/>
      <stop offset="1" stop-color="#8cc3d2"/>
    </linearGradient>
    <linearGradient id="linear-gradient-2" x1="20.436" y1="21.618" x2="42.925" y2="47.587" gradientUnits="userSpaceOnUse">
      <stop offset="0" stop-color="#afd7e1"/>
      <stop offset="1" stop-color="#73b4c8"/>
    </linearGradient>
    <linearGradient id="linear-gradient-3" x1="28.907" y1="28.574" x2="36.599" y2="32.802" gradientUnits="userSpaceOnUse">
      <stop offset="0" stop-color="#73b4c8"/>
      <stop offset="1" stop-color="#177491"/>
    </linearGradient>
  </defs>
  <g id="g942">
    <path id="rect13-9-3-7" d="M1.5,3.5h45v31H1.5Z" stroke="#464646" stroke-miterlimit="10" fill="url(#linear-gradient)"/>
    <path id="path15-5-6" d="M4.761,6.644l15.361,12.54a6.576,6.576,0,0,0,8.507-.108L43.114,6.644" fill="none" stroke="#6e6e6e" stroke-miterlimit="10"/>
    <path id="line17-6-0" d="M20.2,19.3,4.761,30.722" fill="none" stroke="#6e6e6e" stroke-miterlimit="10"/>
    <path id="line19-5-0" d="M43.842,30.768,28.768,19.05" fill="none" stroke="#6e6e6e" stroke-miterlimit="10"/>
    <g id="g44">
      <g id="g28">
        <g id="g18">
          <path id="path14" d="M42.794,47.7,42.849,32v-.082h4.793a40.458,40.458,0,0,1-3.471-4.71A13.09,13.09,0,0,1,42.849,21.4v-.055H20.37V47.7H42.79" fill="url(#linear-gradient-2)"/>
          <path id="path16" d="M42.794,48H20.37a.3.3,0,0,1-.3-.3V21.353a.3.3,0,0,1,.144-.274.3.3,0,0,1,.188-.043H42.848a.3.3,0,0,1,.3.3,12.9,12.9,0,0,0,1.278,5.711,40.316,40.316,0,0,0,3.44,4.666.3.3,0,0,1-.027.423l0,0a.307.307,0,0,1-.2.074H43.152L43.1,47.7a.3.3,0,0,1-.3.3Zm-22.117-.606H42.491l.054-15.478a.3.3,0,0,1,.3-.3h4.143a38.666,38.666,0,0,1-3.08-4.251,12.824,12.824,0,0,1-1.359-5.72H20.677Z" fill="#464646"/>
        </g>
        <path id="path20" d="M31.529,32.22a10.016,10.016,0,0,1-8.7-5.494c-2.338-4.511-2.67-5.143-2.717-5.229l-.011-.022a.3.3,0,0,1,.122-.406l.005,0h0c.173-.088.235-.121.4.143h.01a.223.223,0,0,1,.022.061c.087.147.2.366.369.687.358.689,1.041,2,2.334,4.5a9.362,9.362,0,0,0,8.227,5.166H42.85a.3.3,0,1,1,0,.606H31.529Z" fill="#464646"/>
        <g id="g26">
          <path id="path22" d="M38.635,31.917c-1.859-.37-5.453-4.092-5.453-4.092L24.9,29.086s3,2.807,6.155,2.831S38.635,31.917,38.635,31.917Z" fill="url(#linear-gradient-3)"/>
          <path id="path24" d="M34.414,32.231c-1.125,0-2.316,0-3.363-.011-3.237-.025-6.233-2.794-6.359-2.915a.3.3,0,0,1,.161-.521l8.283-1.26a.3.3,0,0,1,.264.089c.036.036,3.55,3.657,5.3,4a.3.3,0,0,1-.057.6C38.608,32.22,36.644,32.231,34.414,32.231ZM25.6,29.285c.964.766,3.186,2.312,5.454,2.329,2.026.016,4.6.011,6.165.006a25.9,25.9,0,0,1-4.147-3.472Z" fill="#464646"/>
        </g>
      </g>
      <g id="g34">
        <path id="rect30" d="M25.044,25.275H41.557a.606.606,0,0,1,.606.606v.606a.6.6,0,0,1-.594.606H25.044a.6.6,0,0,1-.606-.594v-.618a.606.606,0,0,1,.606-.606Z" fill="#fff"/>
        <path id="path32" d="M39.118,28.7H35.747a10.147,10.147,0,0,0,.95,1.017,7.485,7.485,0,0,0,1.042.8h1.379a.608.608,0,0,0,.606-.606v-.606A.607.607,0,0,0,39.118,28.7Z" fill="#fff"/>
      </g>
      <g id="g42">
        <path id="rect36" d="M22.419,38.884H36.962a.6.6,0,0,1,.606.594V40.1a.6.6,0,0,1-.594.606H22.419a.6.6,0,0,1-.606-.594V39.49a.6.6,0,0,1,.594-.606Z" fill="#fff"/>
        <path id="rect38" d="M22.419,35.122H40.67a.6.6,0,0,1,.606.594v.618a.6.6,0,0,1-.594.606H22.419a.6.6,0,0,1-.606-.594v-.618a.6.6,0,0,1,.594-.606Z" fill="#fff"/>
        <path id="rect40" d="M22.419,42.646h10a.6.6,0,0,1,.606.594v.618a.6.6,0,0,1-.594.606H22.419a.6.6,0,0,1-.606-.594v-.618a.6.6,0,0,1,.594-.606Z" fill="#fff"/>
      </g>
    </g>
  </g>
</svg>
