<svg id="Layer_1" data-name="Layer 1" xmlns="http://www.w3.org/2000/svg" xmlns:xlink="http://www.w3.org/1999/xlink" viewBox="0 0 48 48">
  <defs>
    <linearGradient id="linear-gradient" x1="2" y1="1328" x2="43.5" y2="1369.5" gradientTransform="translate(0 -1320)" gradientUnits="userSpaceOnUse">
      <stop offset="0" stop-color="#fff"/>
      <stop offset="0.232" stop-color="#fafafa"/>
      <stop offset="0.496" stop-color="#ededed"/>
      <stop offset="0.775" stop-color="#d6d6d6"/>
      <stop offset="1" stop-color="#bebebe"/>
    </linearGradient>
    <linearGradient id="linear-gradient-2" x1="27.737" y1="1325.263" x2="40.737" y2="1338.263" gradientTransform="translate(0 -1320)" gradientUnits="userSpaceOnUse">
      <stop offset="0" stop-color="#fff"/>
      <stop offset="0.221" stop-color="#f8f8f8"/>
      <stop offset="0.541" stop-color="#e5e5e5"/>
      <stop offset="0.92" stop-color="#c6c6c6"/>
      <stop offset="1" stop-color="#bebebe"/>
    </linearGradient>
    <linearGradient id="linear-gradient-3" x1="12.022" y1="31.123" x2="24.789" y2="18.354" gradientTransform="matrix(1, 0, 0, -1, 0, 50)" gradientUnits="userSpaceOnUse">
      <stop offset="0" stop-color="#cee6eb"/>
      <stop offset="0.221" stop-color="#c6e2e8"/>
      <stop offset="0.542" stop-color="#b3d8e1"/>
      <stop offset="0.921" stop-color="#93c7d4"/>
      <stop offset="1" stop-color="#8dc3d2"/>
    </linearGradient>
    <linearGradient id="linear-gradient-4" x1="6.578" y1="25.677" x2="24.001" y2="8.254" gradientTransform="matrix(1, 0, 0, -1, 0, 50)" gradientUnits="userSpaceOnUse">
      <stop offset="0" stop-color="#afd7e1"/>
      <stop offset="0.159" stop-color="#a5d1dc"/>
      <stop offset="0.706" stop-color="#82bdcf"/>
      <stop offset="1" stop-color="#73b4c8"/>
    </linearGradient>
    <linearGradient id="linear-gradient-5" x1="22.093" y1="22.926" x2="34.958" y2="22.926" gradientTransform="translate(-3.101 -4.426)" xlink:href="#linear-gradient-4"/>
  </defs>
  <g id="g919">
    <path id="polygon13" d="M42.5,13.5,29.5.5H6.5v47h36Z" stroke="#464646" stroke-miterlimit="10" fill="url(#linear-gradient)"/>
    <path id="polygon26" d="M42.475,13.5l-13-13v13Z" stroke="#464646" stroke-linejoin="round" fill="url(#linear-gradient-2)"/>
    <path id="polygon41" d="M33.013,41.074l-7.977,4.613V36.505l7.977-4.614Z" fill="#3f91af"/>
    <path id="polygon43" d="M18.727,30.922l-1.672.969,7.98,4.615,7.979-4.615-1.678-.969Z" fill="url(#linear-gradient-3)"/>
    <path id="polygon45-3" d="M17.055,41.073V31.891l7.978,4.614v9.182Z" fill="url(#linear-gradient-4)"/>
    <path id="rect49" d="M24.723,36.5h.625v9.183h-.625Z" fill="#177491"/>
    <path id="path47" d="M25.036,36.817a.321.321,0,0,1-.157-.042L16.9,32.161l.312-.541,7.822,4.523,7.819-4.522.312.541-7.979,4.613A.313.313,0,0,1,25.036,36.817Z" fill="#177491"/>
    <path id="path51" d="M18.105,30.922l-1.205.7a.312.312,0,0,0-.154.272v9.181a.314.314,0,0,0,.156.272l7.977,4.613a.3.3,0,0,0,.312,0l7.979-4.609a.312.312,0,0,0,.154-.27V31.893a.312.312,0,0,0-.154-.272l-1.211-.7H30.707l1.994,1.15V40.9l-7.666,4.431-7.666-4.433V32.074l1.99-1.152Z" fill="#4e4a48"/>
    <path id="rect956" d="M17.975,16h15v5h-15Z" fill="#464646"/>
    <path id="rect958" d="M20.975,21h9v1h-9Z" fill="#3f91af"/>
    <path id="rect987" d="M20.238,29.674h9.8a.45.45,0,1,1,0,.9h-9.8a.45.45,0,1,1,0-.9Z" fill="#3f91af"/>
    <path id="rect987-6" d="M20.817,28.408h8.532a.45.45,0,0,1,0,.9H20.817a.45.45,0,1,1,0-.9Z" fill="#3f91af"/>
    <path id="rect987-6-8" d="M21.853,27.023H24.43a.493.493,0,0,1,0,.986H21.853a.493.493,0,0,1,0-.986Z" fill="#3f91af"/>
    <path id="path1019" d="M25.96,25.121l-.939.025s-.025.314-.031.67a4.259,4.259,0,0,1-.044.918.552.552,0,0,1-.471.3c-.164.09-.294-.015-.52.14L24.5,28a1.132,1.132,0,0,0,.612-.165,1.374,1.374,0,0,0,.654-.635,2.978,2.978,0,0,0,.22-1.323A6.975,6.975,0,0,0,25.96,25.121Z" fill="#3f91af"/>
    <path id="path960" d="M24.85,25.5l-.625-.833L22.975,23h5l-1.25,1.667L26.1,25.5Z" fill="#464646"/>
    <path id="rect1024" d="M18.975,17h13v3h-13Z" fill="url(#linear-gradient-5)"/>
    <path id="rect1036" d="M32.975,18h5v1h-5Z" fill="#464646"/>
    <path id="rect1036-9" d="M12.975,18h5v1h-5Z" fill="#464646"/>
    <path id="rect1053" d="M20.975,22h9v1h-9Z" fill="#464646"/>
    <path id="rect1055" d="M20.975,21h1v1h-1Z" fill="#464646"/>
    <path id="rect1057" d="M28.975,21h1v1h-1Z" fill="#464646"/>
  </g>
</svg>
