<svg id="Artwork" xmlns="http://www.w3.org/2000/svg" viewBox="0 0 48 48">
  <g id="g824">
    <path id="path2" d="M14.333,42.6A10.25,10.25,0,0,1,7,25.1L23.333,8.767,24.5,9.933,8.167,26.267A8.6,8.6,0,0,0,20.333,38.433l20-20a6.139,6.139,0,0,0,0-8.833,6.139,6.139,0,0,0-8.833,0l-16.833,17A3.933,3.933,0,0,0,13.5,29.267a3.312,3.312,0,0,0,1.167,2.666,3.924,3.924,0,0,0,5.5,0L33.5,18.6l1.167,1.167L21.333,33.1a5.532,5.532,0,0,1-7.833,0,5.82,5.82,0,0,1-1.667-4,5.417,5.417,0,0,1,1.667-4L30.333,8.433A8.014,8.014,0,0,1,41.667,19.767l-20,20A11.591,11.591,0,0,1,14.333,42.6Z" fill="#3f92af" stroke="#464646" stroke-width="0.8"/>
  </g>
</svg>
