<svg id="Layer_1" data-name="Layer 1" xmlns="http://www.w3.org/2000/svg" xmlns:xlink="http://www.w3.org/1999/xlink" viewBox="0 0 48 48">
  <defs>
    <linearGradient id="linear-gradient" x1="3.5" y1="1326.5" x2="45" y2="1368" gradientTransform="translate(0 -1320)" gradientUnits="userSpaceOnUse">
      <stop offset="0" stop-color="#fff"/>
      <stop offset="0.232" stop-color="#fafafa"/>
      <stop offset="0.496" stop-color="#ededed"/>
      <stop offset="0.775" stop-color="#d6d6d6"/>
      <stop offset="1" stop-color="#bebebe"/>
    </linearGradient>
    <linearGradient id="linear-gradient-2" x1="29.25" y1="1323.75" x2="42.25" y2="1336.75" gradientTransform="translate(0 -1320)" gradientUnits="userSpaceOnUse">
      <stop offset="0" stop-color="#fff"/>
      <stop offset="0.221" stop-color="#f8f8f8"/>
      <stop offset="0.541" stop-color="#e5e5e5"/>
      <stop offset="0.92" stop-color="#c6c6c6"/>
      <stop offset="1" stop-color="#bebebe"/>
    </linearGradient>
    <linearGradient id="linear-gradient-3" x1="3.75" y1="47.75" x2="26.25" y2="25.25" gradientTransform="matrix(1, 0, 0, -1, 0, 48)" gradientUnits="userSpaceOnUse">
      <stop offset="0" stop-color="#73b4c8"/>
      <stop offset="0.175" stop-color="#6aaec3"/>
      <stop offset="0.457" stop-color="#529eb5"/>
      <stop offset="0.809" stop-color="#2c839f"/>
      <stop offset="1" stop-color="#147391"/>
    </linearGradient>
  </defs>
  <g id="g869">
    <path id="polygon13" d="M32.5.5H9.5v47h36v-34Z" stroke="#464646" stroke-miterlimit="10" fill="url(#linear-gradient)"/>
    <path id="polygon26" d="M32.5.5v13h13Z" stroke="#464646" stroke-linejoin="round" fill="url(#linear-gradient-2)"/>
    <path id="line28" d="M15,34.5H40" fill="none" stroke="#5a5a5a"/>
    <path id="line30" d="M15,28.5H40" fill="none" stroke="#5a5a5a"/>
    <path id="line32" d="M15,40.5H40" fill="none" stroke="#5a5a5a"/>
    <path id="rect45" d="M.5,3.5h29v16H.5Z" stroke="#464646" stroke-miterlimit="10" fill="url(#linear-gradient-3)"/>
    <g id="text870-9">
      <path id="path848" d="M19.433,8.153H16.784V17H14.6V8.153h-2.65V6.032h7.487Z" fill="#fff"/>
    </g>
    <g id="text870-2">
      <path id="path851" d="M7.435,9.4A1.557,1.557,0,0,0,7.286,8.7a1.043,1.043,0,0,0-.515-.463,1.667,1.667,0,0,0-.592-.14c-.226-.019-.488-.029-.788-.029h-.9v2.949h.768a6.361,6.361,0,0,0,1-.066,1.346,1.346,0,0,0,.677-.3,1.39,1.39,0,0,0,.378-.5A1.868,1.868,0,0,0,7.435,9.4Zm3.9,7.6H8.282L5.639,12.984H4.487V17H2V6.049H6.192a8.611,8.611,0,0,1,1.478.11,2.974,2.974,0,0,1,1.158.478,2.664,2.664,0,0,1,.866.956,2.967,2.967,0,0,1,.326,1.464,3.549,3.549,0,0,1-.5,1.978A3.852,3.852,0,0,1,8.1,12.308Z" fill="#fff"/>
    </g>
    <g id="text870">
      <path id="path854" d="M27.966,8.181H23.919v2.034h3.752V12.33H23.919V17H21.662V6.067h6.3Z" fill="#fff"/>
    </g>
  </g>
</svg>
