<svg id="Layer_1" data-name="Layer 1" xmlns="http://www.w3.org/2000/svg" xmlns:xlink="http://www.w3.org/1999/xlink" viewBox="0 0 48 48">
  <defs>
    <linearGradient id="linear-gradient" x1="17.561" y1="43.912" x2="29.445" y2="32.028" gradientTransform="matrix(1, 0, 0, -1, 0, 48)" gradientUnits="userSpaceOnUse">
      <stop offset="0" stop-color="#fff"/>
      <stop offset="1" stop-color="#bebebe"/>
    </linearGradient>
    <linearGradient id="linear-gradient-2" x1="7.034" y1="24.899" x2="37.212" y2="-1.18" gradientTransform="matrix(1, 0, 0, -1, 0, 48)" gradientUnits="userSpaceOnUse">
      <stop offset="0" stop-color="#73b4c8"/>
      <stop offset="0.175" stop-color="#6aaec3"/>
      <stop offset="0.457" stop-color="#529eb5"/>
      <stop offset="0.809" stop-color="#2c839f"/>
      <stop offset="1" stop-color="#147391"/>
    </linearGradient>
    <linearGradient id="linear-gradient-3" x1="65.358" y1="57.867" x2="86.791" y2="80.098" gradientTransform="translate(-9.373 -8.196) scale(0.653 0.646)" gradientUnits="userSpaceOnUse">
      <stop offset="0" stop-color="#a5cfdc"/>
      <stop offset="0.128" stop-color="#9cc9d7"/>
      <stop offset="0.335" stop-color="#84bacb"/>
      <stop offset="0.596" stop-color="#5ea2b7"/>
      <stop offset="0.896" stop-color="#28809b"/>
      <stop offset="1" stop-color="#147391"/>
    </linearGradient>
    <linearGradient id="linear-gradient-4" x1="87.531" y1="-22.801" x2="97.477" y2="-12.855" gradientTransform="matrix(0.653, 0, 0, -0.646, -9.373, 22.364)" gradientUnits="userSpaceOnUse">
      <stop offset="0" stop-color="#f2f2f2"/>
      <stop offset="1" stop-color="#999"/>
    </linearGradient>
    <linearGradient id="linear-gradient-5" x1="63.466" y1="56.891" x2="76.404" y2="69.311" gradientTransform="translate(-9.373 -8.196) scale(0.653 0.646)" gradientUnits="userSpaceOnUse">
      <stop offset="0" stop-color="#fff"/>
      <stop offset="1" stop-color="#dcdcdc"/>
    </linearGradient>
    <linearGradient id="linear-gradient-6" x1="36.48" y1="9.123" x2="42.711" y2="3.942" gradientTransform="matrix(1.03, 0, 0, -1.146, -0.403, 52.494)" xlink:href="#linear-gradient-3"/>
  </defs>
  <path id="path7" d="M31.5,9.4c0,4.3-3.6,10.1-8,10.1s-8-5.8-8-10.1a8,8,0,0,1,16,0Z" stroke="#464646" stroke-miterlimit="10" fill="url(#linear-gradient)"/>
  <path id="path20" d="M38.5,47.5V31.3c0-3.8-2.4-7-6-8.8a15.416,15.416,0,0,1-18,0,9.872,9.872,0,0,0-6,8.8V47.5Z" stroke="#464646" stroke-miterlimit="10" fill="url(#linear-gradient-2)"/>
  <line id="line22" x1="14.5" y1="47" x2="14.5" y2="35" fill="none" stroke="#147391" stroke-linejoin="round"/>
  <line id="line24" x1="32.5" y1="47" x2="32.5" y2="35" fill="none" stroke="#147391" stroke-linejoin="round"/>
  <path id="path28" d="M46.326,36.827a.262.262,0,0,0-.035.35l.964,1.319-1.541.565a.265.265,0,0,0-.168.31l.382,1.583-1.644-.065a.26.26,0,0,0-.274.223l-.261,1.606-1.494-.673a.268.268,0,0,0-.339.1l-.862,1.384-1.119-1.2a.267.267,0,0,0-.352-.035l-1.332.954-.572-1.526a.265.265,0,0,0-.313-.165l-1.6.377.061-1.626a.267.267,0,0,0-.225-.272l-1.624-.259.685-1.473a.264.264,0,0,0-.1-.337l-1.4-.853,1.206-1.105a.263.263,0,0,0,.034-.35l-.964-1.318,1.541-.566a.265.265,0,0,0,.168-.31l-.382-1.583,1.644.065a.267.267,0,0,0,.275-.223l.261-1.607,1.493.677a.268.268,0,0,0,.339-.1l.862-1.384,1.119,1.192a.269.269,0,0,0,.352.035l1.332-.954.572,1.525a.266.266,0,0,0,.313.166l1.6-.378-.062,1.627a.265.265,0,0,0,.225.271l1.624.259-.684,1.475a.262.262,0,0,0,.1.336l1.4.852Z" fill="url(#linear-gradient-3)"/>
  <path id="path30" d="M41.332,43.7a.325.325,0,0,1-.246.152h-.032a.327.327,0,0,1-.239-.1l-1.084-1.156-1.288.924a.334.334,0,0,1-.286.047.326.326,0,0,1-.212-.194l-.538-1.434v5.079l2.744-2.036a.33.33,0,0,1,.392,0l2.743,2.036V42.867l-1.119-.507Z" fill="url(#linear-gradient-4)"/>
  <g id="g40">
    <path id="path36" d="M41.971,40.3a4.263,4.263,0,0,1-5.549-2.271,4.186,4.186,0,0,1,2.3-5.49,4.262,4.262,0,0,1,5.549,2.271h0A4.185,4.185,0,0,1,41.971,40.3Z" fill="url(#linear-gradient-5)"/>
    <path id="path38" d="M40.352,40.945A4.561,4.561,0,1,1,42.1,40.6,4.625,4.625,0,0,1,40.352,40.945Zm-.012-8.4a3.878,3.878,0,1,0,.043,7.756,3.957,3.957,0,0,0,1.466-.29h0a3.865,3.865,0,0,0,2.139-5.06A3.92,3.92,0,0,0,40.34,32.543Z" fill="#6f6f6f"/>
  </g>
  <polygon id="polygon42" points="37.734 37.068 38.387 36.745 40.02 37.714 42.306 34.159 42.96 34.482 40.347 39.33 37.734 37.068" fill="#464646"/>
  <path id="path1062" d="M37.331,44.528c0-1.535.012-2.778.027-2.762s.135.355.268.752a7.091,7.091,0,0,0,.3.811c.149.209.433.094,1.1-.449l.664-.54.625.72c.6.686.754.8.948.659a6.737,6.737,0,0,0,.52-.838c.24-.429.451-.784.468-.788a4.683,4.683,0,0,1,.566.264l.534.271v2.307c0,1.269-.014,2.307-.031,2.307s-.661-.52-1.431-1.154a10.742,10.742,0,0,0-1.541-1.153,6.185,6.185,0,0,0-1.112.806L37.8,46.932l-.47.388Z" fill="url(#linear-gradient-6)"/>
  <path id="path32" d="M36.754,42.043v5.62a.326.326,0,0,0,.327.323.329.329,0,0,0,.2-.065l3.07-2.278,3.07,2.278a.327.327,0,0,0,.2.065.333.333,0,0,0,.146-.034.322.322,0,0,0,.18-.289V42.975c-.013.009.015-.009,0,0a.23.23,0,0,0,.131-.2l.253-1.555,1.592.06a.363.363,0,0,0,.265-.118.323.323,0,0,0,.066-.28l-.37-1.532,1.493-.548a.322.322,0,0,0,.192-.416.3.3,0,0,0-.042-.077l-.933-1.276,1.168-1.072a.323.323,0,0,0-.05-.512l-1.356-.825.661-1.431a.32.32,0,0,0-.162-.427.3.3,0,0,0-.083-.025l-1.572-.251.06-1.575a.325.325,0,0,0-.313-.336.332.332,0,0,0-.089.009l-1.549.366-.552-1.478a.327.327,0,0,0-.42-.19.323.323,0,0,0-.078.041l-1.29.925-1.083-1.157a.329.329,0,0,0-.462-.017.362.362,0,0,0-.056.067l-.834,1.341-1.445-.656a.329.329,0,0,0-.432.161.3.3,0,0,0-.025.082l-.254,1.556-1.592-.06a.306.306,0,0,0-.265.118.319.319,0,0,0-.065.28l.369,1.533-1.493.548a.323.323,0,0,0-.193.415.33.33,0,0,0,.043.078l.933,1.276L32.94,36.885a.321.321,0,0,0-.017.457.364.364,0,0,0,.068.055l1.354.825-.661,1.431a.319.319,0,0,0,.009.287.326.326,0,0,0,.236.167l1.572.25-.059,1.575a.324.324,0,0,0,.318.332.3.3,0,0,0,.084-.009m7.442,4.761L40.543,44.98a.33.33,0,0,0-.392,0l-2.744,2.036V41.937l.538,1.433a.323.323,0,0,0,.212.194.331.331,0,0,0,.286-.047l1.289-.923,1.083,1.154a.328.328,0,0,0,.239.1h.032a.324.324,0,0,0,.246-.153l.835-1.34,1.119.509ZM46.1,36.591a.583.583,0,0,0-.078.775l.712.974-1.136.417a.587.587,0,0,0-.373.689l.281,1.169L44.3,40.57a.579.579,0,0,0-.616.494l-.2,1.187-1.1-.5a.6.6,0,0,0-.754.226L41,43l-.823-.878a.592.592,0,0,0-.784-.08l-.984.7-.422-1.122a.589.589,0,0,0-.7-.371l-1.179.278.045-1.2a.6.6,0,0,0-.5-.6l-1.2-.191.507-1.09a.585.585,0,0,0-.23-.747L33.7,37.07l.89-.816a.583.583,0,0,0,.078-.776l-.712-.973,1.137-.418a.586.586,0,0,0,.372-.688l-.281-1.169,1.214.046a.587.587,0,0,0,.609-.5l.2-1.187,1.1.5a.6.6,0,0,0,.753-.227l.637-1.022.827.881a.6.6,0,0,0,.784.077l.984-.7.421,1.124a.6.6,0,0,0,.7.37l1.18-.28-.045,1.2a.59.59,0,0,0,.5.6l1.2.194L45.736,34.4a.584.584,0,0,0,.229.747L47,35.778Z" fill="#474647"/>
</svg>
