<svg id="Layer_1" data-name="Layer 1" xmlns="http://www.w3.org/2000/svg" xmlns:xlink="http://www.w3.org/1999/xlink" viewBox="0 0 48 48">
  <defs>
    <linearGradient id="linear-gradient" x1="6.093" y1="2.609" x2="39.97" y2="48.495" gradientUnits="userSpaceOnUse">
      <stop offset="0" stop-color="#fff"/>
      <stop offset="0.232" stop-color="#fafafa"/>
      <stop offset="0.496" stop-color="#ededed"/>
      <stop offset="0.775" stop-color="#d6d6d6"/>
      <stop offset="1" stop-color="#bebebe"/>
    </linearGradient>
    <linearGradient id="linear-gradient-2" x1="28.633" y1="44.467" x2="40.986" y2="31.323" gradientTransform="matrix(1, 0, 0, -1, 0, 48)" gradientUnits="userSpaceOnUse">
      <stop offset="0" stop-color="#fff"/>
      <stop offset="0.221" stop-color="#f8f8f8"/>
      <stop offset="0.541" stop-color="#e5e5e5"/>
      <stop offset="0.92" stop-color="#c6c6c6"/>
      <stop offset="1" stop-color="#bebebe"/>
    </linearGradient>
    <linearGradient id="linear-gradient-3" x1="35.362" y1="50.309" x2="47.571" y2="37.309" gradientTransform="matrix(1, 0, 0, -1, 0, 48)" gradientUnits="userSpaceOnUse">
      <stop offset="0" stop-color="#afd7e1"/>
      <stop offset="1" stop-color="#73b4c8"/>
    </linearGradient>
    <linearGradient id="linear-gradient-4" x1="12.25" y1="30.967" x2="26.386" y2="10.287" gradientTransform="matrix(1, 0, 0, -1, 0, 48)" gradientUnits="userSpaceOnUse">
      <stop offset="0" stop-color="#fff"/>
      <stop offset="1" stop-color="#dcdcdc"/>
    </linearGradient>
    <linearGradient id="linear-gradient-5" x1="26.065" y1="31.177" x2="40.444" y2="10.422" xlink:href="#linear-gradient-4"/>
    <linearGradient id="linear-gradient-6" x1="29.206" y1="29.877" x2="50.353" y2="20.457" gradientTransform="matrix(0.879, 0.477, 0.477, -0.879, -13.29, 39.104)" gradientUnits="userSpaceOnUse">
      <stop offset="0" stop-color="#cde6eb"/>
      <stop offset="1" stop-color="#8cc3d2"/>
    </linearGradient>
  </defs>
  <g id="g898">
    <polyline id="polyline13" points="32 0.5 8.5 0.5 8.5 47.5 44.5 47.5 44.5 13" stroke="#464646" stroke-miterlimit="10" fill="url(#linear-gradient)"/>
    <polygon id="polygon50" points="31.5 0.5 31.5 13.5 44.5 13.5 31.5 0.5" fill="url(#linear-gradient-2)"/>
    <polygon id="polygon57" points="31.5 0.5 44.5 13.5 44.5 0.5 31.5 0.5" fill="url(#linear-gradient-3)"/>
    <rect id="rect59" x="31.5" y="0.5" width="13" height="13" fill="none" stroke="#464646" stroke-miterlimit="10"/>
    <line id="line72" x1="32" y1="1" x2="44" y2="13" fill="none" stroke="#464646" stroke-miterlimit="10"/>
    <g id="g51">
      <g id="g43">
        <g id="g27">
          <g id="g19">
            <path id="path15" d="M26.4,20.653c0-2.191-8.038-3.481-14.074-3.481V34.519C18.362,34.519,26.4,35.808,26.4,38Z" fill="url(#linear-gradient-4)"/>
            <path id="path17" d="M26.4,38.327A.327.327,0,0,1,26.074,38c0-1.622-6.682-3.155-13.748-3.155A.326.326,0,0,1,12,34.518V17.172a.326.326,0,0,1,.327-.326c4.511,0,14.4.958,14.4,3.807V38A.328.328,0,0,1,26.4,38.327ZM12.652,34.194c3.908.037,11.208.737,13.422,2.618V20.653c0-1.6-6.478-3.107-13.422-3.154Z" fill="#474647"/>
          </g>
          <g id="g25">
            <path id="path21" d="M26.519,20.7c0-2.192,8.038-3.481,14.075-3.481V34.569c-6.037,0-14.075,1.289-14.075,3.481Z" fill="url(#linear-gradient-5)"/>
            <path id="path23" d="M26.519,38.379a.327.327,0,0,1-.327-.326V20.7c0-2.849,9.89-3.808,14.4-3.808a.327.327,0,0,1,.326.327V34.569a.326.326,0,0,1-.326.326c-7.067,0-13.748,1.533-13.748,3.155a.326.326,0,0,1-.324.329ZM40.268,17.55c-6.945.046-13.422,1.556-13.422,3.153V36.86c2.214-1.879,9.513-2.579,13.422-2.616Z" fill="#474647"/>
          </g>
        </g>
        <path id="path29" d="M24.07,22.731a.326.326,0,0,1-.248-.115c-.03-.034-2.025-2.226-8.817-2.226a.327.327,0,1,1,0-.653c7.166,0,9.233,2.356,9.318,2.456a.327.327,0,0,1-.251.538Z" fill="#474647"/>
        <path id="path31" d="M24.07,26.375a.326.326,0,0,1-.248-.115c-.03-.034-2.025-2.226-8.817-2.226a.327.327,0,1,1,0-.653c7.166,0,9.233,2.357,9.318,2.457a.327.327,0,0,1-.04.46h0A.332.332,0,0,1,24.07,26.375Z" fill="#474647"/>
        <path id="path33" d="M24.07,30.02a.326.326,0,0,1-.248-.115c-.03-.034-2.025-2.226-8.817-2.226a.327.327,0,1,1,0-.653c7.166,0,9.233,2.357,9.318,2.457a.327.327,0,0,1-.04.46h0A.332.332,0,0,1,24.07,30.02Z" fill="#474647"/>
        <path id="path35" d="M19.1,31.633a.256.256,0,0,1-.055,0A24.726,24.726,0,0,0,15,31.322a.327.327,0,1,1,0-.653,25.357,25.357,0,0,1,4.155.315.326.326,0,0,1-.054.649Z" fill="#474647"/>
        <path id="path37" d="M29.073,22.73a.328.328,0,0,1-.327-.327.324.324,0,0,1,.077-.21c.084-.1,2.155-2.456,9.317-2.456a.327.327,0,1,1,0,.653c-6.811,0-8.8,2.2-8.817,2.226A.324.324,0,0,1,29.073,22.73Z" fill="#474647"/>
        <path id="path39" d="M29.073,26.373a.326.326,0,0,1-.25-.535c.084-.1,2.155-2.457,9.317-2.457a.327.327,0,1,1,0,.653c-6.811,0-8.8,2.2-8.817,2.226A.323.323,0,0,1,29.073,26.373Z" fill="#474647"/>
        <path id="path41" d="M29.073,30.02a.327.327,0,0,1-.25-.536c.084-.1,2.155-2.457,9.317-2.457a.327.327,0,1,1,0,.653c-6.811,0-8.8,2.2-8.817,2.227A.327.327,0,0,1,29.073,30.02Z" fill="#474647"/>
      </g>
      <g id="g49">
        <path id="path45" d="M41.671,36.228V36.5a15.023,15.023,0,0,1-.822,5c-1.236,3.5-2.57,3.226-2.57,3.226H32.827a1.174,1.174,0,0,1-.926-.457l-.454-.588a23.323,23.323,0,0,1-3.623-6.753l-.275-.811a1.466,1.466,0,0,1,2.574-1.406l.824,1.353V27.985a1.467,1.467,0,0,1,2.933,0V34.44a1.3,1.3,0,0,1,2.6,0v.543a1.3,1.3,0,0,1,2.6.013s-.036,1.394,0,1.429V36.15a1.3,1.3,0,0,1,1.3-1.3,1.266,1.266,0,0,1,.313.039A1.356,1.356,0,0,1,41.671,36.228Z" fill="url(#linear-gradient-6)"/>
        <path id="path47" d="M32.1,44.9a1.514,1.514,0,0,1-.481-.409l-.457-.587a23.58,23.58,0,0,1-3.679-6.858l-.266-.784a1.828,1.828,0,0,1,3.222-1.723l.147.242V27.985a1.829,1.829,0,1,1,3.658,0v5.087a1.652,1.652,0,0,1,2.11.2,1.684,1.684,0,0,1,.334.476,1.66,1.66,0,0,1,2.737,1.045,1.664,1.664,0,0,1,1.354-.252,1.725,1.725,0,0,1,1.255,1.691V36.5a15.345,15.345,0,0,1-.842,5.119c-1.222,3.457-2.627,3.5-2.936,3.466H32.827A1.526,1.526,0,0,1,32.1,44.9ZM29.365,34.443a1.107,1.107,0,0,0-1.5,1.5.4.4,0,0,1,.026.056l.276.811a22.876,22.876,0,0,0,3.567,6.649l.457.587a.8.8,0,0,0,.642.315h5.451a.417.417,0,0,1,.071.007h0s1.077.066,2.156-2.992a14.634,14.634,0,0,0,.8-4.881v-.27a1,1,0,0,0-.7-.99.942.942,0,0,0-1.144.684.958.958,0,0,0-.028.226v.273a.361.361,0,0,1-.617.254c-.13-.131-.143-.145-.1-1.693a.938.938,0,0,0-1.6-.653.907.907,0,0,0-.274.653h0a.361.361,0,0,1-.719.075.469.469,0,0,1,0-.075v-.54a.938.938,0,0,0-1.875,0h0a.361.361,0,0,1-.721,0V27.985a1.106,1.106,0,0,0-2.211,0v8.077a.36.36,0,0,1-.668.187L29.818,34.9A1.129,1.129,0,0,0,29.365,34.443Z" fill="#177491"/>
      </g>
    </g>
  </g>
</svg>
