<svg id="Layer_1" data-name="Layer 1" xmlns="http://www.w3.org/2000/svg" xmlns:xlink="http://www.w3.org/1999/xlink" viewBox="0 0 48 48">
  <defs>
    <linearGradient id="linear-gradient" x1="2.212" y1="47.323" x2="34.979" y2="4.149" gradientTransform="matrix(1, 0, 0, -1, 0, 48)" gradientUnits="userSpaceOnUse">
      <stop offset="0" stop-color="#fff"/>
      <stop offset="0.232" stop-color="#fafafa"/>
      <stop offset="0.496" stop-color="#ededed"/>
      <stop offset="0.775" stop-color="#d6d6d6"/>
      <stop offset="1" stop-color="#bebebe"/>
    </linearGradient>
    <linearGradient id="linear-gradient-2" x1="-52.52" y1="98.5" x2="-52.52" y2="93.5" gradientTransform="matrix(0, -1, -1, 0, 104, -47)" gradientUnits="userSpaceOnUse">
      <stop offset="0" stop-color="#fff"/>
      <stop offset="0.221" stop-color="#f8f8f8"/>
      <stop offset="0.541" stop-color="#e5e5e5"/>
      <stop offset="0.92" stop-color="#c6c6c6"/>
      <stop offset="1" stop-color="#bebebe"/>
    </linearGradient>
    <linearGradient id="linear-gradient-3" x1="-58.063" x2="-58.063" xlink:href="#linear-gradient-2"/>
    <linearGradient id="linear-gradient-4" x1="-63.607" x2="-63.607" xlink:href="#linear-gradient-2"/>
    <linearGradient id="linear-gradient-5" x1="-69.15" x2="-69.15" xlink:href="#linear-gradient-2"/>
    <linearGradient id="linear-gradient-6" x1="-74.693" x2="-74.693" xlink:href="#linear-gradient-2"/>
    <linearGradient id="linear-gradient-7" x1="-80.237" x2="-80.237" xlink:href="#linear-gradient-2"/>
    <linearGradient id="linear-gradient-8" x1="-85.78" x2="-85.78" xlink:href="#linear-gradient-2"/>
    <linearGradient id="linear-gradient-9" x1="14.131" y1="31.078" x2="46.179" y2="-0.18" gradientTransform="matrix(1, 0, 0, -1, 0, 48)" gradientUnits="userSpaceOnUse">
      <stop offset="0" stop-color="#73b4c8"/>
      <stop offset="0.175" stop-color="#6aaec3"/>
      <stop offset="0.457" stop-color="#529eb5"/>
      <stop offset="0.809" stop-color="#2c839f"/>
      <stop offset="1" stop-color="#147391"/>
    </linearGradient>
  </defs>
  <g id="g898">
    <polygon id="polygon13" points="34.67 43.4 2.347 43.4 2.347 0.9 34.67 0.9 34.67 43.4" stroke="#464646" stroke-miterlimit="10" stroke-width="1.083" fill="url(#linear-gradient)"/>
    <rect id="rect26" x="0.5" y="4.596" width="4.618" height="1.848" stroke="#464646" stroke-miterlimit="10" stroke-width="1" fill="url(#linear-gradient-2)"/>
    <rect id="rect39" x="0.5" y="10.139" width="4.618" height="1.848" stroke="#464646" stroke-miterlimit="10" stroke-width="1" fill="url(#linear-gradient-3)"/>
    <rect id="rect52" x="0.5" y="15.683" width="4.618" height="1.848" stroke="#464646" stroke-miterlimit="10" stroke-width="1" fill="url(#linear-gradient-4)"/>
    <rect id="rect65" x="0.5" y="21.226" width="4.618" height="1.848" stroke="#464646" stroke-miterlimit="10" stroke-width="1" fill="url(#linear-gradient-5)"/>
    <rect id="rect78" x="0.5" y="26.77" width="4.618" height="1.848" stroke="#464646" stroke-miterlimit="10" stroke-width="1" fill="url(#linear-gradient-6)"/>
    <rect id="rect91" x="0.5" y="32.313" width="4.618" height="1.848" stroke="#464646" stroke-miterlimit="10" stroke-width="1" fill="url(#linear-gradient-7)"/>
    <rect id="rect104" x="0.5" y="37.856" width="4.618" height="1.848" stroke="#464646" stroke-miterlimit="10" stroke-width="1" fill="url(#linear-gradient-8)"/>
    <line id="line106" x1="9.273" y1="9.215" x2="24.973" y2="9.215" fill="none" stroke="#6e6e6e" stroke-width="1"/>
    <line id="line108" x1="9.273" y1="14.759" x2="28.667" y2="14.759" fill="none" stroke="#6e6e6e" stroke-width="1"/>
    <line id="line110" x1="9.273" y1="20.302" x2="28.667" y2="20.302" fill="none" stroke="#6e6e6e" stroke-width="1"/>
    <line id="line112" x1="9.273" y1="25.846" x2="28.667" y2="25.846" fill="none" stroke="#147391" stroke-width="1"/>
    <line id="line114" x1="9.273" y1="31.389" x2="28.667" y2="31.389" fill="none" stroke="#147391" stroke-width="1"/>
    <line id="line116" x1="9.273" y1="36.933" x2="28.667" y2="36.933" fill="none" stroke="#147391" stroke-width="1"/>
    <path id="path57" d="M20.4,47.5a5.179,5.179,0,0,1-3.5-1.4,5,5,0,0,1-1.4-3.5,4.762,4.762,0,0,1,1.4-3.4l13.7-12c.1,0,.1-.1.1-.2-.3-1.4-1-6.3,1.6-8.9a8.767,8.767,0,0,1,6.3-2.6,4.869,4.869,0,0,1,1.2.1c.2,0,.3.2.4.3a.44.44,0,0,1-.1.5L36.5,20a.1.1,0,0,1-.1.1l-.8,3.8c0,.1,0,.1.1.2l3.2,3.2.1.1,3.8-.8a.1.1,0,0,0,.1-.1l3.6-3.6c.1-.1.2-.1.4-.1h.2c.2.1.3.2.3.4a9.22,9.22,0,0,1-2.5,7.6,7.975,7.975,0,0,1-5.7,1.9,19.273,19.273,0,0,1-3.3-.3h0c-.1,0-.1,0-.2.1L23.9,46A4.852,4.852,0,0,1,20.4,47.5Zm.8-7.2a2.1,2.1,0,0,0-1.1.4,1.45,1.45,0,0,0,0,2.1,1.5,1.5,0,0,0,1.1.4,2.1,2.1,0,0,0,1.1-.4,1.45,1.45,0,0,0,0-2.1A2.46,2.46,0,0,0,21.2,40.3Z" fill="url(#linear-gradient-9)"/>
    <path id="path59-0" d="M38.6,16a4.869,4.869,0,0,1,1.2.1l-3.6,3.6c-.1,0-.2.2-.2.3l-.8,3.8c0,.2,0,.5.2.6l3.2,3.2a.764.764,0,0,0,.5.2h.1L43,27a.758.758,0,0,0,.4-.2L47,23.2a8.146,8.146,0,0,1-2.4,7.1,7.238,7.238,0,0,1-5.3,1.8,18.164,18.164,0,0,1-3.2-.3H36a.764.764,0,0,0-.5.2l-12,13.7A4.572,4.572,0,0,1,20.4,47a4.384,4.384,0,0,1-3.1-7.5L31,27.6a.618.618,0,0,0,.2-.7c-.3-1.4-1-6,1.4-8.5a8.732,8.732,0,0,1,6-2.4M21.2,43.8a1.974,1.974,0,0,0,1.4-.6h0a1.933,1.933,0,0,0,0-2.8,1.933,1.933,0,0,0-2.8,0h0a1.933,1.933,0,0,0,0,2.8,1.816,1.816,0,0,0,1.4.6M38.6,15a9.465,9.465,0,0,0-6.7,2.8c-2.7,2.7-2.1,7.5-1.7,9.2L16.6,38.8h-.1A5.2,5.2,0,0,0,15,42.6a5.374,5.374,0,0,0,9.2,3.8h0L36,32.8a18.164,18.164,0,0,0,3.2.3c2.6,0,4.7-.7,6-2.1a9.546,9.546,0,0,0,2.7-8,.969.969,0,0,0-.7-.8c-.1,0-.2-.1-.3-.1a.908.908,0,0,0-.7.3l-3.5,3.5-3.5.7-3-3,.7-3.5,3.5-3.5a.8.8,0,0,0,.2-1,.969.969,0,0,0-.8-.7A4.869,4.869,0,0,1,38.6,15ZM21.2,42.8a.908.908,0,0,1-.7-.3.967.967,0,0,1,0-1.4.967.967,0,0,1,1.4,0,.967.967,0,0,1,0,1.4A1.08,1.08,0,0,1,21.2,42.8Z" fill="#464646"/>
  </g>
</svg>
