<svg id="Layer_1" data-name="Layer 1" xmlns="http://www.w3.org/2000/svg" xmlns:xlink="http://www.w3.org/1999/xlink" viewBox="0 0 48 48">
  <defs>
    <linearGradient id="linear-gradient" x1="-370.516" y1="1460.963" x2="-407.115" y2="1450.721" gradientTransform="translate(-360 1465) rotate(180)" gradientUnits="userSpaceOnUse">
      <stop offset="0" stop-color="#73b4c8"/>
      <stop offset="1" stop-color="#177492"/>
    </linearGradient>
    <linearGradient id="linear-gradient-2" x1="-361.081" y1="1460.081" x2="-391.081" y2="1430.081" gradientTransform="translate(-360 1465) rotate(180)" gradientUnits="userSpaceOnUse">
      <stop offset="0" stop-color="#fff"/>
      <stop offset="0.232" stop-color="#fafafa"/>
      <stop offset="0.496" stop-color="#ededed"/>
      <stop offset="0.775" stop-color="#d6d6d6"/>
      <stop offset="1" stop-color="#bebebe"/>
    </linearGradient>
    <linearGradient id="linear-gradient-3" x1="29.156" y1="750.045" x2="32.885" y2="753.998" gradientTransform="translate(0 -744)" gradientUnits="userSpaceOnUse">
      <stop offset="0" stop-color="#fff"/>
      <stop offset="1" stop-color="#bebdbd"/>
    </linearGradient>
    <linearGradient id="linear-gradient-4" x1="35.009" y1="749.937" x2="38.922" y2="753.991" xlink:href="#linear-gradient-3"/>
    <linearGradient id="linear-gradient-5" x1="41.124" y1="750.119" x2="44.816" y2="753.821" xlink:href="#linear-gradient-3"/>
    <linearGradient id="linear-gradient-6" x1="155.382" y1="952.64" x2="195.632" y2="992.89" gradientTransform="translate(-90.74 -598.899) scale(0.644)" gradientUnits="userSpaceOnUse">
      <stop offset="0" stop-color="#afd7e1"/>
      <stop offset="1" stop-color="#73b4c8"/>
    </linearGradient>
    <linearGradient id="linear-gradient-7" x1="168.952" y1="959.324" x2="182.623" y2="972.994" gradientTransform="translate(-90.74 -598.899) scale(0.644)" gradientUnits="userSpaceOnUse">
      <stop offset="0" stop-color="#73b4c8"/>
      <stop offset="1" stop-color="#177491"/>
    </linearGradient>
    <linearGradient id="linear-gradient-8" x1="175.485" y1="-187.071" x2="203.002" y2="-202.793" gradientTransform="matrix(0.644, 0, 0, -0.644, -90.74, -87.738)" gradientUnits="userSpaceOnUse">
      <stop offset="0" stop-color="#73b4c8"/>
      <stop offset="0.175" stop-color="#6aaec3"/>
      <stop offset="0.457" stop-color="#529eb5"/>
      <stop offset="0.809" stop-color="#2c839f"/>
      <stop offset="1" stop-color="#147391"/>
    </linearGradient>
  </defs>
  <g id="g916">
    <rect id="rect49" x="0.644" y="4.454" width="47" height="6.794" fill="url(#linear-gradient)"/>
    <rect id="rect51" x="0.5" y="11.177" width="47" height="33.323" fill="url(#linear-gradient-2)"/>
    <line id="line67" x1="0.356" y1="11.5" x2="47.356" y2="11.5" fill="none" stroke="#6e6e6e" stroke-miterlimit="10"/>
    <rect id="rect69" x="0.536" y="4.49" width="47" height="39.938" fill="none" stroke="#464646" stroke-miterlimit="10"/>
    <rect id="rect65" x="29.5" y="6.5" width="3" height="3" stroke="#6e6e6e" fill="url(#linear-gradient-3)"/>
    <rect id="rect65-8" x="35.5" y="6.5" width="3" height="3" stroke="#6e6e6e" fill="url(#linear-gradient-4)"/>
    <rect id="rect65-4" x="41.5" y="6.5" width="3" height="3" stroke="#6e6e6e" fill="url(#linear-gradient-5)"/>
    <g id="g863">
      <g id="g28">
        <g id="g18">
          <path id="path14" d="M34.143,41.364l.059-16.68V24.6h5.091a42.916,42.916,0,0,1-3.686-5A13.891,13.891,0,0,1,34.2,13.419V13.36H10.323V41.365h23.82" fill="url(#linear-gradient-6)"/>
          <path id="path16" d="M34.143,41.685H10.323A.321.321,0,0,1,10,41.364V13.375a.322.322,0,0,1,.353-.337H34.2a.322.322,0,0,1,.321.322c0,.443.048,3.884,1.359,6.067a42.761,42.761,0,0,0,3.654,4.957.323.323,0,0,1-.243.533H34.524l-.059,16.448A.321.321,0,0,1,34.143,41.685Zm-23.5-.643H33.821L33.879,24.6a.322.322,0,0,1,.322-.322h4.4a40.832,40.832,0,0,1-3.273-4.516,13.635,13.635,0,0,1-1.444-6.077H10.645Z" fill="#464646"/>
        </g>
        <path id="path20" d="M22.175,24.92a10.638,10.638,0,0,1-9.239-5.837c-2.484-4.792-2.837-5.463-2.886-5.555l-.012-.023a.322.322,0,0,1,.133-.436h.006c.184-.094.25-.129.425.152l.011-.005a.245.245,0,0,1,.023.064c.093.157.214.39.392.73.381.732,1.106,2.125,2.48,4.778a9.949,9.949,0,0,0,8.741,5.489H34.2a.322.322,0,1,1,0,.643H22.175Z" fill="#464646"/>
        <g id="g26">
          <path id="path22" d="M29.725,24.6c-1.975-.394-5.794-4.348-5.794-4.348l-8.8,1.34s3.186,2.982,6.539,3.008S29.725,24.6,29.725,24.6Z" fill="url(#linear-gradient-7)"/>
          <path id="path24" d="M25.24,24.932c-1.195,0-2.461,0-3.573-.012-3.439-.026-6.622-2.968-6.756-3.1a.322.322,0,0,1,.172-.554l8.8-1.339a.321.321,0,0,1,.28.094c.038.039,3.771,3.886,5.625,4.255a.322.322,0,0,1-.06.638C29.7,24.921,27.61,24.932,25.24,24.932ZM15.881,21.8c1.023.814,3.384,2.457,5.794,2.474,2.152.017,4.886.013,6.549.007A27.607,27.607,0,0,1,23.819,20.6Z" fill="#464646"/>
        </g>
      </g>
      <g id="g34">
        <path id="rect30" d="M15.286,17.542H32.829a.644.644,0,0,1,.643.644v.644a.644.644,0,0,1-.643.644H15.286a.644.644,0,0,1-.644-.644v-.644A.644.644,0,0,1,15.286,17.542Z" fill="#fff"/>
        <path id="path32" d="M30.237,21.184H26.656a10.634,10.634,0,0,0,1.01,1.08,7.94,7.94,0,0,0,1.107.851h1.464a.644.644,0,0,0,.644-.644v-.644A.643.643,0,0,0,30.237,21.184Z" fill="#fff"/>
      </g>
      <path id="rect45" d="M21.358,32.378H40.027v10.3H21.358Z" stroke="#464646" stroke-miterlimit="6.438" stroke-width="0.644" fill="url(#linear-gradient-8)"/>
      <g id="text870-9">
        <g id="text903">
          <path id="path839" d="M26.457,41.168H22.262v-7.21H26.3v1.321H23.838v1.6h2.288V38.2H23.838v1.648h2.619Z" fill="#fff"/>
          <path id="path841" d="M33.459,41.168h-1.81l-1.088-1.856q-.123-.21-.235-.377a1.874,1.874,0,0,0-.229-.281.772.772,0,0,0-.239-.181.544.544,0,0,0-.268-.064h-.425V41.17H27.59V33.959h2.5q2.547,0,2.547,1.962a2.076,2.076,0,0,1-.112.7,1.96,1.96,0,0,1-.317.573,2.006,2.006,0,0,1-.5.443,2.448,2.448,0,0,1-.644.292v.02a.935.935,0,0,1,.3.166,2.056,2.056,0,0,1,.283.261,3.368,3.368,0,0,1,.258.327c.086.114.162.227.229.337Zm-4.294-5.994V37.18h.683a1.112,1.112,0,0,0,.815-.3,1.019,1.019,0,0,0,.312-.759q0-.945-1.1-.945Z" fill="#fff"/>
          <path id="path843" d="M35.683,38.684v2.484H34.107v-7.21h2.469q2.645,0,2.645,2.3a2.24,2.24,0,0,1-.764,1.759,2.945,2.945,0,0,1-2.025.669Zm0-3.48v2.248h.62q1.259,0,1.259-1.137,0-1.111-1.259-1.111Z" fill="#fff"/>
        </g>
      </g>
    </g>
  </g>
</svg>
