<svg id="Image" xmlns="http://www.w3.org/2000/svg" xmlns:xlink="http://www.w3.org/1999/xlink" viewBox="0 0 48 48">
  <defs>
    <linearGradient id="linear-gradient" x1="0.71" y1="45.846" x2="45.072" y2="7.092" gradientTransform="matrix(1, 0, 0, -1, 0, 52)" gradientUnits="userSpaceOnUse">
      <stop offset="0" stop-color="#fff"/>
      <stop offset="0.221" stop-color="#fbfbfc"/>
      <stop offset="0.541" stop-color="#ececec"/>
      <stop offset="0.92" stop-color="#d0cecd"/>
      <stop offset="1" stop-color="#c9c6c5"/>
    </linearGradient>
    <linearGradient id="linear-gradient-2" x1="104.199" y1="893.415" x2="132.189" y2="921.405" gradientTransform="translate(-67.004 -639.414) scale(0.74)" gradientUnits="userSpaceOnUse">
      <stop offset="0" stop-color="#73b4c8"/>
      <stop offset="0.175" stop-color="#6aaec3"/>
      <stop offset="0.457" stop-color="#529eb5"/>
      <stop offset="0.809" stop-color="#2c839f"/>
      <stop offset="1" stop-color="#147391"/>
    </linearGradient>
    <linearGradient id="linear-gradient-3" x1="-86.561" y1="984.733" x2="-81.385" y2="1002.264" gradientTransform="matrix(0.691, -0.368, 0.355, 0.72, -262.907, -716.312)" xlink:href="#linear-gradient-2"/>
  </defs>
  <g id="g873">
    <path id="path35" d="M1.5,43h45V10h-27L16.094,4.891A2,2,0,0,0,14.43,4H3.5a2,2,0,0,0-2,2Z" fill="url(#linear-gradient)"/>
    <path id="path37" d="M47,43.5H1V6A2.5,2.5,0,0,1,3.5,3.5H14.43a2.493,2.493,0,0,1,2.08,1.114L19.768,9.5H47Zm-45-1H46v-32H19.232L15.678,5.168A1.5,1.5,0,0,0,14.43,4.5H3.5A1.5,1.5,0,0,0,2,6Z" fill="#4e4a48"/>
    <path id="rect969-0" d="M23.2,29.619V28.14H37.987v1.479Z" fill="#969696"/>
    <path id="rect969" d="M29.852,20.005h1.479V37.754H29.852Z" fill="#969696"/>
    <path id="path4" d="M19.276,12a5.963,5.963,0,0,0-6.2,5.373l-.322,3H10.7v4.437h1.378L10.964,31.86c-.316,2.093-.937,3.152-1.849,3.152a2.012,2.012,0,0,1-1.006-.231L7,34.142v4.722l.566.157.106.025.661.161a4.055,4.055,0,0,0,.962.119,5.627,5.627,0,0,0,4.348-1.915,9.41,9.41,0,0,0,2.123-5.041l1.181-7.558h2.625V20.375H17.62l.307-2.6a1.8,1.8,0,0,1,.533-1.1,1.439,1.439,0,0,1,1-.36,2.866,2.866,0,0,1,.833.132,4.093,4.093,0,0,1,.46.172l1.041.465V12.434l-.526-.159A6.888,6.888,0,0,0,19.276,12Z" fill="#464646"/>
    <path id="path17" d="M21.051,12.98a6.086,6.086,0,0,0-1.775-.239,5.227,5.227,0,0,0-5.466,4.734l-.392,3.64H11.437v2.958h1.505l-1.247,7.9q-.572,3.776-2.578,3.776a2.709,2.709,0,0,1-1.377-.33V38.3c.249.059.507.122.771.187a3.306,3.306,0,0,0,.787.1,4.9,4.9,0,0,0,3.8-1.67,8.659,8.659,0,0,0,1.941-4.653l1.277-8.187h2.514V21.115H16.789l.4-3.43a2.541,2.541,0,0,1,.78-1.573,2.172,2.172,0,0,1,1.483-.544,3.626,3.626,0,0,1,1.049.165,4.739,4.739,0,0,1,.545.2Z" fill="url(#linear-gradient-2)"/>
    <path id="path841" d="M26.74,40.343H24.167a18.383,18.383,0,0,1-3.091-5.119,16.833,16.833,0,0,1-1.1-6.252,16.831,16.831,0,0,1,1.1-6.251A18.369,18.369,0,0,1,24.167,17.6H26.74v.115A14.675,14.675,0,0,0,25,19.67a15.639,15.639,0,0,0-1.528,2.566,16.773,16.773,0,0,0-1.1,3.131,16.111,16.111,0,0,0-.011,7.222,17.188,17.188,0,0,0,1.11,3.12,14.494,14.494,0,0,0,1.542,2.563,14.335,14.335,0,0,0,1.731,1.953Z" fill="#464646"/>
    <path id="path863" d="M23.935,39.311a16.392,16.392,0,0,1-3.18-7,18.084,18.084,0,0,1,.721-9.259A19.148,19.148,0,0,1,23.917,18.6l.391-.51h.968c.655,0,.282.018.282.041a5.378,5.378,0,0,1-.621.789,14.573,14.573,0,0,0-3.285,7.493,19.6,19.6,0,0,0-.136,4.207,14.675,14.675,0,0,0,1.31,4.875,13.33,13.33,0,0,0,2.286,3.694l.673.685H24.359Z" fill="#5ba4ba"/>
    <path id="path838" d="M34.233,40.343h2.574a18.357,18.357,0,0,0,3.09-5.119A16.833,16.833,0,0,0,41,28.972a16.831,16.831,0,0,0-1.1-6.251,18.342,18.342,0,0,0-3.09-5.119H34.233v.115a14.544,14.544,0,0,1,1.742,1.953A15.715,15.715,0,0,1,37.5,22.236a16.867,16.867,0,0,1,1.1,3.131,16.111,16.111,0,0,1,.011,7.222,17.261,17.261,0,0,1-1.109,3.12,14.681,14.681,0,0,1-1.543,2.563,14.268,14.268,0,0,1-1.731,1.953Z" fill="#464646"/>
    <path id="path863-1" d="M37.038,39.311a16.392,16.392,0,0,0,3.18-7,18.084,18.084,0,0,0-.721-9.259A19.148,19.148,0,0,0,37.056,18.6l-.391-.51H35.7c-.655,0-.282.018-.282.041a5.318,5.318,0,0,0,.622.789,14.572,14.572,0,0,1,3.284,7.493,19.657,19.657,0,0,1,.145,4.206,14.659,14.659,0,0,1-1.312,4.876,13.33,13.33,0,0,1-2.286,3.694l-.673.685h1.422Z" fill="#5ba4ba"/>
    <path id="path967-7-8" d="M36.1,32.356l-5.514,3.3-5.509-3.328.005-6.625,5.514-3.3L36.1,25.724Z" stroke="#464646" stroke-linecap="round" stroke-width="0.804" fill="url(#linear-gradient-3)"/>
  </g>
</svg>
