<svg id="Image" xmlns="http://www.w3.org/2000/svg" xmlns:xlink="http://www.w3.org/1999/xlink" viewBox="0 0 48 48">
  <defs>
    <linearGradient id="linear-gradient" x1="6.992" y1="750.992" x2="33.508" y2="777.508" gradientTransform="translate(0 -744)" gradientUnits="userSpaceOnUse">
      <stop offset="0" stop-color="#a0d1db"/>
      <stop offset="1" stop-color="#6ab1c3"/>
    </linearGradient>
    <linearGradient id="linear-gradient-2" x1="10.307" y1="754.307" x2="30.193" y2="774.193" gradientTransform="translate(0 -744)" gradientUnits="userSpaceOnUse">
      <stop offset="0" stop-color="#fff"/>
      <stop offset="1" stop-color="#b1b4b4"/>
    </linearGradient>
    <linearGradient id="linear-gradient-3" x1="150.047" y1="-144.975" x2="175.503" y2="-170.431" gradientTransform="matrix(0.667, 0, 0, -0.667, -73.075, -69.692)" gradientUnits="userSpaceOnUse">
      <stop offset="0" stop-color="#73b4c8"/>
      <stop offset="0.175" stop-color="#6aaec3"/>
      <stop offset="0.457" stop-color="#529eb5"/>
      <stop offset="0.809" stop-color="#2c839f"/>
      <stop offset="1" stop-color="#147391"/>
    </linearGradient>
  </defs>
  <g id="g903">
    <g id="g31">
      <path id="circle27" d="M39,20.25A18.75,18.75,0,1,1,20.25,1.5,18.75,18.75,0,0,1,39,20.25Z" fill="url(#linear-gradient)"/>
      <path id="path29" d="M20.25,39.5A19.25,19.25,0,1,1,39.5,20.25,19.251,19.251,0,0,1,20.25,39.5Zm0-37.5A18.25,18.25,0,1,0,38.5,20.25,18.25,18.25,0,0,0,20.25,2Z" fill="#3f4143"/>
    </g>
    <g id="g37">
      <path id="circle33" d="M34.312,20.25A14.062,14.062,0,1,1,20.25,6.188h0A14.062,14.062,0,0,1,34.312,20.25Z" fill="url(#linear-gradient-2)"/>
      <path id="path35" d="M20.25,34.813A14.563,14.563,0,1,1,34.813,20.25h0A14.58,14.58,0,0,1,20.25,34.813Zm0-28.125A13.563,13.563,0,1,0,33.813,20.251h0A13.578,13.578,0,0,0,20.25,6.688Z" fill="#3f4143"/>
    </g>
    <path id="circle26" d="M47.506,35.5A12.006,12.006,0,0,1,35.5,47.506h0A12.006,12.006,0,0,1,23.494,35.5h0a12.006,12.006,0,0,1,24.012,0Z" stroke="#464646" stroke-miterlimit="10" stroke-width="0.987" fill="url(#linear-gradient-3)"/>
    <path id="circle28" d="M42.837,35.5A7.337,7.337,0,1,1,35.5,28.163,7.337,7.337,0,0,1,42.837,35.5Z" fill="none" stroke="#fff" stroke-linecap="square" stroke-linejoin="round" stroke-width="0.987"/>
    <path id="line30" d="M35.5,25.5v8" fill="none" stroke="#fff" stroke-linejoin="round"/>
    <path id="line32" d="M35.5,37.5v8" fill="none" stroke="#fff" stroke-linejoin="round"/>
    <path id="line34" d="M37.5,35.489h8" fill="none" stroke="#fff" stroke-linejoin="round"/>
    <path id="line36" d="M25.5,35.5h8" fill="none" stroke="#fff" stroke-linejoin="round"/>
  </g>
</svg>
