<svg id="svg68" xmlns="http://www.w3.org/2000/svg" xmlns:xlink="http://www.w3.org/1999/xlink" viewBox="0 0 48 48">
  <defs>
    <linearGradient id="linear-gradient" x1="4.997" y1="42.997" x2="43.997" y2="3.997" gradientTransform="matrix(1, 0, 0, -1, 0, 48)" gradientUnits="userSpaceOnUse">
      <stop offset="0" stop-color="#fff"/>
      <stop offset="1" stop-color="#dcdcdc"/>
    </linearGradient>
  </defs>
  <g id="g895">
    <g id="g13">
      <path id="rect9" d="M.632,5.389l46.736.253V42.621L.632,42.369Z" fill="url(#linear-gradient)"/>
      <path id="path11" d="M46.737,6.089V42.167L1.263,41.921V5.844l45.474.245M48,5.194,0,4.935V42.816l48,.26Z" fill="#6f6e6e"/>
    </g>
    <g id="g19">
      <path id="line15" d="M4.9,13.565H25.1" fill="none" stroke="#177491" stroke-miterlimit="10" stroke-width="0.787"/>
      <path id="line17" d="M4.9,17.266H18.67" fill="none" stroke="#177491" stroke-miterlimit="10" stroke-width="0.787"/>
    </g>
    <g id="g25">
      <path id="path21" d="M33.476,16.262,31,13l-2.5,2.3,4.948,6.753L42.1,10.207l-2.47-2.244" fill="#0e7191"/>
      <path id="polygon23" d="M29.823,15.238l.908-.747,2.8,3.779,6.2-8.423.9.758-7.1,9.672Z" fill="#3b90b2"/>
    </g>
    <path id="rect956" d="M5,30v7h7V30Zm1,1h5v5H6Z" fill="#0e7191"/>
    <path id="path974" d="M7,32l3,3" fill="none" stroke="#0e7191"/>
    <path id="path974-6" d="M10,31.9l-3,3" fill="none" stroke="#177491"/>
    <path id="rect956-7" d="M25,30v7h7V30Zm1,1h5v5H26Z" fill="#177491"/>
    <path id="rect1006" d="M15,30h7v7H15Z" fill="#177491"/>
    <path id="rect1026" d="M25.56,30.643h2.947V33.5H25.56Z" fill="#0e7191"/>
    <path id="rect1026-5" d="M28.5,33.494h2.745v2.632H28.5Z" fill="#0e7191"/>
    <path id="rect956-7-4" d="M35,30v7h7V30Zm1,1h5v5H36Z" fill="#177491"/>
    <path id="rect1026-1" d="M36,31h1v1H36Z" fill="#177491"/>
    <path id="rect1026-1-3" d="M38,31h1v1H38Z" fill="#177491"/>
    <path id="rect1026-1-2" d="M40,31h1v1H40Z" fill="#177491"/>
    <path id="rect1026-1-1" d="M37,32h1v1H37Z" fill="#177491"/>
    <path id="rect1026-1-3-6" d="M39,32h1v1H39Z" fill="#177491"/>
    <path id="rect1026-1-8" d="M36,33h1v1H36Z" fill="#177491"/>
    <path id="rect1026-1-3-7" d="M38,33h1v1H38Z" fill="#177491"/>
    <path id="rect1026-1-2-5" d="M40,33h1v1H40Z" fill="#177491"/>
    <path id="rect1026-1-1-8" d="M37,34h1v1H37Z" fill="#177491"/>
    <path id="rect1026-1-3-6-3" d="M39,34h1v1H39Z" fill="#177491"/>
    <path id="rect1026-1-36" d="M36,35h1v1H36Z" fill="#177491"/>
    <path id="rect1026-1-3-61" d="M38,35h1v1H38Z" fill="#177491"/>
    <path id="rect1026-1-2-3" d="M40,35h1v1H40Z" fill="#177491"/>
  </g>
</svg>
